[
  [
    {
      "absoluteTicks": 0,
      "channel": 15,
      "type": "meta",
      "metaType": 3,
      "subType": "trackName",
      "text": "Piano",
      "time": 0.0
    },
    {
      "absoluteTicks": 0,
      "channel": 13,
      "type": "noteOn",
      "note": 50,
      "velocity": 49,
      "vel": 0.385827,
      "time": 0.0,
      "name": "D3",
      "svgX": 497.25,
      "svgY": 935.93
    },
    {
      "absoluteTicks": 454,
      "channel": 13,
      "type": "noteOff",
      "note": 50,
      "velocity": 49,
      "rel": 0.385827,
      "time": 0.28374972613795735,
      "name": "D3"
    },
    {
      "absoluteTicks": 480,
      "channel": 13,
      "type": "noteOn",
      "note": 57,
      "velocity": 49,
      "vel": 0.385827,
      "time": 0.29999949900083667,
      "name": "A3",
      "svgX": 674.12,
      "svgY": 864.04
    },
    {
      "absoluteTicks": 934,
      "channel": 13,
      "type": "noteOff",
      "note": 57,
      "velocity": 49,
      "rel": 0.385827,
      "time": 0.583749225138794,
      "name": "A3"
    },
    {
      "absoluteTicks": 960,
      "channel": 13,
      "type": "noteOn",
      "note": 62,
      "velocity": 49,
      "vel": 0.385827,
      "time": 0.5999989980016733,
      "name": "D4",
      "svgX": 850.98,
      "svgY": 812.69
    },
    {
      "absoluteTicks": 1414,
      "channel": 13,
      "type": "noteOff",
      "note": 62,
      "velocity": 49,
      "rel": 0.385827,
      "time": 0.8837487241396307,
      "name": "D4"
    },
    {
      "absoluteTicks": 1440,
      "channel": 13,
      "type": "noteOn",
      "note": 66,
      "velocity": 49,
      "vel": 0.385827,
      "time": 0.89999849700251,
      "name": "F#4",
      "svgX": 1027.85,
      "svgY": 771.6
    },
    {
      "absoluteTicks": 1894,
      "channel": 13,
      "type": "noteOff",
      "note": 66,
      "velocity": 49,
      "rel": 0.385827,
      "time": 1.1837482231404675,
      "name": "F#4"
    },
    {
      "absoluteTicks": 1920,
      "channel": 13,
      "type": "noteOn",
      "note": 45,
      "velocity": 49,
      "vel": 0.385827,
      "time": 1.1999979960033467,
      "name": "A2",
      "svgX": 1204.72,
      "svgY": 987.28
    },
    {
      "absoluteTicks": 2374,
      "channel": 13,
      "type": "noteOff",
      "note": 45,
      "velocity": 49,
      "rel": 0.385827,
      "time": 1.4837477221413038,
      "name": "A2"
    },
    {
      "absoluteTicks": 2400,
      "channel": 13,
      "type": "noteOn",
      "note": 52,
      "velocity": 49,
      "vel": 0.385827,
      "time": 1.4999974950041832,
      "name": "E3",
      "svgX": 1381.59,
      "svgY": 915.39
    },
    {
      "absoluteTicks": 2854,
      "channel": 13,
      "type": "noteOff",
      "note": 52,
      "velocity": 49,
      "rel": 0.385827,
      "time": 1.7837472211421403,
      "name": "E3"
    },
    {
      "absoluteTicks": 2880,
      "channel": 13,
      "type": "noteOn",
      "note": 57,
      "velocity": 49,
      "vel": 0.385827,
      "time": 1.79999699400502,
      "name": "A3",
      "svgX": 1558.45,
      "svgY": 864.04
    },
    {
      "absoluteTicks": 3334,
      "channel": 13,
      "type": "noteOff",
      "note": 57,
      "velocity": 49,
      "rel": 0.385827,
      "time": 2.083746720142977,
      "name": "A3"
    },
    {
      "absoluteTicks": 3360,
      "channel": 13,
      "type": "noteOn",
      "note": 61,
      "velocity": 49,
      "vel": 0.385827,
      "time": 2.0999964930058566,
      "name": "C#4",
      "svgX": 1735.32,
      "svgY": 822.96
    },
    {
      "absoluteTicks": 3814,
      "channel": 13,
      "type": "noteOff",
      "note": 61,
      "velocity": 49,
      "rel": 0.385827,
      "time": 2.3837462191438137,
      "name": "C#4"
    },
    {
      "absoluteTicks": 3840,
      "channel": 13,
      "type": "noteOn",
      "note": 47,
      "velocity": 49,
      "vel": 0.385827,
      "time": 2.3999959920066933,
      "name": "B2",
      "svgX": 1912.19,
      "svgY": 966.74
    },
    {
      "absoluteTicks": 4294,
      "channel": 13,
      "type": "noteOff",
      "note": 47,
      "velocity": 49,
      "rel": 0.385827,
      "time": 2.6837457181446505,
      "name": "B2"
    },
    {
      "absoluteTicks": 4320,
      "channel": 13,
      "type": "noteOn",
      "note": 54,
      "velocity": 49,
      "vel": 0.385827,
      "time": 2.6999954910075297,
      "name": "F#3",
      "svgX": 2089.05,
      "svgY": 894.85
    },
    {
      "absoluteTicks": 4774,
      "channel": 13,
      "type": "noteOff",
      "note": 54,
      "velocity": 49,
      "rel": 0.385827,
      "time": 2.9837452171454872,
      "name": "F#3"
    },
    {
      "absoluteTicks": 4800,
      "channel": 13,
      "type": "noteOn",
      "note": 59,
      "velocity": 49,
      "vel": 0.385827,
      "time": 2.9999949900083664,
      "name": "B3",
      "svgX": 2265.92,
      "svgY": 843.5
    },
    {
      "absoluteTicks": 5254,
      "channel": 13,
      "type": "noteOff",
      "note": 59,
      "velocity": 49,
      "rel": 0.385827,
      "time": 3.283744716146324,
      "name": "B3"
    },
    {
      "absoluteTicks": 5280,
      "channel": 13,
      "type": "noteOn",
      "note": 62,
      "velocity": 49,
      "vel": 0.385827,
      "time": 3.2999944890092032,
      "name": "D4",
      "svgX": 2442.79,
      "svgY": 812.69
    },
    {
      "absoluteTicks": 5734,
      "channel": 13,
      "type": "noteOff",
      "note": 62,
      "velocity": 49,
      "rel": 0.385827,
      "time": 3.583744215147161,
      "name": "D4"
    },
    {
      "absoluteTicks": 5760,
      "channel": 13,
      "type": "noteOn",
      "note": 42,
      "velocity": 49,
      "vel": 0.385827,
      "time": 3.59999398801004,
      "name": "F#2",
      "svgX": 2619.66,
      "svgY": 1018.09
    },
    {
      "absoluteTicks": 6214,
      "channel": 13,
      "type": "noteOff",
      "note": 42,
      "velocity": 49,
      "rel": 0.385827,
      "time": 3.883743714147997,
      "name": "F#2"
    },
    {
      "absoluteTicks": 6240,
      "channel": 13,
      "type": "noteOn",
      "note": 49,
      "velocity": 49,
      "vel": 0.385827,
      "time": 3.8999934870108763,
      "name": "C#3",
      "svgX": 2796.52,
      "svgY": 946.2
    },
    {
      "absoluteTicks": 6694,
      "channel": 13,
      "type": "noteOff",
      "note": 49,
      "velocity": 49,
      "rel": 0.385827,
      "time": 4.183743213148834,
      "name": "C#3"
    },
    {
      "absoluteTicks": 6720,
      "channel": 13,
      "type": "noteOn",
      "note": 54,
      "velocity": 49,
      "vel": 0.385827,
      "time": 4.199992986011713,
      "name": "F#3",
      "svgX": 2973.39,
      "svgY": 894.85
    },
    {
      "absoluteTicks": 7174,
      "channel": 13,
      "type": "noteOff",
      "note": 54,
      "velocity": 49,
      "rel": 0.385827,
      "time": 4.48374271214967,
      "name": "F#3"
    },
    {
      "absoluteTicks": 7200,
      "channel": 13,
      "type": "noteOn",
      "note": 57,
      "velocity": 49,
      "vel": 0.385827,
      "time": 4.49999248501255,
      "name": "A3",
      "svgX": 3150.26,
      "svgY": 864.04
    },
    {
      "absoluteTicks": 7654,
      "channel": 13,
      "type": "noteOff",
      "note": 57,
      "velocity": 49,
      "rel": 0.385827,
      "time": 4.783742211150507,
      "name": "A3"
    },
    {
      "absoluteTicks": 7680,
      "channel": 13,
      "type": "noteOn",
      "note": 43,
      "velocity": 49,
      "vel": 0.385827,
      "time": 4.799991984013387,
      "name": "G2",
      "svgX": 3327.13,
      "svgY": 1007.82
    },
    {
      "absoluteTicks": 8134,
      "channel": 13,
      "type": "noteOff",
      "note": 43,
      "velocity": 49,
      "rel": 0.385827,
      "time": 5.083741710151345,
      "name": "G2"
    },
    {
      "absoluteTicks": 8160,
      "channel": 13,
      "type": "noteOn",
      "note": 50,
      "velocity": 49,
      "vel": 0.385827,
      "time": 5.0999914830142234,
      "name": "D3",
      "svgX": 3503.99,
      "svgY": 935.93
    },
    {
      "absoluteTicks": 8614,
      "channel": 13,
      "type": "noteOff",
      "note": 50,
      "velocity": 49,
      "rel": 0.385827,
      "time": 5.3837412091521815,
      "name": "D3"
    },
    {
      "absoluteTicks": 8640,
      "channel": 13,
      "type": "noteOn",
      "note": 55,
      "velocity": 49,
      "vel": 0.385827,
      "time": 5.399990982015059,
      "name": "G3",
      "svgX": 3680.86,
      "svgY": 884.58
    },
    {
      "absoluteTicks": 9094,
      "channel": 13,
      "type": "noteOff",
      "note": 55,
      "velocity": 49,
      "rel": 0.385827,
      "time": 5.683740708153017,
      "name": "G3"
    },
    {
      "absoluteTicks": 9120,
      "channel": 13,
      "type": "noteOn",
      "note": 59,
      "velocity": 49,
      "vel": 0.385827,
      "time": 5.699990481015896,
      "name": "B3",
      "svgX": 3857.73,
      "svgY": 843.5
    },
    {
      "absoluteTicks": 9574,
      "channel": 13,
      "type": "noteOff",
      "note": 59,
      "velocity": 49,
      "rel": 0.385827,
      "time": 5.983740207153854,
      "name": "B3"
    },
    {
      "absoluteTicks": 9600,
      "channel": 13,
      "type": "noteOn",
      "note": 38,
      "velocity": 49,
      "vel": 0.385827,
      "time": 5.999989980016733,
      "name": "D2",
      "svgX": 4034.6,
      "svgY": 1059.17
    },
    {
      "absoluteTicks": 10054,
      "channel": 13,
      "type": "noteOff",
      "note": 38,
      "velocity": 49,
      "rel": 0.385827,
      "time": 6.283739706154691,
      "name": "D2"
    },
    {
      "absoluteTicks": 10080,
      "channel": 13,
      "type": "noteOn",
      "note": 45,
      "velocity": 49,
      "vel": 0.385827,
      "time": 6.29998947901757,
      "name": "A2",
      "svgX": 4211.46,
      "svgY": 987.28
    },
    {
      "absoluteTicks": 10534,
      "channel": 13,
      "type": "noteOff",
      "note": 45,
      "velocity": 49,
      "rel": 0.385827,
      "time": 6.583739205155528,
      "name": "A2"
    },
    {
      "absoluteTicks": 10560,
      "channel": 13,
      "type": "noteOn",
      "note": 50,
      "velocity": 49,
      "vel": 0.385827,
      "time": 6.5999889780184064,
      "name": "D3",
      "svgX": 4388.33,
      "svgY": 935.93
    },
    {
      "absoluteTicks": 11014,
      "channel": 13,
      "type": "noteOff",
      "note": 50,
      "velocity": 49,
      "rel": 0.385827,
      "time": 6.8837387041563645,
      "name": "D3"
    },
    {
      "absoluteTicks": 11040,
      "channel": 13,
      "type": "noteOn",
      "note": 54,
      "velocity": 49,
      "vel": 0.385827,
      "time": 6.899988477019243,
      "name": "F#3",
      "svgX": 4565.2,
      "svgY": 894.85
    },
    {
      "absoluteTicks": 11494,
      "channel": 13,
      "type": "noteOff",
      "note": 54,
      "velocity": 49,
      "rel": 0.385827,
      "time": 7.183738203157201,
      "name": "F#3"
    },
    {
      "absoluteTicks": 11520,
      "channel": 13,
      "type": "noteOn",
      "note": 43,
      "velocity": 49,
      "vel": 0.385827,
      "time": 7.19998797602008,
      "name": "G2",
      "svgX": 4742.06,
      "svgY": 1007.82
    },
    {
      "absoluteTicks": 11974,
      "channel": 13,
      "type": "noteOff",
      "note": 43,
      "velocity": 49,
      "rel": 0.385827,
      "time": 7.483737702158038,
      "name": "G2"
    },
    {
      "absoluteTicks": 12000,
      "channel": 13,
      "type": "noteOn",
      "note": 50,
      "velocity": 54,
      "vel": 0.425197,
      "time": 7.499987475020917,
      "name": "D3",
      "svgX": 4918.93,
      "svgY": 935.93
    },
    {
      "absoluteTicks": 12454,
      "channel": 13,
      "type": "noteOff",
      "note": 50,
      "velocity": 54,
      "rel": 0.425197,
      "time": 7.783737201158874,
      "name": "D3"
    },
    {
      "absoluteTicks": 12480,
      "channel": 13,
      "type": "noteOn",
      "note": 55,
      "velocity": 60,
      "vel": 0.472441,
      "time": 7.799986974021753,
      "name": "G3",
      "svgX": 5095.8,
      "svgY": 884.58
    },
    {
      "absoluteTicks": 12934,
      "channel": 13,
      "type": "noteOff",
      "note": 55,
      "velocity": 60,
      "rel": 0.472441,
      "time": 8.083736700159712,
      "name": "G3"
    },
    {
      "absoluteTicks": 12960,
      "channel": 13,
      "type": "noteOn",
      "note": 59,
      "velocity": 65,
      "vel": 0.519685,
      "time": 8.09998647302259,
      "name": "B3",
      "svgX": 5272.67,
      "svgY": 843.5
    },
    {
      "absoluteTicks": 13414,
      "channel": 13,
      "type": "noteOff",
      "note": 59,
      "velocity": 65,
      "rel": 0.519685,
      "time": 8.383736199160548,
      "name": "B3"
    },
    {
      "absoluteTicks": 13440,
      "channel": 13,
      "type": "noteOn",
      "note": 45,
      "velocity": 71,
      "vel": 0.566929,
      "time": 8.399985972023426,
      "name": "A2",
      "svgX": 5449.53,
      "svgY": 987.28
    },
    {
      "absoluteTicks": 13894,
      "channel": 13,
      "type": "noteOff",
      "note": 45,
      "velocity": 71,
      "rel": 0.566929,
      "time": 8.683735698161385,
      "name": "A2"
    },
    {
      "absoluteTicks": 13920,
      "channel": 13,
      "type": "noteOn",
      "note": 52,
      "velocity": 77,
      "vel": 0.614173,
      "time": 8.699985471024263,
      "name": "E3",
      "svgX": 5626.4,
      "svgY": 915.39
    },
    {
      "absoluteTicks": 14374,
      "channel": 13,
      "type": "noteOff",
      "note": 52,
      "velocity": 77,
      "rel": 0.614173,
      "time": 8.98373519716222,
      "name": "E3"
    },
    {
      "absoluteTicks": 14400,
      "channel": 13,
      "type": "noteOn",
      "note": 57,
      "velocity": 83,
      "vel": 0.661417,
      "time": 8.9999849700251,
      "name": "A3",
      "svgX": 5803.27,
      "svgY": 864.04
    },
    {
      "absoluteTicks": 14854,
      "channel": 13,
      "type": "noteOff",
      "note": 57,
      "velocity": 83,
      "rel": 0.661417,
      "time": 9.283734696163057,
      "name": "A3"
    },
    {
      "absoluteTicks": 14880,
      "channel": 13,
      "type": "noteOn",
      "note": 61,
      "velocity": 89,
      "vel": 0.708661,
      "time": 9.299984469025937,
      "name": "C#4",
      "svgX": 5980.14,
      "svgY": 822.96
    },
    {
      "absoluteTicks": 15334,
      "channel": 13,
      "type": "noteOff",
      "note": 61,
      "velocity": 89,
      "rel": 0.708661,
      "time": 9.583734195163894,
      "name": "C#4"
    },
    {
      "absoluteTicks": 15360,
      "channel": 13,
      "type": "noteOn",
      "note": 78,
      "velocity": 96,
      "vel": 0.755906,
      "time": 9.599983968026773,
      "name": "F#5",
      "svgX": 6157.0,
      "svgY": 648.36
    },
    {
      "absoluteTicks": 15360,
      "channel": 13,
      "type": "noteOn",
      "note": 50,
      "velocity": 96,
      "vel": 0.755906,
      "time": 9.599983968026773,
      "name": "D3",
      "svgX": 6157.0,
      "svgY": 935.93
    },
    {
      "absoluteTicks": 15814,
      "channel": 13,
      "type": "noteOff",
      "note": 50,
      "velocity": 96,
      "rel": 0.755906,
      "time": 9.88373369416473,
      "name": "D3"
    },
    {
      "absoluteTicks": 15840,
      "channel": 13,
      "type": "noteOn",
      "note": 57,
      "velocity": 83,
      "vel": 0.661417,
      "time": 9.89998346702761,
      "name": "A3",
      "svgX": 6333.87,
      "svgY": 864.04
    },
    {
      "absoluteTicks": 16294,
      "channel": 13,
      "type": "noteOff",
      "note": 57,
      "velocity": 83,
      "rel": 0.661417,
      "time": 10.183733193165567,
      "name": "A3"
    },
    {
      "absoluteTicks": 16320,
      "channel": 13,
      "type": "noteOn",
      "note": 62,
      "velocity": 79,
      "vel": 0.629921,
      "time": 10.199982966028447,
      "name": "D4",
      "svgX": 6510.74,
      "svgY": 812.69
    },
    {
      "absoluteTicks": 16774,
      "channel": 13,
      "type": "noteOff",
      "note": 62,
      "velocity": 79,
      "rel": 0.629921,
      "time": 10.483732692166402,
      "name": "D4"
    },
    {
      "absoluteTicks": 16800,
      "channel": 13,
      "type": "noteOn",
      "note": 66,
      "velocity": 79,
      "vel": 0.629921,
      "time": 10.499982465029284,
      "name": "F#4",
      "svgX": 6687.61,
      "svgY": 771.6
    },
    {
      "absoluteTicks": 17182,
      "channel": 13,
      "type": "noteOff",
      "note": 78,
      "velocity": 96,
      "rel": 0.755906,
      "time": 10.738732266317115,
      "name": "F#5"
    },
    {
      "absoluteTicks": 17254,
      "channel": 13,
      "type": "noteOff",
      "note": 66,
      "velocity": 79,
      "rel": 0.629921,
      "time": 10.783732191167239,
      "name": "F#4"
    },
    {
      "absoluteTicks": 17280,
      "channel": 13,
      "type": "noteOn",
      "note": 76,
      "velocity": 79,
      "vel": 0.629921,
      "time": 10.799981964030119,
      "name": "E5",
      "svgX": 6864.47,
      "svgY": 668.9
    },
    {
      "absoluteTicks": 17280,
      "channel": 13,
      "type": "noteOn",
      "note": 45,
      "velocity": 79,
      "vel": 0.629921,
      "time": 10.799981964030119,
      "name": "A2",
      "svgX": 6864.47,
      "svgY": 987.28
    },
    {
      "absoluteTicks": 17734,
      "channel": 13,
      "type": "noteOff",
      "note": 45,
      "velocity": 79,
      "rel": 0.629921,
      "time": 11.083731690168076,
      "name": "A2"
    },
    {
      "absoluteTicks": 17760,
      "channel": 13,
      "type": "noteOn",
      "note": 52,
      "velocity": 79,
      "vel": 0.629921,
      "time": 11.099981463030955,
      "name": "E3",
      "svgX": 7041.34,
      "svgY": 915.39
    },
    {
      "absoluteTicks": 18214,
      "channel": 13,
      "type": "noteOff",
      "note": 52,
      "velocity": 79,
      "rel": 0.629921,
      "time": 11.383731189168913,
      "name": "E3"
    },
    {
      "absoluteTicks": 18240,
      "channel": 13,
      "type": "noteOn",
      "note": 57,
      "velocity": 79,
      "vel": 0.629921,
      "time": 11.399980962031792,
      "name": "A3",
      "svgX": 7218.21,
      "svgY": 864.04
    },
    {
      "absoluteTicks": 18694,
      "channel": 13,
      "type": "noteOff",
      "note": 57,
      "velocity": 79,
      "rel": 0.629921,
      "time": 11.68373068816975,
      "name": "A3"
    },
    {
      "absoluteTicks": 18720,
      "channel": 13,
      "type": "noteOn",
      "note": 61,
      "velocity": 79,
      "vel": 0.629921,
      "time": 11.699980461032629,
      "name": "C#4",
      "svgX": 7395.07,
      "svgY": 822.96
    },
    {
      "absoluteTicks": 19102,
      "channel": 13,
      "type": "noteOff",
      "note": 76,
      "velocity": 79,
      "rel": 0.629921,
      "time": 11.93873026232046,
      "name": "E5"
    },
    {
      "absoluteTicks": 19174,
      "channel": 13,
      "type": "noteOff",
      "note": 61,
      "velocity": 79,
      "rel": 0.629921,
      "time": 11.983730187170586,
      "name": "C#4"
    },
    {
      "absoluteTicks": 19200,
      "channel": 13,
      "type": "noteOn",
      "note": 74,
      "velocity": 79,
      "vel": 0.629921,
      "time": 11.999979960033466,
      "name": "D5",
      "svgX": 7571.94,
      "svgY": 689.44
    },
    {
      "absoluteTicks": 19200,
      "channel": 13,
      "type": "noteOn",
      "note": 47,
      "velocity": 79,
      "vel": 0.629921,
      "time": 11.999979960033466,
      "name": "B2",
      "svgX": 7571.94,
      "svgY": 966.74
    },
    {
      "absoluteTicks": 19654,
      "channel": 13,
      "type": "noteOff",
      "note": 47,
      "velocity": 79,
      "rel": 0.629921,
      "time": 12.283729686171423,
      "name": "B2"
    },
    {
      "absoluteTicks": 19680,
      "channel": 13,
      "type": "noteOn",
      "note": 54,
      "velocity": 79,
      "vel": 0.629921,
      "time": 12.299979459034303,
      "name": "F#3",
      "svgX": 7748.81,
      "svgY": 894.85
    },
    {
      "absoluteTicks": 20134,
      "channel": 13,
      "type": "noteOff",
      "note": 54,
      "velocity": 79,
      "rel": 0.629921,
      "time": 12.58372918517226,
      "name": "F#3"
    },
    {
      "absoluteTicks": 20160,
      "channel": 13,
      "type": "noteOn",
      "note": 59,
      "velocity": 79,
      "vel": 0.629921,
      "time": 12.59997895803514,
      "name": "B3",
      "svgX": 7925.68,
      "svgY": 843.5
    },
    {
      "absoluteTicks": 20614,
      "channel": 13,
      "type": "noteOff",
      "note": 59,
      "velocity": 79,
      "rel": 0.629921,
      "time": 12.883728684173096,
      "name": "B3"
    },
    {
      "absoluteTicks": 20640,
      "channel": 13,
      "type": "noteOn",
      "note": 62,
      "velocity": 79,
      "vel": 0.629921,
      "time": 12.899978457035976,
      "name": "D4",
      "svgX": 8102.54,
      "svgY": 812.69
    },
    {
      "absoluteTicks": 21022,
      "channel": 13,
      "type": "noteOff",
      "note": 74,
      "velocity": 79,
      "rel": 0.629921,
      "time": 13.138728258323807,
      "name": "D5"
    },
    {
      "absoluteTicks": 21094,
      "channel": 13,
      "type": "noteOff",
      "note": 62,
      "velocity": 79,
      "rel": 0.629921,
      "time": 13.183728183173933,
      "name": "D4"
    },
    {
      "absoluteTicks": 21120,
      "channel": 13,
      "type": "noteOn",
      "note": 73,
      "velocity": 79,
      "vel": 0.629921,
      "time": 13.199977956036813,
      "name": "C#5",
      "svgX": 8279.41,
      "svgY": 699.71
    },
    {
      "absoluteTicks": 21120,
      "channel": 13,
      "type": "noteOn",
      "note": 42,
      "velocity": 79,
      "vel": 0.629921,
      "time": 13.199977956036813,
      "name": "F#2",
      "svgX": 8279.41,
      "svgY": 1018.09
    },
    {
      "absoluteTicks": 21574,
      "channel": 13,
      "type": "noteOff",
      "note": 42,
      "velocity": 79,
      "rel": 0.629921,
      "time": 13.48372768217477,
      "name": "F#2"
    },
    {
      "absoluteTicks": 21600,
      "channel": 13,
      "type": "noteOn",
      "note": 49,
      "velocity": 79,
      "vel": 0.629921,
      "time": 13.49997745503765,
      "name": "C#3",
      "svgX": 8456.28,
      "svgY": 946.2
    },
    {
      "absoluteTicks": 22054,
      "channel": 13,
      "type": "noteOff",
      "note": 49,
      "velocity": 79,
      "rel": 0.629921,
      "time": 13.783727181175607,
      "name": "C#3"
    },
    {
      "absoluteTicks": 22080,
      "channel": 13,
      "type": "noteOn",
      "note": 54,
      "velocity": 79,
      "vel": 0.629921,
      "time": 13.799976954038486,
      "name": "F#3",
      "svgX": 8633.15,
      "svgY": 894.85
    },
    {
      "absoluteTicks": 22534,
      "channel": 13,
      "type": "noteOff",
      "note": 54,
      "velocity": 79,
      "rel": 0.629921,
      "time": 14.083726680176444,
      "name": "F#3"
    },
    {
      "absoluteTicks": 22560,
      "channel": 13,
      "type": "noteOn",
      "note": 57,
      "velocity": 79,
      "vel": 0.629921,
      "time": 14.099976453039323,
      "name": "A3",
      "svgX": 8810.01,
      "svgY": 864.04
    },
    {
      "absoluteTicks": 22942,
      "channel": 13,
      "type": "noteOff",
      "note": 73,
      "velocity": 79,
      "rel": 0.629921,
      "time": 14.338726254327154,
      "name": "C#5"
    },
    {
      "absoluteTicks": 23014,
      "channel": 13,
      "type": "noteOff",
      "note": 57,
      "velocity": 79,
      "rel": 0.629921,
      "time": 14.38372617917728,
      "name": "A3"
    },
    {
      "absoluteTicks": 23040,
      "channel": 13,
      "type": "noteOn",
      "note": 71,
      "velocity": 79,
      "vel": 0.629921,
      "time": 14.39997595204016,
      "name": "B4",
      "svgX": 8986.88,
      "svgY": 720.25
    },
    {
      "absoluteTicks": 23040,
      "channel": 13,
      "type": "noteOn",
      "note": 43,
      "velocity": 79,
      "vel": 0.629921,
      "time": 14.39997595204016,
      "name": "G2",
      "svgX": 8986.88,
      "svgY": 1007.82
    },
    {
      "absoluteTicks": 23494,
      "channel": 13,
      "type": "noteOff",
      "note": 43,
      "velocity": 79,
      "rel": 0.629921,
      "time": 14.683725678178117,
      "name": "G2"
    },
    {
      "absoluteTicks": 23520,
      "channel": 13,
      "type": "noteOn",
      "note": 50,
      "velocity": 79,
      "vel": 0.629921,
      "time": 14.699975451040997,
      "name": "D3",
      "svgX": 9163.75,
      "svgY": 935.93
    },
    {
      "absoluteTicks": 23974,
      "channel": 13,
      "type": "noteOff",
      "note": 50,
      "velocity": 79,
      "rel": 0.629921,
      "time": 14.983725177178952,
      "name": "D3"
    },
    {
      "absoluteTicks": 24000,
      "channel": 13,
      "type": "noteOn",
      "note": 55,
      "velocity": 79,
      "vel": 0.629921,
      "time": 14.999974950041834,
      "name": "G3",
      "svgX": 9340.62,
      "svgY": 884.58
    },
    {
      "absoluteTicks": 24454,
      "channel": 13,
      "type": "noteOff",
      "note": 55,
      "velocity": 79,
      "rel": 0.629921,
      "time": 15.283724676179789,
      "name": "G3"
    },
    {
      "absoluteTicks": 24480,
      "channel": 13,
      "type": "noteOn",
      "note": 59,
      "velocity": 79,
      "vel": 0.629921,
      "time": 15.299974449042669,
      "name": "B3",
      "svgX": 9517.48,
      "svgY": 843.5
    },
    {
      "absoluteTicks": 24862,
      "channel": 13,
      "type": "noteOff",
      "note": 71,
      "velocity": 79,
      "rel": 0.629921,
      "time": 15.538724250330501,
      "name": "B4"
    },
    {
      "absoluteTicks": 24934,
      "channel": 13,
      "type": "noteOff",
      "note": 59,
      "velocity": 79,
      "rel": 0.629921,
      "time": 15.583724175180626,
      "name": "B3"
    },
    {
      "absoluteTicks": 24960,
      "channel": 13,
      "type": "noteOn",
      "note": 69,
      "velocity": 79,
      "vel": 0.629921,
      "time": 15.599973948043505,
      "name": "A4",
      "svgX": 9694.35,
      "svgY": 740.79
    },
    {
      "absoluteTicks": 24960,
      "channel": 13,
      "type": "noteOn",
      "note": 38,
      "velocity": 79,
      "vel": 0.629921,
      "time": 15.599973948043505,
      "name": "D2",
      "svgX": 9694.35,
      "svgY": 1059.17
    },
    {
      "absoluteTicks": 25414,
      "channel": 13,
      "type": "noteOff",
      "note": 38,
      "velocity": 79,
      "rel": 0.629921,
      "time": 15.883723674181462,
      "name": "D2"
    },
    {
      "absoluteTicks": 25440,
      "channel": 13,
      "type": "noteOn",
      "note": 45,
      "velocity": 79,
      "vel": 0.629921,
      "time": 15.899973447044342,
      "name": "A2",
      "svgX": 9871.22,
      "svgY": 987.28
    },
    {
      "absoluteTicks": 25894,
      "channel": 13,
      "type": "noteOff",
      "note": 45,
      "velocity": 79,
      "rel": 0.629921,
      "time": 16.1837231731823,
      "name": "A2"
    },
    {
      "absoluteTicks": 25920,
      "channel": 13,
      "type": "noteOn",
      "note": 50,
      "velocity": 79,
      "vel": 0.629921,
      "time": 16.19997294604518,
      "name": "D3",
      "svgX": 10048.08,
      "svgY": 935.93
    },
    {
      "absoluteTicks": 26374,
      "channel": 13,
      "type": "noteOff",
      "note": 50,
      "velocity": 79,
      "rel": 0.629921,
      "time": 16.483722672183138,
      "name": "D3"
    },
    {
      "absoluteTicks": 26400,
      "channel": 13,
      "type": "noteOn",
      "note": 54,
      "velocity": 79,
      "vel": 0.629921,
      "time": 16.499972445046016,
      "name": "F#3",
      "svgX": 10224.95,
      "svgY": 894.85
    },
    {
      "absoluteTicks": 26782,
      "channel": 13,
      "type": "noteOff",
      "note": 69,
      "velocity": 79,
      "rel": 0.629921,
      "time": 16.738722246333847,
      "name": "A4"
    },
    {
      "absoluteTicks": 26854,
      "channel": 13,
      "type": "noteOff",
      "note": 54,
      "velocity": 79,
      "rel": 0.629921,
      "time": 16.783722171183975,
      "name": "F#3"
    },
    {
      "absoluteTicks": 26880,
      "channel": 13,
      "type": "noteOn",
      "note": 71,
      "velocity": 79,
      "vel": 0.629921,
      "time": 16.799971944046852,
      "name": "B4",
      "svgX": 10401.82,
      "svgY": 720.25
    },
    {
      "absoluteTicks": 26880,
      "channel": 13,
      "type": "noteOn",
      "note": 43,
      "velocity": 79,
      "vel": 0.629921,
      "time": 16.799971944046852,
      "name": "G2",
      "svgX": 10401.82,
      "svgY": 1007.82
    },
    {
      "absoluteTicks": 27334,
      "channel": 13,
      "type": "noteOff",
      "note": 43,
      "velocity": 79,
      "rel": 0.629921,
      "time": 17.083721670184808,
      "name": "G2"
    },
    {
      "absoluteTicks": 27360,
      "channel": 13,
      "type": "noteOn",
      "note": 50,
      "velocity": 79,
      "vel": 0.629921,
      "time": 17.09997144304769,
      "name": "D3",
      "svgX": 10578.69,
      "svgY": 935.93
    },
    {
      "absoluteTicks": 27814,
      "channel": 13,
      "type": "noteOff",
      "note": 50,
      "velocity": 79,
      "rel": 0.629921,
      "time": 17.383721169185645,
      "name": "D3"
    },
    {
      "absoluteTicks": 27840,
      "channel": 13,
      "type": "noteOn",
      "note": 55,
      "velocity": 79,
      "vel": 0.629921,
      "time": 17.399970942048526,
      "name": "G3",
      "svgX": 10755.55,
      "svgY": 884.58
    },
    {
      "absoluteTicks": 28294,
      "channel": 13,
      "type": "noteOff",
      "note": 55,
      "velocity": 79,
      "rel": 0.629921,
      "time": 17.68372066818648,
      "name": "G3"
    },
    {
      "absoluteTicks": 28320,
      "channel": 13,
      "type": "noteOn",
      "note": 59,
      "velocity": 79,
      "vel": 0.629921,
      "time": 17.699970441049363,
      "name": "B3",
      "svgX": 10932.42,
      "svgY": 843.5
    },
    {
      "absoluteTicks": 28702,
      "channel": 13,
      "type": "noteOff",
      "note": 71,
      "velocity": 79,
      "rel": 0.629921,
      "time": 17.938720242337194,
      "name": "B4"
    },
    {
      "absoluteTicks": 28774,
      "channel": 13,
      "type": "noteOff",
      "note": 59,
      "velocity": 79,
      "rel": 0.629921,
      "time": 17.983720167187318,
      "name": "B3"
    },
    {
      "absoluteTicks": 28800,
      "channel": 13,
      "type": "noteOn",
      "note": 73,
      "velocity": 79,
      "vel": 0.629921,
      "time": 17.9999699400502,
      "name": "C#5",
      "svgX": 11109.29,
      "svgY": 699.71
    },
    {
      "absoluteTicks": 28800,
      "channel": 13,
      "type": "noteOn",
      "note": 45,
      "velocity": 79,
      "vel": 0.629921,
      "time": 17.9999699400502,
      "name": "A2",
      "svgX": 11109.29,
      "svgY": 987.28
    },
    {
      "absoluteTicks": 29254,
      "channel": 13,
      "type": "noteOff",
      "note": 45,
      "velocity": 79,
      "rel": 0.629921,
      "time": 18.283719666188155,
      "name": "A2"
    },
    {
      "absoluteTicks": 29280,
      "channel": 13,
      "type": "noteOn",
      "note": 52,
      "velocity": 79,
      "vel": 0.629921,
      "time": 18.299969439051036,
      "name": "E3",
      "svgX": 11286.16,
      "svgY": 915.39
    },
    {
      "absoluteTicks": 29734,
      "channel": 13,
      "type": "noteOff",
      "note": 52,
      "velocity": 79,
      "rel": 0.629921,
      "time": 18.58371916518899,
      "name": "E3"
    },
    {
      "absoluteTicks": 29760,
      "channel": 13,
      "type": "noteOn",
      "note": 57,
      "velocity": 79,
      "vel": 0.629921,
      "time": 18.599968938051873,
      "name": "A3",
      "svgX": 11463.02,
      "svgY": 864.04
    },
    {
      "absoluteTicks": 30214,
      "channel": 13,
      "type": "noteOff",
      "note": 57,
      "velocity": 79,
      "rel": 0.629921,
      "time": 18.88371866418983,
      "name": "A3"
    },
    {
      "absoluteTicks": 30240,
      "channel": 13,
      "type": "noteOn",
      "note": 61,
      "velocity": 79,
      "vel": 0.629921,
      "time": 18.89996843705271,
      "name": "C#4",
      "svgX": 11639.89,
      "svgY": 822.96
    },
    {
      "absoluteTicks": 30622,
      "channel": 13,
      "type": "noteOff",
      "note": 73,
      "velocity": 79,
      "rel": 0.629921,
      "time": 19.13871823834054,
      "name": "C#5"
    },
    {
      "absoluteTicks": 30694,
      "channel": 13,
      "type": "noteOff",
      "note": 61,
      "velocity": 79,
      "rel": 0.629921,
      "time": 19.183718163190665,
      "name": "C#4"
    },
    {
      "absoluteTicks": 30720,
      "channel": 13,
      "type": "noteOn",
      "note": 78,
      "velocity": 79,
      "vel": 0.629921,
      "time": 19.199967936053547,
      "name": "F#5",
      "svgX": 11816.76,
      "svgY": 648.36
    },
    {
      "absoluteTicks": 30720,
      "channel": 13,
      "type": "noteOn",
      "note": 74,
      "velocity": 79,
      "vel": 0.629921,
      "time": 19.199967936053547,
      "name": "D5",
      "svgX": 11816.76,
      "svgY": 689.44
    },
    {
      "absoluteTicks": 30720,
      "channel": 13,
      "type": "noteOn",
      "note": 69,
      "velocity": 79,
      "vel": 0.629921,
      "time": 19.199967936053547,
      "name": "A4",
      "svgX": 11816.76,
      "svgY": 740.79
    },
    {
      "absoluteTicks": 30720,
      "channel": 13,
      "type": "noteOn",
      "note": 50,
      "velocity": 79,
      "vel": 0.629921,
      "time": 19.199967936053547,
      "name": "D3",
      "svgX": 11816.76,
      "svgY": 935.93
    },
    {
      "absoluteTicks": 31174,
      "channel": 13,
      "type": "noteOff",
      "note": 50,
      "velocity": 79,
      "rel": 0.629921,
      "time": 19.483717662191506,
      "name": "D3"
    },
    {
      "absoluteTicks": 31200,
      "channel": 13,
      "type": "noteOn",
      "note": 57,
      "velocity": 79,
      "vel": 0.629921,
      "time": 19.499967435054383,
      "name": "A3",
      "svgX": 11993.62,
      "svgY": 864.04
    },
    {
      "absoluteTicks": 31654,
      "channel": 13,
      "type": "noteOff",
      "note": 57,
      "velocity": 79,
      "rel": 0.629921,
      "time": 19.783717161192342,
      "name": "A3"
    },
    {
      "absoluteTicks": 31680,
      "channel": 13,
      "type": "noteOn",
      "note": 62,
      "velocity": 79,
      "vel": 0.629921,
      "time": 19.79996693405522,
      "name": "D4",
      "svgX": 12170.49,
      "svgY": 812.69
    },
    {
      "absoluteTicks": 32134,
      "channel": 13,
      "type": "noteOff",
      "note": 62,
      "velocity": 79,
      "rel": 0.629921,
      "time": 20.08371666019318,
      "name": "D4"
    },
    {
      "absoluteTicks": 32160,
      "channel": 13,
      "type": "noteOn",
      "note": 66,
      "velocity": 79,
      "vel": 0.629921,
      "time": 20.099966433056057,
      "name": "F#4",
      "svgX": 12347.36,
      "svgY": 771.6
    },
    {
      "absoluteTicks": 32542,
      "channel": 13,
      "type": "noteOff",
      "note": 78,
      "velocity": 79,
      "rel": 0.629921,
      "time": 20.338716234343888,
      "name": "F#5"
    },
    {
      "absoluteTicks": 32542,
      "channel": 13,
      "type": "noteOff",
      "note": 74,
      "velocity": 79,
      "rel": 0.629921,
      "time": 20.338716234343888,
      "name": "D5"
    },
    {
      "absoluteTicks": 32542,
      "channel": 13,
      "type": "noteOff",
      "note": 69,
      "velocity": 79,
      "rel": 0.629921,
      "time": 20.338716234343888,
      "name": "A4"
    },
    {
      "absoluteTicks": 32614,
      "channel": 13,
      "type": "noteOff",
      "note": 66,
      "velocity": 79,
      "rel": 0.629921,
      "time": 20.383716159194016,
      "name": "F#4"
    },
    {
      "absoluteTicks": 32640,
      "channel": 13,
      "type": "noteOn",
      "note": 76,
      "velocity": 79,
      "vel": 0.629921,
      "time": 20.399965932056894,
      "name": "E5",
      "svgX": 12524.23,
      "svgY": 668.9
    },
    {
      "absoluteTicks": 32640,
      "channel": 13,
      "type": "noteOn",
      "note": 73,
      "velocity": 79,
      "vel": 0.629921,
      "time": 20.399965932056894,
      "name": "C#5",
      "svgX": 12524.23,
      "svgY": 699.71
    },
    {
      "absoluteTicks": 32640,
      "channel": 13,
      "type": "noteOn",
      "note": 69,
      "velocity": 79,
      "vel": 0.629921,
      "time": 20.399965932056894,
      "name": "A4",
      "svgX": 12524.23,
      "svgY": 740.79
    },
    {
      "absoluteTicks": 32640,
      "channel": 13,
      "type": "noteOn",
      "note": 45,
      "velocity": 79,
      "vel": 0.629921,
      "time": 20.399965932056894,
      "name": "A2",
      "svgX": 12524.23,
      "svgY": 987.28
    },
    {
      "absoluteTicks": 33094,
      "channel": 13,
      "type": "noteOff",
      "note": 45,
      "velocity": 79,
      "rel": 0.629921,
      "time": 20.68371565819485,
      "name": "A2"
    },
    {
      "absoluteTicks": 33120,
      "channel": 13,
      "type": "noteOn",
      "note": 52,
      "velocity": 79,
      "vel": 0.629921,
      "time": 20.69996543105773,
      "name": "E3",
      "svgX": 12701.09,
      "svgY": 915.39
    },
    {
      "absoluteTicks": 33574,
      "channel": 13,
      "type": "noteOff",
      "note": 52,
      "velocity": 79,
      "rel": 0.629921,
      "time": 20.983715157195686,
      "name": "E3"
    },
    {
      "absoluteTicks": 33600,
      "channel": 13,
      "type": "noteOn",
      "note": 57,
      "velocity": 79,
      "vel": 0.629921,
      "time": 20.999964930058567,
      "name": "A3",
      "svgX": 12877.96,
      "svgY": 864.04
    },
    {
      "absoluteTicks": 34054,
      "channel": 13,
      "type": "noteOff",
      "note": 57,
      "velocity": 79,
      "rel": 0.629921,
      "time": 21.283714656196523,
      "name": "A3"
    },
    {
      "absoluteTicks": 34080,
      "channel": 13,
      "type": "noteOn",
      "note": 61,
      "velocity": 79,
      "vel": 0.629921,
      "time": 21.299964429059404,
      "name": "C#4",
      "svgX": 13054.83,
      "svgY": 822.96
    },
    {
      "absoluteTicks": 34462,
      "channel": 13,
      "type": "noteOff",
      "note": 76,
      "velocity": 79,
      "rel": 0.629921,
      "time": 21.538714230347235,
      "name": "E5"
    },
    {
      "absoluteTicks": 34462,
      "channel": 13,
      "type": "noteOff",
      "note": 73,
      "velocity": 79,
      "rel": 0.629921,
      "time": 21.538714230347235,
      "name": "C#5"
    },
    {
      "absoluteTicks": 34462,
      "channel": 13,
      "type": "noteOff",
      "note": 69,
      "velocity": 79,
      "rel": 0.629921,
      "time": 21.538714230347235,
      "name": "A4"
    },
    {
      "absoluteTicks": 34534,
      "channel": 13,
      "type": "noteOff",
      "note": 61,
      "velocity": 79,
      "rel": 0.629921,
      "time": 21.58371415519736,
      "name": "C#4"
    },
    {
      "absoluteTicks": 34560,
      "channel": 13,
      "type": "noteOn",
      "note": 74,
      "velocity": 79,
      "vel": 0.629921,
      "time": 21.599963928060237,
      "name": "D5",
      "svgX": 13231.7,
      "svgY": 689.44
    },
    {
      "absoluteTicks": 34560,
      "channel": 13,
      "type": "noteOn",
      "note": 71,
      "velocity": 79,
      "vel": 0.629921,
      "time": 21.599963928060237,
      "name": "B4",
      "svgX": 13231.7,
      "svgY": 720.25
    },
    {
      "absoluteTicks": 34560,
      "channel": 13,
      "type": "noteOn",
      "note": 66,
      "velocity": 79,
      "vel": 0.629921,
      "time": 21.599963928060237,
      "name": "F#4",
      "svgX": 13231.7,
      "svgY": 771.6
    },
    {
      "absoluteTicks": 34560,
      "channel": 13,
      "type": "noteOn",
      "note": 47,
      "velocity": 79,
      "vel": 0.629921,
      "time": 21.599963928060237,
      "name": "B2",
      "svgX": 13231.7,
      "svgY": 966.74
    },
    {
      "absoluteTicks": 35014,
      "channel": 13,
      "type": "noteOff",
      "note": 47,
      "velocity": 79,
      "rel": 0.629921,
      "time": 21.883713654198196,
      "name": "B2"
    },
    {
      "absoluteTicks": 35040,
      "channel": 13,
      "type": "noteOn",
      "note": 54,
      "velocity": 79,
      "vel": 0.629921,
      "time": 21.899963427061074,
      "name": "F#3",
      "svgX": 13408.56,
      "svgY": 894.85
    },
    {
      "absoluteTicks": 35494,
      "channel": 13,
      "type": "noteOff",
      "note": 54,
      "velocity": 79,
      "rel": 0.629921,
      "time": 22.183713153199033,
      "name": "F#3"
    },
    {
      "absoluteTicks": 35520,
      "channel": 13,
      "type": "noteOn",
      "note": 59,
      "velocity": 79,
      "vel": 0.629921,
      "time": 22.19996292606191,
      "name": "B3",
      "svgX": 13585.43,
      "svgY": 843.5
    },
    {
      "absoluteTicks": 35974,
      "channel": 13,
      "type": "noteOff",
      "note": 59,
      "velocity": 79,
      "rel": 0.629921,
      "time": 22.48371265219987,
      "name": "B3"
    },
    {
      "absoluteTicks": 36000,
      "channel": 13,
      "type": "noteOn",
      "note": 62,
      "velocity": 79,
      "vel": 0.629921,
      "time": 22.499962425062748,
      "name": "D4",
      "svgX": 13762.3,
      "svgY": 812.69
    },
    {
      "absoluteTicks": 36382,
      "channel": 13,
      "type": "noteOff",
      "note": 74,
      "velocity": 79,
      "rel": 0.629921,
      "time": 22.73871222635058,
      "name": "D5"
    },
    {
      "absoluteTicks": 36382,
      "channel": 13,
      "type": "noteOff",
      "note": 71,
      "velocity": 79,
      "rel": 0.629921,
      "time": 22.73871222635058,
      "name": "B4"
    },
    {
      "absoluteTicks": 36382,
      "channel": 13,
      "type": "noteOff",
      "note": 66,
      "velocity": 79,
      "rel": 0.629921,
      "time": 22.73871222635058,
      "name": "F#4"
    },
    {
      "absoluteTicks": 36454,
      "channel": 13,
      "type": "noteOff",
      "note": 62,
      "velocity": 79,
      "rel": 0.629921,
      "time": 22.783712151200707,
      "name": "D4"
    },
    {
      "absoluteTicks": 36480,
      "channel": 13,
      "type": "noteOn",
      "note": 73,
      "velocity": 79,
      "vel": 0.629921,
      "time": 22.799961924063584,
      "name": "C#5",
      "svgX": 13939.17,
      "svgY": 699.71
    },
    {
      "absoluteTicks": 36480,
      "channel": 13,
      "type": "noteOn",
      "note": 69,
      "velocity": 79,
      "vel": 0.629921,
      "time": 22.799961924063584,
      "name": "A4",
      "svgX": 13939.17,
      "svgY": 740.79
    },
    {
      "absoluteTicks": 36480,
      "channel": 13,
      "type": "noteOn",
      "note": 66,
      "velocity": 79,
      "vel": 0.629921,
      "time": 22.799961924063584,
      "name": "F#4",
      "svgX": 13939.17,
      "svgY": 771.6
    },
    {
      "absoluteTicks": 36480,
      "channel": 13,
      "type": "noteOn",
      "note": 42,
      "velocity": 79,
      "vel": 0.629921,
      "time": 22.799961924063584,
      "name": "F#2",
      "svgX": 13939.17,
      "svgY": 1018.09
    },
    {
      "absoluteTicks": 36934,
      "channel": 13,
      "type": "noteOff",
      "note": 42,
      "velocity": 79,
      "rel": 0.629921,
      "time": 23.083711650201543,
      "name": "F#2"
    },
    {
      "absoluteTicks": 36960,
      "channel": 13,
      "type": "noteOn",
      "note": 49,
      "velocity": 79,
      "vel": 0.629921,
      "time": 23.09996142306442,
      "name": "C#3",
      "svgX": 14116.03,
      "svgY": 946.2
    },
    {
      "absoluteTicks": 37414,
      "channel": 13,
      "type": "noteOff",
      "note": 49,
      "velocity": 79,
      "rel": 0.629921,
      "time": 23.38371114920238,
      "name": "C#3"
    },
    {
      "absoluteTicks": 37440,
      "channel": 13,
      "type": "noteOn",
      "note": 54,
      "velocity": 79,
      "vel": 0.629921,
      "time": 23.399960922065258,
      "name": "F#3",
      "svgX": 14292.9,
      "svgY": 894.85
    },
    {
      "absoluteTicks": 37894,
      "channel": 13,
      "type": "noteOff",
      "note": 54,
      "velocity": 79,
      "rel": 0.629921,
      "time": 23.683710648203217,
      "name": "F#3"
    },
    {
      "absoluteTicks": 37920,
      "channel": 13,
      "type": "noteOn",
      "note": 57,
      "velocity": 79,
      "vel": 0.629921,
      "time": 23.699960421066095,
      "name": "A3",
      "svgX": 14469.77,
      "svgY": 864.04
    },
    {
      "absoluteTicks": 38302,
      "channel": 13,
      "type": "noteOff",
      "note": 73,
      "velocity": 79,
      "rel": 0.629921,
      "time": 23.938710222353926,
      "name": "C#5"
    },
    {
      "absoluteTicks": 38302,
      "channel": 13,
      "type": "noteOff",
      "note": 69,
      "velocity": 79,
      "rel": 0.629921,
      "time": 23.938710222353926,
      "name": "A4"
    },
    {
      "absoluteTicks": 38302,
      "channel": 13,
      "type": "noteOff",
      "note": 66,
      "velocity": 79,
      "rel": 0.629921,
      "time": 23.938710222353926,
      "name": "F#4"
    },
    {
      "absoluteTicks": 38374,
      "channel": 13,
      "type": "noteOff",
      "note": 57,
      "velocity": 79,
      "rel": 0.629921,
      "time": 23.983710147204054,
      "name": "A3"
    },
    {
      "absoluteTicks": 38400,
      "channel": 13,
      "type": "noteOn",
      "note": 71,
      "velocity": 79,
      "vel": 0.629921,
      "time": 23.99995992006693,
      "name": "B4",
      "svgX": 14646.63,
      "svgY": 720.25
    },
    {
      "absoluteTicks": 38400,
      "channel": 13,
      "type": "noteOn",
      "note": 67,
      "velocity": 79,
      "vel": 0.629921,
      "time": 23.99995992006693,
      "name": "G4",
      "svgX": 14646.63,
      "svgY": 761.33
    },
    {
      "absoluteTicks": 38400,
      "channel": 13,
      "type": "noteOn",
      "note": 62,
      "velocity": 79,
      "vel": 0.629921,
      "time": 23.99995992006693,
      "name": "D4",
      "svgX": 14646.63,
      "svgY": 812.69
    },
    {
      "absoluteTicks": 38400,
      "channel": 13,
      "type": "noteOn",
      "note": 43,
      "velocity": 79,
      "vel": 0.629921,
      "time": 23.99995992006693,
      "name": "G2",
      "svgX": 14646.63,
      "svgY": 1007.82
    },
    {
      "absoluteTicks": 38854,
      "channel": 13,
      "type": "noteOff",
      "note": 43,
      "velocity": 79,
      "rel": 0.629921,
      "time": 24.28370964620489,
      "name": "G2"
    },
    {
      "absoluteTicks": 38880,
      "channel": 13,
      "type": "noteOn",
      "note": 50,
      "velocity": 79,
      "vel": 0.629921,
      "time": 24.29995941906777,
      "name": "D3",
      "svgX": 14823.5,
      "svgY": 935.93
    },
    {
      "absoluteTicks": 39334,
      "channel": 13,
      "type": "noteOff",
      "note": 50,
      "velocity": 79,
      "rel": 0.629921,
      "time": 24.583709145205727,
      "name": "D3"
    },
    {
      "absoluteTicks": 39360,
      "channel": 13,
      "type": "noteOn",
      "note": 55,
      "velocity": 79,
      "vel": 0.629921,
      "time": 24.599958918068605,
      "name": "G3",
      "svgX": 15000.37,
      "svgY": 884.58
    },
    {
      "absoluteTicks": 39814,
      "channel": 13,
      "type": "noteOff",
      "note": 55,
      "velocity": 79,
      "rel": 0.629921,
      "time": 24.883708644206564,
      "name": "G3"
    },
    {
      "absoluteTicks": 39840,
      "channel": 13,
      "type": "noteOn",
      "note": 59,
      "velocity": 79,
      "vel": 0.629921,
      "time": 24.899958417069442,
      "name": "B3",
      "svgX": 15177.24,
      "svgY": 843.5
    },
    {
      "absoluteTicks": 40222,
      "channel": 13,
      "type": "noteOff",
      "note": 71,
      "velocity": 79,
      "rel": 0.629921,
      "time": 25.138708218357273,
      "name": "B4"
    },
    {
      "absoluteTicks": 40222,
      "channel": 13,
      "type": "noteOff",
      "note": 67,
      "velocity": 79,
      "rel": 0.629921,
      "time": 25.138708218357273,
      "name": "G4"
    },
    {
      "absoluteTicks": 40222,
      "channel": 13,
      "type": "noteOff",
      "note": 62,
      "velocity": 79,
      "rel": 0.629921,
      "time": 25.138708218357273,
      "name": "D4"
    },
    {
      "absoluteTicks": 40294,
      "channel": 13,
      "type": "noteOff",
      "note": 59,
      "velocity": 79,
      "rel": 0.629921,
      "time": 25.1837081432074,
      "name": "B3"
    },
    {
      "absoluteTicks": 40320,
      "channel": 13,
      "type": "noteOn",
      "note": 69,
      "velocity": 79,
      "vel": 0.629921,
      "time": 25.19995791607028,
      "name": "A4",
      "svgX": 15354.1,
      "svgY": 740.79
    },
    {
      "absoluteTicks": 40320,
      "channel": 13,
      "type": "noteOn",
      "note": 66,
      "velocity": 79,
      "vel": 0.629921,
      "time": 25.19995791607028,
      "name": "F#4",
      "svgX": 15354.1,
      "svgY": 771.6
    },
    {
      "absoluteTicks": 40320,
      "channel": 13,
      "type": "noteOn",
      "note": 62,
      "velocity": 79,
      "vel": 0.629921,
      "time": 25.19995791607028,
      "name": "D4",
      "svgX": 15354.1,
      "svgY": 812.69
    },
    {
      "absoluteTicks": 40320,
      "channel": 13,
      "type": "noteOn",
      "note": 38,
      "velocity": 79,
      "vel": 0.629921,
      "time": 25.19995791607028,
      "name": "D2",
      "svgX": 15354.1,
      "svgY": 1059.17
    },
    {
      "absoluteTicks": 40774,
      "channel": 13,
      "type": "noteOff",
      "note": 38,
      "velocity": 79,
      "rel": 0.629921,
      "time": 25.483707642208238,
      "name": "D2"
    },
    {
      "absoluteTicks": 40800,
      "channel": 13,
      "type": "noteOn",
      "note": 45,
      "velocity": 79,
      "vel": 0.629921,
      "time": 25.499957415071115,
      "name": "A2",
      "svgX": 15530.97,
      "svgY": 987.28
    },
    {
      "absoluteTicks": 41254,
      "channel": 13,
      "type": "noteOff",
      "note": 45,
      "velocity": 79,
      "rel": 0.629921,
      "time": 25.78370714120907,
      "name": "A2"
    },
    {
      "absoluteTicks": 41280,
      "channel": 13,
      "type": "noteOn",
      "note": 50,
      "velocity": 79,
      "vel": 0.629921,
      "time": 25.799956914071952,
      "name": "D3",
      "svgX": 15707.84,
      "svgY": 935.93
    },
    {
      "absoluteTicks": 41734,
      "channel": 13,
      "type": "noteOff",
      "note": 50,
      "velocity": 79,
      "rel": 0.629921,
      "time": 26.083706640209908,
      "name": "D3"
    },
    {
      "absoluteTicks": 41760,
      "channel": 13,
      "type": "noteOn",
      "note": 54,
      "velocity": 79,
      "vel": 0.629921,
      "time": 26.09995641307279,
      "name": "F#3",
      "svgX": 15884.71,
      "svgY": 894.85
    },
    {
      "absoluteTicks": 42142,
      "channel": 13,
      "type": "noteOff",
      "note": 69,
      "velocity": 79,
      "rel": 0.629921,
      "time": 26.33870621436062,
      "name": "A4"
    },
    {
      "absoluteTicks": 42142,
      "channel": 13,
      "type": "noteOff",
      "note": 66,
      "velocity": 79,
      "rel": 0.629921,
      "time": 26.33870621436062,
      "name": "F#4"
    },
    {
      "absoluteTicks": 42142,
      "channel": 13,
      "type": "noteOff",
      "note": 62,
      "velocity": 79,
      "rel": 0.629921,
      "time": 26.33870621436062,
      "name": "D4"
    },
    {
      "absoluteTicks": 42214,
      "channel": 13,
      "type": "noteOff",
      "note": 54,
      "velocity": 79,
      "rel": 0.629921,
      "time": 26.383706139210744,
      "name": "F#3"
    },
    {
      "absoluteTicks": 42240,
      "channel": 13,
      "type": "noteOn",
      "note": 71,
      "velocity": 79,
      "vel": 0.629921,
      "time": 26.399955912073626,
      "name": "B4",
      "svgX": 16061.57,
      "svgY": 720.25
    },
    {
      "absoluteTicks": 42240,
      "channel": 13,
      "type": "noteOn",
      "note": 67,
      "velocity": 79,
      "vel": 0.629921,
      "time": 26.399955912073626,
      "name": "G4",
      "svgX": 16061.57,
      "svgY": 761.33
    },
    {
      "absoluteTicks": 42240,
      "channel": 13,
      "type": "noteOn",
      "note": 62,
      "velocity": 79,
      "vel": 0.629921,
      "time": 26.399955912073626,
      "name": "D4",
      "svgX": 16061.57,
      "svgY": 812.69
    },
    {
      "absoluteTicks": 42240,
      "channel": 13,
      "type": "noteOn",
      "note": 43,
      "velocity": 79,
      "vel": 0.629921,
      "time": 26.399955912073626,
      "name": "G2",
      "svgX": 16061.57,
      "svgY": 1007.82
    },
    {
      "absoluteTicks": 42694,
      "channel": 13,
      "type": "noteOff",
      "note": 43,
      "velocity": 79,
      "rel": 0.629921,
      "time": 26.68370563821158,
      "name": "G2"
    },
    {
      "absoluteTicks": 42720,
      "channel": 13,
      "type": "noteOn",
      "note": 50,
      "velocity": 81,
      "vel": 0.645669,
      "time": 26.699955411074463,
      "name": "D3",
      "svgX": 16238.44,
      "svgY": 935.93
    },
    {
      "absoluteTicks": 43174,
      "channel": 13,
      "type": "noteOff",
      "note": 50,
      "velocity": 81,
      "rel": 0.645669,
      "time": 26.983705137212418,
      "name": "D3"
    },
    {
      "absoluteTicks": 43200,
      "channel": 13,
      "type": "noteOn",
      "note": 55,
      "velocity": 83,
      "vel": 0.661417,
      "time": 26.9999549100753,
      "name": "G3",
      "svgX": 16415.31,
      "svgY": 884.58
    },
    {
      "absoluteTicks": 43654,
      "channel": 13,
      "type": "noteOff",
      "note": 55,
      "velocity": 83,
      "rel": 0.661417,
      "time": 27.283704636213255,
      "name": "G3"
    },
    {
      "absoluteTicks": 43680,
      "channel": 13,
      "type": "noteOn",
      "note": 59,
      "velocity": 85,
      "vel": 0.677165,
      "time": 27.299954409076136,
      "name": "B3",
      "svgX": 16592.18,
      "svgY": 843.5
    },
    {
      "absoluteTicks": 44062,
      "channel": 13,
      "type": "noteOff",
      "note": 71,
      "velocity": 79,
      "rel": 0.629921,
      "time": 27.538704210363967,
      "name": "B4"
    },
    {
      "absoluteTicks": 44062,
      "channel": 13,
      "type": "noteOff",
      "note": 67,
      "velocity": 79,
      "rel": 0.629921,
      "time": 27.538704210363967,
      "name": "G4"
    },
    {
      "absoluteTicks": 44062,
      "channel": 13,
      "type": "noteOff",
      "note": 62,
      "velocity": 79,
      "rel": 0.629921,
      "time": 27.538704210363967,
      "name": "D4"
    },
    {
      "absoluteTicks": 44134,
      "channel": 13,
      "type": "noteOff",
      "note": 59,
      "velocity": 85,
      "rel": 0.677165,
      "time": 27.58370413521409,
      "name": "B3"
    },
    {
      "absoluteTicks": 44160,
      "channel": 13,
      "type": "noteOn",
      "note": 73,
      "velocity": 87,
      "vel": 0.692913,
      "time": 27.599953908076973,
      "name": "C#5",
      "svgX": 16769.04,
      "svgY": 699.71
    },
    {
      "absoluteTicks": 44160,
      "channel": 13,
      "type": "noteOn",
      "note": 69,
      "velocity": 87,
      "vel": 0.692913,
      "time": 27.599953908076973,
      "name": "A4",
      "svgX": 16769.04,
      "svgY": 740.79
    },
    {
      "absoluteTicks": 44160,
      "channel": 13,
      "type": "noteOn",
      "note": 64,
      "velocity": 87,
      "vel": 0.692913,
      "time": 27.599953908076973,
      "name": "E4",
      "svgX": 16769.04,
      "svgY": 792.15
    },
    {
      "absoluteTicks": 44160,
      "channel": 13,
      "type": "noteOn",
      "note": 45,
      "velocity": 87,
      "vel": 0.692913,
      "time": 27.599953908076973,
      "name": "A2",
      "svgX": 16769.04,
      "svgY": 987.28
    },
    {
      "absoluteTicks": 44614,
      "channel": 13,
      "type": "noteOff",
      "note": 45,
      "velocity": 87,
      "rel": 0.692913,
      "time": 27.88370363421493,
      "name": "A2"
    },
    {
      "absoluteTicks": 44640,
      "channel": 13,
      "type": "noteOn",
      "note": 52,
      "velocity": 89,
      "vel": 0.708661,
      "time": 27.89995340707781,
      "name": "E3",
      "svgX": 16945.91,
      "svgY": 915.39
    },
    {
      "absoluteTicks": 45094,
      "channel": 13,
      "type": "noteOff",
      "note": 52,
      "velocity": 89,
      "rel": 0.708661,
      "time": 28.183703133215765,
      "name": "E3"
    },
    {
      "absoluteTicks": 45120,
      "channel": 13,
      "type": "noteOn",
      "note": 57,
      "velocity": 91,
      "vel": 0.724409,
      "time": 28.199952906078646,
      "name": "A3",
      "svgX": 17122.78,
      "svgY": 864.04
    },
    {
      "absoluteTicks": 45574,
      "channel": 13,
      "type": "noteOff",
      "note": 57,
      "velocity": 91,
      "rel": 0.724409,
      "time": 28.483702632216602,
      "name": "A3"
    },
    {
      "absoluteTicks": 45600,
      "channel": 13,
      "type": "noteOn",
      "note": 61,
      "velocity": 93,
      "vel": 0.740157,
      "time": 28.499952405079483,
      "name": "C#4",
      "svgX": 17299.64,
      "svgY": 822.96
    },
    {
      "absoluteTicks": 45982,
      "channel": 13,
      "type": "noteOff",
      "note": 73,
      "velocity": 87,
      "rel": 0.692913,
      "time": 28.738702206367314,
      "name": "C#5"
    },
    {
      "absoluteTicks": 45982,
      "channel": 13,
      "type": "noteOff",
      "note": 69,
      "velocity": 87,
      "rel": 0.692913,
      "time": 28.738702206367314,
      "name": "A4"
    },
    {
      "absoluteTicks": 45982,
      "channel": 13,
      "type": "noteOff",
      "note": 64,
      "velocity": 87,
      "rel": 0.692913,
      "time": 28.738702206367314,
      "name": "E4"
    },
    {
      "absoluteTicks": 46054,
      "channel": 13,
      "type": "noteOff",
      "note": 61,
      "velocity": 93,
      "rel": 0.740157,
      "time": 28.78370213121744,
      "name": "C#4"
    },
    {
      "absoluteTicks": 46080,
      "channel": 13,
      "type": "noteOn",
      "note": 74,
      "velocity": 79,
      "vel": 0.629921,
      "time": 28.79995190408032,
      "name": "D5",
      "svgX": 17476.51,
      "svgY": 689.44
    },
    {
      "absoluteTicks": 46080,
      "channel": 13,
      "type": "noteOn",
      "note": 50,
      "velocity": 79,
      "vel": 0.629921,
      "time": 28.79995190408032,
      "name": "D3",
      "svgX": 17476.51,
      "svgY": 935.93
    },
    {
      "absoluteTicks": 46534,
      "channel": 13,
      "type": "noteOff",
      "note": 50,
      "velocity": 79,
      "rel": 0.629921,
      "time": 29.083701630218275,
      "name": "D3"
    },
    {
      "absoluteTicks": 46560,
      "channel": 13,
      "type": "noteOn",
      "note": 57,
      "velocity": 79,
      "vel": 0.629921,
      "time": 29.099951403081157,
      "name": "A3",
      "svgX": 17653.38,
      "svgY": 864.04
    },
    {
      "absoluteTicks": 46990,
      "channel": 13,
      "type": "noteOff",
      "note": 74,
      "velocity": 79,
      "rel": 0.629921,
      "time": 29.368701154269072,
      "name": "D5"
    },
    {
      "absoluteTicks": 47014,
      "channel": 13,
      "type": "noteOff",
      "note": 57,
      "velocity": 79,
      "rel": 0.629921,
      "time": 29.383701129219112,
      "name": "A3"
    },
    {
      "absoluteTicks": 47040,
      "channel": 13,
      "type": "noteOn",
      "note": 78,
      "velocity": 79,
      "vel": 0.629921,
      "time": 29.399950902081994,
      "name": "F#5",
      "svgX": 17830.25,
      "svgY": 648.36
    },
    {
      "absoluteTicks": 47040,
      "channel": 13,
      "type": "noteOn",
      "note": 62,
      "velocity": 79,
      "vel": 0.629921,
      "time": 29.399950902081994,
      "name": "D4",
      "svgX": 17830.25,
      "svgY": 812.69
    },
    {
      "absoluteTicks": 47494,
      "channel": 13,
      "type": "noteOff",
      "note": 62,
      "velocity": 79,
      "rel": 0.629921,
      "time": 29.68370062821995,
      "name": "D4"
    },
    {
      "absoluteTicks": 47520,
      "channel": 13,
      "type": "noteOn",
      "note": 66,
      "velocity": 79,
      "vel": 0.629921,
      "time": 29.69995040108283,
      "name": "F#4",
      "svgX": 18007.11,
      "svgY": 771.6
    },
    {
      "absoluteTicks": 47950,
      "channel": 13,
      "type": "noteOff",
      "note": 78,
      "velocity": 79,
      "rel": 0.629921,
      "time": 29.968700152270745,
      "name": "F#5"
    },
    {
      "absoluteTicks": 47974,
      "channel": 13,
      "type": "noteOff",
      "note": 66,
      "velocity": 79,
      "rel": 0.629921,
      "time": 29.983700127220786,
      "name": "F#4"
    },
    {
      "absoluteTicks": 48000,
      "channel": 13,
      "type": "noteOn",
      "note": 81,
      "velocity": 79,
      "vel": 0.629921,
      "time": 29.999949900083667,
      "name": "A5",
      "svgX": 18183.98,
      "svgY": 617.55
    },
    {
      "absoluteTicks": 48000,
      "channel": 13,
      "type": "noteOn",
      "note": 45,
      "velocity": 79,
      "vel": 0.629921,
      "time": 29.999949900083667,
      "name": "A2",
      "svgX": 18183.98,
      "svgY": 987.28
    },
    {
      "absoluteTicks": 48454,
      "channel": 13,
      "type": "noteOff",
      "note": 45,
      "velocity": 79,
      "rel": 0.629921,
      "time": 30.283699626221622,
      "name": "A2"
    },
    {
      "absoluteTicks": 48480,
      "channel": 13,
      "type": "noteOn",
      "note": 52,
      "velocity": 79,
      "vel": 0.629921,
      "time": 30.2999493990845,
      "name": "E3",
      "svgX": 18360.85,
      "svgY": 915.39
    },
    {
      "absoluteTicks": 48910,
      "channel": 13,
      "type": "noteOff",
      "note": 81,
      "velocity": 79,
      "rel": 0.629921,
      "time": 30.568699150272415,
      "name": "A5"
    },
    {
      "absoluteTicks": 48934,
      "channel": 13,
      "type": "noteOff",
      "note": 52,
      "velocity": 79,
      "rel": 0.629921,
      "time": 30.58369912522246,
      "name": "E3"
    },
    {
      "absoluteTicks": 48960,
      "channel": 13,
      "type": "noteOn",
      "note": 79,
      "velocity": 79,
      "vel": 0.629921,
      "time": 30.599948898085337,
      "name": "G5",
      "svgX": 18537.72,
      "svgY": 638.09
    },
    {
      "absoluteTicks": 48960,
      "channel": 13,
      "type": "noteOn",
      "note": 57,
      "velocity": 79,
      "vel": 0.629921,
      "time": 30.599948898085337,
      "name": "A3",
      "svgX": 18537.72,
      "svgY": 864.04
    },
    {
      "absoluteTicks": 49414,
      "channel": 13,
      "type": "noteOff",
      "note": 57,
      "velocity": 79,
      "rel": 0.629921,
      "time": 30.883698624223296,
      "name": "A3"
    },
    {
      "absoluteTicks": 49440,
      "channel": 13,
      "type": "noteOn",
      "note": 61,
      "velocity": 79,
      "vel": 0.629921,
      "time": 30.899948397086174,
      "name": "C#4",
      "svgX": 18714.58,
      "svgY": 822.96
    },
    {
      "absoluteTicks": 49870,
      "channel": 13,
      "type": "noteOff",
      "note": 79,
      "velocity": 79,
      "rel": 0.629921,
      "time": 31.16869814827409,
      "name": "G5"
    },
    {
      "absoluteTicks": 49894,
      "channel": 13,
      "type": "noteOff",
      "note": 61,
      "velocity": 79,
      "rel": 0.629921,
      "time": 31.183698123224133,
      "name": "C#4"
    },
    {
      "absoluteTicks": 49920,
      "channel": 13,
      "type": "noteOn",
      "note": 78,
      "velocity": 79,
      "vel": 0.629921,
      "time": 31.19994789608701,
      "name": "F#5",
      "svgX": 18891.45,
      "svgY": 648.36
    },
    {
      "absoluteTicks": 49920,
      "channel": 13,
      "type": "noteOn",
      "note": 47,
      "velocity": 79,
      "vel": 0.629921,
      "time": 31.19994789608701,
      "name": "B2",
      "svgX": 18891.45,
      "svgY": 966.74
    },
    {
      "absoluteTicks": 50374,
      "channel": 13,
      "type": "noteOff",
      "note": 47,
      "velocity": 79,
      "rel": 0.629921,
      "time": 31.48369762222497,
      "name": "B2"
    },
    {
      "absoluteTicks": 50400,
      "channel": 13,
      "type": "noteOn",
      "note": 54,
      "velocity": 79,
      "vel": 0.629921,
      "time": 31.499947395087847,
      "name": "F#3",
      "svgX": 19068.32,
      "svgY": 894.85
    },
    {
      "absoluteTicks": 50830,
      "channel": 13,
      "type": "noteOff",
      "note": 78,
      "velocity": 79,
      "rel": 0.629921,
      "time": 31.768697146275763,
      "name": "F#5"
    },
    {
      "absoluteTicks": 50854,
      "channel": 13,
      "type": "noteOff",
      "note": 54,
      "velocity": 79,
      "rel": 0.629921,
      "time": 31.783697121225806,
      "name": "F#3"
    },
    {
      "absoluteTicks": 50880,
      "channel": 13,
      "type": "noteOn",
      "note": 74,
      "velocity": 79,
      "vel": 0.629921,
      "time": 31.799946894088684,
      "name": "D5",
      "svgX": 19245.19,
      "svgY": 689.44
    },
    {
      "absoluteTicks": 50880,
      "channel": 13,
      "type": "noteOn",
      "note": 59,
      "velocity": 79,
      "vel": 0.629921,
      "time": 31.799946894088684,
      "name": "B3",
      "svgX": 19245.19,
      "svgY": 843.5
    },
    {
      "absoluteTicks": 51334,
      "channel": 13,
      "type": "noteOff",
      "note": 59,
      "velocity": 79,
      "rel": 0.629921,
      "time": 32.08369662022664,
      "name": "B3"
    },
    {
      "absoluteTicks": 51360,
      "channel": 13,
      "type": "noteOn",
      "note": 62,
      "velocity": 79,
      "vel": 0.629921,
      "time": 32.099946393089525,
      "name": "D4",
      "svgX": 19422.05,
      "svgY": 812.69
    },
    {
      "absoluteTicks": 51790,
      "channel": 13,
      "type": "noteOff",
      "note": 74,
      "velocity": 79,
      "rel": 0.629921,
      "time": 32.368696144277436,
      "name": "D5"
    },
    {
      "absoluteTicks": 51814,
      "channel": 13,
      "type": "noteOff",
      "note": 62,
      "velocity": 79,
      "rel": 0.629921,
      "time": 32.38369611922748,
      "name": "D4"
    },
    {
      "absoluteTicks": 51840,
      "channel": 13,
      "type": "noteOn",
      "note": 78,
      "velocity": 79,
      "vel": 0.629921,
      "time": 32.39994589209036,
      "name": "F#5",
      "svgX": 19598.92,
      "svgY": 648.36
    },
    {
      "absoluteTicks": 51840,
      "channel": 13,
      "type": "noteOn",
      "note": 42,
      "velocity": 79,
      "vel": 0.629921,
      "time": 32.39994589209036,
      "name": "F#2",
      "svgX": 19598.92,
      "svgY": 1018.09
    },
    {
      "absoluteTicks": 52294,
      "channel": 13,
      "type": "noteOff",
      "note": 42,
      "velocity": 79,
      "rel": 0.629921,
      "time": 32.68369561822831,
      "name": "F#2"
    },
    {
      "absoluteTicks": 52320,
      "channel": 13,
      "type": "noteOn",
      "note": 49,
      "velocity": 79,
      "vel": 0.629921,
      "time": 32.6999453910912,
      "name": "C#3",
      "svgX": 19775.79,
      "svgY": 946.2
    },
    {
      "absoluteTicks": 52774,
      "channel": 13,
      "type": "noteOff",
      "note": 49,
      "velocity": 79,
      "rel": 0.629921,
      "time": 32.98369511722915,
      "name": "C#3"
    },
    {
      "absoluteTicks": 52800,
      "channel": 13,
      "type": "noteOn",
      "note": 54,
      "velocity": 79,
      "vel": 0.629921,
      "time": 32.99994489009203,
      "name": "F#3",
      "svgX": 19952.65,
      "svgY": 894.85
    },
    {
      "absoluteTicks": 53205,
      "channel": 13,
      "type": "noteOff",
      "note": 78,
      "velocity": 79,
      "rel": 0.629921,
      "time": 33.25369406633091,
      "name": "F#5"
    },
    {
      "absoluteTicks": 53254,
      "channel": 13,
      "type": "noteOff",
      "note": 54,
      "velocity": 79,
      "rel": 0.629921,
      "time": 33.28369461622999,
      "name": "F#3"
    },
    {
      "absoluteTicks": 53280,
      "channel": 13,
      "type": "noteOn",
      "note": 76,
      "velocity": 79,
      "vel": 0.629921,
      "time": 33.29994438909287,
      "name": "E5",
      "svgX": 20129.52,
      "svgY": 668.9
    },
    {
      "absoluteTicks": 53280,
      "channel": 13,
      "type": "noteOn",
      "note": 57,
      "velocity": 79,
      "vel": 0.629921,
      "time": 33.29994438909287,
      "name": "A3",
      "svgX": 20129.52,
      "svgY": 864.04
    },
    {
      "absoluteTicks": 53734,
      "channel": 13,
      "type": "noteOff",
      "note": 76,
      "velocity": 79,
      "rel": 0.629921,
      "time": 33.58369411523083,
      "name": "E5"
    },
    {
      "absoluteTicks": 53734,
      "channel": 13,
      "type": "noteOff",
      "note": 57,
      "velocity": 79,
      "rel": 0.629921,
      "time": 33.58369411523083,
      "name": "A3"
    },
    {
      "absoluteTicks": 53760,
      "channel": 13,
      "type": "noteOn",
      "note": 74,
      "velocity": 79,
      "vel": 0.629921,
      "time": 33.599943888093705,
      "name": "D5",
      "svgX": 20306.39,
      "svgY": 689.44
    },
    {
      "absoluteTicks": 53760,
      "channel": 13,
      "type": "noteOn",
      "note": 43,
      "velocity": 79,
      "vel": 0.629921,
      "time": 33.599943888093705,
      "name": "G2",
      "svgX": 20306.39,
      "svgY": 1007.82
    },
    {
      "absoluteTicks": 54214,
      "channel": 13,
      "type": "noteOff",
      "note": 43,
      "velocity": 79,
      "rel": 0.629921,
      "time": 33.88369361423166,
      "name": "G2"
    },
    {
      "absoluteTicks": 54240,
      "channel": 13,
      "type": "noteOn",
      "note": 50,
      "velocity": 79,
      "vel": 0.629921,
      "time": 33.899943387094545,
      "name": "D3",
      "svgX": 20483.26,
      "svgY": 935.93
    },
    {
      "absoluteTicks": 54670,
      "channel": 13,
      "type": "noteOff",
      "note": 74,
      "velocity": 79,
      "rel": 0.629921,
      "time": 34.16869313828246,
      "name": "D5"
    },
    {
      "absoluteTicks": 54694,
      "channel": 13,
      "type": "noteOff",
      "note": 50,
      "velocity": 79,
      "rel": 0.629921,
      "time": 34.1836931132325,
      "name": "D3"
    },
    {
      "absoluteTicks": 54720,
      "channel": 13,
      "type": "noteOn",
      "note": 71,
      "velocity": 79,
      "vel": 0.629921,
      "time": 34.19994288609538,
      "name": "B4",
      "svgX": 20660.12,
      "svgY": 720.25
    },
    {
      "absoluteTicks": 54720,
      "channel": 13,
      "type": "noteOn",
      "note": 55,
      "velocity": 79,
      "vel": 0.629921,
      "time": 34.19994288609538,
      "name": "G3",
      "svgX": 20660.12,
      "svgY": 884.58
    },
    {
      "absoluteTicks": 55174,
      "channel": 13,
      "type": "noteOff",
      "note": 55,
      "velocity": 79,
      "rel": 0.629921,
      "time": 34.483692612233334,
      "name": "G3"
    },
    {
      "absoluteTicks": 55200,
      "channel": 13,
      "type": "noteOn",
      "note": 59,
      "velocity": 79,
      "vel": 0.629921,
      "time": 34.49994238509622,
      "name": "B3",
      "svgX": 20836.99,
      "svgY": 843.5
    },
    {
      "absoluteTicks": 55630,
      "channel": 13,
      "type": "noteOff",
      "note": 71,
      "velocity": 79,
      "rel": 0.629921,
      "time": 34.76869213628413,
      "name": "B4"
    },
    {
      "absoluteTicks": 55654,
      "channel": 13,
      "type": "noteOff",
      "note": 59,
      "velocity": 79,
      "rel": 0.629921,
      "time": 34.783692111234174,
      "name": "B3"
    },
    {
      "absoluteTicks": 55680,
      "channel": 13,
      "type": "noteOn",
      "note": 74,
      "velocity": 79,
      "vel": 0.629921,
      "time": 34.79994188409705,
      "name": "D5",
      "svgX": 21013.86,
      "svgY": 689.44
    },
    {
      "absoluteTicks": 55680,
      "channel": 13,
      "type": "noteOn",
      "note": 38,
      "velocity": 79,
      "vel": 0.629921,
      "time": 34.79994188409705,
      "name": "D2",
      "svgX": 21013.86,
      "svgY": 1059.17
    },
    {
      "absoluteTicks": 56134,
      "channel": 13,
      "type": "noteOff",
      "note": 38,
      "velocity": 79,
      "rel": 0.629921,
      "time": 35.08369161023501,
      "name": "D2"
    },
    {
      "absoluteTicks": 56160,
      "channel": 13,
      "type": "noteOn",
      "note": 45,
      "velocity": 79,
      "vel": 0.629921,
      "time": 35.099941383097885,
      "name": "A2",
      "svgX": 21190.73,
      "svgY": 987.28
    },
    {
      "absoluteTicks": 56590,
      "channel": 13,
      "type": "noteOff",
      "note": 74,
      "velocity": 79,
      "rel": 0.629921,
      "time": 35.368691134285804,
      "name": "D5"
    },
    {
      "absoluteTicks": 56614,
      "channel": 13,
      "type": "noteOff",
      "note": 45,
      "velocity": 79,
      "rel": 0.629921,
      "time": 35.38369110923585,
      "name": "A2"
    },
    {
      "absoluteTicks": 56640,
      "channel": 13,
      "type": "noteOn",
      "note": 78,
      "velocity": 79,
      "vel": 0.629921,
      "time": 35.399940882098726,
      "name": "F#5",
      "svgX": 21367.59,
      "svgY": 648.36
    },
    {
      "absoluteTicks": 56640,
      "channel": 13,
      "type": "noteOn",
      "note": 50,
      "velocity": 79,
      "vel": 0.629921,
      "time": 35.399940882098726,
      "name": "D3",
      "svgX": 21367.59,
      "svgY": 935.93
    },
    {
      "absoluteTicks": 57094,
      "channel": 13,
      "type": "noteOff",
      "note": 50,
      "velocity": 79,
      "rel": 0.629921,
      "time": 35.68369060823668,
      "name": "D3"
    },
    {
      "absoluteTicks": 57120,
      "channel": 13,
      "type": "noteOn",
      "note": 54,
      "velocity": 79,
      "vel": 0.629921,
      "time": 35.69994038109956,
      "name": "F#3",
      "svgX": 21544.46,
      "svgY": 894.85
    },
    {
      "absoluteTicks": 57550,
      "channel": 13,
      "type": "noteOff",
      "note": 78,
      "velocity": 79,
      "rel": 0.629921,
      "time": 35.96869013228748,
      "name": "F#5"
    },
    {
      "absoluteTicks": 57574,
      "channel": 13,
      "type": "noteOff",
      "note": 54,
      "velocity": 79,
      "rel": 0.629921,
      "time": 35.98369010723752,
      "name": "F#3"
    },
    {
      "absoluteTicks": 57600,
      "channel": 13,
      "type": "noteOn",
      "note": 79,
      "velocity": 79,
      "vel": 0.629921,
      "time": 35.9999398801004,
      "name": "G5",
      "svgX": 21721.33,
      "svgY": 638.09
    },
    {
      "absoluteTicks": 57600,
      "channel": 13,
      "type": "noteOn",
      "note": 43,
      "velocity": 79,
      "vel": 0.629921,
      "time": 35.9999398801004,
      "name": "G2",
      "svgX": 21721.33,
      "svgY": 1007.82
    },
    {
      "absoluteTicks": 58054,
      "channel": 13,
      "type": "noteOff",
      "note": 43,
      "velocity": 79,
      "rel": 0.629921,
      "time": 36.283689606238354,
      "name": "G2"
    },
    {
      "absoluteTicks": 58080,
      "channel": 13,
      "type": "noteOn",
      "note": 50,
      "velocity": 79,
      "vel": 0.629921,
      "time": 36.29993937910123,
      "name": "D3",
      "svgX": 21898.19,
      "svgY": 935.93
    },
    {
      "absoluteTicks": 58510,
      "channel": 13,
      "type": "noteOff",
      "note": 79,
      "velocity": 79,
      "rel": 0.629921,
      "time": 36.56868913028915,
      "name": "G5"
    },
    {
      "absoluteTicks": 58534,
      "channel": 13,
      "type": "noteOff",
      "note": 50,
      "velocity": 79,
      "rel": 0.629921,
      "time": 36.583689105239195,
      "name": "D3"
    },
    {
      "absoluteTicks": 58560,
      "channel": 13,
      "type": "noteOn",
      "note": 83,
      "velocity": 79,
      "vel": 0.629921,
      "time": 36.59993887810207,
      "name": "B5",
      "svgX": 22075.06,
      "svgY": 597.01
    },
    {
      "absoluteTicks": 58560,
      "channel": 13,
      "type": "noteOn",
      "note": 55,
      "velocity": 79,
      "vel": 0.629921,
      "time": 36.59993887810207,
      "name": "G3",
      "svgX": 22075.06,
      "svgY": 884.58
    },
    {
      "absoluteTicks": 59014,
      "channel": 13,
      "type": "noteOff",
      "note": 55,
      "velocity": 79,
      "rel": 0.629921,
      "time": 36.88368860424003,
      "name": "G3"
    },
    {
      "absoluteTicks": 59040,
      "channel": 13,
      "type": "noteOn",
      "note": 59,
      "velocity": 79,
      "vel": 0.629921,
      "time": 36.899938377102906,
      "name": "B3",
      "svgX": 22251.93,
      "svgY": 843.5
    },
    {
      "absoluteTicks": 59470,
      "channel": 13,
      "type": "noteOff",
      "note": 83,
      "velocity": 79,
      "rel": 0.629921,
      "time": 37.168688128290825,
      "name": "B5"
    },
    {
      "absoluteTicks": 59494,
      "channel": 13,
      "type": "noteOff",
      "note": 59,
      "velocity": 79,
      "rel": 0.629921,
      "time": 37.18368810324087,
      "name": "B3"
    },
    {
      "absoluteTicks": 59520,
      "channel": 13,
      "type": "noteOn",
      "note": 81,
      "velocity": 79,
      "vel": 0.629921,
      "time": 37.199937876103746,
      "name": "A5",
      "svgX": 22428.8,
      "svgY": 617.55
    },
    {
      "absoluteTicks": 59520,
      "channel": 13,
      "type": "noteOn",
      "note": 45,
      "velocity": 79,
      "vel": 0.629921,
      "time": 37.199937876103746,
      "name": "A2",
      "svgX": 22428.8,
      "svgY": 987.28
    },
    {
      "absoluteTicks": 59974,
      "channel": 13,
      "type": "noteOff",
      "note": 45,
      "velocity": 79,
      "rel": 0.629921,
      "time": 37.4836876022417,
      "name": "A2"
    },
    {
      "absoluteTicks": 60000,
      "channel": 13,
      "type": "noteOn",
      "note": 52,
      "velocity": 79,
      "vel": 0.629921,
      "time": 37.49993737510458,
      "name": "E3",
      "svgX": 22605.66,
      "svgY": 915.39
    },
    {
      "absoluteTicks": 60454,
      "channel": 13,
      "type": "noteOff",
      "note": 52,
      "velocity": 79,
      "rel": 0.629921,
      "time": 37.78368710124254,
      "name": "E3"
    },
    {
      "absoluteTicks": 60480,
      "channel": 13,
      "type": "noteOn",
      "note": 57,
      "velocity": 79,
      "vel": 0.629921,
      "time": 37.79993687410542,
      "name": "A3",
      "svgX": 22782.53,
      "svgY": 864.04
    },
    {
      "absoluteTicks": 60885,
      "channel": 13,
      "type": "noteOff",
      "note": 81,
      "velocity": 79,
      "rel": 0.629921,
      "time": 38.0536860503443,
      "name": "A5"
    },
    {
      "absoluteTicks": 60934,
      "channel": 13,
      "type": "noteOff",
      "note": 57,
      "velocity": 79,
      "rel": 0.629921,
      "time": 38.083686600243375,
      "name": "A3"
    },
    {
      "absoluteTicks": 60960,
      "channel": 13,
      "type": "noteOn",
      "note": 79,
      "velocity": 79,
      "vel": 0.629921,
      "time": 38.09993637310625,
      "name": "G5",
      "svgX": 22959.4,
      "svgY": 638.09
    },
    {
      "absoluteTicks": 60960,
      "channel": 13,
      "type": "noteOn",
      "note": 61,
      "velocity": 79,
      "vel": 0.629921,
      "time": 38.09993637310625,
      "name": "C#4",
      "svgX": 22959.4,
      "svgY": 822.96
    },
    {
      "absoluteTicks": 61414,
      "channel": 13,
      "type": "noteOff",
      "note": 79,
      "velocity": 79,
      "rel": 0.629921,
      "time": 38.383686099244215,
      "name": "G5"
    },
    {
      "absoluteTicks": 61414,
      "channel": 13,
      "type": "noteOff",
      "note": 61,
      "velocity": 79,
      "rel": 0.629921,
      "time": 38.383686099244215,
      "name": "C#4"
    },
    {
      "absoluteTicks": 61440,
      "channel": 13,
      "type": "noteOn",
      "note": 78,
      "velocity": 79,
      "vel": 0.629921,
      "time": 38.39993587210709,
      "name": "F#5",
      "svgX": 23136.27,
      "svgY": 648.36
    },
    {
      "absoluteTicks": 61440,
      "channel": 13,
      "type": "noteOn",
      "note": 74,
      "velocity": 79,
      "vel": 0.629921,
      "time": 38.39993587210709,
      "name": "D5",
      "svgX": 23136.27,
      "svgY": 689.44
    },
    {
      "absoluteTicks": 61440,
      "channel": 13,
      "type": "noteOn",
      "note": 50,
      "velocity": 79,
      "vel": 0.629921,
      "time": 38.39993587210709,
      "name": "D3",
      "svgX": 23136.27,
      "svgY": 935.93
    },
    {
      "absoluteTicks": 61894,
      "channel": 13,
      "type": "noteOff",
      "note": 50,
      "velocity": 79,
      "rel": 0.629921,
      "time": 38.68368559824504,
      "name": "D3"
    },
    {
      "absoluteTicks": 61920,
      "channel": 13,
      "type": "noteOn",
      "note": 57,
      "velocity": 79,
      "vel": 0.629921,
      "time": 38.69993537110793,
      "name": "A3",
      "svgX": 23313.13,
      "svgY": 864.04
    },
    {
      "absoluteTicks": 62350,
      "channel": 13,
      "type": "noteOff",
      "note": 78,
      "velocity": 79,
      "rel": 0.629921,
      "time": 38.968685122295845,
      "name": "F#5"
    },
    {
      "absoluteTicks": 62350,
      "channel": 13,
      "type": "noteOff",
      "note": 74,
      "velocity": 79,
      "rel": 0.629921,
      "time": 38.968685122295845,
      "name": "D5"
    },
    {
      "absoluteTicks": 62374,
      "channel": 13,
      "type": "noteOff",
      "note": 57,
      "velocity": 79,
      "rel": 0.629921,
      "time": 38.98368509724588,
      "name": "A3"
    },
    {
      "absoluteTicks": 62400,
      "channel": 13,
      "type": "noteOn",
      "note": 78,
      "velocity": 79,
      "vel": 0.629921,
      "time": 38.99993487010877,
      "name": "F#5",
      "svgX": 23490.0,
      "svgY": 648.36
    },
    {
      "absoluteTicks": 62400,
      "channel": 13,
      "type": "noteOn",
      "note": 62,
      "velocity": 79,
      "vel": 0.629921,
      "time": 38.99993487010877,
      "name": "D4",
      "svgX": 23490.0,
      "svgY": 812.69
    },
    {
      "absoluteTicks": 62854,
      "channel": 13,
      "type": "noteOff",
      "note": 62,
      "velocity": 79,
      "rel": 0.629921,
      "time": 39.283684596246715,
      "name": "D4"
    },
    {
      "absoluteTicks": 62880,
      "channel": 13,
      "type": "noteOn",
      "note": 66,
      "velocity": 79,
      "vel": 0.629921,
      "time": 39.2999343691096,
      "name": "F#4",
      "svgX": 23666.87,
      "svgY": 771.6
    },
    {
      "absoluteTicks": 63310,
      "channel": 13,
      "type": "noteOff",
      "note": 78,
      "velocity": 79,
      "rel": 0.629921,
      "time": 39.56868412029752,
      "name": "F#5"
    },
    {
      "absoluteTicks": 63334,
      "channel": 13,
      "type": "noteOff",
      "note": 66,
      "velocity": 79,
      "rel": 0.629921,
      "time": 39.583684095247555,
      "name": "F#4"
    },
    {
      "absoluteTicks": 63360,
      "channel": 13,
      "type": "noteOn",
      "note": 81,
      "velocity": 79,
      "vel": 0.629921,
      "time": 39.59993386811044,
      "name": "A5",
      "svgX": 23843.74,
      "svgY": 617.55
    },
    {
      "absoluteTicks": 63360,
      "channel": 13,
      "type": "noteOn",
      "note": 76,
      "velocity": 79,
      "vel": 0.629921,
      "time": 39.59993386811044,
      "name": "E5",
      "svgX": 23843.74,
      "svgY": 668.9
    },
    {
      "absoluteTicks": 63360,
      "channel": 13,
      "type": "noteOn",
      "note": 45,
      "velocity": 79,
      "vel": 0.629921,
      "time": 39.59993386811044,
      "name": "A2",
      "svgX": 23843.74,
      "svgY": 987.28
    },
    {
      "absoluteTicks": 63814,
      "channel": 13,
      "type": "noteOff",
      "note": 45,
      "velocity": 79,
      "rel": 0.629921,
      "time": 39.88368359424839,
      "name": "A2"
    },
    {
      "absoluteTicks": 63840,
      "channel": 13,
      "type": "noteOn",
      "note": 52,
      "velocity": 79,
      "vel": 0.629921,
      "time": 39.899933367111274,
      "name": "E3",
      "svgX": 24020.6,
      "svgY": 915.39
    },
    {
      "absoluteTicks": 64270,
      "channel": 13,
      "type": "noteOff",
      "note": 81,
      "velocity": 79,
      "rel": 0.629921,
      "time": 40.16868311829919,
      "name": "A5"
    },
    {
      "absoluteTicks": 64270,
      "channel": 13,
      "type": "noteOff",
      "note": 76,
      "velocity": 79,
      "rel": 0.629921,
      "time": 40.16868311829919,
      "name": "E5"
    },
    {
      "absoluteTicks": 64294,
      "channel": 13,
      "type": "noteOff",
      "note": 52,
      "velocity": 79,
      "rel": 0.629921,
      "time": 40.18368309324923,
      "name": "E3"
    },
    {
      "absoluteTicks": 64320,
      "channel": 13,
      "type": "noteOn",
      "note": 79,
      "velocity": 79,
      "vel": 0.629921,
      "time": 40.199932866112114,
      "name": "G5",
      "svgX": 24197.47,
      "svgY": 638.09
    },
    {
      "absoluteTicks": 64320,
      "channel": 13,
      "type": "noteOn",
      "note": 57,
      "velocity": 79,
      "vel": 0.629921,
      "time": 40.199932866112114,
      "name": "A3",
      "svgX": 24197.47,
      "svgY": 864.04
    },
    {
      "absoluteTicks": 64774,
      "channel": 13,
      "type": "noteOff",
      "note": 57,
      "velocity": 79,
      "rel": 0.629921,
      "time": 40.48368259225006,
      "name": "A3"
    },
    {
      "absoluteTicks": 64800,
      "channel": 13,
      "type": "noteOn",
      "note": 61,
      "velocity": 79,
      "vel": 0.629921,
      "time": 40.49993236511295,
      "name": "C#4",
      "svgX": 24374.34,
      "svgY": 822.96
    },
    {
      "absoluteTicks": 65230,
      "channel": 13,
      "type": "noteOff",
      "note": 79,
      "velocity": 79,
      "rel": 0.629921,
      "time": 40.768682116300866,
      "name": "G5"
    },
    {
      "absoluteTicks": 65254,
      "channel": 13,
      "type": "noteOff",
      "note": 61,
      "velocity": 79,
      "rel": 0.629921,
      "time": 40.7836820912509,
      "name": "C#4"
    },
    {
      "absoluteTicks": 65280,
      "channel": 13,
      "type": "noteOn",
      "note": 78,
      "velocity": 79,
      "vel": 0.629921,
      "time": 40.79993186411379,
      "name": "F#5",
      "svgX": 24551.2,
      "svgY": 648.36
    },
    {
      "absoluteTicks": 65280,
      "channel": 13,
      "type": "noteOn",
      "note": 74,
      "velocity": 79,
      "vel": 0.629921,
      "time": 40.79993186411379,
      "name": "D5",
      "svgX": 24551.2,
      "svgY": 689.44
    },
    {
      "absoluteTicks": 65280,
      "channel": 13,
      "type": "noteOn",
      "note": 47,
      "velocity": 79,
      "vel": 0.629921,
      "time": 40.79993186411379,
      "name": "B2",
      "svgX": 24551.2,
      "svgY": 966.74
    },
    {
      "absoluteTicks": 65734,
      "channel": 13,
      "type": "noteOff",
      "note": 47,
      "velocity": 79,
      "rel": 0.629921,
      "time": 41.083681590251736,
      "name": "B2"
    },
    {
      "absoluteTicks": 65760,
      "channel": 13,
      "type": "noteOn",
      "note": 54,
      "velocity": 79,
      "vel": 0.629921,
      "time": 41.09993136311462,
      "name": "F#3",
      "svgX": 24728.07,
      "svgY": 894.85
    },
    {
      "absoluteTicks": 66190,
      "channel": 13,
      "type": "noteOff",
      "note": 78,
      "velocity": 79,
      "rel": 0.629921,
      "time": 41.36868111430254,
      "name": "F#5"
    },
    {
      "absoluteTicks": 66190,
      "channel": 13,
      "type": "noteOff",
      "note": 74,
      "velocity": 79,
      "rel": 0.629921,
      "time": 41.36868111430254,
      "name": "D5"
    },
    {
      "absoluteTicks": 66214,
      "channel": 13,
      "type": "noteOff",
      "note": 54,
      "velocity": 79,
      "rel": 0.629921,
      "time": 41.383681089252576,
      "name": "F#3"
    },
    {
      "absoluteTicks": 66240,
      "channel": 13,
      "type": "noteOn",
      "note": 74,
      "velocity": 79,
      "vel": 0.629921,
      "time": 41.39993086211546,
      "name": "D5",
      "svgX": 24904.94,
      "svgY": 689.44
    },
    {
      "absoluteTicks": 66240,
      "channel": 13,
      "type": "noteOn",
      "note": 59,
      "velocity": 79,
      "vel": 0.629921,
      "time": 41.39993086211546,
      "name": "B3",
      "svgX": 24904.94,
      "svgY": 843.5
    },
    {
      "absoluteTicks": 66694,
      "channel": 13,
      "type": "noteOff",
      "note": 59,
      "velocity": 79,
      "rel": 0.629921,
      "time": 41.68368058825341,
      "name": "B3"
    },
    {
      "absoluteTicks": 66720,
      "channel": 13,
      "type": "noteOn",
      "note": 62,
      "velocity": 79,
      "vel": 0.629921,
      "time": 41.699930361116294,
      "name": "D4",
      "svgX": 25081.81,
      "svgY": 812.69
    },
    {
      "absoluteTicks": 67150,
      "channel": 13,
      "type": "noteOff",
      "note": 74,
      "velocity": 79,
      "rel": 0.629921,
      "time": 41.96868011230421,
      "name": "D5"
    },
    {
      "absoluteTicks": 67174,
      "channel": 13,
      "type": "noteOff",
      "note": 62,
      "velocity": 79,
      "rel": 0.629921,
      "time": 41.98368008725425,
      "name": "D4"
    },
    {
      "absoluteTicks": 67200,
      "channel": 13,
      "type": "noteOn",
      "note": 78,
      "velocity": 79,
      "vel": 0.629921,
      "time": 41.999929860117135,
      "name": "F#5",
      "svgX": 25258.67,
      "svgY": 648.36
    },
    {
      "absoluteTicks": 67200,
      "channel": 13,
      "type": "noteOn",
      "note": 73,
      "velocity": 79,
      "vel": 0.629921,
      "time": 41.999929860117135,
      "name": "C#5",
      "svgX": 25258.67,
      "svgY": 699.71
    },
    {
      "absoluteTicks": 67200,
      "channel": 13,
      "type": "noteOn",
      "note": 42,
      "velocity": 79,
      "vel": 0.629921,
      "time": 41.999929860117135,
      "name": "F#2",
      "svgX": 25258.67,
      "svgY": 1018.09
    },
    {
      "absoluteTicks": 67654,
      "channel": 13,
      "type": "noteOff",
      "note": 42,
      "velocity": 79,
      "rel": 0.629921,
      "time": 42.28367958625508,
      "name": "F#2"
    },
    {
      "absoluteTicks": 67680,
      "channel": 13,
      "type": "noteOn",
      "note": 49,
      "velocity": 79,
      "vel": 0.629921,
      "time": 42.29992935911797,
      "name": "C#3",
      "svgX": 25435.54,
      "svgY": 946.2
    },
    {
      "absoluteTicks": 68134,
      "channel": 13,
      "type": "noteOff",
      "note": 49,
      "velocity": 79,
      "rel": 0.629921,
      "time": 42.58367908525592,
      "name": "C#3"
    },
    {
      "absoluteTicks": 68160,
      "channel": 13,
      "type": "noteOn",
      "note": 54,
      "velocity": 79,
      "vel": 0.629921,
      "time": 42.59992885811881,
      "name": "F#3",
      "svgX": 25612.41,
      "svgY": 894.85
    },
    {
      "absoluteTicks": 68565,
      "channel": 13,
      "type": "noteOff",
      "note": 78,
      "velocity": 79,
      "rel": 0.629921,
      "time": 42.853678034357685,
      "name": "F#5"
    },
    {
      "absoluteTicks": 68565,
      "channel": 13,
      "type": "noteOff",
      "note": 73,
      "velocity": 79,
      "rel": 0.629921,
      "time": 42.853678034357685,
      "name": "C#5"
    },
    {
      "absoluteTicks": 68614,
      "channel": 13,
      "type": "noteOff",
      "note": 54,
      "velocity": 79,
      "rel": 0.629921,
      "time": 42.88367858425676,
      "name": "F#3"
    },
    {
      "absoluteTicks": 68640,
      "channel": 13,
      "type": "noteOn",
      "note": 76,
      "velocity": 79,
      "vel": 0.629921,
      "time": 42.89992835711964,
      "name": "E5",
      "svgX": 25789.28,
      "svgY": 668.9
    },
    {
      "absoluteTicks": 68640,
      "channel": 13,
      "type": "noteOn",
      "note": 57,
      "velocity": 79,
      "vel": 0.629921,
      "time": 42.89992835711964,
      "name": "A3",
      "svgX": 25789.28,
      "svgY": 864.04
    },
    {
      "absoluteTicks": 69094,
      "channel": 13,
      "type": "noteOff",
      "note": 76,
      "velocity": 79,
      "rel": 0.629921,
      "time": 43.1836780832576,
      "name": "E5"
    },
    {
      "absoluteTicks": 69094,
      "channel": 13,
      "type": "noteOff",
      "note": 57,
      "velocity": 79,
      "rel": 0.629921,
      "time": 43.1836780832576,
      "name": "A3"
    },
    {
      "absoluteTicks": 69120,
      "channel": 13,
      "type": "noteOn",
      "note": 74,
      "velocity": 79,
      "vel": 0.629921,
      "time": 43.199927856120475,
      "name": "D5",
      "svgX": 25966.14,
      "svgY": 689.44
    },
    {
      "absoluteTicks": 69120,
      "channel": 13,
      "type": "noteOn",
      "note": 71,
      "velocity": 79,
      "vel": 0.629921,
      "time": 43.199927856120475,
      "name": "B4",
      "svgX": 25966.14,
      "svgY": 720.25
    },
    {
      "absoluteTicks": 69120,
      "channel": 13,
      "type": "noteOn",
      "note": 43,
      "velocity": 79,
      "vel": 0.629921,
      "time": 43.199927856120475,
      "name": "G2",
      "svgX": 25966.14,
      "svgY": 1007.82
    },
    {
      "absoluteTicks": 69574,
      "channel": 13,
      "type": "noteOff",
      "note": 43,
      "velocity": 79,
      "rel": 0.629921,
      "time": 43.48367758225843,
      "name": "G2"
    },
    {
      "absoluteTicks": 69600,
      "channel": 13,
      "type": "noteOn",
      "note": 50,
      "velocity": 79,
      "vel": 0.629921,
      "time": 43.499927355121315,
      "name": "D3",
      "svgX": 26143.01,
      "svgY": 935.93
    },
    {
      "absoluteTicks": 70030,
      "channel": 13,
      "type": "noteOff",
      "note": 74,
      "velocity": 79,
      "rel": 0.629921,
      "time": 43.768677106309234,
      "name": "D5"
    },
    {
      "absoluteTicks": 70030,
      "channel": 13,
      "type": "noteOff",
      "note": 71,
      "velocity": 79,
      "rel": 0.629921,
      "time": 43.768677106309234,
      "name": "B4"
    },
    {
      "absoluteTicks": 70054,
      "channel": 13,
      "type": "noteOff",
      "note": 50,
      "velocity": 79,
      "rel": 0.629921,
      "time": 43.78367708125927,
      "name": "D3"
    },
    {
      "absoluteTicks": 70080,
      "channel": 13,
      "type": "noteOn",
      "note": 71,
      "velocity": 79,
      "vel": 0.629921,
      "time": 43.79992685412215,
      "name": "B4",
      "svgX": 26319.88,
      "svgY": 720.25
    },
    {
      "absoluteTicks": 70080,
      "channel": 13,
      "type": "noteOn",
      "note": 55,
      "velocity": 79,
      "vel": 0.629921,
      "time": 43.79992685412215,
      "name": "G3",
      "svgX": 26319.88,
      "svgY": 884.58
    },
    {
      "absoluteTicks": 70534,
      "channel": 13,
      "type": "noteOff",
      "note": 55,
      "velocity": 79,
      "rel": 0.629921,
      "time": 44.083676580260104,
      "name": "G3"
    },
    {
      "absoluteTicks": 70560,
      "channel": 13,
      "type": "noteOn",
      "note": 59,
      "velocity": 79,
      "vel": 0.629921,
      "time": 44.09992635312299,
      "name": "B3",
      "svgX": 26496.75,
      "svgY": 843.5
    },
    {
      "absoluteTicks": 70990,
      "channel": 13,
      "type": "noteOff",
      "note": 71,
      "velocity": 79,
      "rel": 0.629921,
      "time": 44.36867610431091,
      "name": "B4"
    },
    {
      "absoluteTicks": 71014,
      "channel": 13,
      "type": "noteOff",
      "note": 59,
      "velocity": 79,
      "rel": 0.629921,
      "time": 44.383676079260944,
      "name": "B3"
    },
    {
      "absoluteTicks": 71040,
      "channel": 13,
      "type": "noteOn",
      "note": 74,
      "velocity": 79,
      "vel": 0.629921,
      "time": 44.39992585212382,
      "name": "D5",
      "svgX": 26673.61,
      "svgY": 689.44
    },
    {
      "absoluteTicks": 71040,
      "channel": 13,
      "type": "noteOn",
      "note": 69,
      "velocity": 79,
      "vel": 0.629921,
      "time": 44.39992585212382,
      "name": "A4",
      "svgX": 26673.61,
      "svgY": 740.79
    },
    {
      "absoluteTicks": 71040,
      "channel": 13,
      "type": "noteOn",
      "note": 38,
      "velocity": 79,
      "vel": 0.629921,
      "time": 44.39992585212382,
      "name": "D2",
      "svgX": 26673.61,
      "svgY": 1059.17
    },
    {
      "absoluteTicks": 71494,
      "channel": 13,
      "type": "noteOff",
      "note": 38,
      "velocity": 79,
      "rel": 0.629921,
      "time": 44.68367557826178,
      "name": "D2"
    },
    {
      "absoluteTicks": 71520,
      "channel": 13,
      "type": "noteOn",
      "note": 45,
      "velocity": 79,
      "vel": 0.629921,
      "time": 44.69992535112466,
      "name": "A2",
      "svgX": 26850.48,
      "svgY": 987.28
    },
    {
      "absoluteTicks": 71950,
      "channel": 13,
      "type": "noteOff",
      "note": 74,
      "velocity": 79,
      "rel": 0.629921,
      "time": 44.96867510231258,
      "name": "D5"
    },
    {
      "absoluteTicks": 71950,
      "channel": 13,
      "type": "noteOff",
      "note": 69,
      "velocity": 79,
      "rel": 0.629921,
      "time": 44.96867510231258,
      "name": "A4"
    },
    {
      "absoluteTicks": 71974,
      "channel": 13,
      "type": "noteOff",
      "note": 45,
      "velocity": 79,
      "rel": 0.629921,
      "time": 44.98367507726261,
      "name": "A2"
    },
    {
      "absoluteTicks": 72000,
      "channel": 13,
      "type": "noteOn",
      "note": 78,
      "velocity": 79,
      "vel": 0.629921,
      "time": 44.999924850125495,
      "name": "F#5",
      "svgX": 27027.35,
      "svgY": 648.36
    },
    {
      "absoluteTicks": 72000,
      "channel": 13,
      "type": "noteOn",
      "note": 50,
      "velocity": 79,
      "vel": 0.629921,
      "time": 44.999924850125495,
      "name": "D3",
      "svgX": 27027.35,
      "svgY": 935.93
    },
    {
      "absoluteTicks": 72454,
      "channel": 13,
      "type": "noteOff",
      "note": 50,
      "velocity": 79,
      "rel": 0.629921,
      "time": 45.28367457626345,
      "name": "D3"
    },
    {
      "absoluteTicks": 72480,
      "channel": 13,
      "type": "noteOn",
      "note": 54,
      "velocity": 79,
      "vel": 0.629921,
      "time": 45.299924349126336,
      "name": "F#3",
      "svgX": 27204.21,
      "svgY": 894.85
    },
    {
      "absoluteTicks": 72910,
      "channel": 13,
      "type": "noteOff",
      "note": 78,
      "velocity": 79,
      "rel": 0.629921,
      "time": 45.568674100314254,
      "name": "F#5"
    },
    {
      "absoluteTicks": 72934,
      "channel": 13,
      "type": "noteOff",
      "note": 54,
      "velocity": 79,
      "rel": 0.629921,
      "time": 45.583674075264284,
      "name": "F#3"
    },
    {
      "absoluteTicks": 72960,
      "channel": 13,
      "type": "noteOn",
      "note": 79,
      "velocity": 79,
      "vel": 0.629921,
      "time": 45.59992384812717,
      "name": "G5",
      "svgX": 27381.08,
      "svgY": 638.09
    },
    {
      "absoluteTicks": 72960,
      "channel": 13,
      "type": "noteOn",
      "note": 71,
      "velocity": 79,
      "vel": 0.629921,
      "time": 45.59992384812717,
      "name": "B4",
      "svgX": 27381.08,
      "svgY": 720.25
    },
    {
      "absoluteTicks": 72960,
      "channel": 13,
      "type": "noteOn",
      "note": 43,
      "velocity": 79,
      "vel": 0.629921,
      "time": 45.59992384812717,
      "name": "G2",
      "svgX": 27381.08,
      "svgY": 1007.82
    },
    {
      "absoluteTicks": 73414,
      "channel": 13,
      "type": "noteOff",
      "note": 43,
      "velocity": 79,
      "rel": 0.629921,
      "time": 45.883673574265124,
      "name": "G2"
    },
    {
      "absoluteTicks": 73440,
      "channel": 13,
      "type": "noteOn",
      "note": 50,
      "velocity": 79,
      "vel": 0.629921,
      "time": 45.89992334712801,
      "name": "D3",
      "svgX": 27557.95,
      "svgY": 935.93
    },
    {
      "absoluteTicks": 73870,
      "channel": 13,
      "type": "noteOff",
      "note": 79,
      "velocity": 79,
      "rel": 0.629921,
      "time": 46.16867309831593,
      "name": "G5"
    },
    {
      "absoluteTicks": 73870,
      "channel": 13,
      "type": "noteOff",
      "note": 71,
      "velocity": 79,
      "rel": 0.629921,
      "time": 46.16867309831593,
      "name": "B4"
    },
    {
      "absoluteTicks": 73894,
      "channel": 13,
      "type": "noteOff",
      "note": 50,
      "velocity": 79,
      "rel": 0.629921,
      "time": 46.18367307326596,
      "name": "D3"
    },
    {
      "absoluteTicks": 73920,
      "channel": 13,
      "type": "noteOn",
      "note": 83,
      "velocity": 79,
      "vel": 0.629921,
      "time": 46.19992284612884,
      "name": "B5",
      "svgX": 27734.82,
      "svgY": 597.01
    },
    {
      "absoluteTicks": 73920,
      "channel": 13,
      "type": "noteOn",
      "note": 55,
      "velocity": 79,
      "vel": 0.629921,
      "time": 46.19992284612884,
      "name": "G3",
      "svgX": 27734.82,
      "svgY": 884.58
    },
    {
      "absoluteTicks": 74374,
      "channel": 13,
      "type": "noteOff",
      "note": 55,
      "velocity": 79,
      "rel": 0.629921,
      "time": 46.4836725722668,
      "name": "G3"
    },
    {
      "absoluteTicks": 74400,
      "channel": 13,
      "type": "noteOn",
      "note": 59,
      "velocity": 79,
      "vel": 0.629921,
      "time": 46.49992234512968,
      "name": "B3",
      "svgX": 27911.68,
      "svgY": 843.5
    },
    {
      "absoluteTicks": 74830,
      "channel": 13,
      "type": "noteOff",
      "note": 83,
      "velocity": 79,
      "rel": 0.629921,
      "time": 46.7686720963176,
      "name": "B5"
    },
    {
      "absoluteTicks": 74854,
      "channel": 13,
      "type": "noteOff",
      "note": 59,
      "velocity": 79,
      "rel": 0.629921,
      "time": 46.78367207126763,
      "name": "B3"
    },
    {
      "absoluteTicks": 74880,
      "channel": 13,
      "type": "noteOn",
      "note": 81,
      "velocity": 79,
      "vel": 0.629921,
      "time": 46.799921844130516,
      "name": "A5",
      "svgX": 28088.55,
      "svgY": 617.55
    },
    {
      "absoluteTicks": 74880,
      "channel": 13,
      "type": "noteOn",
      "note": 73,
      "velocity": 79,
      "vel": 0.629921,
      "time": 46.799921844130516,
      "name": "C#5",
      "svgX": 28088.55,
      "svgY": 699.71
    },
    {
      "absoluteTicks": 74880,
      "channel": 13,
      "type": "noteOn",
      "note": 45,
      "velocity": 79,
      "vel": 0.629921,
      "time": 46.799921844130516,
      "name": "A2",
      "svgX": 28088.55,
      "svgY": 987.28
    },
    {
      "absoluteTicks": 75334,
      "channel": 13,
      "type": "noteOff",
      "note": 45,
      "velocity": 79,
      "rel": 0.629921,
      "time": 47.08367157026847,
      "name": "A2"
    },
    {
      "absoluteTicks": 75360,
      "channel": 13,
      "type": "noteOn",
      "note": 52,
      "velocity": 79,
      "vel": 0.629921,
      "time": 47.099921343131356,
      "name": "E3",
      "svgX": 28265.42,
      "svgY": 915.39
    },
    {
      "absoluteTicks": 75814,
      "channel": 13,
      "type": "noteOff",
      "note": 52,
      "velocity": 79,
      "rel": 0.629921,
      "time": 47.383671069269305,
      "name": "E3"
    },
    {
      "absoluteTicks": 75840,
      "channel": 13,
      "type": "noteOn",
      "note": 57,
      "velocity": 79,
      "vel": 0.629921,
      "time": 47.39992084213219,
      "name": "A3",
      "svgX": 28442.29,
      "svgY": 864.04
    },
    {
      "absoluteTicks": 76245,
      "channel": 13,
      "type": "noteOff",
      "note": 81,
      "velocity": 79,
      "rel": 0.629921,
      "time": 47.653670018371066,
      "name": "A5"
    },
    {
      "absoluteTicks": 76245,
      "channel": 13,
      "type": "noteOff",
      "note": 73,
      "velocity": 79,
      "rel": 0.629921,
      "time": 47.653670018371066,
      "name": "C#5"
    },
    {
      "absoluteTicks": 76294,
      "channel": 13,
      "type": "noteOff",
      "note": 57,
      "velocity": 79,
      "rel": 0.629921,
      "time": 47.683670568270145,
      "name": "A3"
    },
    {
      "absoluteTicks": 76320,
      "channel": 13,
      "type": "noteOn",
      "note": 79,
      "velocity": 79,
      "vel": 0.629921,
      "time": 47.69992034113303,
      "name": "G5",
      "svgX": 28619.15,
      "svgY": 638.09
    },
    {
      "absoluteTicks": 76320,
      "channel": 13,
      "type": "noteOn",
      "note": 61,
      "velocity": 79,
      "vel": 0.629921,
      "time": 47.69992034113303,
      "name": "C#4",
      "svgX": 28619.15,
      "svgY": 822.96
    },
    {
      "absoluteTicks": 76774,
      "channel": 13,
      "type": "noteOff",
      "note": 79,
      "velocity": 79,
      "rel": 0.629921,
      "time": 47.98367006727098,
      "name": "G5"
    },
    {
      "absoluteTicks": 76774,
      "channel": 13,
      "type": "noteOff",
      "note": 61,
      "velocity": 79,
      "rel": 0.629921,
      "time": 47.98367006727098,
      "name": "C#4"
    },
    {
      "absoluteTicks": 76800,
      "channel": 13,
      "type": "noteOn",
      "note": 74,
      "velocity": 79,
      "vel": 0.629921,
      "time": 47.99991984013386,
      "name": "D5",
      "svgX": 28796.02,
      "svgY": 689.44
    },
    {
      "absoluteTicks": 76800,
      "channel": 13,
      "type": "noteOn",
      "note": 50,
      "velocity": 79,
      "vel": 0.629921,
      "time": 47.99991984013386,
      "name": "D3",
      "svgX": 28796.02,
      "svgY": 935.93
    },
    {
      "absoluteTicks": 77254,
      "channel": 13,
      "type": "noteOff",
      "note": 74,
      "velocity": 79,
      "rel": 0.629921,
      "time": 48.28366956627182,
      "name": "D5"
    },
    {
      "absoluteTicks": 77254,
      "channel": 13,
      "type": "noteOff",
      "note": 50,
      "velocity": 79,
      "rel": 0.629921,
      "time": 48.28366956627182,
      "name": "D3"
    },
    {
      "absoluteTicks": 77280,
      "channel": 13,
      "type": "noteOn",
      "note": 73,
      "velocity": 79,
      "vel": 0.629921,
      "time": 48.2999193391347,
      "name": "C#5",
      "svgX": 28972.89,
      "svgY": 699.71
    },
    {
      "absoluteTicks": 77280,
      "channel": 13,
      "type": "noteOn",
      "note": 57,
      "velocity": 79,
      "vel": 0.629921,
      "time": 48.2999193391347,
      "name": "A3",
      "svgX": 28972.89,
      "svgY": 864.04
    },
    {
      "absoluteTicks": 77734,
      "channel": 13,
      "type": "noteOff",
      "note": 73,
      "velocity": 79,
      "rel": 0.629921,
      "time": 48.58366906527265,
      "name": "C#5"
    },
    {
      "absoluteTicks": 77734,
      "channel": 13,
      "type": "noteOff",
      "note": 57,
      "velocity": 79,
      "rel": 0.629921,
      "time": 48.58366906527265,
      "name": "A3"
    },
    {
      "absoluteTicks": 77760,
      "channel": 13,
      "type": "noteOn",
      "note": 74,
      "velocity": 79,
      "vel": 0.629921,
      "time": 48.59991883813554,
      "name": "D5",
      "svgX": 29149.76,
      "svgY": 689.44
    },
    {
      "absoluteTicks": 77760,
      "channel": 13,
      "type": "noteOn",
      "note": 62,
      "velocity": 79,
      "vel": 0.629921,
      "time": 48.59991883813554,
      "name": "D4",
      "svgX": 29149.76,
      "svgY": 812.69
    },
    {
      "absoluteTicks": 78214,
      "channel": 13,
      "type": "noteOff",
      "note": 74,
      "velocity": 79,
      "rel": 0.629921,
      "time": 48.88366856427349,
      "name": "D5"
    },
    {
      "absoluteTicks": 78214,
      "channel": 13,
      "type": "noteOff",
      "note": 62,
      "velocity": 79,
      "rel": 0.629921,
      "time": 48.88366856427349,
      "name": "D4"
    },
    {
      "absoluteTicks": 78240,
      "channel": 13,
      "type": "noteOn",
      "note": 69,
      "velocity": 79,
      "vel": 0.629921,
      "time": 48.89991833713638,
      "name": "A4",
      "svgX": 29326.62,
      "svgY": 740.79
    },
    {
      "absoluteTicks": 78240,
      "channel": 13,
      "type": "noteOn",
      "note": 66,
      "velocity": 79,
      "vel": 0.629921,
      "time": 48.89991833713638,
      "name": "F#4",
      "svgX": 29326.62,
      "svgY": 771.6
    },
    {
      "absoluteTicks": 78694,
      "channel": 13,
      "type": "noteOff",
      "note": 69,
      "velocity": 79,
      "rel": 0.629921,
      "time": 49.183668063274325,
      "name": "A4"
    },
    {
      "absoluteTicks": 78694,
      "channel": 13,
      "type": "noteOff",
      "note": 66,
      "velocity": 79,
      "rel": 0.629921,
      "time": 49.183668063274325,
      "name": "F#4"
    },
    {
      "absoluteTicks": 78720,
      "channel": 13,
      "type": "noteOn",
      "note": 69,
      "velocity": 79,
      "vel": 0.629921,
      "time": 49.19991783613721,
      "name": "A4",
      "svgX": 29503.49,
      "svgY": 740.79
    },
    {
      "absoluteTicks": 78720,
      "channel": 13,
      "type": "noteOn",
      "note": 45,
      "velocity": 79,
      "vel": 0.629921,
      "time": 49.19991783613721,
      "name": "A2",
      "svgX": 29503.49,
      "svgY": 987.28
    },
    {
      "absoluteTicks": 79174,
      "channel": 13,
      "type": "noteOff",
      "note": 45,
      "velocity": 79,
      "rel": 0.629921,
      "time": 49.483667562275166,
      "name": "A2"
    },
    {
      "absoluteTicks": 79200,
      "channel": 13,
      "type": "noteOn",
      "note": 52,
      "velocity": 79,
      "vel": 0.629921,
      "time": 49.49991733513805,
      "name": "E3",
      "svgX": 29680.36,
      "svgY": 915.39
    },
    {
      "absoluteTicks": 79630,
      "channel": 13,
      "type": "noteOff",
      "note": 69,
      "velocity": 79,
      "rel": 0.629921,
      "time": 49.76866708632597,
      "name": "A4"
    },
    {
      "absoluteTicks": 79654,
      "channel": 13,
      "type": "noteOff",
      "note": 52,
      "velocity": 79,
      "rel": 0.629921,
      "time": 49.783667061276,
      "name": "E3"
    },
    {
      "absoluteTicks": 79680,
      "channel": 13,
      "type": "noteOn",
      "note": 73,
      "velocity": 79,
      "vel": 0.629921,
      "time": 49.799916834138884,
      "name": "C#5",
      "svgX": 29857.22,
      "svgY": 699.71
    },
    {
      "absoluteTicks": 79680,
      "channel": 13,
      "type": "noteOn",
      "note": 57,
      "velocity": 79,
      "vel": 0.629921,
      "time": 49.799916834138884,
      "name": "A3",
      "svgX": 29857.22,
      "svgY": 864.04
    },
    {
      "absoluteTicks": 80134,
      "channel": 13,
      "type": "noteOff",
      "note": 57,
      "velocity": 79,
      "rel": 0.629921,
      "time": 50.08366656027684,
      "name": "A3"
    },
    {
      "absoluteTicks": 80160,
      "channel": 13,
      "type": "noteOn",
      "note": 61,
      "velocity": 79,
      "vel": 0.629921,
      "time": 50.099916333139724,
      "name": "C#4",
      "svgX": 30034.09,
      "svgY": 822.96
    },
    {
      "absoluteTicks": 80590,
      "channel": 13,
      "type": "noteOff",
      "note": 73,
      "velocity": 79,
      "rel": 0.629921,
      "time": 50.36866608432764,
      "name": "C#5"
    },
    {
      "absoluteTicks": 80614,
      "channel": 13,
      "type": "noteOff",
      "note": 61,
      "velocity": 79,
      "rel": 0.629921,
      "time": 50.38366605927767,
      "name": "C#4"
    },
    {
      "absoluteTicks": 80640,
      "channel": 13,
      "type": "noteOn",
      "note": 74,
      "velocity": 79,
      "vel": 0.629921,
      "time": 50.39991583214056,
      "name": "D5",
      "svgX": 30210.96,
      "svgY": 689.44
    },
    {
      "absoluteTicks": 80640,
      "channel": 13,
      "type": "noteOn",
      "note": 47,
      "velocity": 79,
      "vel": 0.629921,
      "time": 50.39991583214056,
      "name": "B2",
      "svgX": 30210.96,
      "svgY": 966.74
    },
    {
      "absoluteTicks": 81094,
      "channel": 13,
      "type": "noteOff",
      "note": 47,
      "velocity": 79,
      "rel": 0.629921,
      "time": 50.68366555827851,
      "name": "B2"
    },
    {
      "absoluteTicks": 81120,
      "channel": 13,
      "type": "noteOn",
      "note": 54,
      "velocity": 79,
      "vel": 0.629921,
      "time": 50.6999153311414,
      "name": "F#3",
      "svgX": 30387.83,
      "svgY": 894.85
    },
    {
      "absoluteTicks": 81550,
      "channel": 13,
      "type": "noteOff",
      "note": 74,
      "velocity": 79,
      "rel": 0.629921,
      "time": 50.968665082329316,
      "name": "D5"
    },
    {
      "absoluteTicks": 81574,
      "channel": 13,
      "type": "noteOff",
      "note": 54,
      "velocity": 79,
      "rel": 0.629921,
      "time": 50.983665057279346,
      "name": "F#3"
    },
    {
      "absoluteTicks": 81600,
      "channel": 13,
      "type": "noteOn",
      "note": 78,
      "velocity": 79,
      "vel": 0.629921,
      "time": 50.99991483014223,
      "name": "F#5",
      "svgX": 30564.69,
      "svgY": 648.36
    },
    {
      "absoluteTicks": 81600,
      "channel": 13,
      "type": "noteOn",
      "note": 59,
      "velocity": 79,
      "vel": 0.629921,
      "time": 50.99991483014223,
      "name": "B3",
      "svgX": 30564.69,
      "svgY": 843.5
    },
    {
      "absoluteTicks": 82054,
      "channel": 13,
      "type": "noteOff",
      "note": 59,
      "velocity": 79,
      "rel": 0.629921,
      "time": 51.283664556280186,
      "name": "B3"
    },
    {
      "absoluteTicks": 82080,
      "channel": 13,
      "type": "noteOn",
      "note": 62,
      "velocity": 79,
      "vel": 0.629921,
      "time": 51.29991432914307,
      "name": "D4",
      "svgX": 30741.56,
      "svgY": 812.69
    },
    {
      "absoluteTicks": 82510,
      "channel": 13,
      "type": "noteOff",
      "note": 78,
      "velocity": 79,
      "rel": 0.629921,
      "time": 51.56866408033099,
      "name": "F#5"
    },
    {
      "absoluteTicks": 82534,
      "channel": 13,
      "type": "noteOff",
      "note": 62,
      "velocity": 79,
      "rel": 0.629921,
      "time": 51.58366405528102,
      "name": "D4"
    },
    {
      "absoluteTicks": 82560,
      "channel": 13,
      "type": "noteOn",
      "note": 81,
      "velocity": 79,
      "vel": 0.629921,
      "time": 51.599913828143904,
      "name": "A5",
      "svgX": 30918.43,
      "svgY": 617.55
    },
    {
      "absoluteTicks": 82560,
      "channel": 13,
      "type": "noteOn",
      "note": 42,
      "velocity": 79,
      "vel": 0.629921,
      "time": 51.599913828143904,
      "name": "F#2",
      "svgX": 30918.43,
      "svgY": 1018.09
    },
    {
      "absoluteTicks": 83014,
      "channel": 13,
      "type": "noteOff",
      "note": 42,
      "velocity": 79,
      "rel": 0.629921,
      "time": 51.88366355428186,
      "name": "F#2"
    },
    {
      "absoluteTicks": 83040,
      "channel": 13,
      "type": "noteOn",
      "note": 49,
      "velocity": 79,
      "vel": 0.629921,
      "time": 51.89991332714474,
      "name": "C#3",
      "svgX": 31095.3,
      "svgY": 946.2
    },
    {
      "absoluteTicks": 83494,
      "channel": 13,
      "type": "noteOff",
      "note": 49,
      "velocity": 79,
      "rel": 0.629921,
      "time": 52.18366305328269,
      "name": "C#3"
    },
    {
      "absoluteTicks": 83520,
      "channel": 13,
      "type": "noteOn",
      "note": 54,
      "velocity": 79,
      "vel": 0.629921,
      "time": 52.19991282614558,
      "name": "F#3",
      "svgX": 31272.16,
      "svgY": 894.85
    },
    {
      "absoluteTicks": 83925,
      "channel": 13,
      "type": "noteOff",
      "note": 81,
      "velocity": 79,
      "rel": 0.629921,
      "time": 52.453662002384455,
      "name": "A5"
    },
    {
      "absoluteTicks": 83974,
      "channel": 13,
      "type": "noteOff",
      "note": 54,
      "velocity": 79,
      "rel": 0.629921,
      "time": 52.48366255228353,
      "name": "F#3"
    },
    {
      "absoluteTicks": 84000,
      "channel": 13,
      "type": "noteOn",
      "note": 83,
      "velocity": 79,
      "vel": 0.629921,
      "time": 52.49991232514641,
      "name": "B5",
      "svgX": 31449.03,
      "svgY": 597.01
    },
    {
      "absoluteTicks": 84000,
      "channel": 13,
      "type": "noteOn",
      "note": 57,
      "velocity": 79,
      "vel": 0.629921,
      "time": 52.49991232514641,
      "name": "A3",
      "svgX": 31449.03,
      "svgY": 864.04
    },
    {
      "absoluteTicks": 84454,
      "channel": 13,
      "type": "noteOff",
      "note": 83,
      "velocity": 79,
      "rel": 0.629921,
      "time": 52.78366205128437,
      "name": "B5"
    },
    {
      "absoluteTicks": 84454,
      "channel": 13,
      "type": "noteOff",
      "note": 57,
      "velocity": 79,
      "rel": 0.629921,
      "time": 52.78366205128437,
      "name": "A3"
    },
    {
      "absoluteTicks": 84480,
      "channel": 13,
      "type": "noteOn",
      "note": 79,
      "velocity": 79,
      "vel": 0.629921,
      "time": 52.79991182414725,
      "name": "G5",
      "svgX": 31625.9,
      "svgY": 638.09
    },
    {
      "absoluteTicks": 84480,
      "channel": 13,
      "type": "noteOn",
      "note": 43,
      "velocity": 79,
      "vel": 0.629921,
      "time": 52.79991182414725,
      "name": "G2",
      "svgX": 31625.9,
      "svgY": 1007.82
    },
    {
      "absoluteTicks": 84934,
      "channel": 13,
      "type": "noteOff",
      "note": 79,
      "velocity": 79,
      "rel": 0.629921,
      "time": 53.08366155028521,
      "name": "G5"
    },
    {
      "absoluteTicks": 84934,
      "channel": 13,
      "type": "noteOff",
      "note": 43,
      "velocity": 79,
      "rel": 0.629921,
      "time": 53.08366155028521,
      "name": "G2"
    },
    {
      "absoluteTicks": 84960,
      "channel": 13,
      "type": "noteOn",
      "note": 78,
      "velocity": 79,
      "vel": 0.629921,
      "time": 53.099911323148085,
      "name": "F#5",
      "svgX": 31802.76,
      "svgY": 648.36
    },
    {
      "absoluteTicks": 84960,
      "channel": 13,
      "type": "noteOn",
      "note": 50,
      "velocity": 79,
      "vel": 0.629921,
      "time": 53.099911323148085,
      "name": "D3",
      "svgX": 31802.76,
      "svgY": 935.93
    },
    {
      "absoluteTicks": 85414,
      "channel": 13,
      "type": "noteOff",
      "note": 78,
      "velocity": 79,
      "rel": 0.629921,
      "time": 53.38366104928604,
      "name": "F#5"
    },
    {
      "absoluteTicks": 85414,
      "channel": 13,
      "type": "noteOff",
      "note": 50,
      "velocity": 79,
      "rel": 0.629921,
      "time": 53.38366104928604,
      "name": "D3"
    },
    {
      "absoluteTicks": 85440,
      "channel": 13,
      "type": "noteOn",
      "note": 76,
      "velocity": 79,
      "vel": 0.629921,
      "time": 53.399910822148925,
      "name": "E5",
      "svgX": 31979.63,
      "svgY": 668.9
    },
    {
      "absoluteTicks": 85440,
      "channel": 13,
      "type": "noteOn",
      "note": 55,
      "velocity": 79,
      "vel": 0.629921,
      "time": 53.399910822148925,
      "name": "G3",
      "svgX": 31979.63,
      "svgY": 884.58
    },
    {
      "absoluteTicks": 85894,
      "channel": 13,
      "type": "noteOff",
      "note": 76,
      "velocity": 79,
      "rel": 0.629921,
      "time": 53.68366054828687,
      "name": "E5"
    },
    {
      "absoluteTicks": 85894,
      "channel": 13,
      "type": "noteOff",
      "note": 55,
      "velocity": 79,
      "rel": 0.629921,
      "time": 53.68366054828687,
      "name": "G3"
    },
    {
      "absoluteTicks": 85920,
      "channel": 13,
      "type": "noteOn",
      "note": 79,
      "velocity": 79,
      "vel": 0.629921,
      "time": 53.69991032114976,
      "name": "G5",
      "svgX": 32156.5,
      "svgY": 638.09
    },
    {
      "absoluteTicks": 85920,
      "channel": 13,
      "type": "noteOn",
      "note": 59,
      "velocity": 79,
      "vel": 0.629921,
      "time": 53.69991032114976,
      "name": "B3",
      "svgX": 32156.5,
      "svgY": 843.5
    },
    {
      "absoluteTicks": 86374,
      "channel": 13,
      "type": "noteOff",
      "note": 79,
      "velocity": 79,
      "rel": 0.629921,
      "time": 53.983660047287714,
      "name": "G5"
    },
    {
      "absoluteTicks": 86374,
      "channel": 13,
      "type": "noteOff",
      "note": 59,
      "velocity": 79,
      "rel": 0.629921,
      "time": 53.983660047287714,
      "name": "B3"
    },
    {
      "absoluteTicks": 86400,
      "channel": 13,
      "type": "noteOn",
      "note": 78,
      "velocity": 79,
      "vel": 0.629921,
      "time": 53.9999098201506,
      "name": "F#5",
      "svgX": 32333.37,
      "svgY": 648.36
    },
    {
      "absoluteTicks": 86400,
      "channel": 13,
      "type": "noteOn",
      "note": 38,
      "velocity": 79,
      "vel": 0.629921,
      "time": 53.9999098201506,
      "name": "D2",
      "svgX": 32333.37,
      "svgY": 1059.17
    },
    {
      "absoluteTicks": 86854,
      "channel": 13,
      "type": "noteOff",
      "note": 78,
      "velocity": 79,
      "rel": 0.629921,
      "time": 54.28365954628855,
      "name": "F#5"
    },
    {
      "absoluteTicks": 86854,
      "channel": 13,
      "type": "noteOff",
      "note": 38,
      "velocity": 79,
      "rel": 0.629921,
      "time": 54.28365954628855,
      "name": "D2"
    },
    {
      "absoluteTicks": 86880,
      "channel": 13,
      "type": "noteOn",
      "note": 76,
      "velocity": 79,
      "vel": 0.629921,
      "time": 54.29990931915143,
      "name": "E5",
      "svgX": 32510.23,
      "svgY": 668.9
    },
    {
      "absoluteTicks": 86880,
      "channel": 13,
      "type": "noteOn",
      "note": 45,
      "velocity": 79,
      "vel": 0.629921,
      "time": 54.29990931915143,
      "name": "A2",
      "svgX": 32510.23,
      "svgY": 987.28
    },
    {
      "absoluteTicks": 87334,
      "channel": 13,
      "type": "noteOff",
      "note": 76,
      "velocity": 79,
      "rel": 0.629921,
      "time": 54.58365904528939,
      "name": "E5"
    },
    {
      "absoluteTicks": 87334,
      "channel": 13,
      "type": "noteOff",
      "note": 45,
      "velocity": 79,
      "rel": 0.629921,
      "time": 54.58365904528939,
      "name": "A2"
    },
    {
      "absoluteTicks": 87360,
      "channel": 13,
      "type": "noteOn",
      "note": 74,
      "velocity": 79,
      "vel": 0.629921,
      "time": 54.59990881815227,
      "name": "D5",
      "svgX": 32687.1,
      "svgY": 689.44
    },
    {
      "absoluteTicks": 87360,
      "channel": 13,
      "type": "noteOn",
      "note": 50,
      "velocity": 79,
      "vel": 0.629921,
      "time": 54.59990881815227,
      "name": "D3",
      "svgX": 32687.1,
      "svgY": 935.93
    },
    {
      "absoluteTicks": 87814,
      "channel": 13,
      "type": "noteOff",
      "note": 74,
      "velocity": 79,
      "rel": 0.629921,
      "time": 54.88365854429022,
      "name": "D5"
    },
    {
      "absoluteTicks": 87814,
      "channel": 13,
      "type": "noteOff",
      "note": 50,
      "velocity": 79,
      "rel": 0.629921,
      "time": 54.88365854429022,
      "name": "D3"
    },
    {
      "absoluteTicks": 87840,
      "channel": 13,
      "type": "noteOn",
      "note": 73,
      "velocity": 79,
      "vel": 0.629921,
      "time": 54.899908317153105,
      "name": "C#5",
      "svgX": 32863.97,
      "svgY": 699.71
    },
    {
      "absoluteTicks": 87840,
      "channel": 13,
      "type": "noteOn",
      "note": 54,
      "velocity": 79,
      "vel": 0.629921,
      "time": 54.899908317153105,
      "name": "F#3",
      "svgX": 32863.97,
      "svgY": 894.85
    },
    {
      "absoluteTicks": 88294,
      "channel": 13,
      "type": "noteOff",
      "note": 73,
      "velocity": 79,
      "rel": 0.629921,
      "time": 55.18365804329106,
      "name": "C#5"
    },
    {
      "absoluteTicks": 88294,
      "channel": 13,
      "type": "noteOff",
      "note": 54,
      "velocity": 79,
      "rel": 0.629921,
      "time": 55.18365804329106,
      "name": "F#3"
    },
    {
      "absoluteTicks": 88320,
      "channel": 13,
      "type": "noteOn",
      "note": 71,
      "velocity": 79,
      "vel": 0.629921,
      "time": 55.199907816153946,
      "name": "B4",
      "svgX": 33040.84,
      "svgY": 720.25
    },
    {
      "absoluteTicks": 88320,
      "channel": 13,
      "type": "noteOn",
      "note": 43,
      "velocity": 79,
      "vel": 0.629921,
      "time": 55.199907816153946,
      "name": "G2",
      "svgX": 33040.84,
      "svgY": 1007.82
    },
    {
      "absoluteTicks": 88774,
      "channel": 13,
      "type": "noteOff",
      "note": 43,
      "velocity": 79,
      "rel": 0.629921,
      "time": 55.483657542291894,
      "name": "G2"
    },
    {
      "absoluteTicks": 88797,
      "channel": 13,
      "type": "noteOff",
      "note": 71,
      "velocity": 79,
      "rel": 0.629921,
      "time": 55.49865691724295,
      "name": "B4"
    },
    {
      "absoluteTicks": 88800,
      "channel": 13,
      "type": "noteOn",
      "note": 69,
      "velocity": 79,
      "vel": 0.629921,
      "time": 55.49990731515478,
      "name": "A4",
      "svgX": 33217.7,
      "svgY": 740.79
    },
    {
      "absoluteTicks": 88800,
      "channel": 13,
      "type": "noteOn",
      "note": 50,
      "velocity": 79,
      "vel": 0.629921,
      "time": 55.49990731515478,
      "name": "D3",
      "svgX": 33217.7,
      "svgY": 935.93
    },
    {
      "absoluteTicks": 89254,
      "channel": 13,
      "type": "noteOff",
      "note": 69,
      "velocity": 79,
      "rel": 0.629921,
      "time": 55.783657041292734,
      "name": "A4"
    },
    {
      "absoluteTicks": 89254,
      "channel": 13,
      "type": "noteOff",
      "note": 50,
      "velocity": 79,
      "rel": 0.629921,
      "time": 55.783657041292734,
      "name": "D3"
    },
    {
      "absoluteTicks": 89280,
      "channel": 13,
      "type": "noteOn",
      "note": 74,
      "velocity": 79,
      "vel": 0.629921,
      "time": 55.79990681415562,
      "name": "D5",
      "svgX": 33394.57,
      "svgY": 689.44
    },
    {
      "absoluteTicks": 89280,
      "channel": 13,
      "type": "noteOn",
      "note": 55,
      "velocity": 79,
      "vel": 0.629921,
      "time": 55.79990681415562,
      "name": "G3",
      "svgX": 33394.57,
      "svgY": 884.58
    },
    {
      "absoluteTicks": 89734,
      "channel": 13,
      "type": "noteOff",
      "note": 55,
      "velocity": 79,
      "rel": 0.629921,
      "time": 56.08365654029357,
      "name": "G3"
    },
    {
      "absoluteTicks": 89760,
      "channel": 13,
      "type": "noteOn",
      "note": 59,
      "velocity": 79,
      "vel": 0.629921,
      "time": 56.09990631315645,
      "name": "B3",
      "svgX": 33571.44,
      "svgY": 843.5
    },
    {
      "absoluteTicks": 90190,
      "channel": 13,
      "type": "noteOff",
      "note": 74,
      "velocity": 79,
      "rel": 0.629921,
      "time": 56.36865606434437,
      "name": "D5"
    },
    {
      "absoluteTicks": 90214,
      "channel": 13,
      "type": "noteOff",
      "note": 59,
      "velocity": 79,
      "rel": 0.629921,
      "time": 56.38365603929441,
      "name": "B3"
    },
    {
      "absoluteTicks": 90240,
      "channel": 13,
      "type": "noteOn",
      "note": 74,
      "velocity": 79,
      "vel": 0.629921,
      "time": 56.39990581215729,
      "name": "D5",
      "svgX": 33748.31,
      "svgY": 689.44
    },
    {
      "absoluteTicks": 90240,
      "channel": 13,
      "type": "noteOn",
      "note": 45,
      "velocity": 79,
      "vel": 0.629921,
      "time": 56.39990581215729,
      "name": "A2",
      "svgX": 33748.31,
      "svgY": 987.28
    },
    {
      "absoluteTicks": 90694,
      "channel": 13,
      "type": "noteOff",
      "note": 45,
      "velocity": 79,
      "rel": 0.629921,
      "time": 56.68365553829524,
      "name": "A2"
    },
    {
      "absoluteTicks": 90720,
      "channel": 13,
      "type": "noteOn",
      "note": 52,
      "velocity": 79,
      "vel": 0.629921,
      "time": 56.699905311158126,
      "name": "E3",
      "svgX": 33925.17,
      "svgY": 915.39
    },
    {
      "absoluteTicks": 91174,
      "channel": 13,
      "type": "noteOff",
      "note": 52,
      "velocity": 79,
      "rel": 0.629921,
      "time": 56.98365503729608,
      "name": "E3"
    },
    {
      "absoluteTicks": 91200,
      "channel": 13,
      "type": "noteOn",
      "note": 57,
      "velocity": 79,
      "vel": 0.629921,
      "time": 56.99990481015897,
      "name": "A3",
      "svgX": 34102.04,
      "svgY": 864.04
    },
    {
      "absoluteTicks": 91605,
      "channel": 13,
      "type": "noteOff",
      "note": 74,
      "velocity": 79,
      "rel": 0.629921,
      "time": 57.25365398639784,
      "name": "D5"
    },
    {
      "absoluteTicks": 91654,
      "channel": 13,
      "type": "noteOff",
      "note": 57,
      "velocity": 79,
      "rel": 0.629921,
      "time": 57.283654536296915,
      "name": "A3"
    },
    {
      "absoluteTicks": 91680,
      "channel": 13,
      "type": "noteOn",
      "note": 73,
      "velocity": 79,
      "vel": 0.629921,
      "time": 57.2999043091598,
      "name": "C#5",
      "svgX": 34278.91,
      "svgY": 699.71
    },
    {
      "absoluteTicks": 91680,
      "channel": 13,
      "type": "noteOn",
      "note": 61,
      "velocity": 79,
      "vel": 0.629921,
      "time": 57.2999043091598,
      "name": "C#4",
      "svgX": 34278.91,
      "svgY": 822.96
    },
    {
      "absoluteTicks": 92134,
      "channel": 13,
      "type": "noteOff",
      "note": 73,
      "velocity": 79,
      "rel": 0.629921,
      "time": 57.583654035297755,
      "name": "C#5"
    },
    {
      "absoluteTicks": 92134,
      "channel": 13,
      "type": "noteOff",
      "note": 61,
      "velocity": 79,
      "rel": 0.629921,
      "time": 57.583654035297755,
      "name": "C#4"
    },
    {
      "absoluteTicks": 92160,
      "channel": 13,
      "type": "noteOn",
      "note": 74,
      "velocity": 79,
      "vel": 0.629921,
      "time": 57.59990380816064,
      "name": "D5",
      "svgX": 34455.77,
      "svgY": 689.44
    },
    {
      "absoluteTicks": 92160,
      "channel": 13,
      "type": "noteOn",
      "note": 50,
      "velocity": 79,
      "vel": 0.629921,
      "time": 57.59990380816064,
      "name": "D3",
      "svgX": 34455.77,
      "svgY": 935.93
    },
    {
      "absoluteTicks": 92614,
      "channel": 13,
      "type": "noteOff",
      "note": 74,
      "velocity": 79,
      "rel": 0.629921,
      "time": 57.88365353429859,
      "name": "D5"
    },
    {
      "absoluteTicks": 92614,
      "channel": 13,
      "type": "noteOff",
      "note": 50,
      "velocity": 79,
      "rel": 0.629921,
      "time": 57.88365353429859,
      "name": "D3"
    },
    {
      "absoluteTicks": 92640,
      "channel": 13,
      "type": "noteOn",
      "note": 73,
      "velocity": 79,
      "vel": 0.629921,
      "time": 57.89990330716147,
      "name": "C#5",
      "svgX": 34632.64,
      "svgY": 699.71
    },
    {
      "absoluteTicks": 92640,
      "channel": 13,
      "type": "noteOn",
      "note": 57,
      "velocity": 79,
      "vel": 0.629921,
      "time": 57.89990330716147,
      "name": "A3",
      "svgX": 34632.64,
      "svgY": 864.04
    },
    {
      "absoluteTicks": 93094,
      "channel": 13,
      "type": "noteOff",
      "note": 73,
      "velocity": 79,
      "rel": 0.629921,
      "time": 58.18365303329943,
      "name": "C#5"
    },
    {
      "absoluteTicks": 93094,
      "channel": 13,
      "type": "noteOff",
      "note": 57,
      "velocity": 79,
      "rel": 0.629921,
      "time": 58.18365303329943,
      "name": "A3"
    },
    {
      "absoluteTicks": 93120,
      "channel": 13,
      "type": "noteOn",
      "note": 74,
      "velocity": 79,
      "vel": 0.629921,
      "time": 58.199902806162314,
      "name": "D5",
      "svgX": 34809.51,
      "svgY": 689.44
    },
    {
      "absoluteTicks": 93120,
      "channel": 13,
      "type": "noteOn",
      "note": 62,
      "velocity": 79,
      "vel": 0.629921,
      "time": 58.199902806162314,
      "name": "D4",
      "svgX": 34809.51,
      "svgY": 812.69
    },
    {
      "absoluteTicks": 93574,
      "channel": 13,
      "type": "noteOff",
      "note": 74,
      "velocity": 79,
      "rel": 0.629921,
      "time": 58.48365253230026,
      "name": "D5"
    },
    {
      "absoluteTicks": 93574,
      "channel": 13,
      "type": "noteOff",
      "note": 62,
      "velocity": 79,
      "rel": 0.629921,
      "time": 58.48365253230026,
      "name": "D4"
    },
    {
      "absoluteTicks": 93600,
      "channel": 13,
      "type": "noteOn",
      "note": 69,
      "velocity": 79,
      "vel": 0.629921,
      "time": 58.49990230516315,
      "name": "A4",
      "svgX": 34986.38,
      "svgY": 740.79
    },
    {
      "absoluteTicks": 93600,
      "channel": 13,
      "type": "noteOn",
      "note": 66,
      "velocity": 79,
      "vel": 0.629921,
      "time": 58.49990230516315,
      "name": "F#4",
      "svgX": 34986.38,
      "svgY": 771.6
    },
    {
      "absoluteTicks": 94054,
      "channel": 13,
      "type": "noteOff",
      "note": 69,
      "velocity": 79,
      "rel": 0.629921,
      "time": 58.7836520313011,
      "name": "A4"
    },
    {
      "absoluteTicks": 94054,
      "channel": 13,
      "type": "noteOff",
      "note": 66,
      "velocity": 79,
      "rel": 0.629921,
      "time": 58.7836520313011,
      "name": "F#4"
    },
    {
      "absoluteTicks": 94080,
      "channel": 13,
      "type": "noteOn",
      "note": 69,
      "velocity": 79,
      "vel": 0.629921,
      "time": 58.79990180416399,
      "name": "A4",
      "svgX": 35163.24,
      "svgY": 740.79
    },
    {
      "absoluteTicks": 94080,
      "channel": 13,
      "type": "noteOn",
      "note": 45,
      "velocity": 79,
      "vel": 0.629921,
      "time": 58.79990180416399,
      "name": "A2",
      "svgX": 35163.24,
      "svgY": 987.28
    },
    {
      "absoluteTicks": 94534,
      "channel": 13,
      "type": "noteOff",
      "note": 45,
      "velocity": 79,
      "rel": 0.629921,
      "time": 59.083651530301935,
      "name": "A2"
    },
    {
      "absoluteTicks": 94560,
      "channel": 13,
      "type": "noteOn",
      "note": 52,
      "velocity": 79,
      "vel": 0.629921,
      "time": 59.09990130316482,
      "name": "E3",
      "svgX": 35340.11,
      "svgY": 915.39
    },
    {
      "absoluteTicks": 94990,
      "channel": 13,
      "type": "noteOff",
      "note": 69,
      "velocity": 79,
      "rel": 0.629921,
      "time": 59.36865105435274,
      "name": "A4"
    },
    {
      "absoluteTicks": 95014,
      "channel": 13,
      "type": "noteOff",
      "note": 52,
      "velocity": 79,
      "rel": 0.629921,
      "time": 59.383651029302776,
      "name": "E3"
    },
    {
      "absoluteTicks": 95040,
      "channel": 13,
      "type": "noteOn",
      "note": 73,
      "velocity": 79,
      "vel": 0.629921,
      "time": 59.39990080216566,
      "name": "C#5",
      "svgX": 35516.98,
      "svgY": 699.71
    },
    {
      "absoluteTicks": 95040,
      "channel": 13,
      "type": "noteOn",
      "note": 57,
      "velocity": 79,
      "vel": 0.629921,
      "time": 59.39990080216566,
      "name": "A3",
      "svgX": 35516.98,
      "svgY": 864.04
    },
    {
      "absoluteTicks": 95494,
      "channel": 13,
      "type": "noteOff",
      "note": 57,
      "velocity": 79,
      "rel": 0.629921,
      "time": 59.68365052830361,
      "name": "A3"
    },
    {
      "absoluteTicks": 95520,
      "channel": 13,
      "type": "noteOn",
      "note": 61,
      "velocity": 79,
      "vel": 0.629921,
      "time": 59.699900301166494,
      "name": "C#4",
      "svgX": 35693.85,
      "svgY": 822.96
    },
    {
      "absoluteTicks": 95950,
      "channel": 13,
      "type": "noteOff",
      "note": 73,
      "velocity": 79,
      "rel": 0.629921,
      "time": 59.96865005235441,
      "name": "C#5"
    },
    {
      "absoluteTicks": 95974,
      "channel": 13,
      "type": "noteOff",
      "note": 61,
      "velocity": 79,
      "rel": 0.629921,
      "time": 59.98365002730445,
      "name": "C#4"
    },
    {
      "absoluteTicks": 96000,
      "channel": 13,
      "type": "noteOn",
      "note": 74,
      "velocity": 79,
      "vel": 0.629921,
      "time": 59.999899800167334,
      "name": "D5",
      "svgX": 35870.71,
      "svgY": 689.44
    },
    {
      "absoluteTicks": 96000,
      "channel": 13,
      "type": "noteOn",
      "note": 47,
      "velocity": 79,
      "vel": 0.629921,
      "time": 59.999899800167334,
      "name": "B2",
      "svgX": 35870.71,
      "svgY": 966.74
    },
    {
      "absoluteTicks": 96454,
      "channel": 13,
      "type": "noteOff",
      "note": 47,
      "velocity": 79,
      "rel": 0.629921,
      "time": 60.28364952630528,
      "name": "B2"
    },
    {
      "absoluteTicks": 96480,
      "channel": 13,
      "type": "noteOn",
      "note": 54,
      "velocity": 79,
      "vel": 0.629921,
      "time": 60.29989929916817,
      "name": "F#3",
      "svgX": 36047.58,
      "svgY": 894.85
    },
    {
      "absoluteTicks": 96910,
      "channel": 13,
      "type": "noteOff",
      "note": 74,
      "velocity": 79,
      "rel": 0.629921,
      "time": 60.568649050356086,
      "name": "D5"
    },
    {
      "absoluteTicks": 96934,
      "channel": 13,
      "type": "noteOff",
      "note": 54,
      "velocity": 79,
      "rel": 0.629921,
      "time": 60.58364902530612,
      "name": "F#3"
    },
    {
      "absoluteTicks": 96960,
      "channel": 13,
      "type": "noteOn",
      "note": 78,
      "velocity": 79,
      "vel": 0.629921,
      "time": 60.599898798169,
      "name": "F#5",
      "svgX": 36224.45,
      "svgY": 648.36
    },
    {
      "absoluteTicks": 96960,
      "channel": 13,
      "type": "noteOn",
      "note": 59,
      "velocity": 79,
      "vel": 0.629921,
      "time": 60.599898798169,
      "name": "B3",
      "svgX": 36224.45,
      "svgY": 843.5
    },
    {
      "absoluteTicks": 97414,
      "channel": 13,
      "type": "noteOff",
      "note": 59,
      "velocity": 79,
      "rel": 0.629921,
      "time": 60.883648524306956,
      "name": "B3"
    },
    {
      "absoluteTicks": 97440,
      "channel": 13,
      "type": "noteOn",
      "note": 62,
      "velocity": 79,
      "vel": 0.629921,
      "time": 60.89989829716984,
      "name": "D4",
      "svgX": 36401.32,
      "svgY": 812.69
    },
    {
      "absoluteTicks": 97870,
      "channel": 13,
      "type": "noteOff",
      "note": 78,
      "velocity": 79,
      "rel": 0.629921,
      "time": 61.16864804835776,
      "name": "F#5"
    },
    {
      "absoluteTicks": 97894,
      "channel": 13,
      "type": "noteOff",
      "note": 62,
      "velocity": 79,
      "rel": 0.629921,
      "time": 61.183648023307796,
      "name": "D4"
    },
    {
      "absoluteTicks": 97920,
      "channel": 13,
      "type": "noteOn",
      "note": 81,
      "velocity": 79,
      "vel": 0.629921,
      "time": 61.199897796170674,
      "name": "A5",
      "svgX": 36578.18,
      "svgY": 617.55
    },
    {
      "absoluteTicks": 97920,
      "channel": 13,
      "type": "noteOn",
      "note": 42,
      "velocity": 79,
      "vel": 0.629921,
      "time": 61.199897796170674,
      "name": "F#2",
      "svgX": 36578.18,
      "svgY": 1018.09
    },
    {
      "absoluteTicks": 98374,
      "channel": 13,
      "type": "noteOff",
      "note": 42,
      "velocity": 79,
      "rel": 0.629921,
      "time": 61.48364752230863,
      "name": "F#2"
    },
    {
      "absoluteTicks": 98400,
      "channel": 13,
      "type": "noteOn",
      "note": 49,
      "velocity": 79,
      "vel": 0.629921,
      "time": 61.499897295171515,
      "name": "C#3",
      "svgX": 36755.05,
      "svgY": 946.2
    },
    {
      "absoluteTicks": 98854,
      "channel": 13,
      "type": "noteOff",
      "note": 49,
      "velocity": 79,
      "rel": 0.629921,
      "time": 61.78364702130947,
      "name": "C#3"
    },
    {
      "absoluteTicks": 98880,
      "channel": 13,
      "type": "noteOn",
      "note": 54,
      "velocity": 79,
      "vel": 0.629921,
      "time": 61.79989679417235,
      "name": "F#3",
      "svgX": 36931.92,
      "svgY": 894.85
    },
    {
      "absoluteTicks": 99285,
      "channel": 13,
      "type": "noteOff",
      "note": 81,
      "velocity": 79,
      "rel": 0.629921,
      "time": 62.053645970411225,
      "name": "A5"
    },
    {
      "absoluteTicks": 99334,
      "channel": 13,
      "type": "noteOff",
      "note": 54,
      "velocity": 79,
      "rel": 0.629921,
      "time": 62.0836465203103,
      "name": "F#3"
    },
    {
      "absoluteTicks": 99360,
      "channel": 13,
      "type": "noteOn",
      "note": 83,
      "velocity": 79,
      "vel": 0.629921,
      "time": 62.09989629317319,
      "name": "B5",
      "svgX": 37108.78,
      "svgY": 597.01
    },
    {
      "absoluteTicks": 99360,
      "channel": 13,
      "type": "noteOn",
      "note": 57,
      "velocity": 79,
      "vel": 0.629921,
      "time": 62.09989629317319,
      "name": "A3",
      "svgX": 37108.78,
      "svgY": 864.04
    },
    {
      "absoluteTicks": 99814,
      "channel": 13,
      "type": "noteOff",
      "note": 83,
      "velocity": 79,
      "rel": 0.629921,
      "time": 62.383646019311136,
      "name": "B5"
    },
    {
      "absoluteTicks": 99814,
      "channel": 13,
      "type": "noteOff",
      "note": 57,
      "velocity": 79,
      "rel": 0.629921,
      "time": 62.383646019311136,
      "name": "A3"
    },
    {
      "absoluteTicks": 99840,
      "channel": 13,
      "type": "noteOn",
      "note": 79,
      "velocity": 79,
      "vel": 0.629921,
      "time": 62.39989579217402,
      "name": "G5",
      "svgX": 37285.65,
      "svgY": 638.09
    },
    {
      "absoluteTicks": 99840,
      "channel": 13,
      "type": "noteOn",
      "note": 43,
      "velocity": 79,
      "vel": 0.629921,
      "time": 62.39989579217402,
      "name": "G2",
      "svgX": 37285.65,
      "svgY": 1007.82
    },
    {
      "absoluteTicks": 100294,
      "channel": 13,
      "type": "noteOff",
      "note": 79,
      "velocity": 79,
      "rel": 0.629921,
      "time": 62.68364551831198,
      "name": "G5"
    },
    {
      "absoluteTicks": 100294,
      "channel": 13,
      "type": "noteOff",
      "note": 43,
      "velocity": 79,
      "rel": 0.629921,
      "time": 62.68364551831198,
      "name": "G2"
    },
    {
      "absoluteTicks": 100320,
      "channel": 13,
      "type": "noteOn",
      "note": 78,
      "velocity": 79,
      "vel": 0.629921,
      "time": 62.69989529117486,
      "name": "F#5",
      "svgX": 37462.52,
      "svgY": 648.36
    },
    {
      "absoluteTicks": 100320,
      "channel": 13,
      "type": "noteOn",
      "note": 50,
      "velocity": 79,
      "vel": 0.629921,
      "time": 62.69989529117486,
      "name": "D3",
      "svgX": 37462.52,
      "svgY": 935.93
    },
    {
      "absoluteTicks": 100774,
      "channel": 13,
      "type": "noteOff",
      "note": 78,
      "velocity": 79,
      "rel": 0.629921,
      "time": 62.98364501731281,
      "name": "F#5"
    },
    {
      "absoluteTicks": 100774,
      "channel": 13,
      "type": "noteOff",
      "note": 50,
      "velocity": 79,
      "rel": 0.629921,
      "time": 62.98364501731281,
      "name": "D3"
    },
    {
      "absoluteTicks": 100800,
      "channel": 13,
      "type": "noteOn",
      "note": 76,
      "velocity": 79,
      "vel": 0.629921,
      "time": 62.999894790175695,
      "name": "E5",
      "svgX": 37639.39,
      "svgY": 668.9
    },
    {
      "absoluteTicks": 100800,
      "channel": 13,
      "type": "noteOn",
      "note": 55,
      "velocity": 79,
      "vel": 0.629921,
      "time": 62.999894790175695,
      "name": "G3",
      "svgX": 37639.39,
      "svgY": 884.58
    },
    {
      "absoluteTicks": 101254,
      "channel": 13,
      "type": "noteOff",
      "note": 76,
      "velocity": 79,
      "rel": 0.629921,
      "time": 63.28364451631365,
      "name": "E5"
    },
    {
      "absoluteTicks": 101254,
      "channel": 13,
      "type": "noteOff",
      "note": 55,
      "velocity": 79,
      "rel": 0.629921,
      "time": 63.28364451631365,
      "name": "G3"
    },
    {
      "absoluteTicks": 101280,
      "channel": 13,
      "type": "noteOn",
      "note": 79,
      "velocity": 79,
      "vel": 0.629921,
      "time": 63.299894289176535,
      "name": "G5",
      "svgX": 37816.25,
      "svgY": 638.09
    },
    {
      "absoluteTicks": 101280,
      "channel": 13,
      "type": "noteOn",
      "note": 59,
      "velocity": 79,
      "vel": 0.629921,
      "time": 63.299894289176535,
      "name": "B3",
      "svgX": 37816.25,
      "svgY": 843.5
    },
    {
      "absoluteTicks": 101734,
      "channel": 13,
      "type": "noteOff",
      "note": 79,
      "velocity": 79,
      "rel": 0.629921,
      "time": 63.58364401531448,
      "name": "G5"
    },
    {
      "absoluteTicks": 101734,
      "channel": 13,
      "type": "noteOff",
      "note": 59,
      "velocity": 79,
      "rel": 0.629921,
      "time": 63.58364401531448,
      "name": "B3"
    },
    {
      "absoluteTicks": 101760,
      "channel": 13,
      "type": "noteOn",
      "note": 78,
      "velocity": 79,
      "vel": 0.629921,
      "time": 63.59989378817737,
      "name": "F#5",
      "svgX": 37993.12,
      "svgY": 648.36
    },
    {
      "absoluteTicks": 101760,
      "channel": 13,
      "type": "noteOn",
      "note": 38,
      "velocity": 79,
      "vel": 0.629921,
      "time": 63.59989378817737,
      "name": "D2",
      "svgX": 37993.12,
      "svgY": 1059.17
    },
    {
      "absoluteTicks": 102214,
      "channel": 13,
      "type": "noteOff",
      "note": 78,
      "velocity": 79,
      "rel": 0.629921,
      "time": 63.883643514315324,
      "name": "F#5"
    },
    {
      "absoluteTicks": 102214,
      "channel": 13,
      "type": "noteOff",
      "note": 38,
      "velocity": 79,
      "rel": 0.629921,
      "time": 63.883643514315324,
      "name": "D2"
    },
    {
      "absoluteTicks": 102240,
      "channel": 13,
      "type": "noteOn",
      "note": 76,
      "velocity": 79,
      "vel": 0.629921,
      "time": 63.89989328717821,
      "name": "E5",
      "svgX": 38169.99,
      "svgY": 668.9
    },
    {
      "absoluteTicks": 102240,
      "channel": 13,
      "type": "noteOn",
      "note": 45,
      "velocity": 79,
      "vel": 0.629921,
      "time": 63.89989328717821,
      "name": "A2",
      "svgX": 38169.99,
      "svgY": 987.28
    },
    {
      "absoluteTicks": 102694,
      "channel": 13,
      "type": "noteOff",
      "note": 76,
      "velocity": 79,
      "rel": 0.629921,
      "time": 64.18364301331616,
      "name": "E5"
    },
    {
      "absoluteTicks": 102694,
      "channel": 13,
      "type": "noteOff",
      "note": 45,
      "velocity": 79,
      "rel": 0.629921,
      "time": 64.18364301331616,
      "name": "A2"
    },
    {
      "absoluteTicks": 102720,
      "channel": 13,
      "type": "noteOn",
      "note": 74,
      "velocity": 79,
      "vel": 0.629921,
      "time": 64.19989278617905,
      "name": "D5",
      "svgX": 38346.86,
      "svgY": 689.44
    },
    {
      "absoluteTicks": 102720,
      "channel": 13,
      "type": "noteOn",
      "note": 50,
      "velocity": 79,
      "vel": 0.629921,
      "time": 64.19989278617905,
      "name": "D3",
      "svgX": 38346.86,
      "svgY": 935.93
    },
    {
      "absoluteTicks": 103174,
      "channel": 13,
      "type": "noteOff",
      "note": 74,
      "velocity": 79,
      "rel": 0.629921,
      "time": 64.48364251231699,
      "name": "D5"
    },
    {
      "absoluteTicks": 103174,
      "channel": 13,
      "type": "noteOff",
      "note": 50,
      "velocity": 79,
      "rel": 0.629921,
      "time": 64.48364251231699,
      "name": "D3"
    },
    {
      "absoluteTicks": 103200,
      "channel": 13,
      "type": "noteOn",
      "note": 73,
      "velocity": 79,
      "vel": 0.629921,
      "time": 64.49989228517988,
      "name": "C#5",
      "svgX": 38523.72,
      "svgY": 699.71
    },
    {
      "absoluteTicks": 103200,
      "channel": 13,
      "type": "noteOn",
      "note": 54,
      "velocity": 79,
      "vel": 0.629921,
      "time": 64.49989228517988,
      "name": "F#3",
      "svgX": 38523.72,
      "svgY": 894.85
    },
    {
      "absoluteTicks": 103654,
      "channel": 13,
      "type": "noteOff",
      "note": 73,
      "velocity": 79,
      "rel": 0.629921,
      "time": 64.78364201131784,
      "name": "C#5"
    },
    {
      "absoluteTicks": 103654,
      "channel": 13,
      "type": "noteOff",
      "note": 54,
      "velocity": 79,
      "rel": 0.629921,
      "time": 64.78364201131784,
      "name": "F#3"
    },
    {
      "absoluteTicks": 103680,
      "channel": 13,
      "type": "noteOn",
      "note": 71,
      "velocity": 79,
      "vel": 0.629921,
      "time": 64.79989178418072,
      "name": "B4",
      "svgX": 38700.59,
      "svgY": 720.25
    },
    {
      "absoluteTicks": 103680,
      "channel": 13,
      "type": "noteOn",
      "note": 43,
      "velocity": 79,
      "vel": 0.629921,
      "time": 64.79989178418072,
      "name": "G2",
      "svgX": 38700.59,
      "svgY": 1007.82
    },
    {
      "absoluteTicks": 104134,
      "channel": 13,
      "type": "noteOff",
      "note": 43,
      "velocity": 79,
      "rel": 0.629921,
      "time": 65.08364151031867,
      "name": "G2"
    },
    {
      "absoluteTicks": 104157,
      "channel": 13,
      "type": "noteOff",
      "note": 71,
      "velocity": 79,
      "rel": 0.629921,
      "time": 65.09864088526972,
      "name": "B4"
    },
    {
      "absoluteTicks": 104160,
      "channel": 13,
      "type": "noteOn",
      "note": 69,
      "velocity": 79,
      "vel": 0.629921,
      "time": 65.09989128318155,
      "name": "A4",
      "svgX": 38877.46,
      "svgY": 740.79
    },
    {
      "absoluteTicks": 104160,
      "channel": 13,
      "type": "noteOn",
      "note": 50,
      "velocity": 79,
      "vel": 0.629921,
      "time": 65.09989128318155,
      "name": "D3",
      "svgX": 38877.46,
      "svgY": 935.93
    },
    {
      "absoluteTicks": 104614,
      "channel": 13,
      "type": "noteOff",
      "note": 69,
      "velocity": 79,
      "rel": 0.629921,
      "time": 65.3836410093195,
      "name": "A4"
    },
    {
      "absoluteTicks": 104614,
      "channel": 13,
      "type": "noteOff",
      "note": 50,
      "velocity": 79,
      "rel": 0.629921,
      "time": 65.3836410093195,
      "name": "D3"
    },
    {
      "absoluteTicks": 104640,
      "channel": 13,
      "type": "noteOn",
      "note": 74,
      "velocity": 79,
      "vel": 0.629921,
      "time": 65.3998907821824,
      "name": "D5",
      "svgX": 39054.33,
      "svgY": 689.44
    },
    {
      "absoluteTicks": 104640,
      "channel": 13,
      "type": "noteOn",
      "note": 55,
      "velocity": 79,
      "vel": 0.629921,
      "time": 65.3998907821824,
      "name": "G3",
      "svgX": 39054.33,
      "svgY": 884.58
    },
    {
      "absoluteTicks": 105094,
      "channel": 13,
      "type": "noteOff",
      "note": 55,
      "velocity": 79,
      "rel": 0.629921,
      "time": 65.68364050832034,
      "name": "G3"
    },
    {
      "absoluteTicks": 105120,
      "channel": 13,
      "type": "noteOn",
      "note": 59,
      "velocity": 79,
      "vel": 0.629921,
      "time": 65.69989028118323,
      "name": "B3",
      "svgX": 39231.19,
      "svgY": 843.5
    },
    {
      "absoluteTicks": 105550,
      "channel": 13,
      "type": "noteOff",
      "note": 74,
      "velocity": 79,
      "rel": 0.629921,
      "time": 65.96864003237114,
      "name": "D5"
    },
    {
      "absoluteTicks": 105574,
      "channel": 13,
      "type": "noteOff",
      "note": 59,
      "velocity": 79,
      "rel": 0.629921,
      "time": 65.98364000732118,
      "name": "B3"
    },
    {
      "absoluteTicks": 105600,
      "channel": 13,
      "type": "noteOn",
      "note": 74,
      "velocity": 79,
      "vel": 0.629921,
      "time": 65.99988978018406,
      "name": "D5",
      "svgX": 39408.06,
      "svgY": 689.44
    },
    {
      "absoluteTicks": 105600,
      "channel": 13,
      "type": "noteOn",
      "note": 45,
      "velocity": 79,
      "vel": 0.629921,
      "time": 65.99988978018406,
      "name": "A2",
      "svgX": 39408.06,
      "svgY": 987.28
    },
    {
      "absoluteTicks": 106054,
      "channel": 13,
      "type": "noteOff",
      "note": 45,
      "velocity": 79,
      "rel": 0.629921,
      "time": 66.28363950632202,
      "name": "A2"
    },
    {
      "absoluteTicks": 106080,
      "channel": 13,
      "type": "noteOn",
      "note": 52,
      "velocity": 79,
      "vel": 0.629921,
      "time": 66.2998892791849,
      "name": "E3",
      "svgX": 39584.93,
      "svgY": 915.39
    },
    {
      "absoluteTicks": 106534,
      "channel": 13,
      "type": "noteOff",
      "note": 52,
      "velocity": 79,
      "rel": 0.629921,
      "time": 66.58363900532285,
      "name": "E3"
    },
    {
      "absoluteTicks": 106560,
      "channel": 13,
      "type": "noteOn",
      "note": 57,
      "velocity": 79,
      "vel": 0.629921,
      "time": 66.59988877818574,
      "name": "A3",
      "svgX": 39761.79,
      "svgY": 864.04
    },
    {
      "absoluteTicks": 106965,
      "channel": 13,
      "type": "noteOff",
      "note": 74,
      "velocity": 79,
      "rel": 0.629921,
      "time": 66.85363795442461,
      "name": "D5"
    },
    {
      "absoluteTicks": 107014,
      "channel": 13,
      "type": "noteOff",
      "note": 57,
      "velocity": 79,
      "rel": 0.629921,
      "time": 66.88363850432368,
      "name": "A3"
    },
    {
      "absoluteTicks": 107040,
      "channel": 13,
      "type": "noteOn",
      "note": 73,
      "velocity": 79,
      "vel": 0.629921,
      "time": 66.89988827718658,
      "name": "C#5",
      "svgX": 39938.66,
      "svgY": 699.71
    },
    {
      "absoluteTicks": 107040,
      "channel": 13,
      "type": "noteOn",
      "note": 61,
      "velocity": 79,
      "vel": 0.629921,
      "time": 66.89988827718658,
      "name": "C#4",
      "svgX": 39938.66,
      "svgY": 822.96
    },
    {
      "absoluteTicks": 107494,
      "channel": 13,
      "type": "noteOff",
      "note": 73,
      "velocity": 79,
      "rel": 0.629921,
      "time": 67.18363800332453,
      "name": "C#5"
    },
    {
      "absoluteTicks": 107494,
      "channel": 13,
      "type": "noteOff",
      "note": 61,
      "velocity": 79,
      "rel": 0.629921,
      "time": 67.18363800332453,
      "name": "C#4"
    },
    {
      "absoluteTicks": 107520,
      "channel": 13,
      "type": "noteOn",
      "note": 74,
      "velocity": 79,
      "vel": 0.629921,
      "time": 67.19988777618741,
      "name": "D5",
      "svgX": 40115.53,
      "svgY": 689.44
    },
    {
      "absoluteTicks": 107520,
      "channel": 13,
      "type": "noteOn",
      "note": 50,
      "velocity": 79,
      "vel": 0.629921,
      "time": 67.19988777618741,
      "name": "D3",
      "svgX": 40115.53,
      "svgY": 935.93
    },
    {
      "absoluteTicks": 107974,
      "channel": 13,
      "type": "noteOff",
      "note": 74,
      "velocity": 79,
      "rel": 0.629921,
      "time": 67.48363750232537,
      "name": "D5"
    },
    {
      "absoluteTicks": 107974,
      "channel": 13,
      "type": "noteOff",
      "note": 50,
      "velocity": 79,
      "rel": 0.629921,
      "time": 67.48363750232537,
      "name": "D3"
    },
    {
      "absoluteTicks": 108000,
      "channel": 13,
      "type": "noteOn",
      "note": 73,
      "velocity": 79,
      "vel": 0.629921,
      "time": 67.49988727518824,
      "name": "C#5",
      "svgX": 40292.4,
      "svgY": 699.71
    },
    {
      "absoluteTicks": 108000,
      "channel": 13,
      "type": "noteOn",
      "note": 57,
      "velocity": 79,
      "vel": 0.629921,
      "time": 67.49988727518824,
      "name": "A3",
      "svgX": 40292.4,
      "svgY": 864.04
    },
    {
      "absoluteTicks": 108454,
      "channel": 13,
      "type": "noteOff",
      "note": 73,
      "velocity": 79,
      "rel": 0.629921,
      "time": 67.7836370013262,
      "name": "C#5"
    },
    {
      "absoluteTicks": 108454,
      "channel": 13,
      "type": "noteOff",
      "note": 57,
      "velocity": 79,
      "rel": 0.629921,
      "time": 67.7836370013262,
      "name": "A3"
    },
    {
      "absoluteTicks": 108480,
      "channel": 13,
      "type": "noteOn",
      "note": 74,
      "velocity": 79,
      "vel": 0.629921,
      "time": 67.79988677418909,
      "name": "D5",
      "svgX": 40469.26,
      "svgY": 689.44
    },
    {
      "absoluteTicks": 108480,
      "channel": 13,
      "type": "noteOn",
      "note": 62,
      "velocity": 79,
      "vel": 0.629921,
      "time": 67.79988677418909,
      "name": "D4",
      "svgX": 40469.26,
      "svgY": 812.69
    },
    {
      "absoluteTicks": 108934,
      "channel": 13,
      "type": "noteOff",
      "note": 74,
      "velocity": 79,
      "rel": 0.629921,
      "time": 68.08363650032703,
      "name": "D5"
    },
    {
      "absoluteTicks": 108934,
      "channel": 13,
      "type": "noteOff",
      "note": 62,
      "velocity": 79,
      "rel": 0.629921,
      "time": 68.08363650032703,
      "name": "D4"
    },
    {
      "absoluteTicks": 108960,
      "channel": 13,
      "type": "noteOn",
      "note": 69,
      "velocity": 79,
      "vel": 0.629921,
      "time": 68.09988627318992,
      "name": "A4",
      "svgX": 40646.13,
      "svgY": 740.79
    },
    {
      "absoluteTicks": 108960,
      "channel": 13,
      "type": "noteOn",
      "note": 66,
      "velocity": 79,
      "vel": 0.629921,
      "time": 68.09988627318992,
      "name": "F#4",
      "svgX": 40646.13,
      "svgY": 771.6
    },
    {
      "absoluteTicks": 109414,
      "channel": 13,
      "type": "noteOff",
      "note": 69,
      "velocity": 79,
      "rel": 0.629921,
      "time": 68.38363599932788,
      "name": "A4"
    },
    {
      "absoluteTicks": 109414,
      "channel": 13,
      "type": "noteOff",
      "note": 66,
      "velocity": 79,
      "rel": 0.629921,
      "time": 68.38363599932788,
      "name": "F#4"
    },
    {
      "absoluteTicks": 109440,
      "channel": 13,
      "type": "noteOn",
      "note": 73,
      "velocity": 79,
      "vel": 0.629921,
      "time": 68.39988577219076,
      "name": "C#5",
      "svgX": 40823.0,
      "svgY": 699.71
    },
    {
      "absoluteTicks": 109440,
      "channel": 13,
      "type": "noteOn",
      "note": 45,
      "velocity": 79,
      "vel": 0.629921,
      "time": 68.39988577219076,
      "name": "A2",
      "svgX": 40823.0,
      "svgY": 987.28
    },
    {
      "absoluteTicks": 109894,
      "channel": 13,
      "type": "noteOff",
      "note": 73,
      "velocity": 79,
      "rel": 0.629921,
      "time": 68.68363549832871,
      "name": "C#5"
    },
    {
      "absoluteTicks": 109894,
      "channel": 13,
      "type": "noteOff",
      "note": 45,
      "velocity": 79,
      "rel": 0.629921,
      "time": 68.68363549832871,
      "name": "A2"
    },
    {
      "absoluteTicks": 109920,
      "channel": 13,
      "type": "noteOn",
      "note": 69,
      "velocity": 79,
      "vel": 0.629921,
      "time": 68.69988527119159,
      "name": "A4",
      "svgX": 40999.87,
      "svgY": 740.79
    },
    {
      "absoluteTicks": 109920,
      "channel": 13,
      "type": "noteOn",
      "note": 52,
      "velocity": 79,
      "vel": 0.629921,
      "time": 68.69988527119159,
      "name": "E3",
      "svgX": 40999.87,
      "svgY": 915.39
    },
    {
      "absoluteTicks": 110374,
      "channel": 13,
      "type": "noteOff",
      "note": 69,
      "velocity": 79,
      "rel": 0.629921,
      "time": 68.98363499732955,
      "name": "A4"
    },
    {
      "absoluteTicks": 110374,
      "channel": 13,
      "type": "noteOff",
      "note": 52,
      "velocity": 79,
      "rel": 0.629921,
      "time": 68.98363499732955,
      "name": "E3"
    },
    {
      "absoluteTicks": 110400,
      "channel": 13,
      "type": "noteOn",
      "note": 76,
      "velocity": 79,
      "vel": 0.629921,
      "time": 68.99988477019244,
      "name": "E5",
      "svgX": 41176.73,
      "svgY": 668.9
    },
    {
      "absoluteTicks": 110400,
      "channel": 13,
      "type": "noteOn",
      "note": 57,
      "velocity": 79,
      "vel": 0.629921,
      "time": 68.99988477019244,
      "name": "A3",
      "svgX": 41176.73,
      "svgY": 864.04
    },
    {
      "absoluteTicks": 110854,
      "channel": 13,
      "type": "noteOff",
      "note": 76,
      "velocity": 79,
      "rel": 0.629921,
      "time": 69.28363449633038,
      "name": "E5"
    },
    {
      "absoluteTicks": 110854,
      "channel": 13,
      "type": "noteOff",
      "note": 57,
      "velocity": 79,
      "rel": 0.629921,
      "time": 69.28363449633038,
      "name": "A3"
    },
    {
      "absoluteTicks": 110880,
      "channel": 13,
      "type": "noteOn",
      "note": 78,
      "velocity": 79,
      "vel": 0.629921,
      "time": 69.29988426919327,
      "name": "F#5",
      "svgX": 41353.6,
      "svgY": 648.36
    },
    {
      "absoluteTicks": 110880,
      "channel": 13,
      "type": "noteOn",
      "note": 61,
      "velocity": 79,
      "vel": 0.629921,
      "time": 69.29988426919327,
      "name": "C#4",
      "svgX": 41353.6,
      "svgY": 822.96
    },
    {
      "absoluteTicks": 111334,
      "channel": 13,
      "type": "noteOff",
      "note": 78,
      "velocity": 79,
      "rel": 0.629921,
      "time": 69.58363399533123,
      "name": "F#5"
    },
    {
      "absoluteTicks": 111334,
      "channel": 13,
      "type": "noteOff",
      "note": 61,
      "velocity": 79,
      "rel": 0.629921,
      "time": 69.58363399533123,
      "name": "C#4"
    },
    {
      "absoluteTicks": 111360,
      "channel": 13,
      "type": "noteOn",
      "note": 74,
      "velocity": 79,
      "vel": 0.629921,
      "time": 69.5998837681941,
      "name": "D5",
      "svgX": 41530.47,
      "svgY": 689.44
    },
    {
      "absoluteTicks": 111360,
      "channel": 13,
      "type": "noteOn",
      "note": 47,
      "velocity": 79,
      "vel": 0.629921,
      "time": 69.5998837681941,
      "name": "B2",
      "svgX": 41530.47,
      "svgY": 966.74
    },
    {
      "absoluteTicks": 111814,
      "channel": 13,
      "type": "noteOff",
      "note": 74,
      "velocity": 79,
      "rel": 0.629921,
      "time": 69.88363349433206,
      "name": "D5"
    },
    {
      "absoluteTicks": 111814,
      "channel": 13,
      "type": "noteOff",
      "note": 47,
      "velocity": 79,
      "rel": 0.629921,
      "time": 69.88363349433206,
      "name": "B2"
    },
    {
      "absoluteTicks": 111840,
      "channel": 13,
      "type": "noteOn",
      "note": 74,
      "velocity": 79,
      "vel": 0.629921,
      "time": 69.89988326719494,
      "name": "D5",
      "svgX": 41707.33,
      "svgY": 689.44
    },
    {
      "absoluteTicks": 111840,
      "channel": 13,
      "type": "noteOn",
      "note": 54,
      "velocity": 79,
      "vel": 0.629921,
      "time": 69.89988326719494,
      "name": "F#3",
      "svgX": 41707.33,
      "svgY": 894.85
    },
    {
      "absoluteTicks": 112294,
      "channel": 13,
      "type": "noteOff",
      "note": 74,
      "velocity": 79,
      "rel": 0.629921,
      "time": 70.18363299333289,
      "name": "D5"
    },
    {
      "absoluteTicks": 112294,
      "channel": 13,
      "type": "noteOff",
      "note": 54,
      "velocity": 79,
      "rel": 0.629921,
      "time": 70.18363299333289,
      "name": "F#3"
    },
    {
      "absoluteTicks": 112320,
      "channel": 13,
      "type": "noteOn",
      "note": 73,
      "velocity": 79,
      "vel": 0.629921,
      "time": 70.19988276619577,
      "name": "C#5",
      "svgX": 41884.2,
      "svgY": 699.71
    },
    {
      "absoluteTicks": 112320,
      "channel": 13,
      "type": "noteOn",
      "note": 59,
      "velocity": 79,
      "vel": 0.629921,
      "time": 70.19988276619577,
      "name": "B3",
      "svgX": 41884.2,
      "svgY": 843.5
    },
    {
      "absoluteTicks": 112774,
      "channel": 13,
      "type": "noteOff",
      "note": 73,
      "velocity": 79,
      "rel": 0.629921,
      "time": 70.48363249233373,
      "name": "C#5"
    },
    {
      "absoluteTicks": 112774,
      "channel": 13,
      "type": "noteOff",
      "note": 59,
      "velocity": 79,
      "rel": 0.629921,
      "time": 70.48363249233373,
      "name": "B3"
    },
    {
      "absoluteTicks": 112800,
      "channel": 13,
      "type": "noteOn",
      "note": 71,
      "velocity": 79,
      "vel": 0.629921,
      "time": 70.49988226519662,
      "name": "B4",
      "svgX": 42061.07,
      "svgY": 720.25
    },
    {
      "absoluteTicks": 112800,
      "channel": 13,
      "type": "noteOn",
      "note": 62,
      "velocity": 79,
      "vel": 0.629921,
      "time": 70.49988226519662,
      "name": "D4",
      "svgX": 42061.07,
      "svgY": 812.69
    },
    {
      "absoluteTicks": 113254,
      "channel": 13,
      "type": "noteOff",
      "note": 71,
      "velocity": 79,
      "rel": 0.629921,
      "time": 70.78363199133456,
      "name": "B4"
    },
    {
      "absoluteTicks": 113254,
      "channel": 13,
      "type": "noteOff",
      "note": 62,
      "velocity": 79,
      "rel": 0.629921,
      "time": 70.78363199133456,
      "name": "D4"
    },
    {
      "absoluteTicks": 113280,
      "channel": 13,
      "type": "noteOn",
      "note": 73,
      "velocity": 79,
      "vel": 0.629921,
      "time": 70.79988176419745,
      "name": "C#5",
      "svgX": 42237.94,
      "svgY": 699.71
    },
    {
      "absoluteTicks": 113280,
      "channel": 13,
      "type": "noteOn",
      "note": 42,
      "velocity": 79,
      "vel": 0.629921,
      "time": 70.79988176419745,
      "name": "F#2",
      "svgX": 42237.94,
      "svgY": 1018.09
    },
    {
      "absoluteTicks": 113734,
      "channel": 13,
      "type": "noteOff",
      "note": 73,
      "velocity": 79,
      "rel": 0.629921,
      "time": 71.0836314903354,
      "name": "C#5"
    },
    {
      "absoluteTicks": 113734,
      "channel": 13,
      "type": "noteOff",
      "note": 42,
      "velocity": 79,
      "rel": 0.629921,
      "time": 71.0836314903354,
      "name": "F#2"
    },
    {
      "absoluteTicks": 113760,
      "channel": 13,
      "type": "noteOn",
      "note": 78,
      "velocity": 79,
      "vel": 0.629921,
      "time": 71.09988126319828,
      "name": "F#5",
      "svgX": 42414.8,
      "svgY": 648.36
    },
    {
      "absoluteTicks": 113760,
      "channel": 13,
      "type": "noteOn",
      "note": 49,
      "velocity": 79,
      "vel": 0.629921,
      "time": 71.09988126319828,
      "name": "C#3",
      "svgX": 42414.8,
      "svgY": 946.2
    },
    {
      "absoluteTicks": 114214,
      "channel": 13,
      "type": "noteOff",
      "note": 78,
      "velocity": 79,
      "rel": 0.629921,
      "time": 71.38363098933624,
      "name": "F#5"
    },
    {
      "absoluteTicks": 114214,
      "channel": 13,
      "type": "noteOff",
      "note": 49,
      "velocity": 79,
      "rel": 0.629921,
      "time": 71.38363098933624,
      "name": "C#3"
    },
    {
      "absoluteTicks": 114240,
      "channel": 13,
      "type": "noteOn",
      "note": 81,
      "velocity": 79,
      "vel": 0.629921,
      "time": 71.39988076219912,
      "name": "A5",
      "svgX": 42591.67,
      "svgY": 617.55
    },
    {
      "absoluteTicks": 114240,
      "channel": 13,
      "type": "noteOn",
      "note": 54,
      "velocity": 79,
      "vel": 0.629921,
      "time": 71.39988076219912,
      "name": "F#3",
      "svgX": 42591.67,
      "svgY": 894.85
    },
    {
      "absoluteTicks": 114694,
      "channel": 13,
      "type": "noteOff",
      "note": 81,
      "velocity": 79,
      "rel": 0.629921,
      "time": 71.68363048833707,
      "name": "A5"
    },
    {
      "absoluteTicks": 114694,
      "channel": 13,
      "type": "noteOff",
      "note": 54,
      "velocity": 79,
      "rel": 0.629921,
      "time": 71.68363048833707,
      "name": "F#3"
    },
    {
      "absoluteTicks": 114720,
      "channel": 13,
      "type": "noteOn",
      "note": 83,
      "velocity": 79,
      "vel": 0.629921,
      "time": 71.69988026119997,
      "name": "B5",
      "svgX": 42768.54,
      "svgY": 597.01
    },
    {
      "absoluteTicks": 114720,
      "channel": 13,
      "type": "noteOn",
      "note": 57,
      "velocity": 79,
      "vel": 0.629921,
      "time": 71.69988026119997,
      "name": "A3",
      "svgX": 42768.54,
      "svgY": 864.04
    },
    {
      "absoluteTicks": 115174,
      "channel": 13,
      "type": "noteOff",
      "note": 83,
      "velocity": 79,
      "rel": 0.629921,
      "time": 71.9836299873379,
      "name": "B5"
    },
    {
      "absoluteTicks": 115174,
      "channel": 13,
      "type": "noteOff",
      "note": 57,
      "velocity": 79,
      "rel": 0.629921,
      "time": 71.9836299873379,
      "name": "A3"
    },
    {
      "absoluteTicks": 115200,
      "channel": 13,
      "type": "noteOn",
      "note": 79,
      "velocity": 79,
      "vel": 0.629921,
      "time": 71.9998797602008,
      "name": "G5",
      "svgX": 42945.41,
      "svgY": 638.09
    },
    {
      "absoluteTicks": 115200,
      "channel": 13,
      "type": "noteOn",
      "note": 43,
      "velocity": 79,
      "vel": 0.629921,
      "time": 71.9998797602008,
      "name": "G2",
      "svgX": 42945.41,
      "svgY": 1007.82
    },
    {
      "absoluteTicks": 115654,
      "channel": 13,
      "type": "noteOff",
      "note": 79,
      "velocity": 79,
      "rel": 0.629921,
      "time": 72.28362948633875,
      "name": "G5"
    },
    {
      "absoluteTicks": 115654,
      "channel": 13,
      "type": "noteOff",
      "note": 43,
      "velocity": 79,
      "rel": 0.629921,
      "time": 72.28362948633875,
      "name": "G2"
    },
    {
      "absoluteTicks": 115680,
      "channel": 13,
      "type": "noteOn",
      "note": 78,
      "velocity": 79,
      "vel": 0.629921,
      "time": 72.29987925920163,
      "name": "F#5",
      "svgX": 43122.27,
      "svgY": 648.36
    },
    {
      "absoluteTicks": 115680,
      "channel": 13,
      "type": "noteOn",
      "note": 50,
      "velocity": 79,
      "vel": 0.629921,
      "time": 72.29987925920163,
      "name": "D3",
      "svgX": 43122.27,
      "svgY": 935.93
    },
    {
      "absoluteTicks": 116134,
      "channel": 13,
      "type": "noteOff",
      "note": 78,
      "velocity": 79,
      "rel": 0.629921,
      "time": 72.58362898533959,
      "name": "F#5"
    },
    {
      "absoluteTicks": 116134,
      "channel": 13,
      "type": "noteOff",
      "note": 50,
      "velocity": 79,
      "rel": 0.629921,
      "time": 72.58362898533959,
      "name": "D3"
    },
    {
      "absoluteTicks": 116160,
      "channel": 13,
      "type": "noteOn",
      "note": 76,
      "velocity": 79,
      "vel": 0.629921,
      "time": 72.59987875820246,
      "name": "E5",
      "svgX": 43299.14,
      "svgY": 668.9
    },
    {
      "absoluteTicks": 116160,
      "channel": 13,
      "type": "noteOn",
      "note": 55,
      "velocity": 79,
      "vel": 0.629921,
      "time": 72.59987875820246,
      "name": "G3",
      "svgX": 43299.14,
      "svgY": 884.58
    },
    {
      "absoluteTicks": 116614,
      "channel": 13,
      "type": "noteOff",
      "note": 76,
      "velocity": 79,
      "rel": 0.629921,
      "time": 72.88362848434042,
      "name": "E5"
    },
    {
      "absoluteTicks": 116614,
      "channel": 13,
      "type": "noteOff",
      "note": 55,
      "velocity": 79,
      "rel": 0.629921,
      "time": 72.88362848434042,
      "name": "G3"
    },
    {
      "absoluteTicks": 116640,
      "channel": 13,
      "type": "noteOn",
      "note": 79,
      "velocity": 79,
      "vel": 0.629921,
      "time": 72.89987825720331,
      "name": "G5",
      "svgX": 43476.01,
      "svgY": 638.09
    },
    {
      "absoluteTicks": 116640,
      "channel": 13,
      "type": "noteOn",
      "note": 59,
      "velocity": 79,
      "vel": 0.629921,
      "time": 72.89987825720331,
      "name": "B3",
      "svgX": 43476.01,
      "svgY": 843.5
    },
    {
      "absoluteTicks": 117094,
      "channel": 13,
      "type": "noteOff",
      "note": 79,
      "velocity": 79,
      "rel": 0.629921,
      "time": 73.18362798334125,
      "name": "G5"
    },
    {
      "absoluteTicks": 117094,
      "channel": 13,
      "type": "noteOff",
      "note": 59,
      "velocity": 79,
      "rel": 0.629921,
      "time": 73.18362798334125,
      "name": "B3"
    },
    {
      "absoluteTicks": 117120,
      "channel": 13,
      "type": "noteOn",
      "note": 78,
      "velocity": 79,
      "vel": 0.629921,
      "time": 73.19987775620415,
      "name": "F#5",
      "svgX": 43652.88,
      "svgY": 648.36
    },
    {
      "absoluteTicks": 117120,
      "channel": 13,
      "type": "noteOn",
      "note": 38,
      "velocity": 79,
      "vel": 0.629921,
      "time": 73.19987775620415,
      "name": "D2",
      "svgX": 43652.88,
      "svgY": 1059.17
    },
    {
      "absoluteTicks": 117574,
      "channel": 13,
      "type": "noteOff",
      "note": 78,
      "velocity": 79,
      "rel": 0.629921,
      "time": 73.4836274823421,
      "name": "F#5"
    },
    {
      "absoluteTicks": 117574,
      "channel": 13,
      "type": "noteOff",
      "note": 38,
      "velocity": 79,
      "rel": 0.629921,
      "time": 73.4836274823421,
      "name": "D2"
    },
    {
      "absoluteTicks": 117600,
      "channel": 13,
      "type": "noteOn",
      "note": 76,
      "velocity": 79,
      "vel": 0.629921,
      "time": 73.49987725520498,
      "name": "E5",
      "svgX": 43829.74,
      "svgY": 668.9
    },
    {
      "absoluteTicks": 117600,
      "channel": 13,
      "type": "noteOn",
      "note": 45,
      "velocity": 79,
      "vel": 0.629921,
      "time": 73.49987725520498,
      "name": "A2",
      "svgX": 43829.74,
      "svgY": 987.28
    },
    {
      "absoluteTicks": 118054,
      "channel": 13,
      "type": "noteOff",
      "note": 76,
      "velocity": 79,
      "rel": 0.629921,
      "time": 73.78362698134293,
      "name": "E5"
    },
    {
      "absoluteTicks": 118054,
      "channel": 13,
      "type": "noteOff",
      "note": 45,
      "velocity": 79,
      "rel": 0.629921,
      "time": 73.78362698134293,
      "name": "A2"
    },
    {
      "absoluteTicks": 118080,
      "channel": 13,
      "type": "noteOn",
      "note": 74,
      "velocity": 79,
      "vel": 0.629921,
      "time": 73.79987675420581,
      "name": "D5",
      "svgX": 44006.61,
      "svgY": 689.44
    },
    {
      "absoluteTicks": 118080,
      "channel": 13,
      "type": "noteOn",
      "note": 50,
      "velocity": 79,
      "vel": 0.629921,
      "time": 73.79987675420581,
      "name": "D3",
      "svgX": 44006.61,
      "svgY": 935.93
    },
    {
      "absoluteTicks": 118534,
      "channel": 13,
      "type": "noteOff",
      "note": 74,
      "velocity": 79,
      "rel": 0.629921,
      "time": 74.08362648034377,
      "name": "D5"
    },
    {
      "absoluteTicks": 118534,
      "channel": 13,
      "type": "noteOff",
      "note": 50,
      "velocity": 79,
      "rel": 0.629921,
      "time": 74.08362648034377,
      "name": "D3"
    },
    {
      "absoluteTicks": 118560,
      "channel": 13,
      "type": "noteOn",
      "note": 73,
      "velocity": 79,
      "vel": 0.629921,
      "time": 74.09987625320666,
      "name": "C#5",
      "svgX": 44183.48,
      "svgY": 699.71
    },
    {
      "absoluteTicks": 118560,
      "channel": 13,
      "type": "noteOn",
      "note": 54,
      "velocity": 79,
      "vel": 0.629921,
      "time": 74.09987625320666,
      "name": "F#3",
      "svgX": 44183.48,
      "svgY": 894.85
    },
    {
      "absoluteTicks": 119014,
      "channel": 13,
      "type": "noteOff",
      "note": 73,
      "velocity": 79,
      "rel": 0.629921,
      "time": 74.3836259793446,
      "name": "C#5"
    },
    {
      "absoluteTicks": 119014,
      "channel": 13,
      "type": "noteOff",
      "note": 54,
      "velocity": 79,
      "rel": 0.629921,
      "time": 74.3836259793446,
      "name": "F#3"
    },
    {
      "absoluteTicks": 119040,
      "channel": 13,
      "type": "noteOn",
      "note": 71,
      "velocity": 79,
      "vel": 0.629921,
      "time": 74.39987575220749,
      "name": "B4",
      "svgX": 44360.34,
      "svgY": 720.25
    },
    {
      "absoluteTicks": 119040,
      "channel": 13,
      "type": "noteOn",
      "note": 43,
      "velocity": 79,
      "vel": 0.629921,
      "time": 74.39987575220749,
      "name": "G2",
      "svgX": 44360.34,
      "svgY": 1007.82
    },
    {
      "absoluteTicks": 119494,
      "channel": 13,
      "type": "noteOff",
      "note": 71,
      "velocity": 79,
      "rel": 0.629921,
      "time": 74.68362547834545,
      "name": "B4"
    },
    {
      "absoluteTicks": 119494,
      "channel": 13,
      "type": "noteOff",
      "note": 43,
      "velocity": 79,
      "rel": 0.629921,
      "time": 74.68362547834545,
      "name": "G2"
    },
    {
      "absoluteTicks": 119520,
      "channel": 13,
      "type": "noteOn",
      "note": 69,
      "velocity": 79,
      "vel": 0.629921,
      "time": 74.69987525120833,
      "name": "A4",
      "svgX": 44537.21,
      "svgY": 740.79
    },
    {
      "absoluteTicks": 119520,
      "channel": 13,
      "type": "noteOn",
      "note": 50,
      "velocity": 79,
      "vel": 0.629921,
      "time": 74.69987525120833,
      "name": "D3",
      "svgX": 44537.21,
      "svgY": 935.93
    },
    {
      "absoluteTicks": 119974,
      "channel": 13,
      "type": "noteOff",
      "note": 69,
      "velocity": 79,
      "rel": 0.629921,
      "time": 74.98362497734628,
      "name": "A4"
    },
    {
      "absoluteTicks": 119974,
      "channel": 13,
      "type": "noteOff",
      "note": 50,
      "velocity": 79,
      "rel": 0.629921,
      "time": 74.98362497734628,
      "name": "D3"
    },
    {
      "absoluteTicks": 120000,
      "channel": 13,
      "type": "noteOn",
      "note": 67,
      "velocity": 79,
      "vel": 0.629921,
      "time": 74.99987475020916,
      "name": "G4",
      "svgX": 44714.08,
      "svgY": 761.33
    },
    {
      "absoluteTicks": 120000,
      "channel": 13,
      "type": "noteOn",
      "note": 55,
      "velocity": 79,
      "vel": 0.629921,
      "time": 74.99987475020916,
      "name": "G3",
      "svgX": 44714.08,
      "svgY": 884.58
    },
    {
      "absoluteTicks": 120454,
      "channel": 13,
      "type": "noteOff",
      "note": 67,
      "velocity": 79,
      "rel": 0.629921,
      "time": 75.28362447634711,
      "name": "G4"
    },
    {
      "absoluteTicks": 120454,
      "channel": 13,
      "type": "noteOff",
      "note": 55,
      "velocity": 79,
      "rel": 0.629921,
      "time": 75.28362447634711,
      "name": "G3"
    },
    {
      "absoluteTicks": 120480,
      "channel": 13,
      "type": "noteOn",
      "note": 66,
      "velocity": 79,
      "vel": 0.629921,
      "time": 75.29987424921,
      "name": "F#4",
      "svgX": 44890.95,
      "svgY": 771.6
    },
    {
      "absoluteTicks": 120480,
      "channel": 13,
      "type": "noteOn",
      "note": 59,
      "velocity": 79,
      "vel": 0.629921,
      "time": 75.29987424921,
      "name": "B3",
      "svgX": 44890.95,
      "svgY": 843.5
    },
    {
      "absoluteTicks": 120934,
      "channel": 13,
      "type": "noteOff",
      "note": 66,
      "velocity": 79,
      "rel": 0.629921,
      "time": 75.58362397534795,
      "name": "F#4"
    },
    {
      "absoluteTicks": 120934,
      "channel": 13,
      "type": "noteOff",
      "note": 59,
      "velocity": 79,
      "rel": 0.629921,
      "time": 75.58362397534795,
      "name": "B3"
    },
    {
      "absoluteTicks": 120960,
      "channel": 13,
      "type": "noteOn",
      "note": 64,
      "velocity": 79,
      "vel": 0.629921,
      "time": 75.59987374821084,
      "name": "E4",
      "svgX": 45067.81,
      "svgY": 792.15
    },
    {
      "absoluteTicks": 120960,
      "channel": 13,
      "type": "noteOn",
      "note": 45,
      "velocity": 79,
      "vel": 0.629921,
      "time": 75.59987374821084,
      "name": "A2",
      "svgX": 45067.81,
      "svgY": 987.28
    },
    {
      "absoluteTicks": 121414,
      "channel": 13,
      "type": "noteOff",
      "note": 64,
      "velocity": 79,
      "rel": 0.629921,
      "time": 75.8836234743488,
      "name": "E4"
    },
    {
      "absoluteTicks": 121414,
      "channel": 13,
      "type": "noteOff",
      "note": 45,
      "velocity": 79,
      "rel": 0.629921,
      "time": 75.8836234743488,
      "name": "A2"
    },
    {
      "absoluteTicks": 121440,
      "channel": 13,
      "type": "noteOn",
      "note": 67,
      "velocity": 79,
      "vel": 0.629921,
      "time": 75.89987324721167,
      "name": "G4",
      "svgX": 45244.68,
      "svgY": 761.33
    },
    {
      "absoluteTicks": 121440,
      "channel": 13,
      "type": "noteOn",
      "note": 52,
      "velocity": 79,
      "vel": 0.629921,
      "time": 75.89987324721167,
      "name": "E3",
      "svgX": 45244.68,
      "svgY": 915.39
    },
    {
      "absoluteTicks": 121894,
      "channel": 13,
      "type": "noteOff",
      "note": 67,
      "velocity": 79,
      "rel": 0.629921,
      "time": 76.18362297334963,
      "name": "G4"
    },
    {
      "absoluteTicks": 121894,
      "channel": 13,
      "type": "noteOff",
      "note": 52,
      "velocity": 79,
      "rel": 0.629921,
      "time": 76.18362297334963,
      "name": "E3"
    },
    {
      "absoluteTicks": 121920,
      "channel": 13,
      "type": "noteOn",
      "note": 66,
      "velocity": 79,
      "vel": 0.629921,
      "time": 76.1998727462125,
      "name": "F#4",
      "svgX": 45421.55,
      "svgY": 771.6
    },
    {
      "absoluteTicks": 121920,
      "channel": 13,
      "type": "noteOn",
      "note": 57,
      "velocity": 79,
      "vel": 0.629921,
      "time": 76.1998727462125,
      "name": "A3",
      "svgX": 45421.55,
      "svgY": 864.04
    },
    {
      "absoluteTicks": 122374,
      "channel": 13,
      "type": "noteOff",
      "note": 66,
      "velocity": 79,
      "rel": 0.629921,
      "time": 76.48362247235046,
      "name": "F#4"
    },
    {
      "absoluteTicks": 122374,
      "channel": 13,
      "type": "noteOff",
      "note": 57,
      "velocity": 79,
      "rel": 0.629921,
      "time": 76.48362247235046,
      "name": "A3"
    },
    {
      "absoluteTicks": 122400,
      "channel": 13,
      "type": "noteOn",
      "note": 64,
      "velocity": 79,
      "vel": 0.629921,
      "time": 76.49987224521335,
      "name": "E4",
      "svgX": 45598.42,
      "svgY": 792.15
    },
    {
      "absoluteTicks": 122400,
      "channel": 13,
      "type": "noteOn",
      "note": 61,
      "velocity": 79,
      "vel": 0.629921,
      "time": 76.49987224521335,
      "name": "C#4",
      "svgX": 45598.42,
      "svgY": 822.96
    },
    {
      "absoluteTicks": 122854,
      "channel": 13,
      "type": "noteOff",
      "note": 64,
      "velocity": 79,
      "rel": 0.629921,
      "time": 76.7836219713513,
      "name": "E4"
    },
    {
      "absoluteTicks": 122854,
      "channel": 13,
      "type": "noteOff",
      "note": 61,
      "velocity": 79,
      "rel": 0.629921,
      "time": 76.7836219713513,
      "name": "C#4"
    },
    {
      "absoluteTicks": 122880,
      "channel": 13,
      "type": "noteOn",
      "note": 74,
      "velocity": 79,
      "vel": 0.629921,
      "time": 76.79987174421419,
      "name": "D5",
      "svgX": 45775.28,
      "svgY": 689.44
    },
    {
      "absoluteTicks": 122880,
      "channel": 13,
      "type": "noteOn",
      "note": 50,
      "velocity": 79,
      "vel": 0.629921,
      "time": 76.79987174421419,
      "name": "D3",
      "svgX": 45775.28,
      "svgY": 935.93
    },
    {
      "absoluteTicks": 123334,
      "channel": 13,
      "type": "noteOff",
      "note": 74,
      "velocity": 79,
      "rel": 0.629921,
      "time": 77.08362147035214,
      "name": "D5"
    },
    {
      "absoluteTicks": 123334,
      "channel": 13,
      "type": "noteOff",
      "note": 50,
      "velocity": 79,
      "rel": 0.629921,
      "time": 77.08362147035214,
      "name": "D3"
    },
    {
      "absoluteTicks": 123360,
      "channel": 13,
      "type": "noteOn",
      "note": 76,
      "velocity": 79,
      "vel": 0.629921,
      "time": 77.09987124321502,
      "name": "E5",
      "svgX": 45952.15,
      "svgY": 668.9
    },
    {
      "absoluteTicks": 123360,
      "channel": 13,
      "type": "noteOn",
      "note": 57,
      "velocity": 79,
      "vel": 0.629921,
      "time": 77.09987124321502,
      "name": "A3",
      "svgX": 45952.15,
      "svgY": 864.04
    },
    {
      "absoluteTicks": 123814,
      "channel": 13,
      "type": "noteOff",
      "note": 76,
      "velocity": 79,
      "rel": 0.629921,
      "time": 77.38362096935298,
      "name": "E5"
    },
    {
      "absoluteTicks": 123814,
      "channel": 13,
      "type": "noteOff",
      "note": 57,
      "velocity": 79,
      "rel": 0.629921,
      "time": 77.38362096935298,
      "name": "A3"
    },
    {
      "absoluteTicks": 123840,
      "channel": 13,
      "type": "noteOn",
      "note": 78,
      "velocity": 79,
      "vel": 0.629921,
      "time": 77.39987074221585,
      "name": "F#5",
      "svgX": 46129.02,
      "svgY": 648.36
    },
    {
      "absoluteTicks": 123840,
      "channel": 13,
      "type": "noteOn",
      "note": 62,
      "velocity": 79,
      "vel": 0.629921,
      "time": 77.39987074221585,
      "name": "D4",
      "svgX": 46129.02,
      "svgY": 812.69
    },
    {
      "absoluteTicks": 124294,
      "channel": 13,
      "type": "noteOff",
      "note": 78,
      "velocity": 79,
      "rel": 0.629921,
      "time": 77.68362046835381,
      "name": "F#5"
    },
    {
      "absoluteTicks": 124294,
      "channel": 13,
      "type": "noteOff",
      "note": 62,
      "velocity": 79,
      "rel": 0.629921,
      "time": 77.68362046835381,
      "name": "D4"
    },
    {
      "absoluteTicks": 124320,
      "channel": 13,
      "type": "noteOn",
      "note": 79,
      "velocity": 79,
      "vel": 0.629921,
      "time": 77.6998702412167,
      "name": "G5",
      "svgX": 46305.89,
      "svgY": 638.09
    },
    {
      "absoluteTicks": 124320,
      "channel": 13,
      "type": "noteOn",
      "note": 66,
      "velocity": 79,
      "vel": 0.629921,
      "time": 77.6998702412167,
      "name": "F#4",
      "svgX": 46305.89,
      "svgY": 771.6
    },
    {
      "absoluteTicks": 124774,
      "channel": 13,
      "type": "noteOff",
      "note": 79,
      "velocity": 79,
      "rel": 0.629921,
      "time": 77.98361996735464,
      "name": "G5"
    },
    {
      "absoluteTicks": 124774,
      "channel": 13,
      "type": "noteOff",
      "note": 66,
      "velocity": 79,
      "rel": 0.629921,
      "time": 77.98361996735464,
      "name": "F#4"
    },
    {
      "absoluteTicks": 124800,
      "channel": 13,
      "type": "noteOn",
      "note": 81,
      "velocity": 79,
      "vel": 0.629921,
      "time": 77.99986974021753,
      "name": "A5",
      "svgX": 46482.75,
      "svgY": 617.55
    },
    {
      "absoluteTicks": 124800,
      "channel": 13,
      "type": "noteOn",
      "note": 45,
      "velocity": 79,
      "vel": 0.629921,
      "time": 77.99986974021753,
      "name": "A2",
      "svgX": 46482.75,
      "svgY": 987.28
    },
    {
      "absoluteTicks": 125254,
      "channel": 13,
      "type": "noteOff",
      "note": 81,
      "velocity": 79,
      "rel": 0.629921,
      "time": 78.28361946635549,
      "name": "A5"
    },
    {
      "absoluteTicks": 125254,
      "channel": 13,
      "type": "noteOff",
      "note": 45,
      "velocity": 79,
      "rel": 0.629921,
      "time": 78.28361946635549,
      "name": "A2"
    },
    {
      "absoluteTicks": 125280,
      "channel": 13,
      "type": "noteOn",
      "note": 76,
      "velocity": 79,
      "vel": 0.629921,
      "time": 78.29986923921837,
      "name": "E5",
      "svgX": 46659.62,
      "svgY": 668.9
    },
    {
      "absoluteTicks": 125280,
      "channel": 13,
      "type": "noteOn",
      "note": 52,
      "velocity": 79,
      "vel": 0.629921,
      "time": 78.29986923921837,
      "name": "E3",
      "svgX": 46659.62,
      "svgY": 915.39
    },
    {
      "absoluteTicks": 125734,
      "channel": 13,
      "type": "noteOff",
      "note": 76,
      "velocity": 79,
      "rel": 0.629921,
      "time": 78.58361896535632,
      "name": "E5"
    },
    {
      "absoluteTicks": 125734,
      "channel": 13,
      "type": "noteOff",
      "note": 52,
      "velocity": 79,
      "rel": 0.629921,
      "time": 78.58361896535632,
      "name": "E3"
    },
    {
      "absoluteTicks": 125760,
      "channel": 13,
      "type": "noteOn",
      "note": 81,
      "velocity": 79,
      "vel": 0.629921,
      "time": 78.5998687382192,
      "name": "A5",
      "svgX": 46836.49,
      "svgY": 617.55
    },
    {
      "absoluteTicks": 125760,
      "channel": 13,
      "type": "noteOn",
      "note": 57,
      "velocity": 79,
      "vel": 0.629921,
      "time": 78.5998687382192,
      "name": "A3",
      "svgX": 46836.49,
      "svgY": 864.04
    },
    {
      "absoluteTicks": 126214,
      "channel": 13,
      "type": "noteOff",
      "note": 81,
      "velocity": 79,
      "rel": 0.629921,
      "time": 78.88361846435716,
      "name": "A5"
    },
    {
      "absoluteTicks": 126214,
      "channel": 13,
      "type": "noteOff",
      "note": 57,
      "velocity": 79,
      "rel": 0.629921,
      "time": 78.88361846435716,
      "name": "A3"
    },
    {
      "absoluteTicks": 126240,
      "channel": 13,
      "type": "noteOn",
      "note": 79,
      "velocity": 79,
      "vel": 0.629921,
      "time": 78.89986823722003,
      "name": "G5",
      "svgX": 47013.35,
      "svgY": 638.09
    },
    {
      "absoluteTicks": 126240,
      "channel": 13,
      "type": "noteOn",
      "note": 61,
      "velocity": 79,
      "vel": 0.629921,
      "time": 78.89986823722003,
      "name": "C#4",
      "svgX": 47013.35,
      "svgY": 822.96
    },
    {
      "absoluteTicks": 126694,
      "channel": 13,
      "type": "noteOff",
      "note": 79,
      "velocity": 79,
      "rel": 0.629921,
      "time": 79.18361796335799,
      "name": "G5"
    },
    {
      "absoluteTicks": 126694,
      "channel": 13,
      "type": "noteOff",
      "note": 61,
      "velocity": 79,
      "rel": 0.629921,
      "time": 79.18361796335799,
      "name": "C#4"
    },
    {
      "absoluteTicks": 126720,
      "channel": 13,
      "type": "noteOn",
      "note": 78,
      "velocity": 79,
      "vel": 0.629921,
      "time": 79.19986773622088,
      "name": "F#5",
      "svgX": 47190.22,
      "svgY": 648.36
    },
    {
      "absoluteTicks": 126720,
      "channel": 13,
      "type": "noteOn",
      "note": 47,
      "velocity": 79,
      "vel": 0.629921,
      "time": 79.19986773622088,
      "name": "B2",
      "svgX": 47190.22,
      "svgY": 966.74
    },
    {
      "absoluteTicks": 127174,
      "channel": 13,
      "type": "noteOff",
      "note": 78,
      "velocity": 79,
      "rel": 0.629921,
      "time": 79.48361746235882,
      "name": "F#5"
    },
    {
      "absoluteTicks": 127174,
      "channel": 13,
      "type": "noteOff",
      "note": 47,
      "velocity": 79,
      "rel": 0.629921,
      "time": 79.48361746235882,
      "name": "B2"
    },
    {
      "absoluteTicks": 127200,
      "channel": 13,
      "type": "noteOn",
      "note": 83,
      "velocity": 79,
      "vel": 0.629921,
      "time": 79.49986723522171,
      "name": "B5",
      "svgX": 47367.09,
      "svgY": 597.01
    },
    {
      "absoluteTicks": 127200,
      "channel": 13,
      "type": "noteOn",
      "note": 54,
      "velocity": 79,
      "vel": 0.629921,
      "time": 79.49986723522171,
      "name": "F#3",
      "svgX": 47367.09,
      "svgY": 894.85
    },
    {
      "absoluteTicks": 127654,
      "channel": 13,
      "type": "noteOff",
      "note": 83,
      "velocity": 79,
      "rel": 0.629921,
      "time": 79.78361696135967,
      "name": "B5"
    },
    {
      "absoluteTicks": 127654,
      "channel": 13,
      "type": "noteOff",
      "note": 54,
      "velocity": 79,
      "rel": 0.629921,
      "time": 79.78361696135967,
      "name": "F#3"
    },
    {
      "absoluteTicks": 127680,
      "channel": 13,
      "type": "noteOn",
      "note": 81,
      "velocity": 79,
      "vel": 0.629921,
      "time": 79.79986673422255,
      "name": "A5",
      "svgX": 47543.96,
      "svgY": 617.55
    },
    {
      "absoluteTicks": 127680,
      "channel": 13,
      "type": "noteOn",
      "note": 59,
      "velocity": 79,
      "vel": 0.629921,
      "time": 79.79986673422255,
      "name": "B3",
      "svgX": 47543.96,
      "svgY": 843.5
    },
    {
      "absoluteTicks": 128134,
      "channel": 13,
      "type": "noteOff",
      "note": 81,
      "velocity": 79,
      "rel": 0.629921,
      "time": 80.0836164603605,
      "name": "A5"
    },
    {
      "absoluteTicks": 128134,
      "channel": 13,
      "type": "noteOff",
      "note": 59,
      "velocity": 79,
      "rel": 0.629921,
      "time": 80.0836164603605,
      "name": "B3"
    },
    {
      "absoluteTicks": 128160,
      "channel": 13,
      "type": "noteOn",
      "note": 79,
      "velocity": 79,
      "vel": 0.629921,
      "time": 80.09986623322338,
      "name": "G5",
      "svgX": 47720.82,
      "svgY": 638.09
    },
    {
      "absoluteTicks": 128160,
      "channel": 13,
      "type": "noteOn",
      "note": 62,
      "velocity": 79,
      "vel": 0.629921,
      "time": 80.09986623322338,
      "name": "D4",
      "svgX": 47720.82,
      "svgY": 812.69
    },
    {
      "absoluteTicks": 128614,
      "channel": 13,
      "type": "noteOff",
      "note": 79,
      "velocity": 79,
      "rel": 0.629921,
      "time": 80.38361595936134,
      "name": "G5"
    },
    {
      "absoluteTicks": 128614,
      "channel": 13,
      "type": "noteOff",
      "note": 62,
      "velocity": 79,
      "rel": 0.629921,
      "time": 80.38361595936134,
      "name": "D4"
    },
    {
      "absoluteTicks": 128640,
      "channel": 13,
      "type": "noteOn",
      "note": 81,
      "velocity": 79,
      "vel": 0.629921,
      "time": 80.39986573222423,
      "name": "A5",
      "svgX": 47897.69,
      "svgY": 617.55
    },
    {
      "absoluteTicks": 128640,
      "channel": 13,
      "type": "noteOn",
      "note": 42,
      "velocity": 79,
      "vel": 0.629921,
      "time": 80.39986573222423,
      "name": "F#2",
      "svgX": 47897.69,
      "svgY": 1018.09
    },
    {
      "absoluteTicks": 129094,
      "channel": 13,
      "type": "noteOff",
      "note": 81,
      "velocity": 79,
      "rel": 0.629921,
      "time": 80.68361545836217,
      "name": "A5"
    },
    {
      "absoluteTicks": 129094,
      "channel": 13,
      "type": "noteOff",
      "note": 42,
      "velocity": 79,
      "rel": 0.629921,
      "time": 80.68361545836217,
      "name": "F#2"
    },
    {
      "absoluteTicks": 129120,
      "channel": 13,
      "type": "noteOn",
      "note": 79,
      "velocity": 79,
      "vel": 0.629921,
      "time": 80.69986523122506,
      "name": "G5",
      "svgX": 48074.56,
      "svgY": 638.09
    },
    {
      "absoluteTicks": 129120,
      "channel": 13,
      "type": "noteOn",
      "note": 49,
      "velocity": 79,
      "vel": 0.629921,
      "time": 80.69986523122506,
      "name": "C#3",
      "svgX": 48074.56,
      "svgY": 946.2
    },
    {
      "absoluteTicks": 129574,
      "channel": 13,
      "type": "noteOff",
      "note": 79,
      "velocity": 79,
      "rel": 0.629921,
      "time": 80.98361495736302,
      "name": "G5"
    },
    {
      "absoluteTicks": 129574,
      "channel": 13,
      "type": "noteOff",
      "note": 49,
      "velocity": 79,
      "rel": 0.629921,
      "time": 80.98361495736302,
      "name": "C#3"
    },
    {
      "absoluteTicks": 129600,
      "channel": 13,
      "type": "noteOn",
      "note": 78,
      "velocity": 79,
      "vel": 0.629921,
      "time": 80.9998647302259,
      "name": "F#5",
      "svgX": 48251.43,
      "svgY": 648.36
    },
    {
      "absoluteTicks": 129600,
      "channel": 13,
      "type": "noteOn",
      "note": 54,
      "velocity": 79,
      "vel": 0.629921,
      "time": 80.9998647302259,
      "name": "F#3",
      "svgX": 48251.43,
      "svgY": 894.85
    },
    {
      "absoluteTicks": 130054,
      "channel": 13,
      "type": "noteOff",
      "note": 78,
      "velocity": 79,
      "rel": 0.629921,
      "time": 81.28361445636385,
      "name": "F#5"
    },
    {
      "absoluteTicks": 130054,
      "channel": 13,
      "type": "noteOff",
      "note": 54,
      "velocity": 79,
      "rel": 0.629921,
      "time": 81.28361445636385,
      "name": "F#3"
    },
    {
      "absoluteTicks": 130080,
      "channel": 13,
      "type": "noteOn",
      "note": 76,
      "velocity": 79,
      "vel": 0.629921,
      "time": 81.29986422922673,
      "name": "E5",
      "svgX": 48428.29,
      "svgY": 668.9
    },
    {
      "absoluteTicks": 130080,
      "channel": 13,
      "type": "noteOn",
      "note": 57,
      "velocity": 79,
      "vel": 0.629921,
      "time": 81.29986422922673,
      "name": "A3",
      "svgX": 48428.29,
      "svgY": 864.04
    },
    {
      "absoluteTicks": 130534,
      "channel": 13,
      "type": "noteOff",
      "note": 76,
      "velocity": 79,
      "rel": 0.629921,
      "time": 81.58361395536468,
      "name": "E5"
    },
    {
      "absoluteTicks": 130534,
      "channel": 13,
      "type": "noteOff",
      "note": 57,
      "velocity": 79,
      "rel": 0.629921,
      "time": 81.58361395536468,
      "name": "A3"
    },
    {
      "absoluteTicks": 130560,
      "channel": 13,
      "type": "noteOn",
      "note": 74,
      "velocity": 79,
      "vel": 0.629921,
      "time": 81.59986372822758,
      "name": "D5",
      "svgX": 48605.16,
      "svgY": 689.44
    },
    {
      "absoluteTicks": 130560,
      "channel": 13,
      "type": "noteOn",
      "note": 43,
      "velocity": 79,
      "vel": 0.629921,
      "time": 81.59986372822758,
      "name": "G2",
      "svgX": 48605.16,
      "svgY": 1007.82
    },
    {
      "absoluteTicks": 131014,
      "channel": 13,
      "type": "noteOff",
      "note": 74,
      "velocity": 79,
      "rel": 0.629921,
      "time": 81.88361345436552,
      "name": "D5"
    },
    {
      "absoluteTicks": 131014,
      "channel": 13,
      "type": "noteOff",
      "note": 43,
      "velocity": 79,
      "rel": 0.629921,
      "time": 81.88361345436552,
      "name": "G2"
    },
    {
      "absoluteTicks": 131040,
      "channel": 13,
      "type": "noteOn",
      "note": 71,
      "velocity": 79,
      "vel": 0.629921,
      "time": 81.89986322722841,
      "name": "B4",
      "svgX": 48782.03,
      "svgY": 720.25
    },
    {
      "absoluteTicks": 131040,
      "channel": 13,
      "type": "noteOn",
      "note": 50,
      "velocity": 79,
      "vel": 0.629921,
      "time": 81.89986322722841,
      "name": "D3",
      "svgX": 48782.03,
      "svgY": 935.93
    },
    {
      "absoluteTicks": 131494,
      "channel": 13,
      "type": "noteOff",
      "note": 71,
      "velocity": 79,
      "rel": 0.629921,
      "time": 82.18361295336636,
      "name": "B4"
    },
    {
      "absoluteTicks": 131494,
      "channel": 13,
      "type": "noteOff",
      "note": 50,
      "velocity": 79,
      "rel": 0.629921,
      "time": 82.18361295336636,
      "name": "D3"
    },
    {
      "absoluteTicks": 131520,
      "channel": 13,
      "type": "noteOn",
      "note": 71,
      "velocity": 79,
      "vel": 0.629921,
      "time": 82.19986272622924,
      "name": "B4",
      "svgX": 48958.9,
      "svgY": 720.25
    },
    {
      "absoluteTicks": 131520,
      "channel": 13,
      "type": "noteOn",
      "note": 55,
      "velocity": 79,
      "vel": 0.629921,
      "time": 82.19986272622924,
      "name": "G3",
      "svgX": 48958.9,
      "svgY": 884.58
    },
    {
      "absoluteTicks": 131974,
      "channel": 13,
      "type": "noteOff",
      "note": 71,
      "velocity": 79,
      "rel": 0.629921,
      "time": 82.4836124523672,
      "name": "B4"
    },
    {
      "absoluteTicks": 131974,
      "channel": 13,
      "type": "noteOff",
      "note": 55,
      "velocity": 79,
      "rel": 0.629921,
      "time": 82.4836124523672,
      "name": "G3"
    },
    {
      "absoluteTicks": 132000,
      "channel": 13,
      "type": "noteOn",
      "note": 73,
      "velocity": 79,
      "vel": 0.629921,
      "time": 82.49986222523007,
      "name": "C#5",
      "svgX": 49135.76,
      "svgY": 699.71
    },
    {
      "absoluteTicks": 132000,
      "channel": 13,
      "type": "noteOn",
      "note": 59,
      "velocity": 79,
      "vel": 0.629921,
      "time": 82.49986222523007,
      "name": "B3",
      "svgX": 49135.76,
      "svgY": 843.5
    },
    {
      "absoluteTicks": 132454,
      "channel": 13,
      "type": "noteOff",
      "note": 73,
      "velocity": 79,
      "rel": 0.629921,
      "time": 82.78361195136803,
      "name": "C#5"
    },
    {
      "absoluteTicks": 132454,
      "channel": 13,
      "type": "noteOff",
      "note": 59,
      "velocity": 79,
      "rel": 0.629921,
      "time": 82.78361195136803,
      "name": "B3"
    },
    {
      "absoluteTicks": 132480,
      "channel": 13,
      "type": "noteOn",
      "note": 74,
      "velocity": 79,
      "vel": 0.629921,
      "time": 82.79986172423092,
      "name": "D5",
      "svgX": 49312.63,
      "svgY": 689.44
    },
    {
      "absoluteTicks": 132480,
      "channel": 13,
      "type": "noteOn",
      "note": 38,
      "velocity": 79,
      "vel": 0.629921,
      "time": 82.79986172423092,
      "name": "D2",
      "svgX": 49312.63,
      "svgY": 1059.17
    },
    {
      "absoluteTicks": 132934,
      "channel": 13,
      "type": "noteOff",
      "note": 74,
      "velocity": 79,
      "rel": 0.629921,
      "time": 83.08361145036886,
      "name": "D5"
    },
    {
      "absoluteTicks": 132934,
      "channel": 13,
      "type": "noteOff",
      "note": 38,
      "velocity": 79,
      "rel": 0.629921,
      "time": 83.08361145036886,
      "name": "D2"
    },
    {
      "absoluteTicks": 132960,
      "channel": 13,
      "type": "noteOn",
      "note": 78,
      "velocity": 79,
      "vel": 0.629921,
      "time": 83.09986122323176,
      "name": "F#5",
      "svgX": 49489.5,
      "svgY": 648.36
    },
    {
      "absoluteTicks": 132960,
      "channel": 13,
      "type": "noteOn",
      "note": 45,
      "velocity": 79,
      "vel": 0.629921,
      "time": 83.09986122323176,
      "name": "A2",
      "svgX": 49489.5,
      "svgY": 987.28
    },
    {
      "absoluteTicks": 133197,
      "channel": 13,
      "type": "noteOff",
      "note": 78,
      "velocity": 79,
      "rel": 0.629921,
      "time": 83.24861057482035,
      "name": "F#5"
    },
    {
      "absoluteTicks": 133200,
      "channel": 13,
      "type": "noteOn",
      "note": 76,
      "velocity": 79,
      "vel": 0.629921,
      "time": 83.24986097273217,
      "name": "E5",
      "svgX": 49577.93,
      "svgY": 668.9
    },
    {
      "absoluteTicks": 133414,
      "channel": 13,
      "type": "noteOff",
      "note": 45,
      "velocity": 79,
      "rel": 0.629921,
      "time": 83.38361094936971,
      "name": "A2"
    },
    {
      "absoluteTicks": 133437,
      "channel": 13,
      "type": "noteOff",
      "note": 76,
      "velocity": 79,
      "rel": 0.629921,
      "time": 83.39861032432077,
      "name": "E5"
    },
    {
      "absoluteTicks": 133440,
      "channel": 13,
      "type": "noteOn",
      "note": 74,
      "velocity": 79,
      "vel": 0.629921,
      "time": 83.39986072223259,
      "name": "D5",
      "svgX": 49666.36,
      "svgY": 689.44
    },
    {
      "absoluteTicks": 133440,
      "channel": 13,
      "type": "noteOn",
      "note": 50,
      "velocity": 79,
      "vel": 0.629921,
      "time": 83.39986072223259,
      "name": "D3",
      "svgX": 49666.36,
      "svgY": 935.93
    },
    {
      "absoluteTicks": 133894,
      "channel": 13,
      "type": "noteOff",
      "note": 74,
      "velocity": 79,
      "rel": 0.629921,
      "time": 83.68361044837054,
      "name": "D5"
    },
    {
      "absoluteTicks": 133894,
      "channel": 13,
      "type": "noteOff",
      "note": 50,
      "velocity": 79,
      "rel": 0.629921,
      "time": 83.68361044837054,
      "name": "D3"
    },
    {
      "absoluteTicks": 133920,
      "channel": 13,
      "type": "noteOn",
      "note": 78,
      "velocity": 79,
      "vel": 0.629921,
      "time": 83.69986022123342,
      "name": "F#5",
      "svgX": 49843.23,
      "svgY": 648.36
    },
    {
      "absoluteTicks": 133920,
      "channel": 13,
      "type": "noteOn",
      "note": 54,
      "velocity": 79,
      "vel": 0.629921,
      "time": 83.69986022123342,
      "name": "F#3",
      "svgX": 49843.23,
      "svgY": 894.85
    },
    {
      "absoluteTicks": 134374,
      "channel": 13,
      "type": "noteOff",
      "note": 78,
      "velocity": 79,
      "rel": 0.629921,
      "time": 83.98360994737138,
      "name": "F#5"
    },
    {
      "absoluteTicks": 134374,
      "channel": 13,
      "type": "noteOff",
      "note": 54,
      "velocity": 79,
      "rel": 0.629921,
      "time": 83.98360994737138,
      "name": "F#3"
    },
    {
      "absoluteTicks": 134400,
      "channel": 13,
      "type": "noteOn",
      "note": 79,
      "velocity": 79,
      "vel": 0.629921,
      "time": 83.99985972023427,
      "name": "G5",
      "svgX": 50020.1,
      "svgY": 638.09
    },
    {
      "absoluteTicks": 134400,
      "channel": 13,
      "type": "noteOn",
      "note": 43,
      "velocity": 79,
      "vel": 0.629921,
      "time": 83.99985972023427,
      "name": "G2",
      "svgX": 50020.1,
      "svgY": 1007.82
    },
    {
      "absoluteTicks": 134854,
      "channel": 13,
      "type": "noteOff",
      "note": 79,
      "velocity": 79,
      "rel": 0.629921,
      "time": 84.28360944637221,
      "name": "G5"
    },
    {
      "absoluteTicks": 134854,
      "channel": 13,
      "type": "noteOff",
      "note": 43,
      "velocity": 79,
      "rel": 0.629921,
      "time": 84.28360944637221,
      "name": "G2"
    },
    {
      "absoluteTicks": 134880,
      "channel": 13,
      "type": "noteOn",
      "note": 74,
      "velocity": 79,
      "vel": 0.629921,
      "time": 84.2998592192351,
      "name": "D5",
      "svgX": 50196.97,
      "svgY": 689.44
    },
    {
      "absoluteTicks": 134880,
      "channel": 13,
      "type": "noteOn",
      "note": 50,
      "velocity": 79,
      "vel": 0.629921,
      "time": 84.2998592192351,
      "name": "D3",
      "svgX": 50196.97,
      "svgY": 935.93
    },
    {
      "absoluteTicks": 135117,
      "channel": 13,
      "type": "noteOff",
      "note": 74,
      "velocity": 79,
      "rel": 0.629921,
      "time": 84.4486085708237,
      "name": "D5"
    },
    {
      "absoluteTicks": 135120,
      "channel": 13,
      "type": "noteOn",
      "note": 73,
      "velocity": 79,
      "vel": 0.629921,
      "time": 84.44985896873551,
      "name": "C#5",
      "svgX": 50285.4,
      "svgY": 699.71
    },
    {
      "absoluteTicks": 135334,
      "channel": 13,
      "type": "noteOff",
      "note": 50,
      "velocity": 79,
      "rel": 0.629921,
      "time": 84.58360894537306,
      "name": "D3"
    },
    {
      "absoluteTicks": 135357,
      "channel": 13,
      "type": "noteOff",
      "note": 73,
      "velocity": 79,
      "rel": 0.629921,
      "time": 84.59860832032412,
      "name": "C#5"
    },
    {
      "absoluteTicks": 135360,
      "channel": 13,
      "type": "noteOn",
      "note": 71,
      "velocity": 79,
      "vel": 0.629921,
      "time": 84.59985871823594,
      "name": "B4",
      "svgX": 50373.83,
      "svgY": 720.25
    },
    {
      "absoluteTicks": 135360,
      "channel": 13,
      "type": "noteOn",
      "note": 55,
      "velocity": 79,
      "vel": 0.629921,
      "time": 84.59985871823594,
      "name": "G3",
      "svgX": 50373.83,
      "svgY": 884.58
    },
    {
      "absoluteTicks": 135814,
      "channel": 13,
      "type": "noteOff",
      "note": 71,
      "velocity": 79,
      "rel": 0.629921,
      "time": 84.88360844437389,
      "name": "B4"
    },
    {
      "absoluteTicks": 135814,
      "channel": 13,
      "type": "noteOff",
      "note": 55,
      "velocity": 79,
      "rel": 0.629921,
      "time": 84.88360844437389,
      "name": "G3"
    },
    {
      "absoluteTicks": 135840,
      "channel": 13,
      "type": "noteOn",
      "note": 73,
      "velocity": 79,
      "vel": 0.629921,
      "time": 84.89985821723677,
      "name": "C#5",
      "svgX": 50550.7,
      "svgY": 699.71
    },
    {
      "absoluteTicks": 135840,
      "channel": 13,
      "type": "noteOn",
      "note": 59,
      "velocity": 79,
      "vel": 0.629921,
      "time": 84.89985821723677,
      "name": "B3",
      "svgX": 50550.7,
      "svgY": 843.5
    },
    {
      "absoluteTicks": 136294,
      "channel": 13,
      "type": "noteOff",
      "note": 59,
      "velocity": 79,
      "rel": 0.629921,
      "time": 85.18360794337472,
      "name": "B3"
    },
    {
      "absoluteTicks": 136317,
      "channel": 13,
      "type": "noteOff",
      "note": 73,
      "velocity": 79,
      "rel": 0.629921,
      "time": 85.19860731832578,
      "name": "C#5"
    },
    {
      "absoluteTicks": 136320,
      "channel": 13,
      "type": "noteOn",
      "note": 74,
      "velocity": 79,
      "vel": 0.629921,
      "time": 85.19985771623762,
      "name": "D5",
      "svgX": 50727.57,
      "svgY": 689.44
    },
    {
      "absoluteTicks": 136320,
      "channel": 13,
      "type": "noteOn",
      "note": 45,
      "velocity": 79,
      "vel": 0.629921,
      "time": 85.19985771623762,
      "name": "A2",
      "svgX": 50727.57,
      "svgY": 987.28
    },
    {
      "absoluteTicks": 136774,
      "channel": 13,
      "type": "noteOff",
      "note": 45,
      "velocity": 79,
      "rel": 0.629921,
      "time": 85.48360744237556,
      "name": "A2"
    },
    {
      "absoluteTicks": 136800,
      "channel": 13,
      "type": "noteOn",
      "note": 52,
      "velocity": 79,
      "vel": 0.629921,
      "time": 85.49985721523845,
      "name": "E3",
      "svgX": 50904.44,
      "svgY": 915.39
    },
    {
      "absoluteTicks": 137254,
      "channel": 13,
      "type": "noteOff",
      "note": 52,
      "velocity": 79,
      "rel": 0.629921,
      "time": 85.7836069413764,
      "name": "E3"
    },
    {
      "absoluteTicks": 137280,
      "channel": 13,
      "type": "noteOn",
      "note": 57,
      "velocity": 79,
      "vel": 0.629921,
      "time": 85.79985671423928,
      "name": "A3",
      "svgX": 51081.3,
      "svgY": 864.04
    },
    {
      "absoluteTicks": 137685,
      "channel": 13,
      "type": "noteOff",
      "note": 74,
      "velocity": 79,
      "rel": 0.629921,
      "time": 86.05360589047815,
      "name": "D5"
    },
    {
      "absoluteTicks": 137734,
      "channel": 13,
      "type": "noteOff",
      "note": 57,
      "velocity": 79,
      "rel": 0.629921,
      "time": 86.08360644037724,
      "name": "A3"
    },
    {
      "absoluteTicks": 137760,
      "channel": 13,
      "type": "noteOn",
      "note": 73,
      "velocity": 79,
      "vel": 0.629921,
      "time": 86.09985621324012,
      "name": "C#5",
      "svgX": 51258.17,
      "svgY": 699.71
    },
    {
      "absoluteTicks": 137760,
      "channel": 13,
      "type": "noteOn",
      "note": 61,
      "velocity": 79,
      "vel": 0.629921,
      "time": 86.09985621324012,
      "name": "C#4",
      "svgX": 51258.17,
      "svgY": 822.96
    },
    {
      "absoluteTicks": 138214,
      "channel": 13,
      "type": "noteOff",
      "note": 73,
      "velocity": 79,
      "rel": 0.629921,
      "time": 86.38360593937807,
      "name": "C#5"
    },
    {
      "absoluteTicks": 138214,
      "channel": 13,
      "type": "noteOff",
      "note": 61,
      "velocity": 79,
      "rel": 0.629921,
      "time": 86.38360593937807,
      "name": "C#4"
    },
    {
      "absoluteTicks": 138240,
      "channel": 13,
      "type": "noteOn",
      "note": 81,
      "velocity": 96,
      "vel": 0.755906,
      "time": 86.39985571224095,
      "name": "A5",
      "svgX": 51435.04,
      "svgY": 617.55
    },
    {
      "absoluteTicks": 138240,
      "channel": 13,
      "type": "noteOn",
      "note": 50,
      "velocity": 96,
      "vel": 0.755906,
      "time": 86.39985571224095,
      "name": "D3",
      "svgX": 51435.04,
      "svgY": 935.93
    },
    {
      "absoluteTicks": 138694,
      "channel": 13,
      "type": "noteOff",
      "note": 81,
      "velocity": 96,
      "rel": 0.755906,
      "time": 86.6836054383789,
      "name": "A5"
    },
    {
      "absoluteTicks": 138694,
      "channel": 13,
      "type": "noteOff",
      "note": 50,
      "velocity": 96,
      "rel": 0.755906,
      "time": 86.6836054383789,
      "name": "D3"
    },
    {
      "absoluteTicks": 138720,
      "channel": 13,
      "type": "noteOn",
      "note": 78,
      "velocity": 96,
      "vel": 0.755906,
      "time": 86.6998552112418,
      "name": "F#5",
      "svgX": 51611.9,
      "svgY": 648.36
    },
    {
      "absoluteTicks": 138720,
      "channel": 13,
      "type": "noteOn",
      "note": 57,
      "velocity": 96,
      "vel": 0.755906,
      "time": 86.6998552112418,
      "name": "A3",
      "svgX": 51611.9,
      "svgY": 864.04
    },
    {
      "absoluteTicks": 138957,
      "channel": 13,
      "type": "noteOff",
      "note": 78,
      "velocity": 96,
      "rel": 0.755906,
      "time": 86.84860456283039,
      "name": "F#5"
    },
    {
      "absoluteTicks": 138960,
      "channel": 13,
      "type": "noteOn",
      "note": 79,
      "velocity": 96,
      "vel": 0.755906,
      "time": 86.8498549607422,
      "name": "G5",
      "svgX": 51700.34,
      "svgY": 638.09
    },
    {
      "absoluteTicks": 139174,
      "channel": 13,
      "type": "noteOff",
      "note": 57,
      "velocity": 96,
      "rel": 0.755906,
      "time": 86.98360493737975,
      "name": "A3"
    },
    {
      "absoluteTicks": 139197,
      "channel": 13,
      "type": "noteOff",
      "note": 79,
      "velocity": 96,
      "rel": 0.755906,
      "time": 86.9986043123308,
      "name": "G5"
    },
    {
      "absoluteTicks": 139200,
      "channel": 13,
      "type": "noteOn",
      "note": 81,
      "velocity": 96,
      "vel": 0.755906,
      "time": 86.99985471024263,
      "name": "A5",
      "svgX": 51788.77,
      "svgY": 617.55
    },
    {
      "absoluteTicks": 139200,
      "channel": 13,
      "type": "noteOn",
      "note": 62,
      "velocity": 96,
      "vel": 0.755906,
      "time": 86.99985471024263,
      "name": "D4",
      "svgX": 51788.77,
      "svgY": 812.69
    },
    {
      "absoluteTicks": 139654,
      "channel": 13,
      "type": "noteOff",
      "note": 81,
      "velocity": 96,
      "rel": 0.755906,
      "time": 87.28360443638059,
      "name": "A5"
    },
    {
      "absoluteTicks": 139654,
      "channel": 13,
      "type": "noteOff",
      "note": 62,
      "velocity": 96,
      "rel": 0.755906,
      "time": 87.28360443638059,
      "name": "D4"
    },
    {
      "absoluteTicks": 139680,
      "channel": 13,
      "type": "noteOn",
      "note": 78,
      "velocity": 96,
      "vel": 0.755906,
      "time": 87.29985420924346,
      "name": "F#5",
      "svgX": 51965.64,
      "svgY": 648.36
    },
    {
      "absoluteTicks": 139680,
      "channel": 13,
      "type": "noteOn",
      "note": 66,
      "velocity": 96,
      "vel": 0.755906,
      "time": 87.29985420924346,
      "name": "F#4",
      "svgX": 51965.64,
      "svgY": 771.6
    },
    {
      "absoluteTicks": 139917,
      "channel": 13,
      "type": "noteOff",
      "note": 78,
      "velocity": 96,
      "rel": 0.755906,
      "time": 87.44860356083205,
      "name": "F#5"
    },
    {
      "absoluteTicks": 139920,
      "channel": 13,
      "type": "noteOn",
      "note": 79,
      "velocity": 96,
      "vel": 0.755906,
      "time": 87.44985395874389,
      "name": "G5",
      "svgX": 52054.07,
      "svgY": 638.09
    },
    {
      "absoluteTicks": 140134,
      "channel": 13,
      "type": "noteOff",
      "note": 66,
      "velocity": 96,
      "rel": 0.755906,
      "time": 87.58360393538142,
      "name": "F#4"
    },
    {
      "absoluteTicks": 140157,
      "channel": 13,
      "type": "noteOff",
      "note": 79,
      "velocity": 96,
      "rel": 0.755906,
      "time": 87.59860331033248,
      "name": "G5"
    },
    {
      "absoluteTicks": 140160,
      "channel": 13,
      "type": "noteOn",
      "note": 81,
      "velocity": 96,
      "vel": 0.755906,
      "time": 87.5998537082443,
      "name": "A5",
      "svgX": 52142.51,
      "svgY": 617.55
    },
    {
      "absoluteTicks": 140160,
      "channel": 13,
      "type": "noteOn",
      "note": 45,
      "velocity": 96,
      "vel": 0.755906,
      "time": 87.5998537082443,
      "name": "A2",
      "svgX": 52142.51,
      "svgY": 987.28
    },
    {
      "absoluteTicks": 140385,
      "channel": 13,
      "type": "noteOff",
      "note": 81,
      "velocity": 96,
      "rel": 0.755906,
      "time": 87.74110307235786,
      "name": "A5"
    },
    {
      "absoluteTicks": 140400,
      "channel": 13,
      "type": "noteOn",
      "note": 69,
      "velocity": 96,
      "vel": 0.755906,
      "time": 87.74985345774472,
      "name": "A4",
      "svgX": 52230.94,
      "svgY": 740.79
    },
    {
      "absoluteTicks": 140614,
      "channel": 13,
      "type": "noteOff",
      "note": 45,
      "velocity": 96,
      "rel": 0.755906,
      "time": 87.88360343438225,
      "name": "A2"
    },
    {
      "absoluteTicks": 140625,
      "channel": 13,
      "type": "noteOff",
      "note": 69,
      "velocity": 96,
      "rel": 0.755906,
      "time": 87.89110282185827,
      "name": "A4"
    },
    {
      "absoluteTicks": 140640,
      "channel": 13,
      "type": "noteOn",
      "note": 71,
      "velocity": 96,
      "vel": 0.755906,
      "time": 87.89985320724514,
      "name": "B4",
      "svgX": 52319.37,
      "svgY": 720.25
    },
    {
      "absoluteTicks": 140640,
      "channel": 13,
      "type": "noteOn",
      "note": 52,
      "velocity": 96,
      "vel": 0.755906,
      "time": 87.89985320724514,
      "name": "E3",
      "svgX": 52319.37,
      "svgY": 915.39
    },
    {
      "absoluteTicks": 140865,
      "channel": 13,
      "type": "noteOff",
      "note": 71,
      "velocity": 96,
      "rel": 0.755906,
      "time": 88.04110257135869,
      "name": "B4"
    },
    {
      "absoluteTicks": 140880,
      "channel": 13,
      "type": "noteOn",
      "note": 73,
      "velocity": 96,
      "vel": 0.755906,
      "time": 88.04985295674555,
      "name": "C#5",
      "svgX": 52407.81,
      "svgY": 699.71
    },
    {
      "absoluteTicks": 141094,
      "channel": 13,
      "type": "noteOff",
      "note": 52,
      "velocity": 96,
      "rel": 0.755906,
      "time": 88.18360293338309,
      "name": "E3"
    },
    {
      "absoluteTicks": 141105,
      "channel": 13,
      "type": "noteOff",
      "note": 73,
      "velocity": 96,
      "rel": 0.755906,
      "time": 88.19110232085912,
      "name": "C#5"
    },
    {
      "absoluteTicks": 141120,
      "channel": 13,
      "type": "noteOn",
      "note": 74,
      "velocity": 96,
      "vel": 0.755906,
      "time": 88.19985270624598,
      "name": "D5",
      "svgX": 52496.24,
      "svgY": 689.44
    },
    {
      "absoluteTicks": 141120,
      "channel": 13,
      "type": "noteOn",
      "note": 57,
      "velocity": 96,
      "vel": 0.755906,
      "time": 88.19985270624598,
      "name": "A3",
      "svgX": 52496.24,
      "svgY": 864.04
    },
    {
      "absoluteTicks": 141345,
      "channel": 13,
      "type": "noteOff",
      "note": 74,
      "velocity": 96,
      "rel": 0.755906,
      "time": 88.34110207035953,
      "name": "D5"
    },
    {
      "absoluteTicks": 141360,
      "channel": 13,
      "type": "noteOn",
      "note": 76,
      "velocity": 96,
      "vel": 0.755906,
      "time": 88.3498524557464,
      "name": "E5",
      "svgX": 52584.68,
      "svgY": 668.9
    },
    {
      "absoluteTicks": 141574,
      "channel": 13,
      "type": "noteOff",
      "note": 57,
      "velocity": 96,
      "rel": 0.755906,
      "time": 88.48360243238393,
      "name": "A3"
    },
    {
      "absoluteTicks": 141585,
      "channel": 13,
      "type": "noteOff",
      "note": 76,
      "velocity": 96,
      "rel": 0.755906,
      "time": 88.49110181985995,
      "name": "E5"
    },
    {
      "absoluteTicks": 141600,
      "channel": 13,
      "type": "noteOn",
      "note": 78,
      "velocity": 96,
      "vel": 0.755906,
      "time": 88.49985220524681,
      "name": "F#5",
      "svgX": 52673.11,
      "svgY": 648.36
    },
    {
      "absoluteTicks": 141600,
      "channel": 13,
      "type": "noteOn",
      "note": 61,
      "velocity": 96,
      "vel": 0.755906,
      "time": 88.49985220524681,
      "name": "C#4",
      "svgX": 52673.11,
      "svgY": 822.96
    },
    {
      "absoluteTicks": 141825,
      "channel": 13,
      "type": "noteOff",
      "note": 78,
      "velocity": 96,
      "rel": 0.755906,
      "time": 88.64110156936037,
      "name": "F#5"
    },
    {
      "absoluteTicks": 141840,
      "channel": 13,
      "type": "noteOn",
      "note": 79,
      "velocity": 96,
      "vel": 0.755906,
      "time": 88.64985195474723,
      "name": "G5",
      "svgX": 52761.54,
      "svgY": 638.09
    },
    {
      "absoluteTicks": 142054,
      "channel": 13,
      "type": "noteOff",
      "note": 61,
      "velocity": 96,
      "rel": 0.755906,
      "time": 88.78360193138477,
      "name": "C#4"
    },
    {
      "absoluteTicks": 142065,
      "channel": 13,
      "type": "noteOff",
      "note": 79,
      "velocity": 96,
      "rel": 0.755906,
      "time": 88.79110131886078,
      "name": "G5"
    },
    {
      "absoluteTicks": 142080,
      "channel": 13,
      "type": "noteOn",
      "note": 78,
      "velocity": 96,
      "vel": 0.755906,
      "time": 88.79985170424764,
      "name": "F#5",
      "svgX": 52849.98,
      "svgY": 648.36
    },
    {
      "absoluteTicks": 142080,
      "channel": 13,
      "type": "noteOn",
      "note": 47,
      "velocity": 96,
      "vel": 0.755906,
      "time": 88.79985170424764,
      "name": "B2",
      "svgX": 52849.98,
      "svgY": 966.74
    },
    {
      "absoluteTicks": 142534,
      "channel": 13,
      "type": "noteOff",
      "note": 78,
      "velocity": 96,
      "rel": 0.755906,
      "time": 89.0836014303856,
      "name": "F#5"
    },
    {
      "absoluteTicks": 142534,
      "channel": 13,
      "type": "noteOff",
      "note": 47,
      "velocity": 96,
      "rel": 0.755906,
      "time": 89.0836014303856,
      "name": "B2"
    },
    {
      "absoluteTicks": 142560,
      "channel": 13,
      "type": "noteOn",
      "note": 74,
      "velocity": 96,
      "vel": 0.755906,
      "time": 89.09985120324849,
      "name": "D5",
      "svgX": 53026.84,
      "svgY": 689.44
    },
    {
      "absoluteTicks": 142560,
      "channel": 13,
      "type": "noteOn",
      "note": 54,
      "velocity": 96,
      "vel": 0.755906,
      "time": 89.09985120324849,
      "name": "F#3",
      "svgX": 53026.84,
      "svgY": 894.85
    },
    {
      "absoluteTicks": 142797,
      "channel": 13,
      "type": "noteOff",
      "note": 74,
      "velocity": 96,
      "rel": 0.755906,
      "time": 89.24860055483708,
      "name": "D5"
    },
    {
      "absoluteTicks": 142800,
      "channel": 13,
      "type": "noteOn",
      "note": 76,
      "velocity": 96,
      "vel": 0.755906,
      "time": 89.2498509527489,
      "name": "E5",
      "svgX": 53115.28,
      "svgY": 668.9
    },
    {
      "absoluteTicks": 143014,
      "channel": 13,
      "type": "noteOff",
      "note": 54,
      "velocity": 96,
      "rel": 0.755906,
      "time": 89.38360092938643,
      "name": "F#3"
    },
    {
      "absoluteTicks": 143037,
      "channel": 13,
      "type": "noteOff",
      "note": 76,
      "velocity": 96,
      "rel": 0.755906,
      "time": 89.39860030433749,
      "name": "E5"
    },
    {
      "absoluteTicks": 143040,
      "channel": 13,
      "type": "noteOn",
      "note": 78,
      "velocity": 96,
      "vel": 0.755906,
      "time": 89.39985070224932,
      "name": "F#5",
      "svgX": 53203.71,
      "svgY": 648.36
    },
    {
      "absoluteTicks": 143040,
      "channel": 13,
      "type": "noteOn",
      "note": 59,
      "velocity": 96,
      "vel": 0.755906,
      "time": 89.39985070224932,
      "name": "B3",
      "svgX": 53203.71,
      "svgY": 843.5
    },
    {
      "absoluteTicks": 143494,
      "channel": 13,
      "type": "noteOff",
      "note": 78,
      "velocity": 96,
      "rel": 0.755906,
      "time": 89.68360042838728,
      "name": "F#5"
    },
    {
      "absoluteTicks": 143494,
      "channel": 13,
      "type": "noteOff",
      "note": 59,
      "velocity": 96,
      "rel": 0.755906,
      "time": 89.68360042838728,
      "name": "B3"
    },
    {
      "absoluteTicks": 143520,
      "channel": 13,
      "type": "noteOn",
      "note": 66,
      "velocity": 96,
      "vel": 0.755906,
      "time": 89.69985020125016,
      "name": "F#4",
      "svgX": 53380.58,
      "svgY": 771.6
    },
    {
      "absoluteTicks": 143520,
      "channel": 13,
      "type": "noteOn",
      "note": 62,
      "velocity": 96,
      "vel": 0.755906,
      "time": 89.69985020125016,
      "name": "D4",
      "svgX": 53380.58,
      "svgY": 812.69
    },
    {
      "absoluteTicks": 143757,
      "channel": 13,
      "type": "noteOff",
      "note": 66,
      "velocity": 96,
      "rel": 0.755906,
      "time": 89.84859955283875,
      "name": "F#4"
    },
    {
      "absoluteTicks": 143760,
      "channel": 13,
      "type": "noteOn",
      "note": 67,
      "velocity": 96,
      "vel": 0.755906,
      "time": 89.84984995075058,
      "name": "G4",
      "svgX": 53469.01,
      "svgY": 761.33
    },
    {
      "absoluteTicks": 143974,
      "channel": 13,
      "type": "noteOff",
      "note": 62,
      "velocity": 96,
      "rel": 0.755906,
      "time": 89.98359992738811,
      "name": "D4"
    },
    {
      "absoluteTicks": 143985,
      "channel": 13,
      "type": "noteOff",
      "note": 67,
      "velocity": 96,
      "rel": 0.755906,
      "time": 89.99109931486413,
      "name": "G4"
    },
    {
      "absoluteTicks": 144000,
      "channel": 13,
      "type": "noteOn",
      "note": 69,
      "velocity": 96,
      "vel": 0.755906,
      "time": 89.99984970025099,
      "name": "A4",
      "svgX": 53557.45,
      "svgY": 740.79
    },
    {
      "absoluteTicks": 144000,
      "channel": 13,
      "type": "noteOn",
      "note": 42,
      "velocity": 96,
      "vel": 0.755906,
      "time": 89.99984970025099,
      "name": "F#2",
      "svgX": 53557.45,
      "svgY": 1018.09
    },
    {
      "absoluteTicks": 144225,
      "channel": 13,
      "type": "noteOff",
      "note": 69,
      "velocity": 96,
      "rel": 0.755906,
      "time": 90.14109906436455,
      "name": "A4"
    },
    {
      "absoluteTicks": 144240,
      "channel": 13,
      "type": "noteOn",
      "note": 71,
      "velocity": 96,
      "vel": 0.755906,
      "time": 90.14984944975141,
      "name": "B4",
      "svgX": 53645.88,
      "svgY": 720.25
    },
    {
      "absoluteTicks": 144454,
      "channel": 13,
      "type": "noteOff",
      "note": 42,
      "velocity": 96,
      "rel": 0.755906,
      "time": 90.28359942638895,
      "name": "F#2"
    },
    {
      "absoluteTicks": 144465,
      "channel": 13,
      "type": "noteOff",
      "note": 71,
      "velocity": 96,
      "rel": 0.755906,
      "time": 90.29109881386496,
      "name": "B4"
    },
    {
      "absoluteTicks": 144480,
      "channel": 13,
      "type": "noteOn",
      "note": 69,
      "velocity": 96,
      "vel": 0.755906,
      "time": 90.29984919925184,
      "name": "A4",
      "svgX": 53734.31,
      "svgY": 740.79
    },
    {
      "absoluteTicks": 144480,
      "channel": 13,
      "type": "noteOn",
      "note": 49,
      "velocity": 96,
      "vel": 0.755906,
      "time": 90.29984919925184,
      "name": "C#3",
      "svgX": 53734.31,
      "svgY": 946.2
    },
    {
      "absoluteTicks": 144705,
      "channel": 13,
      "type": "noteOff",
      "note": 69,
      "velocity": 96,
      "rel": 0.755906,
      "time": 90.44109856336539,
      "name": "A4"
    },
    {
      "absoluteTicks": 144720,
      "channel": 13,
      "type": "noteOn",
      "note": 67,
      "velocity": 96,
      "vel": 0.755906,
      "time": 90.44984894875225,
      "name": "G4",
      "svgX": 53822.75,
      "svgY": 761.33
    },
    {
      "absoluteTicks": 144934,
      "channel": 13,
      "type": "noteOff",
      "note": 49,
      "velocity": 96,
      "rel": 0.755906,
      "time": 90.58359892538978,
      "name": "C#3"
    },
    {
      "absoluteTicks": 144945,
      "channel": 13,
      "type": "noteOff",
      "note": 67,
      "velocity": 96,
      "rel": 0.755906,
      "time": 90.59109831286581,
      "name": "G4"
    },
    {
      "absoluteTicks": 144960,
      "channel": 13,
      "type": "noteOn",
      "note": 69,
      "velocity": 96,
      "vel": 0.755906,
      "time": 90.59984869825267,
      "name": "A4",
      "svgX": 53911.18,
      "svgY": 740.79
    },
    {
      "absoluteTicks": 144960,
      "channel": 13,
      "type": "noteOn",
      "note": 54,
      "velocity": 96,
      "vel": 0.755906,
      "time": 90.59984869825267,
      "name": "F#3",
      "svgX": 53911.18,
      "svgY": 894.85
    },
    {
      "absoluteTicks": 145185,
      "channel": 13,
      "type": "noteOff",
      "note": 69,
      "velocity": 96,
      "rel": 0.755906,
      "time": 90.74109806236622,
      "name": "A4"
    },
    {
      "absoluteTicks": 145200,
      "channel": 13,
      "type": "noteOn",
      "note": 66,
      "velocity": 96,
      "vel": 0.755906,
      "time": 90.74984844775308,
      "name": "F#4",
      "svgX": 53999.61,
      "svgY": 771.6
    },
    {
      "absoluteTicks": 145414,
      "channel": 13,
      "type": "noteOff",
      "note": 54,
      "velocity": 96,
      "rel": 0.755906,
      "time": 90.88359842439063,
      "name": "F#3"
    },
    {
      "absoluteTicks": 145425,
      "channel": 13,
      "type": "noteOff",
      "note": 66,
      "velocity": 96,
      "rel": 0.755906,
      "time": 90.89109781186664,
      "name": "F#4"
    },
    {
      "absoluteTicks": 145440,
      "channel": 13,
      "type": "noteOn",
      "note": 67,
      "velocity": 96,
      "vel": 0.755906,
      "time": 90.8998481972535,
      "name": "G4",
      "svgX": 54088.05,
      "svgY": 761.33
    },
    {
      "absoluteTicks": 145440,
      "channel": 13,
      "type": "noteOn",
      "note": 57,
      "velocity": 96,
      "vel": 0.755906,
      "time": 90.8998481972535,
      "name": "A3",
      "svgX": 54088.05,
      "svgY": 864.04
    },
    {
      "absoluteTicks": 145665,
      "channel": 13,
      "type": "noteOff",
      "note": 67,
      "velocity": 96,
      "rel": 0.755906,
      "time": 91.04109756136707,
      "name": "G4"
    },
    {
      "absoluteTicks": 145680,
      "channel": 13,
      "type": "noteOn",
      "note": 69,
      "velocity": 96,
      "vel": 0.755906,
      "time": 91.04984794675393,
      "name": "A4",
      "svgX": 54176.48,
      "svgY": 740.79
    },
    {
      "absoluteTicks": 145894,
      "channel": 13,
      "type": "noteOff",
      "note": 57,
      "velocity": 96,
      "rel": 0.755906,
      "time": 91.18359792339146,
      "name": "A3"
    },
    {
      "absoluteTicks": 145905,
      "channel": 13,
      "type": "noteOff",
      "note": 69,
      "velocity": 96,
      "rel": 0.755906,
      "time": 91.19109731086748,
      "name": "A4"
    },
    {
      "absoluteTicks": 145920,
      "channel": 13,
      "type": "noteOn",
      "note": 67,
      "velocity": 96,
      "vel": 0.755906,
      "time": 91.19984769625434,
      "name": "G4",
      "svgX": 54264.91,
      "svgY": 761.33
    },
    {
      "absoluteTicks": 145920,
      "channel": 13,
      "type": "noteOn",
      "note": 43,
      "velocity": 96,
      "vel": 0.755906,
      "time": 91.19984769625434,
      "name": "G2",
      "svgX": 54264.91,
      "svgY": 1007.82
    },
    {
      "absoluteTicks": 146374,
      "channel": 13,
      "type": "noteOff",
      "note": 67,
      "velocity": 96,
      "rel": 0.755906,
      "time": 91.4835974223923,
      "name": "G4"
    },
    {
      "absoluteTicks": 146374,
      "channel": 13,
      "type": "noteOff",
      "note": 43,
      "velocity": 96,
      "rel": 0.755906,
      "time": 91.4835974223923,
      "name": "G2"
    },
    {
      "absoluteTicks": 146400,
      "channel": 13,
      "type": "noteOn",
      "note": 71,
      "velocity": 96,
      "vel": 0.755906,
      "time": 91.49984719525519,
      "name": "B4",
      "svgX": 54441.78,
      "svgY": 720.25
    },
    {
      "absoluteTicks": 146400,
      "channel": 13,
      "type": "noteOn",
      "note": 50,
      "velocity": 96,
      "vel": 0.755906,
      "time": 91.49984719525519,
      "name": "D3",
      "svgX": 54441.78,
      "svgY": 935.93
    },
    {
      "absoluteTicks": 146637,
      "channel": 13,
      "type": "noteOff",
      "note": 71,
      "velocity": 96,
      "rel": 0.755906,
      "time": 91.64859654684378,
      "name": "B4"
    },
    {
      "absoluteTicks": 146640,
      "channel": 13,
      "type": "noteOn",
      "note": 69,
      "velocity": 96,
      "vel": 0.755906,
      "time": 91.6498469447556,
      "name": "A4",
      "svgX": 54530.22,
      "svgY": 740.79
    },
    {
      "absoluteTicks": 146854,
      "channel": 13,
      "type": "noteOff",
      "note": 50,
      "velocity": 96,
      "rel": 0.755906,
      "time": 91.78359692139313,
      "name": "D3"
    },
    {
      "absoluteTicks": 146877,
      "channel": 13,
      "type": "noteOff",
      "note": 69,
      "velocity": 96,
      "rel": 0.755906,
      "time": 91.79859629634419,
      "name": "A4"
    },
    {
      "absoluteTicks": 146880,
      "channel": 13,
      "type": "noteOn",
      "note": 67,
      "velocity": 96,
      "vel": 0.755906,
      "time": 91.79984669425602,
      "name": "G4",
      "svgX": 54618.65,
      "svgY": 761.33
    },
    {
      "absoluteTicks": 146880,
      "channel": 13,
      "type": "noteOn",
      "note": 55,
      "velocity": 96,
      "vel": 0.755906,
      "time": 91.79984669425602,
      "name": "G3",
      "svgX": 54618.65,
      "svgY": 884.58
    },
    {
      "absoluteTicks": 147334,
      "channel": 13,
      "type": "noteOff",
      "note": 67,
      "velocity": 96,
      "rel": 0.755906,
      "time": 92.08359642039397,
      "name": "G4"
    },
    {
      "absoluteTicks": 147334,
      "channel": 13,
      "type": "noteOff",
      "note": 55,
      "velocity": 96,
      "rel": 0.755906,
      "time": 92.08359642039397,
      "name": "G3"
    },
    {
      "absoluteTicks": 147360,
      "channel": 13,
      "type": "noteOn",
      "note": 66,
      "velocity": 96,
      "vel": 0.755906,
      "time": 92.09984619325685,
      "name": "F#4",
      "svgX": 54795.52,
      "svgY": 771.6
    },
    {
      "absoluteTicks": 147360,
      "channel": 13,
      "type": "noteOn",
      "note": 59,
      "velocity": 96,
      "vel": 0.755906,
      "time": 92.09984619325685,
      "name": "B3",
      "svgX": 54795.52,
      "svgY": 843.5
    },
    {
      "absoluteTicks": 147597,
      "channel": 13,
      "type": "noteOff",
      "note": 66,
      "velocity": 96,
      "rel": 0.755906,
      "time": 92.24859554484544,
      "name": "F#4"
    },
    {
      "absoluteTicks": 147600,
      "channel": 13,
      "type": "noteOn",
      "note": 64,
      "velocity": 96,
      "vel": 0.755906,
      "time": 92.24984594275728,
      "name": "E4",
      "svgX": 54883.95,
      "svgY": 792.15
    },
    {
      "absoluteTicks": 147814,
      "channel": 13,
      "type": "noteOff",
      "note": 59,
      "velocity": 96,
      "rel": 0.755906,
      "time": 92.3835959193948,
      "name": "B3"
    },
    {
      "absoluteTicks": 147825,
      "channel": 13,
      "type": "noteOff",
      "note": 64,
      "velocity": 96,
      "rel": 0.755906,
      "time": 92.39109530687082,
      "name": "E4"
    },
    {
      "absoluteTicks": 147840,
      "channel": 13,
      "type": "noteOn",
      "note": 66,
      "velocity": 96,
      "vel": 0.755906,
      "time": 92.39984569225768,
      "name": "F#4",
      "svgX": 54972.38,
      "svgY": 771.6
    },
    {
      "absoluteTicks": 147840,
      "channel": 13,
      "type": "noteOn",
      "note": 38,
      "velocity": 96,
      "vel": 0.755906,
      "time": 92.39984569225768,
      "name": "D2",
      "svgX": 54972.38,
      "svgY": 1059.17
    },
    {
      "absoluteTicks": 148065,
      "channel": 13,
      "type": "noteOff",
      "note": 66,
      "velocity": 96,
      "rel": 0.755906,
      "time": 92.54109505637125,
      "name": "F#4"
    },
    {
      "absoluteTicks": 148080,
      "channel": 13,
      "type": "noteOn",
      "note": 64,
      "velocity": 96,
      "vel": 0.755906,
      "time": 92.54984544175811,
      "name": "E4",
      "svgX": 55060.82,
      "svgY": 792.15
    },
    {
      "absoluteTicks": 148294,
      "channel": 13,
      "type": "noteOff",
      "note": 38,
      "velocity": 96,
      "rel": 0.755906,
      "time": 92.68359541839564,
      "name": "D2"
    },
    {
      "absoluteTicks": 148305,
      "channel": 13,
      "type": "noteOff",
      "note": 64,
      "velocity": 96,
      "rel": 0.755906,
      "time": 92.69109480587166,
      "name": "E4"
    },
    {
      "absoluteTicks": 148320,
      "channel": 13,
      "type": "noteOn",
      "note": 62,
      "velocity": 96,
      "vel": 0.755906,
      "time": 92.69984519125853,
      "name": "D4",
      "svgX": 55149.25,
      "svgY": 812.69
    },
    {
      "absoluteTicks": 148320,
      "channel": 13,
      "type": "noteOn",
      "note": 45,
      "velocity": 96,
      "vel": 0.755906,
      "time": 92.69984519125853,
      "name": "A2",
      "svgX": 55149.25,
      "svgY": 987.28
    },
    {
      "absoluteTicks": 148545,
      "channel": 13,
      "type": "noteOff",
      "note": 62,
      "velocity": 96,
      "rel": 0.755906,
      "time": 92.84109455537208,
      "name": "D4"
    },
    {
      "absoluteTicks": 148560,
      "channel": 13,
      "type": "noteOn",
      "note": 64,
      "velocity": 96,
      "vel": 0.755906,
      "time": 92.84984494075894,
      "name": "E4",
      "svgX": 55237.68,
      "svgY": 792.15
    },
    {
      "absoluteTicks": 148774,
      "channel": 13,
      "type": "noteOff",
      "note": 45,
      "velocity": 96,
      "rel": 0.755906,
      "time": 92.98359491739647,
      "name": "A2"
    },
    {
      "absoluteTicks": 148785,
      "channel": 13,
      "type": "noteOff",
      "note": 64,
      "velocity": 96,
      "rel": 0.755906,
      "time": 92.9910943048725,
      "name": "E4"
    },
    {
      "absoluteTicks": 148800,
      "channel": 13,
      "type": "noteOn",
      "note": 66,
      "velocity": 96,
      "vel": 0.755906,
      "time": 92.99984469025937,
      "name": "F#4",
      "svgX": 55326.12,
      "svgY": 771.6
    },
    {
      "absoluteTicks": 148800,
      "channel": 13,
      "type": "noteOn",
      "note": 50,
      "velocity": 96,
      "vel": 0.755906,
      "time": 92.99984469025937,
      "name": "D3",
      "svgX": 55326.12,
      "svgY": 935.93
    },
    {
      "absoluteTicks": 149025,
      "channel": 13,
      "type": "noteOff",
      "note": 66,
      "velocity": 96,
      "rel": 0.755906,
      "time": 93.14109405437291,
      "name": "F#4"
    },
    {
      "absoluteTicks": 149040,
      "channel": 13,
      "type": "noteOn",
      "note": 67,
      "velocity": 96,
      "vel": 0.755906,
      "time": 93.14984443975978,
      "name": "G4",
      "svgX": 55414.55,
      "svgY": 761.33
    },
    {
      "absoluteTicks": 149254,
      "channel": 13,
      "type": "noteOff",
      "note": 50,
      "velocity": 96,
      "rel": 0.755906,
      "time": 93.28359441639732,
      "name": "D3"
    },
    {
      "absoluteTicks": 149265,
      "channel": 13,
      "type": "noteOff",
      "note": 67,
      "velocity": 96,
      "rel": 0.755906,
      "time": 93.29109380387334,
      "name": "G4"
    },
    {
      "absoluteTicks": 149280,
      "channel": 13,
      "type": "noteOn",
      "note": 69,
      "velocity": 96,
      "vel": 0.755906,
      "time": 93.2998441892602,
      "name": "A4",
      "svgX": 55502.99,
      "svgY": 740.79
    },
    {
      "absoluteTicks": 149280,
      "channel": 13,
      "type": "noteOn",
      "note": 54,
      "velocity": 96,
      "vel": 0.755906,
      "time": 93.2998441892602,
      "name": "F#3",
      "svgX": 55502.99,
      "svgY": 894.85
    },
    {
      "absoluteTicks": 149505,
      "channel": 13,
      "type": "noteOff",
      "note": 69,
      "velocity": 96,
      "rel": 0.755906,
      "time": 93.44109355337375,
      "name": "A4"
    },
    {
      "absoluteTicks": 149520,
      "channel": 13,
      "type": "noteOn",
      "note": 71,
      "velocity": 96,
      "vel": 0.755906,
      "time": 93.44984393876062,
      "name": "B4",
      "svgX": 55591.42,
      "svgY": 720.25
    },
    {
      "absoluteTicks": 149734,
      "channel": 13,
      "type": "noteOff",
      "note": 54,
      "velocity": 96,
      "rel": 0.755906,
      "time": 93.58359391539815,
      "name": "F#3"
    },
    {
      "absoluteTicks": 149745,
      "channel": 13,
      "type": "noteOff",
      "note": 71,
      "velocity": 96,
      "rel": 0.755906,
      "time": 93.59109330287417,
      "name": "B4"
    },
    {
      "absoluteTicks": 149760,
      "channel": 13,
      "type": "noteOn",
      "note": 67,
      "velocity": 96,
      "vel": 0.755906,
      "time": 93.59984368826103,
      "name": "G4",
      "svgX": 55679.85,
      "svgY": 761.33
    },
    {
      "absoluteTicks": 149760,
      "channel": 13,
      "type": "noteOn",
      "note": 43,
      "velocity": 96,
      "vel": 0.755906,
      "time": 93.59984368826103,
      "name": "G2",
      "svgX": 55679.85,
      "svgY": 1007.82
    },
    {
      "absoluteTicks": 150214,
      "channel": 13,
      "type": "noteOff",
      "note": 67,
      "velocity": 96,
      "rel": 0.755906,
      "time": 93.88359341439899,
      "name": "G4"
    },
    {
      "absoluteTicks": 150214,
      "channel": 13,
      "type": "noteOff",
      "note": 43,
      "velocity": 96,
      "rel": 0.755906,
      "time": 93.88359341439899,
      "name": "G2"
    },
    {
      "absoluteTicks": 150240,
      "channel": 13,
      "type": "noteOn",
      "note": 71,
      "velocity": 96,
      "vel": 0.755906,
      "time": 93.89984318726188,
      "name": "B4",
      "svgX": 55856.72,
      "svgY": 720.25
    },
    {
      "absoluteTicks": 150240,
      "channel": 13,
      "type": "noteOn",
      "note": 50,
      "velocity": 96,
      "vel": 0.755906,
      "time": 93.89984318726188,
      "name": "D3",
      "svgX": 55856.72,
      "svgY": 935.93
    },
    {
      "absoluteTicks": 150477,
      "channel": 13,
      "type": "noteOff",
      "note": 71,
      "velocity": 96,
      "rel": 0.755906,
      "time": 94.04859253885047,
      "name": "B4"
    },
    {
      "absoluteTicks": 150480,
      "channel": 13,
      "type": "noteOn",
      "note": 69,
      "velocity": 96,
      "vel": 0.755906,
      "time": 94.04984293676229,
      "name": "A4",
      "svgX": 55945.15,
      "svgY": 740.79
    },
    {
      "absoluteTicks": 150694,
      "channel": 13,
      "type": "noteOff",
      "note": 50,
      "velocity": 96,
      "rel": 0.755906,
      "time": 94.18359291339982,
      "name": "D3"
    },
    {
      "absoluteTicks": 150705,
      "channel": 13,
      "type": "noteOff",
      "note": 69,
      "velocity": 96,
      "rel": 0.755906,
      "time": 94.19109230087585,
      "name": "A4"
    },
    {
      "absoluteTicks": 150720,
      "channel": 13,
      "type": "noteOn",
      "note": 71,
      "velocity": 96,
      "vel": 0.755906,
      "time": 94.19984268626271,
      "name": "B4",
      "svgX": 56033.59,
      "svgY": 720.25
    },
    {
      "absoluteTicks": 150720,
      "channel": 13,
      "type": "noteOn",
      "note": 55,
      "velocity": 96,
      "vel": 0.755906,
      "time": 94.19984268626271,
      "name": "G3",
      "svgX": 56033.59,
      "svgY": 884.58
    },
    {
      "absoluteTicks": 151174,
      "channel": 13,
      "type": "noteOff",
      "note": 71,
      "velocity": 96,
      "rel": 0.755906,
      "time": 94.48359241240067,
      "name": "B4"
    },
    {
      "absoluteTicks": 151174,
      "channel": 13,
      "type": "noteOff",
      "note": 55,
      "velocity": 96,
      "rel": 0.755906,
      "time": 94.48359241240067,
      "name": "G3"
    },
    {
      "absoluteTicks": 151200,
      "channel": 13,
      "type": "noteOn",
      "note": 73,
      "velocity": 96,
      "vel": 0.755906,
      "time": 94.49984218526355,
      "name": "C#5",
      "svgX": 56210.46,
      "svgY": 699.71
    },
    {
      "absoluteTicks": 151200,
      "channel": 13,
      "type": "noteOn",
      "note": 59,
      "velocity": 96,
      "vel": 0.755906,
      "time": 94.49984218526355,
      "name": "B3",
      "svgX": 56210.46,
      "svgY": 843.5
    },
    {
      "absoluteTicks": 151437,
      "channel": 13,
      "type": "noteOff",
      "note": 73,
      "velocity": 96,
      "rel": 0.755906,
      "time": 94.64859153685214,
      "name": "C#5"
    },
    {
      "absoluteTicks": 151440,
      "channel": 13,
      "type": "noteOn",
      "note": 74,
      "velocity": 96,
      "vel": 0.755906,
      "time": 94.64984193476397,
      "name": "D5",
      "svgX": 56298.89,
      "svgY": 689.44
    },
    {
      "absoluteTicks": 151654,
      "channel": 13,
      "type": "noteOff",
      "note": 59,
      "velocity": 96,
      "rel": 0.755906,
      "time": 94.7835919114015,
      "name": "B3"
    },
    {
      "absoluteTicks": 151665,
      "channel": 13,
      "type": "noteOff",
      "note": 74,
      "velocity": 96,
      "rel": 0.755906,
      "time": 94.79109129887752,
      "name": "D5"
    },
    {
      "absoluteTicks": 151680,
      "channel": 13,
      "type": "noteOn",
      "note": 69,
      "velocity": 96,
      "vel": 0.755906,
      "time": 94.79984168426438,
      "name": "A4",
      "svgX": 56387.32,
      "svgY": 740.79
    },
    {
      "absoluteTicks": 151680,
      "channel": 13,
      "type": "noteOn",
      "note": 45,
      "velocity": 96,
      "vel": 0.755906,
      "time": 94.79984168426438,
      "name": "A2",
      "svgX": 56387.32,
      "svgY": 987.28
    },
    {
      "absoluteTicks": 151905,
      "channel": 13,
      "type": "noteOff",
      "note": 69,
      "velocity": 96,
      "rel": 0.755906,
      "time": 94.94109104837794,
      "name": "A4"
    },
    {
      "absoluteTicks": 151920,
      "channel": 13,
      "type": "noteOn",
      "note": 71,
      "velocity": 96,
      "vel": 0.755906,
      "time": 94.9498414337648,
      "name": "B4",
      "svgX": 56475.76,
      "svgY": 720.25
    },
    {
      "absoluteTicks": 152134,
      "channel": 13,
      "type": "noteOff",
      "note": 45,
      "velocity": 96,
      "rel": 0.755906,
      "time": 95.08359141040233,
      "name": "A2"
    },
    {
      "absoluteTicks": 152145,
      "channel": 13,
      "type": "noteOff",
      "note": 71,
      "velocity": 96,
      "rel": 0.755906,
      "time": 95.09109079787835,
      "name": "B4"
    },
    {
      "absoluteTicks": 152160,
      "channel": 13,
      "type": "noteOn",
      "note": 73,
      "velocity": 96,
      "vel": 0.755906,
      "time": 95.09984118326521,
      "name": "C#5",
      "svgX": 56564.19,
      "svgY": 699.71
    },
    {
      "absoluteTicks": 152160,
      "channel": 13,
      "type": "noteOn",
      "note": 52,
      "velocity": 96,
      "vel": 0.755906,
      "time": 95.09984118326521,
      "name": "E3",
      "svgX": 56564.19,
      "svgY": 915.39
    },
    {
      "absoluteTicks": 152385,
      "channel": 13,
      "type": "noteOff",
      "note": 73,
      "velocity": 96,
      "rel": 0.755906,
      "time": 95.24109054737877,
      "name": "C#5"
    },
    {
      "absoluteTicks": 152400,
      "channel": 13,
      "type": "noteOn",
      "note": 74,
      "velocity": 96,
      "vel": 0.755906,
      "time": 95.24984093276564,
      "name": "D5",
      "svgX": 56652.62,
      "svgY": 689.44
    },
    {
      "absoluteTicks": 152614,
      "channel": 13,
      "type": "noteOff",
      "note": 52,
      "velocity": 96,
      "rel": 0.755906,
      "time": 95.38359090940317,
      "name": "E3"
    },
    {
      "absoluteTicks": 152625,
      "channel": 13,
      "type": "noteOff",
      "note": 74,
      "velocity": 96,
      "rel": 0.755906,
      "time": 95.3910902968792,
      "name": "D5"
    },
    {
      "absoluteTicks": 152640,
      "channel": 13,
      "type": "noteOn",
      "note": 76,
      "velocity": 96,
      "vel": 0.755906,
      "time": 95.39984068226606,
      "name": "E5",
      "svgX": 56741.06,
      "svgY": 668.9
    },
    {
      "absoluteTicks": 152640,
      "channel": 13,
      "type": "noteOn",
      "note": 57,
      "velocity": 96,
      "vel": 0.755906,
      "time": 95.39984068226606,
      "name": "A3",
      "svgX": 56741.06,
      "svgY": 864.04
    },
    {
      "absoluteTicks": 152865,
      "channel": 13,
      "type": "noteOff",
      "note": 76,
      "velocity": 96,
      "rel": 0.755906,
      "time": 95.54109004637961,
      "name": "E5"
    },
    {
      "absoluteTicks": 152880,
      "channel": 13,
      "type": "noteOn",
      "note": 78,
      "velocity": 96,
      "vel": 0.755906,
      "time": 95.54984043176647,
      "name": "F#5",
      "svgX": 56829.49,
      "svgY": 648.36
    },
    {
      "absoluteTicks": 153094,
      "channel": 13,
      "type": "noteOff",
      "note": 57,
      "velocity": 96,
      "rel": 0.755906,
      "time": 95.68359040840402,
      "name": "A3"
    },
    {
      "absoluteTicks": 153105,
      "channel": 13,
      "type": "noteOff",
      "note": 78,
      "velocity": 96,
      "rel": 0.755906,
      "time": 95.69108979588003,
      "name": "F#5"
    },
    {
      "absoluteTicks": 153120,
      "channel": 13,
      "type": "noteOn",
      "note": 79,
      "velocity": 96,
      "vel": 0.755906,
      "time": 95.6998401812669,
      "name": "G5",
      "svgX": 56917.92,
      "svgY": 638.09
    },
    {
      "absoluteTicks": 153120,
      "channel": 13,
      "type": "noteOn",
      "note": 61,
      "velocity": 96,
      "vel": 0.755906,
      "time": 95.6998401812669,
      "name": "C#4",
      "svgX": 56917.92,
      "svgY": 822.96
    },
    {
      "absoluteTicks": 153345,
      "channel": 13,
      "type": "noteOff",
      "note": 79,
      "velocity": 96,
      "rel": 0.755906,
      "time": 95.84108954538044,
      "name": "G5"
    },
    {
      "absoluteTicks": 153360,
      "channel": 13,
      "type": "noteOn",
      "note": 81,
      "velocity": 96,
      "vel": 0.755906,
      "time": 95.84983993076732,
      "name": "A5",
      "svgX": 57006.36,
      "svgY": 617.55
    },
    {
      "absoluteTicks": 153574,
      "channel": 13,
      "type": "noteOff",
      "note": 61,
      "velocity": 96,
      "rel": 0.755906,
      "time": 95.98358990740485,
      "name": "C#4"
    },
    {
      "absoluteTicks": 153585,
      "channel": 13,
      "type": "noteOff",
      "note": 81,
      "velocity": 96,
      "rel": 0.755906,
      "time": 95.99108929488087,
      "name": "A5"
    },
    {
      "absoluteTicks": 153600,
      "channel": 13,
      "type": "noteOn",
      "note": 81,
      "velocity": 96,
      "vel": 0.755906,
      "time": 95.99983968026773,
      "name": "A5",
      "svgX": 57094.79,
      "svgY": 617.55
    },
    {
      "absoluteTicks": 153600,
      "channel": 13,
      "type": "noteOn",
      "note": 50,
      "velocity": 96,
      "vel": 0.755906,
      "time": 95.99983968026773,
      "name": "D3",
      "svgX": 57094.79,
      "svgY": 935.93
    },
    {
      "absoluteTicks": 154054,
      "channel": 13,
      "type": "noteOff",
      "note": 81,
      "velocity": 96,
      "rel": 0.755906,
      "time": 96.28358940640568,
      "name": "A5"
    },
    {
      "absoluteTicks": 154054,
      "channel": 13,
      "type": "noteOff",
      "note": 50,
      "velocity": 96,
      "rel": 0.755906,
      "time": 96.28358940640568,
      "name": "D3"
    },
    {
      "absoluteTicks": 154080,
      "channel": 13,
      "type": "noteOn",
      "note": 78,
      "velocity": 96,
      "vel": 0.755906,
      "time": 96.29983917926856,
      "name": "F#5",
      "svgX": 57271.66,
      "svgY": 648.36
    },
    {
      "absoluteTicks": 154080,
      "channel": 13,
      "type": "noteOn",
      "note": 57,
      "velocity": 96,
      "vel": 0.755906,
      "time": 96.29983917926856,
      "name": "A3",
      "svgX": 57271.66,
      "svgY": 864.04
    },
    {
      "absoluteTicks": 154317,
      "channel": 13,
      "type": "noteOff",
      "note": 78,
      "velocity": 96,
      "rel": 0.755906,
      "time": 96.44858853085717,
      "name": "F#5"
    },
    {
      "absoluteTicks": 154320,
      "channel": 13,
      "type": "noteOn",
      "note": 79,
      "velocity": 96,
      "vel": 0.755906,
      "time": 96.44983892876898,
      "name": "G5",
      "svgX": 57360.09,
      "svgY": 638.09
    },
    {
      "absoluteTicks": 154534,
      "channel": 13,
      "type": "noteOff",
      "note": 57,
      "velocity": 96,
      "rel": 0.755906,
      "time": 96.58358890540651,
      "name": "A3"
    },
    {
      "absoluteTicks": 154557,
      "channel": 13,
      "type": "noteOff",
      "note": 79,
      "velocity": 96,
      "rel": 0.755906,
      "time": 96.59858828035757,
      "name": "G5"
    },
    {
      "absoluteTicks": 154560,
      "channel": 13,
      "type": "noteOn",
      "note": 81,
      "velocity": 96,
      "vel": 0.755906,
      "time": 96.5998386782694,
      "name": "A5",
      "svgX": 57448.53,
      "svgY": 617.55
    },
    {
      "absoluteTicks": 154560,
      "channel": 13,
      "type": "noteOn",
      "note": 62,
      "velocity": 96,
      "vel": 0.755906,
      "time": 96.5998386782694,
      "name": "D4",
      "svgX": 57448.53,
      "svgY": 812.69
    },
    {
      "absoluteTicks": 155014,
      "channel": 13,
      "type": "noteOff",
      "note": 81,
      "velocity": 96,
      "rel": 0.755906,
      "time": 96.88358840440735,
      "name": "A5"
    },
    {
      "absoluteTicks": 155014,
      "channel": 13,
      "type": "noteOff",
      "note": 62,
      "velocity": 96,
      "rel": 0.755906,
      "time": 96.88358840440735,
      "name": "D4"
    },
    {
      "absoluteTicks": 155040,
      "channel": 13,
      "type": "noteOn",
      "note": 78,
      "velocity": 96,
      "vel": 0.755906,
      "time": 96.89983817727024,
      "name": "F#5",
      "svgX": 57625.39,
      "svgY": 648.36
    },
    {
      "absoluteTicks": 155040,
      "channel": 13,
      "type": "noteOn",
      "note": 66,
      "velocity": 96,
      "vel": 0.755906,
      "time": 96.89983817727024,
      "name": "F#4",
      "svgX": 57625.39,
      "svgY": 771.6
    },
    {
      "absoluteTicks": 155277,
      "channel": 13,
      "type": "noteOff",
      "note": 78,
      "velocity": 96,
      "rel": 0.755906,
      "time": 97.04858752885883,
      "name": "F#5"
    },
    {
      "absoluteTicks": 155280,
      "channel": 13,
      "type": "noteOn",
      "note": 79,
      "velocity": 96,
      "vel": 0.755906,
      "time": 97.04983792677066,
      "name": "G5",
      "svgX": 57713.83,
      "svgY": 638.09
    },
    {
      "absoluteTicks": 155494,
      "channel": 13,
      "type": "noteOff",
      "note": 66,
      "velocity": 96,
      "rel": 0.755906,
      "time": 97.1835879034082,
      "name": "F#4"
    },
    {
      "absoluteTicks": 155517,
      "channel": 13,
      "type": "noteOff",
      "note": 79,
      "velocity": 96,
      "rel": 0.755906,
      "time": 97.19858727835926,
      "name": "G5"
    },
    {
      "absoluteTicks": 155520,
      "channel": 13,
      "type": "noteOn",
      "note": 81,
      "velocity": 96,
      "vel": 0.755906,
      "time": 97.19983767627107,
      "name": "A5",
      "svgX": 57802.26,
      "svgY": 617.55
    },
    {
      "absoluteTicks": 155520,
      "channel": 13,
      "type": "noteOn",
      "note": 45,
      "velocity": 96,
      "vel": 0.755906,
      "time": 97.19983767627107,
      "name": "A2",
      "svgX": 57802.26,
      "svgY": 987.28
    },
    {
      "absoluteTicks": 155745,
      "channel": 13,
      "type": "noteOff",
      "note": 81,
      "velocity": 96,
      "rel": 0.755906,
      "time": 97.34108704038464,
      "name": "A5"
    },
    {
      "absoluteTicks": 155760,
      "channel": 13,
      "type": "noteOn",
      "note": 69,
      "velocity": 96,
      "vel": 0.755906,
      "time": 97.3498374257715,
      "name": "A4",
      "svgX": 57890.69,
      "svgY": 740.79
    },
    {
      "absoluteTicks": 155974,
      "channel": 13,
      "type": "noteOff",
      "note": 45,
      "velocity": 96,
      "rel": 0.755906,
      "time": 97.48358740240903,
      "name": "A2"
    },
    {
      "absoluteTicks": 155985,
      "channel": 13,
      "type": "noteOff",
      "note": 69,
      "velocity": 96,
      "rel": 0.755906,
      "time": 97.49108678988505,
      "name": "A4"
    },
    {
      "absoluteTicks": 156000,
      "channel": 13,
      "type": "noteOn",
      "note": 71,
      "velocity": 96,
      "vel": 0.755906,
      "time": 97.4998371752719,
      "name": "B4",
      "svgX": 57979.13,
      "svgY": 720.25
    },
    {
      "absoluteTicks": 156000,
      "channel": 13,
      "type": "noteOn",
      "note": 52,
      "velocity": 96,
      "vel": 0.755906,
      "time": 97.4998371752719,
      "name": "E3",
      "svgX": 57979.13,
      "svgY": 915.39
    },
    {
      "absoluteTicks": 156225,
      "channel": 13,
      "type": "noteOff",
      "note": 71,
      "velocity": 96,
      "rel": 0.755906,
      "time": 97.64108653938547,
      "name": "B4"
    },
    {
      "absoluteTicks": 156240,
      "channel": 13,
      "type": "noteOn",
      "note": 73,
      "velocity": 96,
      "vel": 0.755906,
      "time": 97.64983692477233,
      "name": "C#5",
      "svgX": 58067.56,
      "svgY": 699.71
    },
    {
      "absoluteTicks": 156454,
      "channel": 13,
      "type": "noteOff",
      "note": 52,
      "velocity": 96,
      "rel": 0.755906,
      "time": 97.78358690140986,
      "name": "E3"
    },
    {
      "absoluteTicks": 156465,
      "channel": 13,
      "type": "noteOff",
      "note": 73,
      "velocity": 96,
      "rel": 0.755906,
      "time": 97.79108628888588,
      "name": "C#5"
    },
    {
      "absoluteTicks": 156480,
      "channel": 13,
      "type": "noteOn",
      "note": 74,
      "velocity": 96,
      "vel": 0.755906,
      "time": 97.79983667427275,
      "name": "D5",
      "svgX": 58156.0,
      "svgY": 689.44
    },
    {
      "absoluteTicks": 156480,
      "channel": 13,
      "type": "noteOn",
      "note": 57,
      "velocity": 96,
      "vel": 0.755906,
      "time": 97.79983667427275,
      "name": "A3",
      "svgX": 58156.0,
      "svgY": 864.04
    },
    {
      "absoluteTicks": 156705,
      "channel": 13,
      "type": "noteOff",
      "note": 74,
      "velocity": 96,
      "rel": 0.755906,
      "time": 97.9410860383863,
      "name": "D5"
    },
    {
      "absoluteTicks": 156720,
      "channel": 13,
      "type": "noteOn",
      "note": 76,
      "velocity": 96,
      "vel": 0.755906,
      "time": 97.94983642377316,
      "name": "E5",
      "svgX": 58244.43,
      "svgY": 668.9
    },
    {
      "absoluteTicks": 156934,
      "channel": 13,
      "type": "noteOff",
      "note": 57,
      "velocity": 96,
      "rel": 0.755906,
      "time": 98.0835864004107,
      "name": "A3"
    },
    {
      "absoluteTicks": 156945,
      "channel": 13,
      "type": "noteOff",
      "note": 76,
      "velocity": 96,
      "rel": 0.755906,
      "time": 98.09108578788673,
      "name": "E5"
    },
    {
      "absoluteTicks": 156960,
      "channel": 13,
      "type": "noteOn",
      "note": 78,
      "velocity": 96,
      "vel": 0.755906,
      "time": 98.09983617327359,
      "name": "F#5",
      "svgX": 58332.86,
      "svgY": 648.36
    },
    {
      "absoluteTicks": 156960,
      "channel": 13,
      "type": "noteOn",
      "note": 61,
      "velocity": 96,
      "vel": 0.755906,
      "time": 98.09983617327359,
      "name": "C#4",
      "svgX": 58332.86,
      "svgY": 822.96
    },
    {
      "absoluteTicks": 157185,
      "channel": 13,
      "type": "noteOff",
      "note": 78,
      "velocity": 96,
      "rel": 0.755906,
      "time": 98.24108553738714,
      "name": "F#5"
    },
    {
      "absoluteTicks": 157200,
      "channel": 13,
      "type": "noteOn",
      "note": 79,
      "velocity": 96,
      "vel": 0.755906,
      "time": 98.24983592277401,
      "name": "G5",
      "svgX": 58421.3,
      "svgY": 638.09
    },
    {
      "absoluteTicks": 157414,
      "channel": 13,
      "type": "noteOff",
      "note": 61,
      "velocity": 96,
      "rel": 0.755906,
      "time": 98.38358589941154,
      "name": "C#4"
    },
    {
      "absoluteTicks": 157425,
      "channel": 13,
      "type": "noteOff",
      "note": 79,
      "velocity": 96,
      "rel": 0.755906,
      "time": 98.39108528688756,
      "name": "G5"
    },
    {
      "absoluteTicks": 157440,
      "channel": 13,
      "type": "noteOn",
      "note": 78,
      "velocity": 96,
      "vel": 0.755906,
      "time": 98.39983567227442,
      "name": "F#5",
      "svgX": 58509.73,
      "svgY": 648.36
    },
    {
      "absoluteTicks": 157440,
      "channel": 13,
      "type": "noteOn",
      "note": 47,
      "velocity": 96,
      "vel": 0.755906,
      "time": 98.39983567227442,
      "name": "B2",
      "svgX": 58509.73,
      "svgY": 966.74
    },
    {
      "absoluteTicks": 157894,
      "channel": 13,
      "type": "noteOff",
      "note": 78,
      "velocity": 96,
      "rel": 0.755906,
      "time": 98.68358539841238,
      "name": "F#5"
    },
    {
      "absoluteTicks": 157894,
      "channel": 13,
      "type": "noteOff",
      "note": 47,
      "velocity": 96,
      "rel": 0.755906,
      "time": 98.68358539841238,
      "name": "B2"
    },
    {
      "absoluteTicks": 157920,
      "channel": 13,
      "type": "noteOn",
      "note": 74,
      "velocity": 96,
      "vel": 0.755906,
      "time": 98.69983517127525,
      "name": "D5",
      "svgX": 58686.6,
      "svgY": 689.44
    },
    {
      "absoluteTicks": 157920,
      "channel": 13,
      "type": "noteOn",
      "note": 54,
      "velocity": 96,
      "vel": 0.755906,
      "time": 98.69983517127525,
      "name": "F#3",
      "svgX": 58686.6,
      "svgY": 894.85
    },
    {
      "absoluteTicks": 158157,
      "channel": 13,
      "type": "noteOff",
      "note": 74,
      "velocity": 96,
      "rel": 0.755906,
      "time": 98.84858452286385,
      "name": "D5"
    },
    {
      "absoluteTicks": 158160,
      "channel": 13,
      "type": "noteOn",
      "note": 76,
      "velocity": 96,
      "vel": 0.755906,
      "time": 98.84983492077568,
      "name": "E5",
      "svgX": 58775.03,
      "svgY": 668.9
    },
    {
      "absoluteTicks": 158374,
      "channel": 13,
      "type": "noteOff",
      "note": 54,
      "velocity": 96,
      "rel": 0.755906,
      "time": 98.98358489741321,
      "name": "F#3"
    },
    {
      "absoluteTicks": 158397,
      "channel": 13,
      "type": "noteOff",
      "note": 76,
      "velocity": 96,
      "rel": 0.755906,
      "time": 98.99858427236427,
      "name": "E5"
    },
    {
      "absoluteTicks": 158400,
      "channel": 13,
      "type": "noteOn",
      "note": 78,
      "velocity": 96,
      "vel": 0.755906,
      "time": 98.9998346702761,
      "name": "F#5",
      "svgX": 58863.47,
      "svgY": 648.36
    },
    {
      "absoluteTicks": 158400,
      "channel": 13,
      "type": "noteOn",
      "note": 59,
      "velocity": 96,
      "vel": 0.755906,
      "time": 98.9998346702761,
      "name": "B3",
      "svgX": 58863.47,
      "svgY": 843.5
    },
    {
      "absoluteTicks": 158854,
      "channel": 13,
      "type": "noteOff",
      "note": 78,
      "velocity": 96,
      "rel": 0.755906,
      "time": 99.28358439641404,
      "name": "F#5"
    },
    {
      "absoluteTicks": 158854,
      "channel": 13,
      "type": "noteOff",
      "note": 59,
      "velocity": 96,
      "rel": 0.755906,
      "time": 99.28358439641404,
      "name": "B3"
    },
    {
      "absoluteTicks": 158880,
      "channel": 13,
      "type": "noteOn",
      "note": 66,
      "velocity": 96,
      "vel": 0.755906,
      "time": 99.29983416927693,
      "name": "F#4",
      "svgX": 59040.33,
      "svgY": 771.6
    },
    {
      "absoluteTicks": 158880,
      "channel": 13,
      "type": "noteOn",
      "note": 62,
      "velocity": 96,
      "vel": 0.755906,
      "time": 99.29983416927693,
      "name": "D4",
      "svgX": 59040.33,
      "svgY": 812.69
    },
    {
      "absoluteTicks": 159117,
      "channel": 13,
      "type": "noteOff",
      "note": 66,
      "velocity": 96,
      "rel": 0.755906,
      "time": 99.44858352086553,
      "name": "F#4"
    },
    {
      "absoluteTicks": 159120,
      "channel": 13,
      "type": "noteOn",
      "note": 67,
      "velocity": 96,
      "vel": 0.755906,
      "time": 99.44983391877734,
      "name": "G4",
      "svgX": 59128.77,
      "svgY": 761.33
    },
    {
      "absoluteTicks": 159334,
      "channel": 13,
      "type": "noteOff",
      "note": 62,
      "velocity": 96,
      "rel": 0.755906,
      "time": 99.58358389541489,
      "name": "D4"
    },
    {
      "absoluteTicks": 159345,
      "channel": 13,
      "type": "noteOff",
      "note": 67,
      "velocity": 96,
      "rel": 0.755906,
      "time": 99.5910832828909,
      "name": "G4"
    },
    {
      "absoluteTicks": 159360,
      "channel": 13,
      "type": "noteOn",
      "note": 69,
      "velocity": 96,
      "vel": 0.755906,
      "time": 99.59983366827777,
      "name": "A4",
      "svgX": 59217.2,
      "svgY": 740.79
    },
    {
      "absoluteTicks": 159360,
      "channel": 13,
      "type": "noteOn",
      "note": 42,
      "velocity": 96,
      "vel": 0.755906,
      "time": 99.59983366827777,
      "name": "F#2",
      "svgX": 59217.2,
      "svgY": 1018.09
    },
    {
      "absoluteTicks": 159585,
      "channel": 13,
      "type": "noteOff",
      "note": 69,
      "velocity": 96,
      "rel": 0.755906,
      "time": 99.74108303239133,
      "name": "A4"
    },
    {
      "absoluteTicks": 159600,
      "channel": 13,
      "type": "noteOn",
      "note": 71,
      "velocity": 96,
      "vel": 0.755906,
      "time": 99.74983341777819,
      "name": "B4",
      "svgX": 59305.63,
      "svgY": 720.25
    },
    {
      "absoluteTicks": 159814,
      "channel": 13,
      "type": "noteOff",
      "note": 42,
      "velocity": 96,
      "rel": 0.755906,
      "time": 99.88358339441572,
      "name": "F#2"
    },
    {
      "absoluteTicks": 159825,
      "channel": 13,
      "type": "noteOff",
      "note": 71,
      "velocity": 96,
      "rel": 0.755906,
      "time": 99.89108278189174,
      "name": "B4"
    },
    {
      "absoluteTicks": 159840,
      "channel": 13,
      "type": "noteOn",
      "note": 69,
      "velocity": 96,
      "vel": 0.755906,
      "time": 99.8998331672786,
      "name": "A4",
      "svgX": 59394.07,
      "svgY": 740.79
    },
    {
      "absoluteTicks": 159840,
      "channel": 13,
      "type": "noteOn",
      "note": 49,
      "velocity": 96,
      "vel": 0.755906,
      "time": 99.8998331672786,
      "name": "C#3",
      "svgX": 59394.07,
      "svgY": 946.2
    },
    {
      "absoluteTicks": 160065,
      "channel": 13,
      "type": "noteOff",
      "note": 69,
      "velocity": 96,
      "rel": 0.755906,
      "time": 100.04108253139216,
      "name": "A4"
    },
    {
      "absoluteTicks": 160080,
      "channel": 13,
      "type": "noteOn",
      "note": 67,
      "velocity": 96,
      "vel": 0.755906,
      "time": 100.04983291677902,
      "name": "G4",
      "svgX": 59482.5,
      "svgY": 761.33
    },
    {
      "absoluteTicks": 160294,
      "channel": 13,
      "type": "noteOff",
      "note": 49,
      "velocity": 96,
      "rel": 0.755906,
      "time": 100.18358289341656,
      "name": "C#3"
    },
    {
      "absoluteTicks": 160305,
      "channel": 13,
      "type": "noteOff",
      "note": 67,
      "velocity": 96,
      "rel": 0.755906,
      "time": 100.19108228089257,
      "name": "G4"
    },
    {
      "absoluteTicks": 160320,
      "channel": 13,
      "type": "noteOn",
      "note": 69,
      "velocity": 96,
      "vel": 0.755906,
      "time": 100.19983266627945,
      "name": "A4",
      "svgX": 59570.93,
      "svgY": 740.79
    },
    {
      "absoluteTicks": 160320,
      "channel": 13,
      "type": "noteOn",
      "note": 54,
      "velocity": 96,
      "vel": 0.755906,
      "time": 100.19983266627945,
      "name": "F#3",
      "svgX": 59570.93,
      "svgY": 894.85
    },
    {
      "absoluteTicks": 160545,
      "channel": 13,
      "type": "noteOff",
      "note": 69,
      "velocity": 96,
      "rel": 0.755906,
      "time": 100.341082030393,
      "name": "A4"
    },
    {
      "absoluteTicks": 160560,
      "channel": 13,
      "type": "noteOn",
      "note": 66,
      "velocity": 96,
      "vel": 0.755906,
      "time": 100.34983241577986,
      "name": "F#4",
      "svgX": 59659.37,
      "svgY": 771.6
    },
    {
      "absoluteTicks": 160774,
      "channel": 13,
      "type": "noteOff",
      "note": 54,
      "velocity": 96,
      "rel": 0.755906,
      "time": 100.48358239241739,
      "name": "F#3"
    },
    {
      "absoluteTicks": 160785,
      "channel": 13,
      "type": "noteOff",
      "note": 66,
      "velocity": 96,
      "rel": 0.755906,
      "time": 100.49108177989342,
      "name": "F#4"
    },
    {
      "absoluteTicks": 160800,
      "channel": 13,
      "type": "noteOn",
      "note": 67,
      "velocity": 96,
      "vel": 0.755906,
      "time": 100.49983216528028,
      "name": "G4",
      "svgX": 59747.8,
      "svgY": 761.33
    },
    {
      "absoluteTicks": 160800,
      "channel": 13,
      "type": "noteOn",
      "note": 57,
      "velocity": 96,
      "vel": 0.755906,
      "time": 100.49983216528028,
      "name": "A3",
      "svgX": 59747.8,
      "svgY": 864.04
    },
    {
      "absoluteTicks": 161025,
      "channel": 13,
      "type": "noteOff",
      "note": 67,
      "velocity": 96,
      "rel": 0.755906,
      "time": 100.64108152939383,
      "name": "G4"
    },
    {
      "absoluteTicks": 161040,
      "channel": 13,
      "type": "noteOn",
      "note": 69,
      "velocity": 96,
      "vel": 0.755906,
      "time": 100.64983191478069,
      "name": "A4",
      "svgX": 59836.24,
      "svgY": 740.79
    },
    {
      "absoluteTicks": 161254,
      "channel": 13,
      "type": "noteOff",
      "note": 57,
      "velocity": 96,
      "rel": 0.755906,
      "time": 100.78358189141824,
      "name": "A3"
    },
    {
      "absoluteTicks": 161265,
      "channel": 13,
      "type": "noteOff",
      "note": 69,
      "velocity": 96,
      "rel": 0.755906,
      "time": 100.79108127889425,
      "name": "A4"
    },
    {
      "absoluteTicks": 161280,
      "channel": 13,
      "type": "noteOn",
      "note": 67,
      "velocity": 96,
      "vel": 0.755906,
      "time": 100.79983166428111,
      "name": "G4",
      "svgX": 59924.67,
      "svgY": 761.33
    },
    {
      "absoluteTicks": 161280,
      "channel": 13,
      "type": "noteOn",
      "note": 43,
      "velocity": 96,
      "vel": 0.755906,
      "time": 100.79983166428111,
      "name": "G2",
      "svgX": 59924.67,
      "svgY": 1007.82
    },
    {
      "absoluteTicks": 161734,
      "channel": 13,
      "type": "noteOff",
      "note": 67,
      "velocity": 96,
      "rel": 0.755906,
      "time": 101.08358139041907,
      "name": "G4"
    },
    {
      "absoluteTicks": 161734,
      "channel": 13,
      "type": "noteOff",
      "note": 43,
      "velocity": 96,
      "rel": 0.755906,
      "time": 101.08358139041907,
      "name": "G2"
    },
    {
      "absoluteTicks": 161760,
      "channel": 13,
      "type": "noteOn",
      "note": 71,
      "velocity": 96,
      "vel": 0.755906,
      "time": 101.09983116328195,
      "name": "B4",
      "svgX": 60101.54,
      "svgY": 720.25
    },
    {
      "absoluteTicks": 161760,
      "channel": 13,
      "type": "noteOn",
      "note": 50,
      "velocity": 96,
      "vel": 0.755906,
      "time": 101.09983116328195,
      "name": "D3",
      "svgX": 60101.54,
      "svgY": 935.93
    },
    {
      "absoluteTicks": 161997,
      "channel": 13,
      "type": "noteOff",
      "note": 71,
      "velocity": 96,
      "rel": 0.755906,
      "time": 101.24858051487054,
      "name": "B4"
    },
    {
      "absoluteTicks": 162000,
      "channel": 13,
      "type": "noteOn",
      "note": 69,
      "velocity": 96,
      "vel": 0.755906,
      "time": 101.24983091278237,
      "name": "A4",
      "svgX": 60189.97,
      "svgY": 740.79
    },
    {
      "absoluteTicks": 162214,
      "channel": 13,
      "type": "noteOff",
      "note": 50,
      "velocity": 96,
      "rel": 0.755906,
      "time": 101.3835808894199,
      "name": "D3"
    },
    {
      "absoluteTicks": 162237,
      "channel": 13,
      "type": "noteOff",
      "note": 69,
      "velocity": 96,
      "rel": 0.755906,
      "time": 101.39858026437096,
      "name": "A4"
    },
    {
      "absoluteTicks": 162240,
      "channel": 13,
      "type": "noteOn",
      "note": 67,
      "velocity": 96,
      "vel": 0.755906,
      "time": 101.3998306622828,
      "name": "G4",
      "svgX": 60278.4,
      "svgY": 761.33
    },
    {
      "absoluteTicks": 162240,
      "channel": 13,
      "type": "noteOn",
      "note": 55,
      "velocity": 96,
      "vel": 0.755906,
      "time": 101.3998306622828,
      "name": "G3",
      "svgX": 60278.4,
      "svgY": 884.58
    },
    {
      "absoluteTicks": 162694,
      "channel": 13,
      "type": "noteOff",
      "note": 67,
      "velocity": 96,
      "rel": 0.755906,
      "time": 101.68358038842074,
      "name": "G4"
    },
    {
      "absoluteTicks": 162694,
      "channel": 13,
      "type": "noteOff",
      "note": 55,
      "velocity": 96,
      "rel": 0.755906,
      "time": 101.68358038842074,
      "name": "G3"
    },
    {
      "absoluteTicks": 162720,
      "channel": 13,
      "type": "noteOn",
      "note": 66,
      "velocity": 96,
      "vel": 0.755906,
      "time": 101.69983016128363,
      "name": "F#4",
      "svgX": 60455.27,
      "svgY": 771.6
    },
    {
      "absoluteTicks": 162720,
      "channel": 13,
      "type": "noteOn",
      "note": 59,
      "velocity": 96,
      "vel": 0.755906,
      "time": 101.69983016128363,
      "name": "B3",
      "svgX": 60455.27,
      "svgY": 843.5
    },
    {
      "absoluteTicks": 162957,
      "channel": 13,
      "type": "noteOff",
      "note": 66,
      "velocity": 96,
      "rel": 0.755906,
      "time": 101.84857951287222,
      "name": "F#4"
    },
    {
      "absoluteTicks": 162960,
      "channel": 13,
      "type": "noteOn",
      "note": 64,
      "velocity": 96,
      "vel": 0.755906,
      "time": 101.84982991078404,
      "name": "E4",
      "svgX": 60543.7,
      "svgY": 792.15
    },
    {
      "absoluteTicks": 163174,
      "channel": 13,
      "type": "noteOff",
      "note": 59,
      "velocity": 96,
      "rel": 0.755906,
      "time": 101.98357988742158,
      "name": "B3"
    },
    {
      "absoluteTicks": 163185,
      "channel": 13,
      "type": "noteOff",
      "note": 64,
      "velocity": 96,
      "rel": 0.755906,
      "time": 101.9910792748976,
      "name": "E4"
    },
    {
      "absoluteTicks": 163200,
      "channel": 13,
      "type": "noteOn",
      "note": 66,
      "velocity": 96,
      "vel": 0.755906,
      "time": 101.99982966028446,
      "name": "F#4",
      "svgX": 60632.14,
      "svgY": 771.6
    },
    {
      "absoluteTicks": 163200,
      "channel": 13,
      "type": "noteOn",
      "note": 38,
      "velocity": 96,
      "vel": 0.755906,
      "time": 101.99982966028446,
      "name": "D2",
      "svgX": 60632.14,
      "svgY": 1059.17
    },
    {
      "absoluteTicks": 163425,
      "channel": 13,
      "type": "noteOff",
      "note": 66,
      "velocity": 96,
      "rel": 0.755906,
      "time": 102.14107902439801,
      "name": "F#4"
    },
    {
      "absoluteTicks": 163440,
      "channel": 13,
      "type": "noteOn",
      "note": 64,
      "velocity": 96,
      "vel": 0.755906,
      "time": 102.14982940978489,
      "name": "E4",
      "svgX": 60720.57,
      "svgY": 792.15
    },
    {
      "absoluteTicks": 163654,
      "channel": 13,
      "type": "noteOff",
      "note": 38,
      "velocity": 96,
      "rel": 0.755906,
      "time": 102.28357938642242,
      "name": "D2"
    },
    {
      "absoluteTicks": 163665,
      "channel": 13,
      "type": "noteOff",
      "note": 64,
      "velocity": 96,
      "rel": 0.755906,
      "time": 102.29107877389843,
      "name": "E4"
    },
    {
      "absoluteTicks": 163680,
      "channel": 13,
      "type": "noteOn",
      "note": 62,
      "velocity": 96,
      "vel": 0.755906,
      "time": 102.2998291592853,
      "name": "D4",
      "svgX": 60809.01,
      "svgY": 812.69
    },
    {
      "absoluteTicks": 163680,
      "channel": 13,
      "type": "noteOn",
      "note": 45,
      "velocity": 96,
      "vel": 0.755906,
      "time": 102.2998291592853,
      "name": "A2",
      "svgX": 60809.01,
      "svgY": 987.28
    },
    {
      "absoluteTicks": 163905,
      "channel": 13,
      "type": "noteOff",
      "note": 62,
      "velocity": 96,
      "rel": 0.755906,
      "time": 102.44107852339886,
      "name": "D4"
    },
    {
      "absoluteTicks": 163920,
      "channel": 13,
      "type": "noteOn",
      "note": 64,
      "velocity": 96,
      "vel": 0.755906,
      "time": 102.44982890878572,
      "name": "E4",
      "svgX": 60897.44,
      "svgY": 792.15
    },
    {
      "absoluteTicks": 164134,
      "channel": 13,
      "type": "noteOff",
      "note": 45,
      "velocity": 96,
      "rel": 0.755906,
      "time": 102.58357888542325,
      "name": "A2"
    },
    {
      "absoluteTicks": 164145,
      "channel": 13,
      "type": "noteOff",
      "note": 64,
      "velocity": 96,
      "rel": 0.755906,
      "time": 102.59107827289927,
      "name": "E4"
    },
    {
      "absoluteTicks": 164160,
      "channel": 13,
      "type": "noteOn",
      "note": 66,
      "velocity": 96,
      "vel": 0.755906,
      "time": 102.59982865828614,
      "name": "F#4",
      "svgX": 60985.87,
      "svgY": 771.6
    },
    {
      "absoluteTicks": 164160,
      "channel": 13,
      "type": "noteOn",
      "note": 50,
      "velocity": 96,
      "vel": 0.755906,
      "time": 102.59982865828614,
      "name": "D3",
      "svgX": 60985.87,
      "svgY": 935.93
    },
    {
      "absoluteTicks": 164385,
      "channel": 13,
      "type": "noteOff",
      "note": 66,
      "velocity": 96,
      "rel": 0.755906,
      "time": 102.74107802239969,
      "name": "F#4"
    },
    {
      "absoluteTicks": 164400,
      "channel": 13,
      "type": "noteOn",
      "note": 67,
      "velocity": 96,
      "vel": 0.755906,
      "time": 102.74982840778655,
      "name": "G4",
      "svgX": 61074.31,
      "svgY": 761.33
    },
    {
      "absoluteTicks": 164614,
      "channel": 13,
      "type": "noteOff",
      "note": 50,
      "velocity": 96,
      "rel": 0.755906,
      "time": 102.88357838442408,
      "name": "D3"
    },
    {
      "absoluteTicks": 164625,
      "channel": 13,
      "type": "noteOff",
      "note": 67,
      "velocity": 96,
      "rel": 0.755906,
      "time": 102.89107777190011,
      "name": "G4"
    },
    {
      "absoluteTicks": 164640,
      "channel": 13,
      "type": "noteOn",
      "note": 69,
      "velocity": 96,
      "vel": 0.755906,
      "time": 102.89982815728698,
      "name": "A4",
      "svgX": 61162.74,
      "svgY": 740.79
    },
    {
      "absoluteTicks": 164640,
      "channel": 13,
      "type": "noteOn",
      "note": 54,
      "velocity": 96,
      "vel": 0.755906,
      "time": 102.89982815728698,
      "name": "F#3",
      "svgX": 61162.74,
      "svgY": 894.85
    },
    {
      "absoluteTicks": 164865,
      "channel": 13,
      "type": "noteOff",
      "note": 69,
      "velocity": 96,
      "rel": 0.755906,
      "time": 103.04107752140052,
      "name": "A4"
    },
    {
      "absoluteTicks": 164880,
      "channel": 13,
      "type": "noteOn",
      "note": 71,
      "velocity": 96,
      "vel": 0.755906,
      "time": 103.04982790678739,
      "name": "B4",
      "svgX": 61251.17,
      "svgY": 720.25
    },
    {
      "absoluteTicks": 165094,
      "channel": 13,
      "type": "noteOff",
      "note": 54,
      "velocity": 96,
      "rel": 0.755906,
      "time": 103.18357788342493,
      "name": "F#3"
    },
    {
      "absoluteTicks": 165105,
      "channel": 13,
      "type": "noteOff",
      "note": 71,
      "velocity": 96,
      "rel": 0.755906,
      "time": 103.19107727090095,
      "name": "B4"
    },
    {
      "absoluteTicks": 165120,
      "channel": 13,
      "type": "noteOn",
      "note": 67,
      "velocity": 96,
      "vel": 0.755906,
      "time": 103.19982765628781,
      "name": "G4",
      "svgX": 61339.61,
      "svgY": 761.33
    },
    {
      "absoluteTicks": 165120,
      "channel": 13,
      "type": "noteOn",
      "note": 43,
      "velocity": 96,
      "vel": 0.755906,
      "time": 103.19982765628781,
      "name": "G2",
      "svgX": 61339.61,
      "svgY": 1007.82
    },
    {
      "absoluteTicks": 165574,
      "channel": 13,
      "type": "noteOff",
      "note": 67,
      "velocity": 96,
      "rel": 0.755906,
      "time": 103.48357738242576,
      "name": "G4"
    },
    {
      "absoluteTicks": 165574,
      "channel": 13,
      "type": "noteOff",
      "note": 43,
      "velocity": 96,
      "rel": 0.755906,
      "time": 103.48357738242576,
      "name": "G2"
    },
    {
      "absoluteTicks": 165600,
      "channel": 13,
      "type": "noteOn",
      "note": 71,
      "velocity": 96,
      "vel": 0.755906,
      "time": 103.49982715528864,
      "name": "B4",
      "svgX": 61516.47,
      "svgY": 720.25
    },
    {
      "absoluteTicks": 165600,
      "channel": 13,
      "type": "noteOn",
      "note": 50,
      "velocity": 96,
      "vel": 0.755906,
      "time": 103.49982715528864,
      "name": "D3",
      "svgX": 61516.47,
      "svgY": 935.93
    },
    {
      "absoluteTicks": 165837,
      "channel": 13,
      "type": "noteOff",
      "note": 71,
      "velocity": 96,
      "rel": 0.755906,
      "time": 103.64857650687723,
      "name": "B4"
    },
    {
      "absoluteTicks": 165840,
      "channel": 13,
      "type": "noteOn",
      "note": 69,
      "velocity": 96,
      "vel": 0.755906,
      "time": 103.64982690478907,
      "name": "A4",
      "svgX": 61604.91,
      "svgY": 740.79
    },
    {
      "absoluteTicks": 166054,
      "channel": 13,
      "type": "noteOff",
      "note": 50,
      "velocity": 96,
      "rel": 0.755906,
      "time": 103.7835768814266,
      "name": "D3"
    },
    {
      "absoluteTicks": 166065,
      "channel": 13,
      "type": "noteOff",
      "note": 69,
      "velocity": 96,
      "rel": 0.755906,
      "time": 103.79107626890261,
      "name": "A4"
    },
    {
      "absoluteTicks": 166080,
      "channel": 13,
      "type": "noteOn",
      "note": 71,
      "velocity": 96,
      "vel": 0.755906,
      "time": 103.79982665428948,
      "name": "B4",
      "svgX": 61693.34,
      "svgY": 720.25
    },
    {
      "absoluteTicks": 166080,
      "channel": 13,
      "type": "noteOn",
      "note": 55,
      "velocity": 96,
      "vel": 0.755906,
      "time": 103.79982665428948,
      "name": "G3",
      "svgX": 61693.34,
      "svgY": 884.58
    },
    {
      "absoluteTicks": 166534,
      "channel": 13,
      "type": "noteOff",
      "note": 71,
      "velocity": 96,
      "rel": 0.755906,
      "time": 104.08357638042743,
      "name": "B4"
    },
    {
      "absoluteTicks": 166534,
      "channel": 13,
      "type": "noteOff",
      "note": 55,
      "velocity": 96,
      "rel": 0.755906,
      "time": 104.08357638042743,
      "name": "G3"
    },
    {
      "absoluteTicks": 166560,
      "channel": 13,
      "type": "noteOn",
      "note": 73,
      "velocity": 96,
      "vel": 0.755906,
      "time": 104.09982615329032,
      "name": "C#5",
      "svgX": 61870.21,
      "svgY": 699.71
    },
    {
      "absoluteTicks": 166560,
      "channel": 13,
      "type": "noteOn",
      "note": 59,
      "velocity": 96,
      "vel": 0.755906,
      "time": 104.09982615329032,
      "name": "B3",
      "svgX": 61870.21,
      "svgY": 843.5
    },
    {
      "absoluteTicks": 166797,
      "channel": 13,
      "type": "noteOff",
      "note": 73,
      "velocity": 96,
      "rel": 0.755906,
      "time": 104.24857550487891,
      "name": "C#5"
    },
    {
      "absoluteTicks": 166800,
      "channel": 13,
      "type": "noteOn",
      "note": 74,
      "velocity": 96,
      "vel": 0.755906,
      "time": 104.24982590279073,
      "name": "D5",
      "svgX": 61958.64,
      "svgY": 689.44
    },
    {
      "absoluteTicks": 167014,
      "channel": 13,
      "type": "noteOff",
      "note": 59,
      "velocity": 96,
      "rel": 0.755906,
      "time": 104.38357587942828,
      "name": "B3"
    },
    {
      "absoluteTicks": 167025,
      "channel": 13,
      "type": "noteOff",
      "note": 74,
      "velocity": 96,
      "rel": 0.755906,
      "time": 104.3910752669043,
      "name": "D5"
    },
    {
      "absoluteTicks": 167040,
      "channel": 13,
      "type": "noteOn",
      "note": 69,
      "velocity": 96,
      "vel": 0.755906,
      "time": 104.39982565229116,
      "name": "A4",
      "svgX": 62047.08,
      "svgY": 740.79
    },
    {
      "absoluteTicks": 167040,
      "channel": 13,
      "type": "noteOn",
      "note": 45,
      "velocity": 96,
      "vel": 0.755906,
      "time": 104.39982565229116,
      "name": "A2",
      "svgX": 62047.08,
      "svgY": 987.28
    },
    {
      "absoluteTicks": 167265,
      "channel": 13,
      "type": "noteOff",
      "note": 69,
      "velocity": 96,
      "rel": 0.755906,
      "time": 104.5410750164047,
      "name": "A4"
    },
    {
      "absoluteTicks": 167280,
      "channel": 13,
      "type": "noteOn",
      "note": 71,
      "velocity": 96,
      "vel": 0.755906,
      "time": 104.54982540179158,
      "name": "B4",
      "svgX": 62135.51,
      "svgY": 720.25
    },
    {
      "absoluteTicks": 167494,
      "channel": 13,
      "type": "noteOff",
      "note": 45,
      "velocity": 96,
      "rel": 0.755906,
      "time": 104.68357537842911,
      "name": "A2"
    },
    {
      "absoluteTicks": 167505,
      "channel": 13,
      "type": "noteOff",
      "note": 71,
      "velocity": 96,
      "rel": 0.755906,
      "time": 104.69107476590513,
      "name": "B4"
    },
    {
      "absoluteTicks": 167520,
      "channel": 13,
      "type": "noteOn",
      "note": 73,
      "velocity": 96,
      "vel": 0.755906,
      "time": 104.69982515129199,
      "name": "C#5",
      "svgX": 62223.94,
      "svgY": 699.71
    },
    {
      "absoluteTicks": 167520,
      "channel": 13,
      "type": "noteOn",
      "note": 52,
      "velocity": 96,
      "vel": 0.755906,
      "time": 104.69982515129199,
      "name": "E3",
      "svgX": 62223.94,
      "svgY": 915.39
    },
    {
      "absoluteTicks": 167745,
      "channel": 13,
      "type": "noteOff",
      "note": 73,
      "velocity": 96,
      "rel": 0.755906,
      "time": 104.84107451540555,
      "name": "C#5"
    },
    {
      "absoluteTicks": 167760,
      "channel": 13,
      "type": "noteOn",
      "note": 74,
      "velocity": 96,
      "vel": 0.755906,
      "time": 104.84982490079241,
      "name": "D5",
      "svgX": 62312.38,
      "svgY": 689.44
    },
    {
      "absoluteTicks": 167974,
      "channel": 13,
      "type": "noteOff",
      "note": 52,
      "velocity": 96,
      "rel": 0.755906,
      "time": 104.98357487742994,
      "name": "E3"
    },
    {
      "absoluteTicks": 167985,
      "channel": 13,
      "type": "noteOff",
      "note": 74,
      "velocity": 96,
      "rel": 0.755906,
      "time": 104.99107426490596,
      "name": "D5"
    },
    {
      "absoluteTicks": 168000,
      "channel": 13,
      "type": "noteOn",
      "note": 76,
      "velocity": 96,
      "vel": 0.755906,
      "time": 104.99982465029282,
      "name": "E5",
      "svgX": 62400.81,
      "svgY": 668.9
    },
    {
      "absoluteTicks": 168000,
      "channel": 13,
      "type": "noteOn",
      "note": 57,
      "velocity": 96,
      "vel": 0.755906,
      "time": 104.99982465029282,
      "name": "A3",
      "svgX": 62400.81,
      "svgY": 864.04
    },
    {
      "absoluteTicks": 168225,
      "channel": 13,
      "type": "noteOff",
      "note": 76,
      "velocity": 96,
      "rel": 0.755906,
      "time": 105.14107401440639,
      "name": "E5"
    },
    {
      "absoluteTicks": 168240,
      "channel": 13,
      "type": "noteOn",
      "note": 78,
      "velocity": 96,
      "vel": 0.755906,
      "time": 105.14982439979325,
      "name": "F#5",
      "svgX": 62489.25,
      "svgY": 648.36
    },
    {
      "absoluteTicks": 168454,
      "channel": 13,
      "type": "noteOff",
      "note": 57,
      "velocity": 96,
      "rel": 0.755906,
      "time": 105.28357437643078,
      "name": "A3"
    },
    {
      "absoluteTicks": 168465,
      "channel": 13,
      "type": "noteOff",
      "note": 78,
      "velocity": 96,
      "rel": 0.755906,
      "time": 105.2910737639068,
      "name": "F#5"
    },
    {
      "absoluteTicks": 168480,
      "channel": 13,
      "type": "noteOn",
      "note": 79,
      "velocity": 96,
      "vel": 0.755906,
      "time": 105.29982414929367,
      "name": "G5",
      "svgX": 62577.68,
      "svgY": 638.09
    },
    {
      "absoluteTicks": 168480,
      "channel": 13,
      "type": "noteOn",
      "note": 61,
      "velocity": 96,
      "vel": 0.755906,
      "time": 105.29982414929367,
      "name": "C#4",
      "svgX": 62577.68,
      "svgY": 822.96
    },
    {
      "absoluteTicks": 168705,
      "channel": 13,
      "type": "noteOff",
      "note": 79,
      "velocity": 96,
      "rel": 0.755906,
      "time": 105.44107351340722,
      "name": "G5"
    },
    {
      "absoluteTicks": 168720,
      "channel": 13,
      "type": "noteOn",
      "note": 81,
      "velocity": 96,
      "vel": 0.755906,
      "time": 105.44982389879408,
      "name": "A5",
      "svgX": 62666.11,
      "svgY": 617.55
    },
    {
      "absoluteTicks": 168934,
      "channel": 13,
      "type": "noteOff",
      "note": 61,
      "velocity": 96,
      "rel": 0.755906,
      "time": 105.58357387543161,
      "name": "C#4"
    },
    {
      "absoluteTicks": 168945,
      "channel": 13,
      "type": "noteOff",
      "note": 81,
      "velocity": 96,
      "rel": 0.755906,
      "time": 105.59107326290764,
      "name": "A5"
    },
    {
      "absoluteTicks": 168960,
      "channel": 13,
      "type": "noteOn",
      "note": 78,
      "velocity": 96,
      "vel": 0.755906,
      "time": 105.5998236482945,
      "name": "F#5",
      "svgX": 62754.55,
      "svgY": 648.36
    },
    {
      "absoluteTicks": 168960,
      "channel": 13,
      "type": "noteOn",
      "note": 50,
      "velocity": 96,
      "vel": 0.755906,
      "time": 105.5998236482945,
      "name": "D3",
      "svgX": 62754.55,
      "svgY": 935.93
    },
    {
      "absoluteTicks": 169414,
      "channel": 13,
      "type": "noteOff",
      "note": 78,
      "velocity": 96,
      "rel": 0.755906,
      "time": 105.88357337443246,
      "name": "F#5"
    },
    {
      "absoluteTicks": 169414,
      "channel": 13,
      "type": "noteOff",
      "note": 50,
      "velocity": 96,
      "rel": 0.755906,
      "time": 105.88357337443246,
      "name": "D3"
    },
    {
      "absoluteTicks": 169440,
      "channel": 13,
      "type": "noteOn",
      "note": 74,
      "velocity": 96,
      "vel": 0.755906,
      "time": 105.89982314729534,
      "name": "D5",
      "svgX": 62931.41,
      "svgY": 689.44
    },
    {
      "absoluteTicks": 169440,
      "channel": 13,
      "type": "noteOn",
      "note": 57,
      "velocity": 96,
      "vel": 0.755906,
      "time": 105.89982314729534,
      "name": "A3",
      "svgX": 62931.41,
      "svgY": 864.04
    },
    {
      "absoluteTicks": 169677,
      "channel": 13,
      "type": "noteOff",
      "note": 74,
      "velocity": 96,
      "rel": 0.755906,
      "time": 106.04857249888393,
      "name": "D5"
    },
    {
      "absoluteTicks": 169680,
      "channel": 13,
      "type": "noteOn",
      "note": 76,
      "velocity": 96,
      "vel": 0.755906,
      "time": 106.04982289679576,
      "name": "E5",
      "svgX": 63019.85,
      "svgY": 668.9
    },
    {
      "absoluteTicks": 169894,
      "channel": 13,
      "type": "noteOff",
      "note": 57,
      "velocity": 96,
      "rel": 0.755906,
      "time": 106.18357287343329,
      "name": "A3"
    },
    {
      "absoluteTicks": 169917,
      "channel": 13,
      "type": "noteOff",
      "note": 76,
      "velocity": 96,
      "rel": 0.755906,
      "time": 106.19857224838435,
      "name": "E5"
    },
    {
      "absoluteTicks": 169920,
      "channel": 13,
      "type": "noteOn",
      "note": 78,
      "velocity": 96,
      "vel": 0.755906,
      "time": 106.19982264629617,
      "name": "F#5",
      "svgX": 63108.28,
      "svgY": 648.36
    },
    {
      "absoluteTicks": 169920,
      "channel": 13,
      "type": "noteOn",
      "note": 62,
      "velocity": 96,
      "vel": 0.755906,
      "time": 106.19982264629617,
      "name": "D4",
      "svgX": 63108.28,
      "svgY": 812.69
    },
    {
      "absoluteTicks": 170374,
      "channel": 13,
      "type": "noteOff",
      "note": 78,
      "velocity": 96,
      "rel": 0.755906,
      "time": 106.48357237243412,
      "name": "F#5"
    },
    {
      "absoluteTicks": 170374,
      "channel": 13,
      "type": "noteOff",
      "note": 62,
      "velocity": 96,
      "rel": 0.755906,
      "time": 106.48357237243412,
      "name": "D4"
    },
    {
      "absoluteTicks": 170400,
      "channel": 13,
      "type": "noteOn",
      "note": 76,
      "velocity": 96,
      "vel": 0.755906,
      "time": 106.49982214529702,
      "name": "E5",
      "svgX": 63285.15,
      "svgY": 668.9
    },
    {
      "absoluteTicks": 170400,
      "channel": 13,
      "type": "noteOn",
      "note": 66,
      "velocity": 96,
      "vel": 0.755906,
      "time": 106.49982214529702,
      "name": "F#4",
      "svgX": 63285.15,
      "svgY": 771.6
    },
    {
      "absoluteTicks": 170637,
      "channel": 13,
      "type": "noteOff",
      "note": 76,
      "velocity": 96,
      "rel": 0.755906,
      "time": 106.64857149688561,
      "name": "E5"
    },
    {
      "absoluteTicks": 170640,
      "channel": 13,
      "type": "noteOn",
      "note": 74,
      "velocity": 96,
      "vel": 0.755906,
      "time": 106.64982189479743,
      "name": "D5",
      "svgX": 63373.58,
      "svgY": 689.44
    },
    {
      "absoluteTicks": 170854,
      "channel": 13,
      "type": "noteOff",
      "note": 66,
      "velocity": 96,
      "rel": 0.755906,
      "time": 106.78357187143496,
      "name": "F#4"
    },
    {
      "absoluteTicks": 170865,
      "channel": 13,
      "type": "noteOff",
      "note": 74,
      "velocity": 96,
      "rel": 0.755906,
      "time": 106.79107125891099,
      "name": "D5"
    },
    {
      "absoluteTicks": 170880,
      "channel": 13,
      "type": "noteOn",
      "note": 76,
      "velocity": 96,
      "vel": 0.755906,
      "time": 106.79982164429785,
      "name": "E5",
      "svgX": 63462.02,
      "svgY": 668.9
    },
    {
      "absoluteTicks": 170880,
      "channel": 13,
      "type": "noteOn",
      "note": 45,
      "velocity": 96,
      "vel": 0.755906,
      "time": 106.79982164429785,
      "name": "A2",
      "svgX": 63462.02,
      "svgY": 987.28
    },
    {
      "absoluteTicks": 171105,
      "channel": 13,
      "type": "noteOff",
      "note": 76,
      "velocity": 96,
      "rel": 0.755906,
      "time": 106.9410710084114,
      "name": "E5"
    },
    {
      "absoluteTicks": 171120,
      "channel": 13,
      "type": "noteOn",
      "note": 73,
      "velocity": 96,
      "vel": 0.755906,
      "time": 106.94982139379827,
      "name": "C#5",
      "svgX": 63550.45,
      "svgY": 699.71
    },
    {
      "absoluteTicks": 171334,
      "channel": 13,
      "type": "noteOff",
      "note": 45,
      "velocity": 96,
      "rel": 0.755906,
      "time": 107.0835713704358,
      "name": "A2"
    },
    {
      "absoluteTicks": 171345,
      "channel": 13,
      "type": "noteOff",
      "note": 73,
      "velocity": 96,
      "rel": 0.755906,
      "time": 107.09107075791182,
      "name": "C#5"
    },
    {
      "absoluteTicks": 171360,
      "channel": 13,
      "type": "noteOn",
      "note": 74,
      "velocity": 96,
      "vel": 0.755906,
      "time": 107.09982114329868,
      "name": "D5",
      "svgX": 63638.88,
      "svgY": 689.44
    },
    {
      "absoluteTicks": 171360,
      "channel": 13,
      "type": "noteOn",
      "note": 52,
      "velocity": 96,
      "vel": 0.755906,
      "time": 107.09982114329868,
      "name": "E3",
      "svgX": 63638.88,
      "svgY": 915.39
    },
    {
      "absoluteTicks": 171585,
      "channel": 13,
      "type": "noteOff",
      "note": 74,
      "velocity": 96,
      "rel": 0.755906,
      "time": 107.24107050741225,
      "name": "D5"
    },
    {
      "absoluteTicks": 171600,
      "channel": 13,
      "type": "noteOn",
      "note": 76,
      "velocity": 96,
      "vel": 0.755906,
      "time": 107.24982089279911,
      "name": "E5",
      "svgX": 63727.32,
      "svgY": 668.9
    },
    {
      "absoluteTicks": 171814,
      "channel": 13,
      "type": "noteOff",
      "note": 52,
      "velocity": 96,
      "rel": 0.755906,
      "time": 107.38357086943664,
      "name": "E3"
    },
    {
      "absoluteTicks": 171825,
      "channel": 13,
      "type": "noteOff",
      "note": 76,
      "velocity": 96,
      "rel": 0.755906,
      "time": 107.39107025691266,
      "name": "E5"
    },
    {
      "absoluteTicks": 171840,
      "channel": 13,
      "type": "noteOn",
      "note": 78,
      "velocity": 96,
      "vel": 0.755906,
      "time": 107.39982064229952,
      "name": "F#5",
      "svgX": 63815.75,
      "svgY": 648.36
    },
    {
      "absoluteTicks": 171840,
      "channel": 13,
      "type": "noteOn",
      "note": 57,
      "velocity": 96,
      "vel": 0.755906,
      "time": 107.39982064229952,
      "name": "A3",
      "svgX": 63815.75,
      "svgY": 864.04
    },
    {
      "absoluteTicks": 172065,
      "channel": 13,
      "type": "noteOff",
      "note": 78,
      "velocity": 96,
      "rel": 0.755906,
      "time": 107.54107000641308,
      "name": "F#5"
    },
    {
      "absoluteTicks": 172080,
      "channel": 13,
      "type": "noteOn",
      "note": 76,
      "velocity": 96,
      "vel": 0.755906,
      "time": 107.54982039179994,
      "name": "E5",
      "svgX": 63904.18,
      "svgY": 668.9
    },
    {
      "absoluteTicks": 172294,
      "channel": 13,
      "type": "noteOff",
      "note": 57,
      "velocity": 96,
      "rel": 0.755906,
      "time": 107.68357036843747,
      "name": "A3"
    },
    {
      "absoluteTicks": 172305,
      "channel": 13,
      "type": "noteOff",
      "note": 76,
      "velocity": 96,
      "rel": 0.755906,
      "time": 107.69106975591349,
      "name": "E5"
    },
    {
      "absoluteTicks": 172320,
      "channel": 13,
      "type": "noteOn",
      "note": 74,
      "velocity": 96,
      "vel": 0.755906,
      "time": 107.69982014130036,
      "name": "D5",
      "svgX": 63992.62,
      "svgY": 689.44
    },
    {
      "absoluteTicks": 172320,
      "channel": 13,
      "type": "noteOn",
      "note": 61,
      "velocity": 96,
      "vel": 0.755906,
      "time": 107.69982014130036,
      "name": "C#4",
      "svgX": 63992.62,
      "svgY": 822.96
    },
    {
      "absoluteTicks": 172545,
      "channel": 13,
      "type": "noteOff",
      "note": 74,
      "velocity": 96,
      "rel": 0.755906,
      "time": 107.84106950541391,
      "name": "D5"
    },
    {
      "absoluteTicks": 172560,
      "channel": 13,
      "type": "noteOn",
      "note": 73,
      "velocity": 96,
      "vel": 0.755906,
      "time": 107.84981989080077,
      "name": "C#5",
      "svgX": 64081.05,
      "svgY": 699.71
    },
    {
      "absoluteTicks": 172774,
      "channel": 13,
      "type": "noteOff",
      "note": 61,
      "velocity": 96,
      "rel": 0.755906,
      "time": 107.9835698674383,
      "name": "C#4"
    },
    {
      "absoluteTicks": 172785,
      "channel": 13,
      "type": "noteOff",
      "note": 73,
      "velocity": 96,
      "rel": 0.755906,
      "time": 107.99106925491434,
      "name": "C#5"
    },
    {
      "absoluteTicks": 172800,
      "channel": 13,
      "type": "noteOn",
      "note": 74,
      "velocity": 96,
      "vel": 0.755906,
      "time": 107.9998196403012,
      "name": "D5",
      "svgX": 64169.48,
      "svgY": 689.44
    },
    {
      "absoluteTicks": 172800,
      "channel": 13,
      "type": "noteOn",
      "note": 47,
      "velocity": 96,
      "vel": 0.755906,
      "time": 107.9998196403012,
      "name": "B2",
      "svgX": 64169.48,
      "svgY": 966.74
    },
    {
      "absoluteTicks": 173254,
      "channel": 13,
      "type": "noteOff",
      "note": 74,
      "velocity": 96,
      "rel": 0.755906,
      "time": 108.28356936643915,
      "name": "D5"
    },
    {
      "absoluteTicks": 173254,
      "channel": 13,
      "type": "noteOff",
      "note": 47,
      "velocity": 96,
      "rel": 0.755906,
      "time": 108.28356936643915,
      "name": "B2"
    },
    {
      "absoluteTicks": 173280,
      "channel": 13,
      "type": "noteOn",
      "note": 71,
      "velocity": 96,
      "vel": 0.755906,
      "time": 108.29981913930203,
      "name": "B4",
      "svgX": 64346.35,
      "svgY": 720.25
    },
    {
      "absoluteTicks": 173280,
      "channel": 13,
      "type": "noteOn",
      "note": 54,
      "velocity": 96,
      "vel": 0.755906,
      "time": 108.29981913930203,
      "name": "F#3",
      "svgX": 64346.35,
      "svgY": 894.85
    },
    {
      "absoluteTicks": 173517,
      "channel": 13,
      "type": "noteOff",
      "note": 71,
      "velocity": 96,
      "rel": 0.755906,
      "time": 108.44856849089062,
      "name": "B4"
    },
    {
      "absoluteTicks": 173520,
      "channel": 13,
      "type": "noteOn",
      "note": 73,
      "velocity": 96,
      "vel": 0.755906,
      "time": 108.44981888880245,
      "name": "C#5",
      "svgX": 64434.79,
      "svgY": 699.71
    },
    {
      "absoluteTicks": 173734,
      "channel": 13,
      "type": "noteOff",
      "note": 54,
      "velocity": 96,
      "rel": 0.755906,
      "time": 108.58356886543999,
      "name": "F#3"
    },
    {
      "absoluteTicks": 173757,
      "channel": 13,
      "type": "noteOff",
      "note": 73,
      "velocity": 96,
      "rel": 0.755906,
      "time": 108.59856824039105,
      "name": "C#5"
    },
    {
      "absoluteTicks": 173760,
      "channel": 13,
      "type": "noteOn",
      "note": 74,
      "velocity": 96,
      "vel": 0.755906,
      "time": 108.59981863830286,
      "name": "D5",
      "svgX": 64523.22,
      "svgY": 689.44
    },
    {
      "absoluteTicks": 173760,
      "channel": 13,
      "type": "noteOn",
      "note": 59,
      "velocity": 96,
      "vel": 0.755906,
      "time": 108.59981863830286,
      "name": "B3",
      "svgX": 64523.22,
      "svgY": 843.5
    },
    {
      "absoluteTicks": 174214,
      "channel": 13,
      "type": "noteOff",
      "note": 74,
      "velocity": 96,
      "rel": 0.755906,
      "time": 108.88356836444082,
      "name": "D5"
    },
    {
      "absoluteTicks": 174214,
      "channel": 13,
      "type": "noteOff",
      "note": 59,
      "velocity": 96,
      "rel": 0.755906,
      "time": 108.88356836444082,
      "name": "B3"
    },
    {
      "absoluteTicks": 174240,
      "channel": 13,
      "type": "noteOn",
      "note": 74,
      "velocity": 96,
      "vel": 0.755906,
      "time": 108.89981813730371,
      "name": "D5",
      "svgX": 64700.09,
      "svgY": 689.44
    },
    {
      "absoluteTicks": 174240,
      "channel": 13,
      "type": "noteOn",
      "note": 62,
      "velocity": 96,
      "vel": 0.755906,
      "time": 108.89981813730371,
      "name": "D4",
      "svgX": 64700.09,
      "svgY": 812.69
    },
    {
      "absoluteTicks": 174477,
      "channel": 13,
      "type": "noteOff",
      "note": 74,
      "velocity": 96,
      "rel": 0.755906,
      "time": 109.0485674888923,
      "name": "D5"
    },
    {
      "absoluteTicks": 174480,
      "channel": 13,
      "type": "noteOn",
      "note": 76,
      "velocity": 96,
      "vel": 0.755906,
      "time": 109.04981788680412,
      "name": "E5",
      "svgX": 64788.52,
      "svgY": 668.9
    },
    {
      "absoluteTicks": 174694,
      "channel": 13,
      "type": "noteOff",
      "note": 62,
      "velocity": 96,
      "rel": 0.755906,
      "time": 109.18356786344165,
      "name": "D4"
    },
    {
      "absoluteTicks": 174705,
      "channel": 13,
      "type": "noteOff",
      "note": 76,
      "velocity": 96,
      "rel": 0.755906,
      "time": 109.19106725091768,
      "name": "E5"
    },
    {
      "absoluteTicks": 174720,
      "channel": 13,
      "type": "noteOn",
      "note": 78,
      "velocity": 96,
      "vel": 0.755906,
      "time": 109.19981763630454,
      "name": "F#5",
      "svgX": 64876.95,
      "svgY": 648.36
    },
    {
      "absoluteTicks": 174720,
      "channel": 13,
      "type": "noteOn",
      "note": 42,
      "velocity": 96,
      "vel": 0.755906,
      "time": 109.19981763630454,
      "name": "F#2",
      "svgX": 64876.95,
      "svgY": 1018.09
    },
    {
      "absoluteTicks": 174945,
      "channel": 13,
      "type": "noteOff",
      "note": 78,
      "velocity": 96,
      "rel": 0.755906,
      "time": 109.3410670004181,
      "name": "F#5"
    },
    {
      "absoluteTicks": 174960,
      "channel": 13,
      "type": "noteOn",
      "note": 79,
      "velocity": 96,
      "vel": 0.755906,
      "time": 109.34981738580495,
      "name": "G5",
      "svgX": 64965.39,
      "svgY": 638.09
    },
    {
      "absoluteTicks": 175174,
      "channel": 13,
      "type": "noteOff",
      "note": 42,
      "velocity": 96,
      "rel": 0.755906,
      "time": 109.4835673624425,
      "name": "F#2"
    },
    {
      "absoluteTicks": 175185,
      "channel": 13,
      "type": "noteOff",
      "note": 79,
      "velocity": 96,
      "rel": 0.755906,
      "time": 109.49106674991852,
      "name": "G5"
    },
    {
      "absoluteTicks": 175200,
      "channel": 13,
      "type": "noteOn",
      "note": 78,
      "velocity": 96,
      "vel": 0.755906,
      "time": 109.49981713530538,
      "name": "F#5",
      "svgX": 65053.82,
      "svgY": 648.36
    },
    {
      "absoluteTicks": 175200,
      "channel": 13,
      "type": "noteOn",
      "note": 49,
      "velocity": 96,
      "vel": 0.755906,
      "time": 109.49981713530538,
      "name": "C#3",
      "svgX": 65053.82,
      "svgY": 946.2
    },
    {
      "absoluteTicks": 175425,
      "channel": 13,
      "type": "noteOff",
      "note": 78,
      "velocity": 96,
      "rel": 0.755906,
      "time": 109.64106649941893,
      "name": "F#5"
    },
    {
      "absoluteTicks": 175440,
      "channel": 13,
      "type": "noteOn",
      "note": 76,
      "velocity": 96,
      "vel": 0.755906,
      "time": 109.6498168848058,
      "name": "E5",
      "svgX": 65142.25,
      "svgY": 668.9
    },
    {
      "absoluteTicks": 175654,
      "channel": 13,
      "type": "noteOff",
      "note": 49,
      "velocity": 96,
      "rel": 0.755906,
      "time": 109.78356686144333,
      "name": "C#3"
    },
    {
      "absoluteTicks": 175665,
      "channel": 13,
      "type": "noteOff",
      "note": 76,
      "velocity": 96,
      "rel": 0.755906,
      "time": 109.79106624891935,
      "name": "E5"
    },
    {
      "absoluteTicks": 175680,
      "channel": 13,
      "type": "noteOn",
      "note": 78,
      "velocity": 96,
      "vel": 0.755906,
      "time": 109.79981663430621,
      "name": "F#5",
      "svgX": 65230.69,
      "svgY": 648.36
    },
    {
      "absoluteTicks": 175680,
      "channel": 13,
      "type": "noteOn",
      "note": 54,
      "velocity": 96,
      "vel": 0.755906,
      "time": 109.79981663430621,
      "name": "F#3",
      "svgX": 65230.69,
      "svgY": 894.85
    },
    {
      "absoluteTicks": 175905,
      "channel": 13,
      "type": "noteOff",
      "note": 78,
      "velocity": 96,
      "rel": 0.755906,
      "time": 109.94106599841977,
      "name": "F#5"
    },
    {
      "absoluteTicks": 175920,
      "channel": 13,
      "type": "noteOn",
      "note": 74,
      "velocity": 96,
      "vel": 0.755906,
      "time": 109.94981638380663,
      "name": "D5",
      "svgX": 65319.12,
      "svgY": 689.44
    },
    {
      "absoluteTicks": 176134,
      "channel": 13,
      "type": "noteOff",
      "note": 54,
      "velocity": 96,
      "rel": 0.755906,
      "time": 110.08356636044417,
      "name": "F#3"
    },
    {
      "absoluteTicks": 176145,
      "channel": 13,
      "type": "noteOff",
      "note": 74,
      "velocity": 96,
      "rel": 0.755906,
      "time": 110.09106574792018,
      "name": "D5"
    },
    {
      "absoluteTicks": 176160,
      "channel": 13,
      "type": "noteOn",
      "note": 73,
      "velocity": 96,
      "vel": 0.755906,
      "time": 110.09981613330706,
      "name": "C#5",
      "svgX": 65407.56,
      "svgY": 699.71
    },
    {
      "absoluteTicks": 176160,
      "channel": 13,
      "type": "noteOn",
      "note": 57,
      "velocity": 96,
      "vel": 0.755906,
      "time": 110.09981613330706,
      "name": "A3",
      "svgX": 65407.56,
      "svgY": 864.04
    },
    {
      "absoluteTicks": 176385,
      "channel": 13,
      "type": "noteOff",
      "note": 73,
      "velocity": 96,
      "rel": 0.755906,
      "time": 110.2410654974206,
      "name": "C#5"
    },
    {
      "absoluteTicks": 176400,
      "channel": 13,
      "type": "noteOn",
      "note": 74,
      "velocity": 96,
      "vel": 0.755906,
      "time": 110.24981588280747,
      "name": "D5",
      "svgX": 65495.99,
      "svgY": 689.44
    },
    {
      "absoluteTicks": 176614,
      "channel": 13,
      "type": "noteOff",
      "note": 57,
      "velocity": 96,
      "rel": 0.755906,
      "time": 110.383565859445,
      "name": "A3"
    },
    {
      "absoluteTicks": 176625,
      "channel": 13,
      "type": "noteOff",
      "note": 74,
      "velocity": 96,
      "rel": 0.755906,
      "time": 110.39106524692103,
      "name": "D5"
    },
    {
      "absoluteTicks": 176640,
      "channel": 13,
      "type": "noteOn",
      "note": 71,
      "velocity": 96,
      "vel": 0.755906,
      "time": 110.39981563230789,
      "name": "B4",
      "svgX": 65584.42,
      "svgY": 720.25
    },
    {
      "absoluteTicks": 176640,
      "channel": 13,
      "type": "noteOn",
      "note": 43,
      "velocity": 96,
      "vel": 0.755906,
      "time": 110.39981563230789,
      "name": "G2",
      "svgX": 65584.42,
      "svgY": 1007.82
    },
    {
      "absoluteTicks": 177094,
      "channel": 13,
      "type": "noteOff",
      "note": 71,
      "velocity": 96,
      "rel": 0.755906,
      "time": 110.68356535844585,
      "name": "B4"
    },
    {
      "absoluteTicks": 177094,
      "channel": 13,
      "type": "noteOff",
      "note": 43,
      "velocity": 96,
      "rel": 0.755906,
      "time": 110.68356535844585,
      "name": "G2"
    },
    {
      "absoluteTicks": 177120,
      "channel": 13,
      "type": "noteOn",
      "note": 74,
      "velocity": 96,
      "vel": 0.755906,
      "time": 110.69981513130872,
      "name": "D5",
      "svgX": 65761.29,
      "svgY": 689.44
    },
    {
      "absoluteTicks": 177120,
      "channel": 13,
      "type": "noteOn",
      "note": 50,
      "velocity": 96,
      "vel": 0.755906,
      "time": 110.69981513130872,
      "name": "D3",
      "svgX": 65761.29,
      "svgY": 935.93
    },
    {
      "absoluteTicks": 177357,
      "channel": 13,
      "type": "noteOff",
      "note": 74,
      "velocity": 96,
      "rel": 0.755906,
      "time": 110.84856448289732,
      "name": "D5"
    },
    {
      "absoluteTicks": 177360,
      "channel": 13,
      "type": "noteOn",
      "note": 73,
      "velocity": 96,
      "vel": 0.755906,
      "time": 110.84981488080915,
      "name": "C#5",
      "svgX": 65849.72,
      "svgY": 699.71
    },
    {
      "absoluteTicks": 177574,
      "channel": 13,
      "type": "noteOff",
      "note": 50,
      "velocity": 96,
      "rel": 0.755906,
      "time": 110.98356485744668,
      "name": "D3"
    },
    {
      "absoluteTicks": 177597,
      "channel": 13,
      "type": "noteOff",
      "note": 73,
      "velocity": 96,
      "rel": 0.755906,
      "time": 110.99856423239774,
      "name": "C#5"
    },
    {
      "absoluteTicks": 177600,
      "channel": 13,
      "type": "noteOn",
      "note": 71,
      "velocity": 96,
      "vel": 0.755906,
      "time": 110.99981463030956,
      "name": "B4",
      "svgX": 65938.16,
      "svgY": 720.25
    },
    {
      "absoluteTicks": 177600,
      "channel": 13,
      "type": "noteOn",
      "note": 55,
      "velocity": 96,
      "vel": 0.755906,
      "time": 110.99981463030956,
      "name": "G3",
      "svgX": 65938.16,
      "svgY": 884.58
    },
    {
      "absoluteTicks": 178054,
      "channel": 13,
      "type": "noteOff",
      "note": 71,
      "velocity": 96,
      "rel": 0.755906,
      "time": 111.28356435644751,
      "name": "B4"
    },
    {
      "absoluteTicks": 178054,
      "channel": 13,
      "type": "noteOff",
      "note": 55,
      "velocity": 96,
      "rel": 0.755906,
      "time": 111.28356435644751,
      "name": "G3"
    },
    {
      "absoluteTicks": 178080,
      "channel": 13,
      "type": "noteOn",
      "note": 69,
      "velocity": 96,
      "vel": 0.755906,
      "time": 111.2998141293104,
      "name": "A4",
      "svgX": 66115.03,
      "svgY": 740.79
    },
    {
      "absoluteTicks": 178080,
      "channel": 13,
      "type": "noteOn",
      "note": 59,
      "velocity": 96,
      "vel": 0.755906,
      "time": 111.2998141293104,
      "name": "B3",
      "svgX": 66115.03,
      "svgY": 843.5
    },
    {
      "absoluteTicks": 178317,
      "channel": 13,
      "type": "noteOff",
      "note": 69,
      "velocity": 96,
      "rel": 0.755906,
      "time": 111.448563480899,
      "name": "A4"
    },
    {
      "absoluteTicks": 178320,
      "channel": 13,
      "type": "noteOn",
      "note": 67,
      "velocity": 96,
      "vel": 0.755906,
      "time": 111.44981387881082,
      "name": "G4",
      "svgX": 66203.46,
      "svgY": 761.33
    },
    {
      "absoluteTicks": 178534,
      "channel": 13,
      "type": "noteOff",
      "note": 59,
      "velocity": 96,
      "rel": 0.755906,
      "time": 111.58356385544835,
      "name": "B3"
    },
    {
      "absoluteTicks": 178545,
      "channel": 13,
      "type": "noteOff",
      "note": 67,
      "velocity": 96,
      "rel": 0.755906,
      "time": 111.59106324292438,
      "name": "G4"
    },
    {
      "absoluteTicks": 178560,
      "channel": 13,
      "type": "noteOn",
      "note": 69,
      "velocity": 96,
      "vel": 0.755906,
      "time": 111.59981362831124,
      "name": "A4",
      "svgX": 66291.89,
      "svgY": 740.79
    },
    {
      "absoluteTicks": 178560,
      "channel": 13,
      "type": "noteOn",
      "note": 38,
      "velocity": 96,
      "vel": 0.755906,
      "time": 111.59981362831124,
      "name": "D2",
      "svgX": 66291.89,
      "svgY": 1059.17
    },
    {
      "absoluteTicks": 178785,
      "channel": 13,
      "type": "noteOff",
      "note": 69,
      "velocity": 96,
      "rel": 0.755906,
      "time": 111.74106299242479,
      "name": "A4"
    },
    {
      "absoluteTicks": 178800,
      "channel": 13,
      "type": "noteOn",
      "note": 67,
      "velocity": 96,
      "vel": 0.755906,
      "time": 111.74981337781165,
      "name": "G4",
      "svgX": 66380.33,
      "svgY": 761.33
    },
    {
      "absoluteTicks": 179014,
      "channel": 13,
      "type": "noteOff",
      "note": 38,
      "velocity": 96,
      "rel": 0.755906,
      "time": 111.8835633544492,
      "name": "D2"
    },
    {
      "absoluteTicks": 179025,
      "channel": 13,
      "type": "noteOff",
      "note": 67,
      "velocity": 96,
      "rel": 0.755906,
      "time": 111.89106274192521,
      "name": "G4"
    },
    {
      "absoluteTicks": 179040,
      "channel": 13,
      "type": "noteOn",
      "note": 66,
      "velocity": 96,
      "vel": 0.755906,
      "time": 111.89981312731207,
      "name": "F#4",
      "svgX": 66468.76,
      "svgY": 771.6
    },
    {
      "absoluteTicks": 179040,
      "channel": 13,
      "type": "noteOn",
      "note": 45,
      "velocity": 96,
      "vel": 0.755906,
      "time": 111.89981312731207,
      "name": "A2",
      "svgX": 66468.76,
      "svgY": 987.28
    },
    {
      "absoluteTicks": 179265,
      "channel": 13,
      "type": "noteOff",
      "note": 66,
      "velocity": 96,
      "rel": 0.755906,
      "time": 112.04106249142562,
      "name": "F#4"
    },
    {
      "absoluteTicks": 179280,
      "channel": 13,
      "type": "noteOn",
      "note": 67,
      "velocity": 96,
      "vel": 0.755906,
      "time": 112.0498128768125,
      "name": "G4",
      "svgX": 66557.19,
      "svgY": 761.33
    },
    {
      "absoluteTicks": 179494,
      "channel": 13,
      "type": "noteOff",
      "note": 45,
      "velocity": 96,
      "rel": 0.755906,
      "time": 112.18356285345003,
      "name": "A2"
    },
    {
      "absoluteTicks": 179505,
      "channel": 13,
      "type": "noteOff",
      "note": 67,
      "velocity": 96,
      "rel": 0.755906,
      "time": 112.19106224092604,
      "name": "G4"
    },
    {
      "absoluteTicks": 179520,
      "channel": 13,
      "type": "noteOn",
      "note": 69,
      "velocity": 96,
      "vel": 0.755906,
      "time": 112.1998126263129,
      "name": "A4",
      "svgX": 66645.63,
      "svgY": 740.79
    },
    {
      "absoluteTicks": 179520,
      "channel": 13,
      "type": "noteOn",
      "note": 50,
      "velocity": 96,
      "vel": 0.755906,
      "time": 112.1998126263129,
      "name": "D3",
      "svgX": 66645.63,
      "svgY": 935.93
    },
    {
      "absoluteTicks": 179745,
      "channel": 13,
      "type": "noteOff",
      "note": 69,
      "velocity": 96,
      "rel": 0.755906,
      "time": 112.34106199042647,
      "name": "A4"
    },
    {
      "absoluteTicks": 179760,
      "channel": 13,
      "type": "noteOn",
      "note": 71,
      "velocity": 96,
      "vel": 0.755906,
      "time": 112.34981237581333,
      "name": "B4",
      "svgX": 66734.06,
      "svgY": 720.25
    },
    {
      "absoluteTicks": 179974,
      "channel": 13,
      "type": "noteOff",
      "note": 50,
      "velocity": 96,
      "rel": 0.755906,
      "time": 112.48356235245086,
      "name": "D3"
    },
    {
      "absoluteTicks": 179985,
      "channel": 13,
      "type": "noteOff",
      "note": 71,
      "velocity": 96,
      "rel": 0.755906,
      "time": 112.49106173992688,
      "name": "B4"
    },
    {
      "absoluteTicks": 180000,
      "channel": 13,
      "type": "noteOn",
      "note": 73,
      "velocity": 96,
      "vel": 0.755906,
      "time": 112.49981212531374,
      "name": "C#5",
      "svgX": 66822.49,
      "svgY": 699.71
    },
    {
      "absoluteTicks": 180000,
      "channel": 13,
      "type": "noteOn",
      "note": 54,
      "velocity": 96,
      "vel": 0.755906,
      "time": 112.49981212531374,
      "name": "F#3",
      "svgX": 66822.49,
      "svgY": 894.85
    },
    {
      "absoluteTicks": 180225,
      "channel": 13,
      "type": "noteOff",
      "note": 73,
      "velocity": 96,
      "rel": 0.755906,
      "time": 112.6410614894273,
      "name": "C#5"
    },
    {
      "absoluteTicks": 180240,
      "channel": 13,
      "type": "noteOn",
      "note": 74,
      "velocity": 96,
      "vel": 0.755906,
      "time": 112.64981187481416,
      "name": "D5",
      "svgX": 66910.93,
      "svgY": 689.44
    },
    {
      "absoluteTicks": 180454,
      "channel": 13,
      "type": "noteOff",
      "note": 54,
      "velocity": 96,
      "rel": 0.755906,
      "time": 112.7835618514517,
      "name": "F#3"
    },
    {
      "absoluteTicks": 180465,
      "channel": 13,
      "type": "noteOff",
      "note": 74,
      "velocity": 96,
      "rel": 0.755906,
      "time": 112.79106123892771,
      "name": "D5"
    },
    {
      "absoluteTicks": 180480,
      "channel": 13,
      "type": "noteOn",
      "note": 71,
      "velocity": 96,
      "vel": 0.755906,
      "time": 112.79981162431459,
      "name": "B4",
      "svgX": 66999.36,
      "svgY": 720.25
    },
    {
      "absoluteTicks": 180480,
      "channel": 13,
      "type": "noteOn",
      "note": 43,
      "velocity": 96,
      "vel": 0.755906,
      "time": 112.79981162431459,
      "name": "G2",
      "svgX": 66999.36,
      "svgY": 1007.82
    },
    {
      "absoluteTicks": 180934,
      "channel": 13,
      "type": "noteOff",
      "note": 71,
      "velocity": 96,
      "rel": 0.755906,
      "time": 113.08356135045254,
      "name": "B4"
    },
    {
      "absoluteTicks": 180934,
      "channel": 13,
      "type": "noteOff",
      "note": 43,
      "velocity": 96,
      "rel": 0.755906,
      "time": 113.08356135045254,
      "name": "G2"
    },
    {
      "absoluteTicks": 180960,
      "channel": 13,
      "type": "noteOn",
      "note": 74,
      "velocity": 96,
      "vel": 0.755906,
      "time": 113.09981112331542,
      "name": "D5",
      "svgX": 67176.23,
      "svgY": 689.44
    },
    {
      "absoluteTicks": 180960,
      "channel": 13,
      "type": "noteOn",
      "note": 50,
      "velocity": 96,
      "vel": 0.755906,
      "time": 113.09981112331542,
      "name": "D3",
      "svgX": 67176.23,
      "svgY": 935.93
    },
    {
      "absoluteTicks": 181197,
      "channel": 13,
      "type": "noteOff",
      "note": 74,
      "velocity": 96,
      "rel": 0.755906,
      "time": 113.24856047490401,
      "name": "D5"
    },
    {
      "absoluteTicks": 181200,
      "channel": 13,
      "type": "noteOn",
      "note": 73,
      "velocity": 96,
      "vel": 0.755906,
      "time": 113.24981087281584,
      "name": "C#5",
      "svgX": 67264.66,
      "svgY": 699.71
    },
    {
      "absoluteTicks": 181414,
      "channel": 13,
      "type": "noteOff",
      "note": 50,
      "velocity": 96,
      "rel": 0.755906,
      "time": 113.38356084945337,
      "name": "D3"
    },
    {
      "absoluteTicks": 181437,
      "channel": 13,
      "type": "noteOff",
      "note": 73,
      "velocity": 96,
      "rel": 0.755906,
      "time": 113.39856022440443,
      "name": "C#5"
    },
    {
      "absoluteTicks": 181440,
      "channel": 13,
      "type": "noteOn",
      "note": 74,
      "velocity": 96,
      "vel": 0.755906,
      "time": 113.39981062231625,
      "name": "D5",
      "svgX": 67353.1,
      "svgY": 689.44
    },
    {
      "absoluteTicks": 181440,
      "channel": 13,
      "type": "noteOn",
      "note": 55,
      "velocity": 96,
      "vel": 0.755906,
      "time": 113.39981062231625,
      "name": "G3",
      "svgX": 67353.1,
      "svgY": 884.58
    },
    {
      "absoluteTicks": 181894,
      "channel": 13,
      "type": "noteOff",
      "note": 74,
      "velocity": 96,
      "rel": 0.755906,
      "time": 113.68356034845421,
      "name": "D5"
    },
    {
      "absoluteTicks": 181894,
      "channel": 13,
      "type": "noteOff",
      "note": 55,
      "velocity": 96,
      "rel": 0.755906,
      "time": 113.68356034845421,
      "name": "G3"
    },
    {
      "absoluteTicks": 181920,
      "channel": 13,
      "type": "noteOn",
      "note": 73,
      "velocity": 96,
      "vel": 0.755906,
      "time": 113.69981012131709,
      "name": "C#5",
      "svgX": 67529.96,
      "svgY": 699.71
    },
    {
      "absoluteTicks": 181920,
      "channel": 13,
      "type": "noteOn",
      "note": 59,
      "velocity": 96,
      "vel": 0.755906,
      "time": 113.69981012131709,
      "name": "B3",
      "svgX": 67529.96,
      "svgY": 843.5
    },
    {
      "absoluteTicks": 182157,
      "channel": 13,
      "type": "noteOff",
      "note": 73,
      "velocity": 96,
      "rel": 0.755906,
      "time": 113.84855947290569,
      "name": "C#5"
    },
    {
      "absoluteTicks": 182160,
      "channel": 13,
      "type": "noteOn",
      "note": 71,
      "velocity": 96,
      "vel": 0.755906,
      "time": 113.84980987081751,
      "name": "B4",
      "svgX": 67618.4,
      "svgY": 720.25
    },
    {
      "absoluteTicks": 182374,
      "channel": 13,
      "type": "noteOff",
      "note": 59,
      "velocity": 96,
      "rel": 0.755906,
      "time": 113.98355984745504,
      "name": "B3"
    },
    {
      "absoluteTicks": 182385,
      "channel": 13,
      "type": "noteOff",
      "note": 71,
      "velocity": 96,
      "rel": 0.755906,
      "time": 113.99105923493106,
      "name": "B4"
    },
    {
      "absoluteTicks": 182400,
      "channel": 13,
      "type": "noteOn",
      "note": 73,
      "velocity": 96,
      "vel": 0.755906,
      "time": 113.99980962031793,
      "name": "C#5",
      "svgX": 67706.83,
      "svgY": 699.71
    },
    {
      "absoluteTicks": 182400,
      "channel": 13,
      "type": "noteOn",
      "note": 45,
      "velocity": 96,
      "vel": 0.755906,
      "time": 113.99980962031793,
      "name": "A2",
      "svgX": 67706.83,
      "svgY": 987.28
    },
    {
      "absoluteTicks": 182625,
      "channel": 13,
      "type": "noteOff",
      "note": 73,
      "velocity": 96,
      "rel": 0.755906,
      "time": 114.14105898443148,
      "name": "C#5"
    },
    {
      "absoluteTicks": 182640,
      "channel": 13,
      "type": "noteOn",
      "note": 69,
      "velocity": 96,
      "vel": 0.755906,
      "time": 114.14980936981834,
      "name": "A4",
      "svgX": 67795.26,
      "svgY": 740.79
    },
    {
      "absoluteTicks": 182854,
      "channel": 13,
      "type": "noteOff",
      "note": 45,
      "velocity": 96,
      "rel": 0.755906,
      "time": 114.28355934645587,
      "name": "A2"
    },
    {
      "absoluteTicks": 182865,
      "channel": 13,
      "type": "noteOff",
      "note": 69,
      "velocity": 96,
      "rel": 0.755906,
      "time": 114.2910587339319,
      "name": "A4"
    },
    {
      "absoluteTicks": 182880,
      "channel": 13,
      "type": "noteOn",
      "note": 71,
      "velocity": 96,
      "vel": 0.755906,
      "time": 114.29980911931877,
      "name": "B4",
      "svgX": 67883.7,
      "svgY": 720.25
    },
    {
      "absoluteTicks": 182880,
      "channel": 13,
      "type": "noteOn",
      "note": 52,
      "velocity": 96,
      "vel": 0.755906,
      "time": 114.29980911931877,
      "name": "E3",
      "svgX": 67883.7,
      "svgY": 915.39
    },
    {
      "absoluteTicks": 183105,
      "channel": 13,
      "type": "noteOff",
      "note": 71,
      "velocity": 96,
      "rel": 0.755906,
      "time": 114.44105848343231,
      "name": "B4"
    },
    {
      "absoluteTicks": 183120,
      "channel": 13,
      "type": "noteOn",
      "note": 73,
      "velocity": 96,
      "vel": 0.755906,
      "time": 114.44980886881919,
      "name": "C#5",
      "svgX": 67972.13,
      "svgY": 699.71
    },
    {
      "absoluteTicks": 183334,
      "channel": 13,
      "type": "noteOff",
      "note": 52,
      "velocity": 96,
      "rel": 0.755906,
      "time": 114.58355884545672,
      "name": "E3"
    },
    {
      "absoluteTicks": 183345,
      "channel": 13,
      "type": "noteOff",
      "note": 73,
      "velocity": 96,
      "rel": 0.755906,
      "time": 114.59105823293274,
      "name": "C#5"
    },
    {
      "absoluteTicks": 183360,
      "channel": 13,
      "type": "noteOn",
      "note": 74,
      "velocity": 96,
      "vel": 0.755906,
      "time": 114.5998086183196,
      "name": "D5",
      "svgX": 68060.57,
      "svgY": 689.44
    },
    {
      "absoluteTicks": 183360,
      "channel": 13,
      "type": "noteOn",
      "note": 57,
      "velocity": 96,
      "vel": 0.755906,
      "time": 114.5998086183196,
      "name": "A3",
      "svgX": 68060.57,
      "svgY": 864.04
    },
    {
      "absoluteTicks": 183585,
      "channel": 13,
      "type": "noteOff",
      "note": 74,
      "velocity": 96,
      "rel": 0.755906,
      "time": 114.74105798243316,
      "name": "D5"
    },
    {
      "absoluteTicks": 183600,
      "channel": 13,
      "type": "noteOn",
      "note": 76,
      "velocity": 96,
      "vel": 0.755906,
      "time": 114.74980836782002,
      "name": "E5",
      "svgX": 68149.0,
      "svgY": 668.9
    },
    {
      "absoluteTicks": 183814,
      "channel": 13,
      "type": "noteOff",
      "note": 57,
      "velocity": 96,
      "rel": 0.755906,
      "time": 114.88355834445755,
      "name": "A3"
    },
    {
      "absoluteTicks": 183825,
      "channel": 13,
      "type": "noteOff",
      "note": 76,
      "velocity": 96,
      "rel": 0.755906,
      "time": 114.89105773193357,
      "name": "E5"
    },
    {
      "absoluteTicks": 183840,
      "channel": 13,
      "type": "noteOn",
      "note": 78,
      "velocity": 96,
      "vel": 0.755906,
      "time": 114.89980811732043,
      "name": "F#5",
      "svgX": 68237.43,
      "svgY": 648.36
    },
    {
      "absoluteTicks": 183840,
      "channel": 13,
      "type": "noteOn",
      "note": 61,
      "velocity": 96,
      "vel": 0.755906,
      "time": 114.89980811732043,
      "name": "C#4",
      "svgX": 68237.43,
      "svgY": 822.96
    },
    {
      "absoluteTicks": 184065,
      "channel": 13,
      "type": "noteOff",
      "note": 78,
      "velocity": 96,
      "rel": 0.755906,
      "time": 115.041057481434,
      "name": "F#5"
    },
    {
      "absoluteTicks": 184080,
      "channel": 13,
      "type": "noteOn",
      "note": 79,
      "velocity": 96,
      "vel": 0.755906,
      "time": 115.04980786682086,
      "name": "G5",
      "svgX": 68325.87,
      "svgY": 638.09
    },
    {
      "absoluteTicks": 184294,
      "channel": 13,
      "type": "noteOff",
      "note": 61,
      "velocity": 96,
      "rel": 0.755906,
      "time": 115.18355784345839,
      "name": "C#4"
    },
    {
      "absoluteTicks": 184305,
      "channel": 13,
      "type": "noteOff",
      "note": 79,
      "velocity": 96,
      "rel": 0.755906,
      "time": 115.1910572309344,
      "name": "G5"
    },
    {
      "absoluteTicks": 184320,
      "channel": 13,
      "type": "noteOn",
      "note": 78,
      "velocity": 96,
      "vel": 0.755906,
      "time": 115.19980761632128,
      "name": "F#5",
      "svgX": 68414.3,
      "svgY": 648.36
    },
    {
      "absoluteTicks": 184320,
      "channel": 13,
      "type": "noteOn",
      "note": 50,
      "velocity": 96,
      "vel": 0.755906,
      "time": 115.19980761632128,
      "name": "D3",
      "svgX": 68414.3,
      "svgY": 935.93
    },
    {
      "absoluteTicks": 184774,
      "channel": 13,
      "type": "noteOff",
      "note": 78,
      "velocity": 96,
      "rel": 0.755906,
      "time": 115.48355734245922,
      "name": "F#5"
    },
    {
      "absoluteTicks": 184774,
      "channel": 13,
      "type": "noteOff",
      "note": 50,
      "velocity": 96,
      "rel": 0.755906,
      "time": 115.48355734245922,
      "name": "D3"
    },
    {
      "absoluteTicks": 184800,
      "channel": 13,
      "type": "noteOn",
      "note": 74,
      "velocity": 96,
      "vel": 0.755906,
      "time": 115.49980711532211,
      "name": "D5",
      "svgX": 68591.17,
      "svgY": 689.44
    },
    {
      "absoluteTicks": 184800,
      "channel": 13,
      "type": "noteOn",
      "note": 57,
      "velocity": 96,
      "vel": 0.755906,
      "time": 115.49980711532211,
      "name": "A3",
      "svgX": 68591.17,
      "svgY": 864.04
    },
    {
      "absoluteTicks": 185037,
      "channel": 13,
      "type": "noteOff",
      "note": 74,
      "velocity": 96,
      "rel": 0.755906,
      "time": 115.6485564669107,
      "name": "D5"
    },
    {
      "absoluteTicks": 185040,
      "channel": 13,
      "type": "noteOn",
      "note": 76,
      "velocity": 96,
      "vel": 0.755906,
      "time": 115.64980686482254,
      "name": "E5",
      "svgX": 68679.6,
      "svgY": 668.9
    },
    {
      "absoluteTicks": 185254,
      "channel": 13,
      "type": "noteOff",
      "note": 57,
      "velocity": 96,
      "rel": 0.755906,
      "time": 115.78355684146007,
      "name": "A3"
    },
    {
      "absoluteTicks": 185277,
      "channel": 13,
      "type": "noteOff",
      "note": 76,
      "velocity": 96,
      "rel": 0.755906,
      "time": 115.79855621641113,
      "name": "E5"
    },
    {
      "absoluteTicks": 185280,
      "channel": 13,
      "type": "noteOn",
      "note": 78,
      "velocity": 96,
      "vel": 0.755906,
      "time": 115.79980661432295,
      "name": "F#5",
      "svgX": 68768.04,
      "svgY": 648.36
    },
    {
      "absoluteTicks": 185280,
      "channel": 13,
      "type": "noteOn",
      "note": 62,
      "velocity": 96,
      "vel": 0.755906,
      "time": 115.79980661432295,
      "name": "D4",
      "svgX": 68768.04,
      "svgY": 812.69
    },
    {
      "absoluteTicks": 185734,
      "channel": 13,
      "type": "noteOff",
      "note": 78,
      "velocity": 96,
      "rel": 0.755906,
      "time": 116.0835563404609,
      "name": "F#5"
    },
    {
      "absoluteTicks": 185734,
      "channel": 13,
      "type": "noteOff",
      "note": 62,
      "velocity": 96,
      "rel": 0.755906,
      "time": 116.0835563404609,
      "name": "D4"
    },
    {
      "absoluteTicks": 185760,
      "channel": 13,
      "type": "noteOn",
      "note": 76,
      "velocity": 96,
      "vel": 0.755906,
      "time": 116.09980611332378,
      "name": "E5",
      "svgX": 68944.9,
      "svgY": 668.9
    },
    {
      "absoluteTicks": 185760,
      "channel": 13,
      "type": "noteOn",
      "note": 66,
      "velocity": 96,
      "vel": 0.755906,
      "time": 116.09980611332378,
      "name": "F#4",
      "svgX": 68944.9,
      "svgY": 771.6
    },
    {
      "absoluteTicks": 185997,
      "channel": 13,
      "type": "noteOff",
      "note": 76,
      "velocity": 96,
      "rel": 0.755906,
      "time": 116.24855546491237,
      "name": "E5"
    },
    {
      "absoluteTicks": 186000,
      "channel": 13,
      "type": "noteOn",
      "note": 74,
      "velocity": 96,
      "vel": 0.755906,
      "time": 116.2498058628242,
      "name": "D5",
      "svgX": 69033.34,
      "svgY": 689.44
    },
    {
      "absoluteTicks": 186214,
      "channel": 13,
      "type": "noteOff",
      "note": 66,
      "velocity": 96,
      "rel": 0.755906,
      "time": 116.38355583946174,
      "name": "F#4"
    },
    {
      "absoluteTicks": 186225,
      "channel": 13,
      "type": "noteOff",
      "note": 74,
      "velocity": 96,
      "rel": 0.755906,
      "time": 116.39105522693775,
      "name": "D5"
    },
    {
      "absoluteTicks": 186240,
      "channel": 13,
      "type": "noteOn",
      "note": 76,
      "velocity": 96,
      "vel": 0.755906,
      "time": 116.39980561232463,
      "name": "E5",
      "svgX": 69121.77,
      "svgY": 668.9
    },
    {
      "absoluteTicks": 186240,
      "channel": 13,
      "type": "noteOn",
      "note": 45,
      "velocity": 96,
      "vel": 0.755906,
      "time": 116.39980561232463,
      "name": "A2",
      "svgX": 69121.77,
      "svgY": 987.28
    },
    {
      "absoluteTicks": 186465,
      "channel": 13,
      "type": "noteOff",
      "note": 76,
      "velocity": 96,
      "rel": 0.755906,
      "time": 116.54105497643818,
      "name": "E5"
    },
    {
      "absoluteTicks": 186480,
      "channel": 13,
      "type": "noteOn",
      "note": 73,
      "velocity": 96,
      "vel": 0.755906,
      "time": 116.54980536182504,
      "name": "C#5",
      "svgX": 69210.2,
      "svgY": 699.71
    },
    {
      "absoluteTicks": 186694,
      "channel": 13,
      "type": "noteOff",
      "note": 45,
      "velocity": 96,
      "rel": 0.755906,
      "time": 116.68355533846257,
      "name": "A2"
    },
    {
      "absoluteTicks": 186705,
      "channel": 13,
      "type": "noteOff",
      "note": 73,
      "velocity": 96,
      "rel": 0.755906,
      "time": 116.6910547259386,
      "name": "C#5"
    },
    {
      "absoluteTicks": 186720,
      "channel": 13,
      "type": "noteOn",
      "note": 74,
      "velocity": 96,
      "vel": 0.755906,
      "time": 116.69980511132546,
      "name": "D5",
      "svgX": 69298.64,
      "svgY": 689.44
    },
    {
      "absoluteTicks": 186720,
      "channel": 13,
      "type": "noteOn",
      "note": 52,
      "velocity": 96,
      "vel": 0.755906,
      "time": 116.69980511132546,
      "name": "E3",
      "svgX": 69298.64,
      "svgY": 915.39
    },
    {
      "absoluteTicks": 186945,
      "channel": 13,
      "type": "noteOff",
      "note": 74,
      "velocity": 96,
      "rel": 0.755906,
      "time": 116.84105447543901,
      "name": "D5"
    },
    {
      "absoluteTicks": 186960,
      "channel": 13,
      "type": "noteOn",
      "note": 76,
      "velocity": 96,
      "vel": 0.755906,
      "time": 116.84980486082587,
      "name": "E5",
      "svgX": 69387.07,
      "svgY": 668.9
    },
    {
      "absoluteTicks": 187174,
      "channel": 13,
      "type": "noteOff",
      "note": 52,
      "velocity": 96,
      "rel": 0.755906,
      "time": 116.98355483746342,
      "name": "E3"
    },
    {
      "absoluteTicks": 187185,
      "channel": 13,
      "type": "noteOff",
      "note": 76,
      "velocity": 96,
      "rel": 0.755906,
      "time": 116.99105422493943,
      "name": "E5"
    },
    {
      "absoluteTicks": 187200,
      "channel": 13,
      "type": "noteOn",
      "note": 78,
      "velocity": 96,
      "vel": 0.755906,
      "time": 116.9998046103263,
      "name": "F#5",
      "svgX": 69475.5,
      "svgY": 648.36
    },
    {
      "absoluteTicks": 187200,
      "channel": 13,
      "type": "noteOn",
      "note": 57,
      "velocity": 96,
      "vel": 0.755906,
      "time": 116.9998046103263,
      "name": "A3",
      "svgX": 69475.5,
      "svgY": 864.04
    },
    {
      "absoluteTicks": 187425,
      "channel": 13,
      "type": "noteOff",
      "note": 78,
      "velocity": 96,
      "rel": 0.755906,
      "time": 117.14105397443984,
      "name": "F#5"
    },
    {
      "absoluteTicks": 187440,
      "channel": 13,
      "type": "noteOn",
      "note": 76,
      "velocity": 96,
      "vel": 0.755906,
      "time": 117.14980435982672,
      "name": "E5",
      "svgX": 69563.94,
      "svgY": 668.9
    },
    {
      "absoluteTicks": 187654,
      "channel": 13,
      "type": "noteOff",
      "note": 57,
      "velocity": 96,
      "rel": 0.755906,
      "time": 117.28355433646425,
      "name": "A3"
    },
    {
      "absoluteTicks": 187665,
      "channel": 13,
      "type": "noteOff",
      "note": 76,
      "velocity": 96,
      "rel": 0.755906,
      "time": 117.29105372394027,
      "name": "E5"
    },
    {
      "absoluteTicks": 187680,
      "channel": 13,
      "type": "noteOn",
      "note": 74,
      "velocity": 96,
      "vel": 0.755906,
      "time": 117.29980410932713,
      "name": "D5",
      "svgX": 69652.37,
      "svgY": 689.44
    },
    {
      "absoluteTicks": 187680,
      "channel": 13,
      "type": "noteOn",
      "note": 61,
      "velocity": 96,
      "vel": 0.755906,
      "time": 117.29980410932713,
      "name": "C#4",
      "svgX": 69652.37,
      "svgY": 822.96
    },
    {
      "absoluteTicks": 187905,
      "channel": 13,
      "type": "noteOff",
      "note": 74,
      "velocity": 96,
      "rel": 0.755906,
      "time": 117.44105347344069,
      "name": "D5"
    },
    {
      "absoluteTicks": 187920,
      "channel": 13,
      "type": "noteOn",
      "note": 73,
      "velocity": 96,
      "vel": 0.755906,
      "time": 117.44980385882755,
      "name": "C#5",
      "svgX": 69740.81,
      "svgY": 699.71
    },
    {
      "absoluteTicks": 188134,
      "channel": 13,
      "type": "noteOff",
      "note": 61,
      "velocity": 96,
      "rel": 0.755906,
      "time": 117.58355383546508,
      "name": "C#4"
    },
    {
      "absoluteTicks": 188145,
      "channel": 13,
      "type": "noteOff",
      "note": 73,
      "velocity": 96,
      "rel": 0.755906,
      "time": 117.5910532229411,
      "name": "C#5"
    },
    {
      "absoluteTicks": 188160,
      "channel": 13,
      "type": "noteOn",
      "note": 74,
      "velocity": 96,
      "vel": 0.755906,
      "time": 117.59980360832797,
      "name": "D5",
      "svgX": 69829.24,
      "svgY": 689.44
    },
    {
      "absoluteTicks": 188160,
      "channel": 13,
      "type": "noteOn",
      "note": 47,
      "velocity": 96,
      "vel": 0.755906,
      "time": 117.59980360832797,
      "name": "B2",
      "svgX": 69829.24,
      "svgY": 966.74
    },
    {
      "absoluteTicks": 188614,
      "channel": 13,
      "type": "noteOff",
      "note": 74,
      "velocity": 96,
      "rel": 0.755906,
      "time": 117.88355333446592,
      "name": "D5"
    },
    {
      "absoluteTicks": 188614,
      "channel": 13,
      "type": "noteOff",
      "note": 47,
      "velocity": 96,
      "rel": 0.755906,
      "time": 117.88355333446592,
      "name": "B2"
    },
    {
      "absoluteTicks": 188640,
      "channel": 13,
      "type": "noteOn",
      "note": 71,
      "velocity": 96,
      "vel": 0.755906,
      "time": 117.89980310732881,
      "name": "B4",
      "svgX": 70006.11,
      "svgY": 720.25
    },
    {
      "absoluteTicks": 188640,
      "channel": 13,
      "type": "noteOn",
      "note": 54,
      "velocity": 96,
      "vel": 0.755906,
      "time": 117.89980310732881,
      "name": "F#3",
      "svgX": 70006.11,
      "svgY": 894.85
    },
    {
      "absoluteTicks": 188877,
      "channel": 13,
      "type": "noteOff",
      "note": 71,
      "velocity": 96,
      "rel": 0.755906,
      "time": 118.0485524589174,
      "name": "B4"
    },
    {
      "absoluteTicks": 188880,
      "channel": 13,
      "type": "noteOn",
      "note": 73,
      "velocity": 96,
      "vel": 0.755906,
      "time": 118.04980285682922,
      "name": "C#5",
      "svgX": 70094.54,
      "svgY": 699.71
    },
    {
      "absoluteTicks": 189094,
      "channel": 13,
      "type": "noteOff",
      "note": 54,
      "velocity": 96,
      "rel": 0.755906,
      "time": 118.18355283346676,
      "name": "F#3"
    },
    {
      "absoluteTicks": 189117,
      "channel": 13,
      "type": "noteOff",
      "note": 73,
      "velocity": 96,
      "rel": 0.755906,
      "time": 118.19855220841782,
      "name": "C#5"
    },
    {
      "absoluteTicks": 189120,
      "channel": 13,
      "type": "noteOn",
      "note": 74,
      "velocity": 96,
      "vel": 0.755906,
      "time": 118.19980260632964,
      "name": "D5",
      "svgX": 70182.97,
      "svgY": 689.44
    },
    {
      "absoluteTicks": 189120,
      "channel": 13,
      "type": "noteOn",
      "note": 59,
      "velocity": 96,
      "vel": 0.755906,
      "time": 118.19980260632964,
      "name": "B3",
      "svgX": 70182.97,
      "svgY": 843.5
    },
    {
      "absoluteTicks": 189574,
      "channel": 13,
      "type": "noteOff",
      "note": 74,
      "velocity": 96,
      "rel": 0.755906,
      "time": 118.4835523324676,
      "name": "D5"
    },
    {
      "absoluteTicks": 189574,
      "channel": 13,
      "type": "noteOff",
      "note": 59,
      "velocity": 96,
      "rel": 0.755906,
      "time": 118.4835523324676,
      "name": "B3"
    },
    {
      "absoluteTicks": 189600,
      "channel": 13,
      "type": "noteOn",
      "note": 74,
      "velocity": 96,
      "vel": 0.755906,
      "time": 118.49980210533047,
      "name": "D5",
      "svgX": 70359.84,
      "svgY": 689.44
    },
    {
      "absoluteTicks": 189600,
      "channel": 13,
      "type": "noteOn",
      "note": 62,
      "velocity": 96,
      "vel": 0.755906,
      "time": 118.49980210533047,
      "name": "D4",
      "svgX": 70359.84,
      "svgY": 812.69
    },
    {
      "absoluteTicks": 189837,
      "channel": 13,
      "type": "noteOff",
      "note": 74,
      "velocity": 96,
      "rel": 0.755906,
      "time": 118.64855145691907,
      "name": "D5"
    },
    {
      "absoluteTicks": 189840,
      "channel": 13,
      "type": "noteOn",
      "note": 76,
      "velocity": 96,
      "vel": 0.755906,
      "time": 118.6498018548309,
      "name": "E5",
      "svgX": 70448.27,
      "svgY": 668.9
    },
    {
      "absoluteTicks": 190054,
      "channel": 13,
      "type": "noteOff",
      "note": 62,
      "velocity": 96,
      "rel": 0.755906,
      "time": 118.78355183146843,
      "name": "D4"
    },
    {
      "absoluteTicks": 190065,
      "channel": 13,
      "type": "noteOff",
      "note": 76,
      "velocity": 96,
      "rel": 0.755906,
      "time": 118.79105121894445,
      "name": "E5"
    },
    {
      "absoluteTicks": 190080,
      "channel": 13,
      "type": "noteOn",
      "note": 78,
      "velocity": 96,
      "vel": 0.755906,
      "time": 118.79980160433132,
      "name": "F#5",
      "svgX": 70536.71,
      "svgY": 648.36
    },
    {
      "absoluteTicks": 190080,
      "channel": 13,
      "type": "noteOn",
      "note": 42,
      "velocity": 96,
      "vel": 0.755906,
      "time": 118.79980160433132,
      "name": "F#2",
      "svgX": 70536.71,
      "svgY": 1018.09
    },
    {
      "absoluteTicks": 190305,
      "channel": 13,
      "type": "noteOff",
      "note": 78,
      "velocity": 96,
      "rel": 0.755906,
      "time": 118.94105096844487,
      "name": "F#5"
    },
    {
      "absoluteTicks": 190320,
      "channel": 13,
      "type": "noteOn",
      "note": 79,
      "velocity": 96,
      "vel": 0.755906,
      "time": 118.94980135383173,
      "name": "G5",
      "svgX": 70625.14,
      "svgY": 638.09
    },
    {
      "absoluteTicks": 190534,
      "channel": 13,
      "type": "noteOff",
      "note": 42,
      "velocity": 96,
      "rel": 0.755906,
      "time": 119.08355133046926,
      "name": "F#2"
    },
    {
      "absoluteTicks": 190545,
      "channel": 13,
      "type": "noteOff",
      "note": 79,
      "velocity": 96,
      "rel": 0.755906,
      "time": 119.0910507179453,
      "name": "G5"
    },
    {
      "absoluteTicks": 190560,
      "channel": 13,
      "type": "noteOn",
      "note": 78,
      "velocity": 96,
      "vel": 0.755906,
      "time": 119.09980110333215,
      "name": "F#5",
      "svgX": 70713.58,
      "svgY": 648.36
    },
    {
      "absoluteTicks": 190560,
      "channel": 13,
      "type": "noteOn",
      "note": 49,
      "velocity": 96,
      "vel": 0.755906,
      "time": 119.09980110333215,
      "name": "C#3",
      "svgX": 70713.58,
      "svgY": 946.2
    },
    {
      "absoluteTicks": 190785,
      "channel": 13,
      "type": "noteOff",
      "note": 78,
      "velocity": 96,
      "rel": 0.755906,
      "time": 119.2410504674457,
      "name": "F#5"
    },
    {
      "absoluteTicks": 190800,
      "channel": 13,
      "type": "noteOn",
      "note": 76,
      "velocity": 96,
      "vel": 0.755906,
      "time": 119.24980085283256,
      "name": "E5",
      "svgX": 70802.01,
      "svgY": 668.9
    },
    {
      "absoluteTicks": 191014,
      "channel": 13,
      "type": "noteOff",
      "note": 49,
      "velocity": 96,
      "rel": 0.755906,
      "time": 119.38355082947011,
      "name": "C#3"
    },
    {
      "absoluteTicks": 191025,
      "channel": 13,
      "type": "noteOff",
      "note": 76,
      "velocity": 96,
      "rel": 0.755906,
      "time": 119.39105021694613,
      "name": "E5"
    },
    {
      "absoluteTicks": 191040,
      "channel": 13,
      "type": "noteOn",
      "note": 78,
      "velocity": 96,
      "vel": 0.755906,
      "time": 119.39980060233299,
      "name": "F#5",
      "svgX": 70890.44,
      "svgY": 648.36
    },
    {
      "absoluteTicks": 191040,
      "channel": 13,
      "type": "noteOn",
      "note": 54,
      "velocity": 96,
      "vel": 0.755906,
      "time": 119.39980060233299,
      "name": "F#3",
      "svgX": 70890.44,
      "svgY": 894.85
    },
    {
      "absoluteTicks": 191265,
      "channel": 13,
      "type": "noteOff",
      "note": 78,
      "velocity": 96,
      "rel": 0.755906,
      "time": 119.54104996644654,
      "name": "F#5"
    },
    {
      "absoluteTicks": 191280,
      "channel": 13,
      "type": "noteOn",
      "note": 74,
      "velocity": 96,
      "vel": 0.755906,
      "time": 119.54980035183341,
      "name": "D5",
      "svgX": 70978.88,
      "svgY": 689.44
    },
    {
      "absoluteTicks": 191494,
      "channel": 13,
      "type": "noteOff",
      "note": 54,
      "velocity": 96,
      "rel": 0.755906,
      "time": 119.68355032847094,
      "name": "F#3"
    },
    {
      "absoluteTicks": 191505,
      "channel": 13,
      "type": "noteOff",
      "note": 74,
      "velocity": 96,
      "rel": 0.755906,
      "time": 119.69104971594696,
      "name": "D5"
    },
    {
      "absoluteTicks": 191520,
      "channel": 13,
      "type": "noteOn",
      "note": 73,
      "velocity": 96,
      "vel": 0.755906,
      "time": 119.69980010133382,
      "name": "C#5",
      "svgX": 71067.31,
      "svgY": 699.71
    },
    {
      "absoluteTicks": 191520,
      "channel": 13,
      "type": "noteOn",
      "note": 57,
      "velocity": 96,
      "vel": 0.755906,
      "time": 119.69980010133382,
      "name": "A3",
      "svgX": 71067.31,
      "svgY": 864.04
    },
    {
      "absoluteTicks": 191745,
      "channel": 13,
      "type": "noteOff",
      "note": 73,
      "velocity": 96,
      "rel": 0.755906,
      "time": 119.84104946544738,
      "name": "C#5"
    },
    {
      "absoluteTicks": 191760,
      "channel": 13,
      "type": "noteOn",
      "note": 74,
      "velocity": 96,
      "vel": 0.755906,
      "time": 119.84979985083424,
      "name": "D5",
      "svgX": 71155.74,
      "svgY": 689.44
    },
    {
      "absoluteTicks": 191974,
      "channel": 13,
      "type": "noteOff",
      "note": 57,
      "velocity": 96,
      "rel": 0.755906,
      "time": 119.98354982747178,
      "name": "A3"
    },
    {
      "absoluteTicks": 191985,
      "channel": 13,
      "type": "noteOff",
      "note": 74,
      "velocity": 96,
      "rel": 0.755906,
      "time": 119.9910492149478,
      "name": "D5"
    },
    {
      "absoluteTicks": 192000,
      "channel": 13,
      "type": "noteOn",
      "note": 71,
      "velocity": 96,
      "vel": 0.755906,
      "time": 119.99979960033467,
      "name": "B4",
      "svgX": 71244.18,
      "svgY": 720.25
    },
    {
      "absoluteTicks": 192000,
      "channel": 13,
      "type": "noteOn",
      "note": 43,
      "velocity": 96,
      "vel": 0.755906,
      "time": 119.99979960033467,
      "name": "G2",
      "svgX": 71244.18,
      "svgY": 1007.82
    },
    {
      "absoluteTicks": 192454,
      "channel": 13,
      "type": "noteOff",
      "note": 71,
      "velocity": 96,
      "rel": 0.755906,
      "time": 120.28354932647261,
      "name": "B4"
    },
    {
      "absoluteTicks": 192454,
      "channel": 13,
      "type": "noteOff",
      "note": 43,
      "velocity": 96,
      "rel": 0.755906,
      "time": 120.28354932647261,
      "name": "G2"
    },
    {
      "absoluteTicks": 192480,
      "channel": 13,
      "type": "noteOn",
      "note": 74,
      "velocity": 96,
      "vel": 0.755906,
      "time": 120.2997990993355,
      "name": "D5",
      "svgX": 71421.04,
      "svgY": 689.44
    },
    {
      "absoluteTicks": 192480,
      "channel": 13,
      "type": "noteOn",
      "note": 50,
      "velocity": 96,
      "vel": 0.755906,
      "time": 120.2997990993355,
      "name": "D3",
      "svgX": 71421.04,
      "svgY": 935.93
    },
    {
      "absoluteTicks": 192717,
      "channel": 13,
      "type": "noteOff",
      "note": 74,
      "velocity": 96,
      "rel": 0.755906,
      "time": 120.4485484509241,
      "name": "D5"
    },
    {
      "absoluteTicks": 192720,
      "channel": 13,
      "type": "noteOn",
      "note": 73,
      "velocity": 96,
      "vel": 0.755906,
      "time": 120.44979884883591,
      "name": "C#5",
      "svgX": 71509.48,
      "svgY": 699.71
    },
    {
      "absoluteTicks": 192934,
      "channel": 13,
      "type": "noteOff",
      "note": 50,
      "velocity": 96,
      "rel": 0.755906,
      "time": 120.58354882547346,
      "name": "D3"
    },
    {
      "absoluteTicks": 192957,
      "channel": 13,
      "type": "noteOff",
      "note": 73,
      "velocity": 96,
      "rel": 0.755906,
      "time": 120.5985482004245,
      "name": "C#5"
    },
    {
      "absoluteTicks": 192960,
      "channel": 13,
      "type": "noteOn",
      "note": 71,
      "velocity": 96,
      "vel": 0.755906,
      "time": 120.59979859833633,
      "name": "B4",
      "svgX": 71597.91,
      "svgY": 720.25
    },
    {
      "absoluteTicks": 192960,
      "channel": 13,
      "type": "noteOn",
      "note": 55,
      "velocity": 96,
      "vel": 0.755906,
      "time": 120.59979859833633,
      "name": "G3",
      "svgX": 71597.91,
      "svgY": 884.58
    },
    {
      "absoluteTicks": 193414,
      "channel": 13,
      "type": "noteOff",
      "note": 71,
      "velocity": 96,
      "rel": 0.755906,
      "time": 120.88354832447429,
      "name": "B4"
    },
    {
      "absoluteTicks": 193414,
      "channel": 13,
      "type": "noteOff",
      "note": 55,
      "velocity": 96,
      "rel": 0.755906,
      "time": 120.88354832447429,
      "name": "G3"
    },
    {
      "absoluteTicks": 193440,
      "channel": 13,
      "type": "noteOn",
      "note": 69,
      "velocity": 96,
      "vel": 0.755906,
      "time": 120.89979809733717,
      "name": "A4",
      "svgX": 71774.78,
      "svgY": 740.79
    },
    {
      "absoluteTicks": 193440,
      "channel": 13,
      "type": "noteOn",
      "note": 59,
      "velocity": 96,
      "vel": 0.755906,
      "time": 120.89979809733717,
      "name": "B3",
      "svgX": 71774.78,
      "svgY": 843.5
    },
    {
      "absoluteTicks": 193677,
      "channel": 13,
      "type": "noteOff",
      "note": 69,
      "velocity": 96,
      "rel": 0.755906,
      "time": 121.04854744892576,
      "name": "A4"
    },
    {
      "absoluteTicks": 193680,
      "channel": 13,
      "type": "noteOn",
      "note": 67,
      "velocity": 96,
      "vel": 0.755906,
      "time": 121.04979784683759,
      "name": "G4",
      "svgX": 71863.21,
      "svgY": 761.33
    },
    {
      "absoluteTicks": 193894,
      "channel": 13,
      "type": "noteOff",
      "note": 59,
      "velocity": 96,
      "rel": 0.755906,
      "time": 121.18354782347512,
      "name": "B3"
    },
    {
      "absoluteTicks": 193905,
      "channel": 13,
      "type": "noteOff",
      "note": 67,
      "velocity": 96,
      "rel": 0.755906,
      "time": 121.19104721095114,
      "name": "G4"
    },
    {
      "absoluteTicks": 193920,
      "channel": 13,
      "type": "noteOn",
      "note": 69,
      "velocity": 96,
      "vel": 0.755906,
      "time": 121.199797596338,
      "name": "A4",
      "svgX": 71951.65,
      "svgY": 740.79
    },
    {
      "absoluteTicks": 193920,
      "channel": 13,
      "type": "noteOn",
      "note": 38,
      "velocity": 96,
      "vel": 0.755906,
      "time": 121.199797596338,
      "name": "D2",
      "svgX": 71951.65,
      "svgY": 1059.17
    },
    {
      "absoluteTicks": 194145,
      "channel": 13,
      "type": "noteOff",
      "note": 69,
      "velocity": 96,
      "rel": 0.755906,
      "time": 121.34104696045156,
      "name": "A4"
    },
    {
      "absoluteTicks": 194160,
      "channel": 13,
      "type": "noteOn",
      "note": 67,
      "velocity": 96,
      "vel": 0.755906,
      "time": 121.34979734583843,
      "name": "G4",
      "svgX": 72040.08,
      "svgY": 761.33
    },
    {
      "absoluteTicks": 194374,
      "channel": 13,
      "type": "noteOff",
      "note": 38,
      "velocity": 96,
      "rel": 0.755906,
      "time": 121.48354732247596,
      "name": "D2"
    },
    {
      "absoluteTicks": 194385,
      "channel": 13,
      "type": "noteOff",
      "note": 67,
      "velocity": 96,
      "rel": 0.755906,
      "time": 121.49104670995197,
      "name": "G4"
    },
    {
      "absoluteTicks": 194400,
      "channel": 13,
      "type": "noteOn",
      "note": 66,
      "velocity": 96,
      "vel": 0.755906,
      "time": 121.49979709533885,
      "name": "F#4",
      "svgX": 72128.51,
      "svgY": 771.6
    },
    {
      "absoluteTicks": 194400,
      "channel": 13,
      "type": "noteOn",
      "note": 45,
      "velocity": 96,
      "vel": 0.755906,
      "time": 121.49979709533885,
      "name": "A2",
      "svgX": 72128.51,
      "svgY": 987.28
    },
    {
      "absoluteTicks": 194625,
      "channel": 13,
      "type": "noteOff",
      "note": 66,
      "velocity": 96,
      "rel": 0.755906,
      "time": 121.6410464594524,
      "name": "F#4"
    },
    {
      "absoluteTicks": 194640,
      "channel": 13,
      "type": "noteOn",
      "note": 67,
      "velocity": 96,
      "vel": 0.755906,
      "time": 121.64979684483926,
      "name": "G4",
      "svgX": 72216.95,
      "svgY": 761.33
    },
    {
      "absoluteTicks": 194854,
      "channel": 13,
      "type": "noteOff",
      "note": 45,
      "velocity": 96,
      "rel": 0.755906,
      "time": 121.7835468214768,
      "name": "A2"
    },
    {
      "absoluteTicks": 194865,
      "channel": 13,
      "type": "noteOff",
      "note": 67,
      "velocity": 96,
      "rel": 0.755906,
      "time": 121.79104620895282,
      "name": "G4"
    },
    {
      "absoluteTicks": 194880,
      "channel": 13,
      "type": "noteOn",
      "note": 69,
      "velocity": 96,
      "vel": 0.755906,
      "time": 121.79979659433968,
      "name": "A4",
      "svgX": 72305.38,
      "svgY": 740.79
    },
    {
      "absoluteTicks": 194880,
      "channel": 13,
      "type": "noteOn",
      "note": 50,
      "velocity": 96,
      "vel": 0.755906,
      "time": 121.79979659433968,
      "name": "D3",
      "svgX": 72305.38,
      "svgY": 935.93
    },
    {
      "absoluteTicks": 195105,
      "channel": 13,
      "type": "noteOff",
      "note": 69,
      "velocity": 96,
      "rel": 0.755906,
      "time": 121.94104595845323,
      "name": "A4"
    },
    {
      "absoluteTicks": 195120,
      "channel": 13,
      "type": "noteOn",
      "note": 71,
      "velocity": 96,
      "vel": 0.755906,
      "time": 121.9497963438401,
      "name": "B4",
      "svgX": 72393.82,
      "svgY": 720.25
    },
    {
      "absoluteTicks": 195334,
      "channel": 13,
      "type": "noteOff",
      "note": 50,
      "velocity": 96,
      "rel": 0.755906,
      "time": 122.08354632047764,
      "name": "D3"
    },
    {
      "absoluteTicks": 195345,
      "channel": 13,
      "type": "noteOff",
      "note": 71,
      "velocity": 96,
      "rel": 0.755906,
      "time": 122.09104570795365,
      "name": "B4"
    },
    {
      "absoluteTicks": 195360,
      "channel": 13,
      "type": "noteOn",
      "note": 73,
      "velocity": 96,
      "vel": 0.755906,
      "time": 122.09979609334052,
      "name": "C#5",
      "svgX": 72482.25,
      "svgY": 699.71
    },
    {
      "absoluteTicks": 195360,
      "channel": 13,
      "type": "noteOn",
      "note": 54,
      "velocity": 96,
      "vel": 0.755906,
      "time": 122.09979609334052,
      "name": "F#3",
      "svgX": 72482.25,
      "svgY": 894.85
    },
    {
      "absoluteTicks": 195585,
      "channel": 13,
      "type": "noteOff",
      "note": 73,
      "velocity": 96,
      "rel": 0.755906,
      "time": 122.24104545745408,
      "name": "C#5"
    },
    {
      "absoluteTicks": 195600,
      "channel": 13,
      "type": "noteOn",
      "note": 74,
      "velocity": 96,
      "vel": 0.755906,
      "time": 122.24979584284094,
      "name": "D5",
      "svgX": 72570.68,
      "svgY": 689.44
    },
    {
      "absoluteTicks": 195814,
      "channel": 13,
      "type": "noteOff",
      "note": 54,
      "velocity": 96,
      "rel": 0.755906,
      "time": 122.38354581947847,
      "name": "F#3"
    },
    {
      "absoluteTicks": 195825,
      "channel": 13,
      "type": "noteOff",
      "note": 74,
      "velocity": 96,
      "rel": 0.755906,
      "time": 122.39104520695449,
      "name": "D5"
    },
    {
      "absoluteTicks": 195840,
      "channel": 13,
      "type": "noteOn",
      "note": 71,
      "velocity": 96,
      "vel": 0.755906,
      "time": 122.39979559234135,
      "name": "B4",
      "svgX": 72659.12,
      "svgY": 720.25
    },
    {
      "absoluteTicks": 195840,
      "channel": 13,
      "type": "noteOn",
      "note": 43,
      "velocity": 96,
      "vel": 0.755906,
      "time": 122.39979559234135,
      "name": "G2",
      "svgX": 72659.12,
      "svgY": 1007.82
    },
    {
      "absoluteTicks": 196294,
      "channel": 13,
      "type": "noteOff",
      "note": 71,
      "velocity": 96,
      "rel": 0.755906,
      "time": 122.6835453184793,
      "name": "B4"
    },
    {
      "absoluteTicks": 196294,
      "channel": 13,
      "type": "noteOff",
      "note": 43,
      "velocity": 96,
      "rel": 0.755906,
      "time": 122.6835453184793,
      "name": "G2"
    },
    {
      "absoluteTicks": 196320,
      "channel": 13,
      "type": "noteOn",
      "note": 74,
      "velocity": 96,
      "vel": 0.755906,
      "time": 122.6997950913422,
      "name": "D5",
      "svgX": 72835.98,
      "svgY": 689.44
    },
    {
      "absoluteTicks": 196320,
      "channel": 13,
      "type": "noteOn",
      "note": 50,
      "velocity": 96,
      "vel": 0.755906,
      "time": 122.6997950913422,
      "name": "D3",
      "svgX": 72835.98,
      "svgY": 935.93
    },
    {
      "absoluteTicks": 196557,
      "channel": 13,
      "type": "noteOff",
      "note": 74,
      "velocity": 96,
      "rel": 0.755906,
      "time": 122.84854444293079,
      "name": "D5"
    },
    {
      "absoluteTicks": 196560,
      "channel": 13,
      "type": "noteOn",
      "note": 73,
      "velocity": 96,
      "vel": 0.755906,
      "time": 122.8497948408426,
      "name": "C#5",
      "svgX": 72924.42,
      "svgY": 699.71
    },
    {
      "absoluteTicks": 196774,
      "channel": 13,
      "type": "noteOff",
      "note": 50,
      "velocity": 96,
      "rel": 0.755906,
      "time": 122.98354481748014,
      "name": "D3"
    },
    {
      "absoluteTicks": 196797,
      "channel": 13,
      "type": "noteOff",
      "note": 73,
      "velocity": 96,
      "rel": 0.755906,
      "time": 122.9985441924312,
      "name": "C#5"
    },
    {
      "absoluteTicks": 196800,
      "channel": 13,
      "type": "noteOn",
      "note": 74,
      "velocity": 96,
      "vel": 0.755906,
      "time": 122.99979459034303,
      "name": "D5",
      "svgX": 73012.85,
      "svgY": 689.44
    },
    {
      "absoluteTicks": 196800,
      "channel": 13,
      "type": "noteOn",
      "note": 55,
      "velocity": 96,
      "vel": 0.755906,
      "time": 122.99979459034303,
      "name": "G3",
      "svgX": 73012.85,
      "svgY": 884.58
    },
    {
      "absoluteTicks": 197254,
      "channel": 13,
      "type": "noteOff",
      "note": 74,
      "velocity": 96,
      "rel": 0.755906,
      "time": 123.28354431648098,
      "name": "D5"
    },
    {
      "absoluteTicks": 197254,
      "channel": 13,
      "type": "noteOff",
      "note": 55,
      "velocity": 96,
      "rel": 0.755906,
      "time": 123.28354431648098,
      "name": "G3"
    },
    {
      "absoluteTicks": 197280,
      "channel": 13,
      "type": "noteOn",
      "note": 73,
      "velocity": 96,
      "vel": 0.755906,
      "time": 123.29979408934386,
      "name": "C#5",
      "svgX": 73189.72,
      "svgY": 699.71
    },
    {
      "absoluteTicks": 197280,
      "channel": 13,
      "type": "noteOn",
      "note": 59,
      "velocity": 96,
      "vel": 0.755906,
      "time": 123.29979408934386,
      "name": "B3",
      "svgX": 73189.72,
      "svgY": 843.5
    },
    {
      "absoluteTicks": 197517,
      "channel": 13,
      "type": "noteOff",
      "note": 73,
      "velocity": 96,
      "rel": 0.755906,
      "time": 123.44854344093245,
      "name": "C#5"
    },
    {
      "absoluteTicks": 197520,
      "channel": 13,
      "type": "noteOn",
      "note": 71,
      "velocity": 96,
      "vel": 0.755906,
      "time": 123.44979383884429,
      "name": "B4",
      "svgX": 73278.15,
      "svgY": 720.25
    },
    {
      "absoluteTicks": 197734,
      "channel": 13,
      "type": "noteOff",
      "note": 59,
      "velocity": 96,
      "rel": 0.755906,
      "time": 123.58354381548182,
      "name": "B3"
    },
    {
      "absoluteTicks": 197745,
      "channel": 13,
      "type": "noteOff",
      "note": 71,
      "velocity": 96,
      "rel": 0.755906,
      "time": 123.59104320295783,
      "name": "B4"
    },
    {
      "absoluteTicks": 197760,
      "channel": 13,
      "type": "noteOn",
      "note": 73,
      "velocity": 96,
      "vel": 0.755906,
      "time": 123.5997935883447,
      "name": "C#5",
      "svgX": 73366.59,
      "svgY": 699.71
    },
    {
      "absoluteTicks": 197760,
      "channel": 13,
      "type": "noteOn",
      "note": 45,
      "velocity": 96,
      "vel": 0.755906,
      "time": 123.5997935883447,
      "name": "A2",
      "svgX": 73366.59,
      "svgY": 987.28
    },
    {
      "absoluteTicks": 197985,
      "channel": 13,
      "type": "noteOff",
      "note": 73,
      "velocity": 96,
      "rel": 0.755906,
      "time": 123.74104295245826,
      "name": "C#5"
    },
    {
      "absoluteTicks": 198000,
      "channel": 13,
      "type": "noteOn",
      "note": 69,
      "velocity": 96,
      "vel": 0.755906,
      "time": 123.74979333784512,
      "name": "A4",
      "svgX": 73455.02,
      "svgY": 740.79
    },
    {
      "absoluteTicks": 198214,
      "channel": 13,
      "type": "noteOff",
      "note": 45,
      "velocity": 96,
      "rel": 0.755906,
      "time": 123.88354331448265,
      "name": "A2"
    },
    {
      "absoluteTicks": 198225,
      "channel": 13,
      "type": "noteOff",
      "note": 69,
      "velocity": 96,
      "rel": 0.755906,
      "time": 123.89104270195867,
      "name": "A4"
    },
    {
      "absoluteTicks": 198240,
      "channel": 13,
      "type": "noteOn",
      "note": 71,
      "velocity": 96,
      "vel": 0.755906,
      "time": 123.89979308734554,
      "name": "B4",
      "svgX": 73543.45,
      "svgY": 720.25
    },
    {
      "absoluteTicks": 198240,
      "channel": 13,
      "type": "noteOn",
      "note": 52,
      "velocity": 96,
      "vel": 0.755906,
      "time": 123.89979308734554,
      "name": "E3",
      "svgX": 73543.45,
      "svgY": 915.39
    },
    {
      "absoluteTicks": 198465,
      "channel": 13,
      "type": "noteOff",
      "note": 71,
      "velocity": 96,
      "rel": 0.755906,
      "time": 124.04104245145909,
      "name": "B4"
    },
    {
      "absoluteTicks": 198480,
      "channel": 13,
      "type": "noteOn",
      "note": 73,
      "velocity": 96,
      "vel": 0.755906,
      "time": 124.04979283684595,
      "name": "C#5",
      "svgX": 73631.89,
      "svgY": 699.71
    },
    {
      "absoluteTicks": 198694,
      "channel": 13,
      "type": "noteOff",
      "note": 52,
      "velocity": 96,
      "rel": 0.755906,
      "time": 124.18354281348348,
      "name": "E3"
    },
    {
      "absoluteTicks": 198705,
      "channel": 13,
      "type": "noteOff",
      "note": 73,
      "velocity": 96,
      "rel": 0.755906,
      "time": 124.19104220095952,
      "name": "C#5"
    },
    {
      "absoluteTicks": 198720,
      "channel": 13,
      "type": "noteOn",
      "note": 74,
      "velocity": 96,
      "vel": 0.755906,
      "time": 124.19979258634638,
      "name": "D5",
      "svgX": 73720.32,
      "svgY": 689.44
    },
    {
      "absoluteTicks": 198720,
      "channel": 13,
      "type": "noteOn",
      "note": 57,
      "velocity": 96,
      "vel": 0.755906,
      "time": 124.19979258634638,
      "name": "A3",
      "svgX": 73720.32,
      "svgY": 864.04
    },
    {
      "absoluteTicks": 198945,
      "channel": 13,
      "type": "noteOff",
      "note": 74,
      "velocity": 96,
      "rel": 0.755906,
      "time": 124.34104195045992,
      "name": "D5"
    },
    {
      "absoluteTicks": 198960,
      "channel": 13,
      "type": "noteOn",
      "note": 76,
      "velocity": 96,
      "vel": 0.755906,
      "time": 124.3497923358468,
      "name": "E5",
      "svgX": 73808.75,
      "svgY": 668.9
    },
    {
      "absoluteTicks": 199174,
      "channel": 13,
      "type": "noteOff",
      "note": 57,
      "velocity": 96,
      "rel": 0.755906,
      "time": 124.48354231248433,
      "name": "A3"
    },
    {
      "absoluteTicks": 199185,
      "channel": 13,
      "type": "noteOff",
      "note": 76,
      "velocity": 96,
      "rel": 0.755906,
      "time": 124.49104169996035,
      "name": "E5"
    },
    {
      "absoluteTicks": 199200,
      "channel": 13,
      "type": "noteOn",
      "note": 78,
      "velocity": 96,
      "vel": 0.755906,
      "time": 124.49979208534721,
      "name": "F#5",
      "svgX": 73897.19,
      "svgY": 648.36
    },
    {
      "absoluteTicks": 199200,
      "channel": 13,
      "type": "noteOn",
      "note": 61,
      "velocity": 96,
      "vel": 0.755906,
      "time": 124.49979208534721,
      "name": "C#4",
      "svgX": 73897.19,
      "svgY": 822.96
    },
    {
      "absoluteTicks": 199425,
      "channel": 13,
      "type": "noteOff",
      "note": 78,
      "velocity": 96,
      "rel": 0.755906,
      "time": 124.64104144946077,
      "name": "F#5"
    },
    {
      "absoluteTicks": 199440,
      "channel": 13,
      "type": "noteOn",
      "note": 79,
      "velocity": 96,
      "vel": 0.755906,
      "time": 124.64979183484763,
      "name": "G5",
      "svgX": 73985.62,
      "svgY": 638.09
    },
    {
      "absoluteTicks": 199654,
      "channel": 13,
      "type": "noteOff",
      "note": 61,
      "velocity": 96,
      "rel": 0.755906,
      "time": 124.78354181148516,
      "name": "C#4"
    },
    {
      "absoluteTicks": 199665,
      "channel": 13,
      "type": "noteOff",
      "note": 79,
      "velocity": 96,
      "rel": 0.755906,
      "time": 124.79104119896118,
      "name": "G5"
    },
    {
      "absoluteTicks": 199680,
      "channel": 13,
      "type": "noteOn",
      "note": 81,
      "velocity": 79,
      "vel": 0.629921,
      "time": 124.79979158434804,
      "name": "A5",
      "svgX": 74074.05,
      "svgY": 617.55
    },
    {
      "absoluteTicks": 199680,
      "channel": 13,
      "type": "noteOn",
      "note": 50,
      "velocity": 79,
      "vel": 0.629921,
      "time": 124.79979158434804,
      "name": "D3",
      "svgX": 74074.05,
      "svgY": 935.93
    },
    {
      "absoluteTicks": 200134,
      "channel": 13,
      "type": "noteOff",
      "note": 81,
      "velocity": 79,
      "rel": 0.629921,
      "time": 125.083541310486,
      "name": "A5"
    },
    {
      "absoluteTicks": 200134,
      "channel": 13,
      "type": "noteOff",
      "note": 50,
      "velocity": 79,
      "rel": 0.629921,
      "time": 125.083541310486,
      "name": "D3"
    },
    {
      "absoluteTicks": 200160,
      "channel": 13,
      "type": "noteOn",
      "note": 74,
      "velocity": 79,
      "vel": 0.629921,
      "time": 125.09979108334889,
      "name": "D5",
      "svgX": 74250.92,
      "svgY": 689.44
    },
    {
      "absoluteTicks": 200160,
      "channel": 13,
      "type": "noteOn",
      "note": 57,
      "velocity": 79,
      "vel": 0.629921,
      "time": 125.09979108334889,
      "name": "A3",
      "svgX": 74250.92,
      "svgY": 864.04
    },
    {
      "absoluteTicks": 200614,
      "channel": 13,
      "type": "noteOff",
      "note": 74,
      "velocity": 79,
      "rel": 0.629921,
      "time": 125.38354080948683,
      "name": "D5"
    },
    {
      "absoluteTicks": 200614,
      "channel": 13,
      "type": "noteOff",
      "note": 57,
      "velocity": 79,
      "rel": 0.629921,
      "time": 125.38354080948683,
      "name": "A3"
    },
    {
      "absoluteTicks": 200640,
      "channel": 13,
      "type": "noteOn",
      "note": 78,
      "velocity": 79,
      "vel": 0.629921,
      "time": 125.39979058234972,
      "name": "F#5",
      "svgX": 74427.79,
      "svgY": 648.36
    },
    {
      "absoluteTicks": 200640,
      "channel": 13,
      "type": "noteOn",
      "note": 62,
      "velocity": 79,
      "vel": 0.629921,
      "time": 125.39979058234972,
      "name": "D4",
      "svgX": 74427.79,
      "svgY": 812.69
    },
    {
      "absoluteTicks": 201094,
      "channel": 13,
      "type": "noteOff",
      "note": 78,
      "velocity": 79,
      "rel": 0.629921,
      "time": 125.68354030848768,
      "name": "F#5"
    },
    {
      "absoluteTicks": 201094,
      "channel": 13,
      "type": "noteOff",
      "note": 62,
      "velocity": 79,
      "rel": 0.629921,
      "time": 125.68354030848768,
      "name": "D4"
    },
    {
      "absoluteTicks": 201120,
      "channel": 13,
      "type": "noteOn",
      "note": 81,
      "velocity": 79,
      "vel": 0.629921,
      "time": 125.69979008135056,
      "name": "A5",
      "svgX": 74604.66,
      "svgY": 617.55
    },
    {
      "absoluteTicks": 201120,
      "channel": 13,
      "type": "noteOn",
      "note": 66,
      "velocity": 79,
      "vel": 0.629921,
      "time": 125.69979008135056,
      "name": "F#4",
      "svgX": 74604.66,
      "svgY": 771.6
    },
    {
      "absoluteTicks": 201574,
      "channel": 13,
      "type": "noteOff",
      "note": 81,
      "velocity": 79,
      "rel": 0.629921,
      "time": 125.98353980748851,
      "name": "A5"
    },
    {
      "absoluteTicks": 201574,
      "channel": 13,
      "type": "noteOff",
      "note": 66,
      "velocity": 79,
      "rel": 0.629921,
      "time": 125.98353980748851,
      "name": "F#4"
    },
    {
      "absoluteTicks": 201600,
      "channel": 13,
      "type": "noteOn",
      "note": 81,
      "velocity": 79,
      "vel": 0.629921,
      "time": 125.99978958035139,
      "name": "A5",
      "svgX": 74781.52,
      "svgY": 617.55
    },
    {
      "absoluteTicks": 201600,
      "channel": 13,
      "type": "noteOn",
      "note": 45,
      "velocity": 79,
      "vel": 0.629921,
      "time": 125.99978958035139,
      "name": "A2",
      "svgX": 74781.52,
      "svgY": 987.28
    },
    {
      "absoluteTicks": 202054,
      "channel": 13,
      "type": "noteOff",
      "note": 81,
      "velocity": 79,
      "rel": 0.629921,
      "time": 126.28353930648935,
      "name": "A5"
    },
    {
      "absoluteTicks": 202054,
      "channel": 13,
      "type": "noteOff",
      "note": 45,
      "velocity": 79,
      "rel": 0.629921,
      "time": 126.28353930648935,
      "name": "A2"
    },
    {
      "absoluteTicks": 202080,
      "channel": 13,
      "type": "noteOn",
      "note": 83,
      "velocity": 79,
      "vel": 0.629921,
      "time": 126.29978907935224,
      "name": "B5",
      "svgX": 74958.39,
      "svgY": 597.01
    },
    {
      "absoluteTicks": 202080,
      "channel": 13,
      "type": "noteOn",
      "note": 52,
      "velocity": 79,
      "vel": 0.629921,
      "time": 126.29978907935224,
      "name": "E3",
      "svgX": 74958.39,
      "svgY": 915.39
    },
    {
      "absoluteTicks": 202534,
      "channel": 13,
      "type": "noteOff",
      "note": 83,
      "velocity": 79,
      "rel": 0.629921,
      "time": 126.58353880549018,
      "name": "B5"
    },
    {
      "absoluteTicks": 202534,
      "channel": 13,
      "type": "noteOff",
      "note": 52,
      "velocity": 79,
      "rel": 0.629921,
      "time": 126.58353880549018,
      "name": "E3"
    },
    {
      "absoluteTicks": 202560,
      "channel": 13,
      "type": "noteOn",
      "note": 81,
      "velocity": 79,
      "vel": 0.629921,
      "time": 126.59978857835307,
      "name": "A5",
      "svgX": 75135.26,
      "svgY": 617.55
    },
    {
      "absoluteTicks": 202560,
      "channel": 13,
      "type": "noteOn",
      "note": 57,
      "velocity": 79,
      "vel": 0.629921,
      "time": 126.59978857835307,
      "name": "A3",
      "svgX": 75135.26,
      "svgY": 864.04
    },
    {
      "absoluteTicks": 203014,
      "channel": 13,
      "type": "noteOff",
      "note": 81,
      "velocity": 79,
      "rel": 0.629921,
      "time": 126.88353830449103,
      "name": "A5"
    },
    {
      "absoluteTicks": 203014,
      "channel": 13,
      "type": "noteOff",
      "note": 57,
      "velocity": 79,
      "rel": 0.629921,
      "time": 126.88353830449103,
      "name": "A3"
    },
    {
      "absoluteTicks": 203040,
      "channel": 13,
      "type": "noteOn",
      "note": 79,
      "velocity": 79,
      "vel": 0.629921,
      "time": 126.8997880773539,
      "name": "G5",
      "svgX": 75312.13,
      "svgY": 638.09
    },
    {
      "absoluteTicks": 203040,
      "channel": 13,
      "type": "noteOn",
      "note": 61,
      "velocity": 79,
      "vel": 0.629921,
      "time": 126.8997880773539,
      "name": "C#4",
      "svgX": 75312.13,
      "svgY": 822.96
    },
    {
      "absoluteTicks": 203494,
      "channel": 13,
      "type": "noteOff",
      "note": 79,
      "velocity": 79,
      "rel": 0.629921,
      "time": 127.18353780349186,
      "name": "G5"
    },
    {
      "absoluteTicks": 203494,
      "channel": 13,
      "type": "noteOff",
      "note": 61,
      "velocity": 79,
      "rel": 0.629921,
      "time": 127.18353780349186,
      "name": "C#4"
    },
    {
      "absoluteTicks": 203520,
      "channel": 13,
      "type": "noteOn",
      "note": 78,
      "velocity": 79,
      "vel": 0.629921,
      "time": 127.19978757635474,
      "name": "F#5",
      "svgX": 75488.99,
      "svgY": 648.36
    },
    {
      "absoluteTicks": 203520,
      "channel": 13,
      "type": "noteOn",
      "note": 47,
      "velocity": 79,
      "vel": 0.629921,
      "time": 127.19978757635474,
      "name": "B2",
      "svgX": 75488.99,
      "svgY": 966.74
    },
    {
      "absoluteTicks": 203974,
      "channel": 13,
      "type": "noteOff",
      "note": 47,
      "velocity": 79,
      "rel": 0.629921,
      "time": 127.48353730249269,
      "name": "B2"
    },
    {
      "absoluteTicks": 204000,
      "channel": 13,
      "type": "noteOn",
      "note": 54,
      "velocity": 79,
      "vel": 0.629921,
      "time": 127.49978707535558,
      "name": "F#3",
      "svgX": 75665.86,
      "svgY": 894.85
    },
    {
      "absoluteTicks": 204454,
      "channel": 13,
      "type": "noteOff",
      "note": 54,
      "velocity": 79,
      "rel": 0.629921,
      "time": 127.78353680149353,
      "name": "F#3"
    },
    {
      "absoluteTicks": 204480,
      "channel": 13,
      "type": "noteOn",
      "note": 59,
      "velocity": 79,
      "vel": 0.629921,
      "time": 127.79978657435642,
      "name": "B3",
      "svgX": 75842.73,
      "svgY": 843.5
    },
    {
      "absoluteTicks": 204885,
      "channel": 13,
      "type": "noteOff",
      "note": 78,
      "velocity": 79,
      "rel": 0.629921,
      "time": 128.05353575059527,
      "name": "F#5"
    },
    {
      "absoluteTicks": 204934,
      "channel": 13,
      "type": "noteOff",
      "note": 59,
      "velocity": 79,
      "rel": 0.629921,
      "time": 128.08353630049436,
      "name": "B3"
    },
    {
      "absoluteTicks": 204960,
      "channel": 13,
      "type": "noteOn",
      "note": 78,
      "velocity": 79,
      "vel": 0.629921,
      "time": 128.09978607335725,
      "name": "F#5",
      "svgX": 76019.6,
      "svgY": 648.36
    },
    {
      "absoluteTicks": 204960,
      "channel": 13,
      "type": "noteOn",
      "note": 62,
      "velocity": 79,
      "vel": 0.629921,
      "time": 128.09978607335725,
      "name": "D4",
      "svgX": 76019.6,
      "svgY": 812.69
    },
    {
      "absoluteTicks": 205414,
      "channel": 13,
      "type": "noteOff",
      "note": 78,
      "velocity": 79,
      "rel": 0.629921,
      "time": 128.3835357994952,
      "name": "F#5"
    },
    {
      "absoluteTicks": 205414,
      "channel": 13,
      "type": "noteOff",
      "note": 62,
      "velocity": 79,
      "rel": 0.629921,
      "time": 128.3835357994952,
      "name": "D4"
    },
    {
      "absoluteTicks": 205440,
      "channel": 13,
      "type": "noteOn",
      "note": 78,
      "velocity": 79,
      "vel": 0.629921,
      "time": 128.3997855723581,
      "name": "F#5",
      "svgX": 76196.46,
      "svgY": 648.36
    },
    {
      "absoluteTicks": 205440,
      "channel": 13,
      "type": "noteOn",
      "note": 42,
      "velocity": 79,
      "vel": 0.629921,
      "time": 128.3997855723581,
      "name": "F#2",
      "svgX": 76196.46,
      "svgY": 1018.09
    },
    {
      "absoluteTicks": 205894,
      "channel": 13,
      "type": "noteOff",
      "note": 78,
      "velocity": 79,
      "rel": 0.629921,
      "time": 128.68353529849605,
      "name": "F#5"
    },
    {
      "absoluteTicks": 205894,
      "channel": 13,
      "type": "noteOff",
      "note": 42,
      "velocity": 79,
      "rel": 0.629921,
      "time": 128.68353529849605,
      "name": "F#2"
    },
    {
      "absoluteTicks": 205920,
      "channel": 13,
      "type": "noteOn",
      "note": 79,
      "velocity": 79,
      "vel": 0.629921,
      "time": 128.69978507135892,
      "name": "G5",
      "svgX": 76373.33,
      "svgY": 638.09
    },
    {
      "absoluteTicks": 205920,
      "channel": 13,
      "type": "noteOn",
      "note": 49,
      "velocity": 79,
      "vel": 0.629921,
      "time": 128.69978507135892,
      "name": "C#3",
      "svgX": 76373.33,
      "svgY": 946.2
    },
    {
      "absoluteTicks": 206374,
      "channel": 13,
      "type": "noteOff",
      "note": 79,
      "velocity": 79,
      "rel": 0.629921,
      "time": 128.98353479749687,
      "name": "G5"
    },
    {
      "absoluteTicks": 206374,
      "channel": 13,
      "type": "noteOff",
      "note": 49,
      "velocity": 79,
      "rel": 0.629921,
      "time": 128.98353479749687,
      "name": "C#3"
    },
    {
      "absoluteTicks": 206400,
      "channel": 13,
      "type": "noteOn",
      "note": 78,
      "velocity": 79,
      "vel": 0.629921,
      "time": 128.99978457035976,
      "name": "F#5",
      "svgX": 76550.2,
      "svgY": 648.36
    },
    {
      "absoluteTicks": 206400,
      "channel": 13,
      "type": "noteOn",
      "note": 54,
      "velocity": 79,
      "vel": 0.629921,
      "time": 128.99978457035976,
      "name": "F#3",
      "svgX": 76550.2,
      "svgY": 894.85
    },
    {
      "absoluteTicks": 206854,
      "channel": 13,
      "type": "noteOff",
      "note": 78,
      "velocity": 79,
      "rel": 0.629921,
      "time": 129.28353429649772,
      "name": "F#5"
    },
    {
      "absoluteTicks": 206854,
      "channel": 13,
      "type": "noteOff",
      "note": 54,
      "velocity": 79,
      "rel": 0.629921,
      "time": 129.28353429649772,
      "name": "F#3"
    },
    {
      "absoluteTicks": 206880,
      "channel": 13,
      "type": "noteOn",
      "note": 76,
      "velocity": 79,
      "vel": 0.629921,
      "time": 129.2997840693606,
      "name": "E5",
      "svgX": 76727.06,
      "svgY": 668.9
    },
    {
      "absoluteTicks": 206880,
      "channel": 13,
      "type": "noteOn",
      "note": 57,
      "velocity": 79,
      "vel": 0.629921,
      "time": 129.2997840693606,
      "name": "A3",
      "svgX": 76727.06,
      "svgY": 864.04
    },
    {
      "absoluteTicks": 207334,
      "channel": 13,
      "type": "noteOff",
      "note": 76,
      "velocity": 79,
      "rel": 0.629921,
      "time": 129.58353379549854,
      "name": "E5"
    },
    {
      "absoluteTicks": 207334,
      "channel": 13,
      "type": "noteOff",
      "note": 57,
      "velocity": 79,
      "rel": 0.629921,
      "time": 129.58353379549854,
      "name": "A3"
    },
    {
      "absoluteTicks": 207360,
      "channel": 13,
      "type": "noteOn",
      "note": 74,
      "velocity": 79,
      "vel": 0.629921,
      "time": 129.59978356836143,
      "name": "D5",
      "svgX": 76903.93,
      "svgY": 689.44
    },
    {
      "absoluteTicks": 207360,
      "channel": 13,
      "type": "noteOn",
      "note": 43,
      "velocity": 79,
      "vel": 0.629921,
      "time": 129.59978356836143,
      "name": "G2",
      "svgX": 76903.93,
      "svgY": 1007.82
    },
    {
      "absoluteTicks": 207814,
      "channel": 13,
      "type": "noteOff",
      "note": 74,
      "velocity": 79,
      "rel": 0.629921,
      "time": 129.8835332944994,
      "name": "D5"
    },
    {
      "absoluteTicks": 207814,
      "channel": 13,
      "type": "noteOff",
      "note": 43,
      "velocity": 79,
      "rel": 0.629921,
      "time": 129.8835332944994,
      "name": "G2"
    },
    {
      "absoluteTicks": 207840,
      "channel": 13,
      "type": "noteOn",
      "note": 72,
      "velocity": 79,
      "vel": 0.629921,
      "time": 129.89978306736228,
      "name": "C5",
      "svgX": 77080.8,
      "svgY": 709.98
    },
    {
      "absoluteTicks": 207840,
      "channel": 13,
      "type": "noteOn",
      "note": 50,
      "velocity": 79,
      "vel": 0.629921,
      "time": 129.89978306736228,
      "name": "D3",
      "svgX": 77080.8,
      "svgY": 935.93
    },
    {
      "absoluteTicks": 208294,
      "channel": 13,
      "type": "noteOff",
      "note": 72,
      "velocity": 79,
      "rel": 0.629921,
      "time": 130.18353279350023,
      "name": "C5"
    },
    {
      "absoluteTicks": 208294,
      "channel": 13,
      "type": "noteOff",
      "note": 50,
      "velocity": 79,
      "rel": 0.629921,
      "time": 130.18353279350023,
      "name": "D3"
    },
    {
      "absoluteTicks": 208320,
      "channel": 13,
      "type": "noteOn",
      "note": 71,
      "velocity": 79,
      "vel": 0.629921,
      "time": 130.1997825663631,
      "name": "B4",
      "svgX": 77257.67,
      "svgY": 720.25
    },
    {
      "absoluteTicks": 208320,
      "channel": 13,
      "type": "noteOn",
      "note": 55,
      "velocity": 79,
      "vel": 0.629921,
      "time": 130.1997825663631,
      "name": "G3",
      "svgX": 77257.67,
      "svgY": 884.58
    },
    {
      "absoluteTicks": 208774,
      "channel": 13,
      "type": "noteOff",
      "note": 71,
      "velocity": 79,
      "rel": 0.629921,
      "time": 130.48353229250105,
      "name": "B4"
    },
    {
      "absoluteTicks": 208774,
      "channel": 13,
      "type": "noteOff",
      "note": 55,
      "velocity": 79,
      "rel": 0.629921,
      "time": 130.48353229250105,
      "name": "G3"
    },
    {
      "absoluteTicks": 208800,
      "channel": 13,
      "type": "noteOn",
      "note": 72,
      "velocity": 79,
      "vel": 0.629921,
      "time": 130.49978206536395,
      "name": "C5",
      "svgX": 77434.53,
      "svgY": 709.98
    },
    {
      "absoluteTicks": 208800,
      "channel": 13,
      "type": "noteOn",
      "note": 59,
      "velocity": 79,
      "vel": 0.629921,
      "time": 130.49978206536395,
      "name": "B3",
      "svgX": 77434.53,
      "svgY": 843.5
    },
    {
      "absoluteTicks": 209254,
      "channel": 13,
      "type": "noteOff",
      "note": 72,
      "velocity": 79,
      "rel": 0.629921,
      "time": 130.7835317915019,
      "name": "C5"
    },
    {
      "absoluteTicks": 209254,
      "channel": 13,
      "type": "noteOff",
      "note": 59,
      "velocity": 79,
      "rel": 0.629921,
      "time": 130.7835317915019,
      "name": "B3"
    },
    {
      "absoluteTicks": 209280,
      "channel": 13,
      "type": "noteOn",
      "note": 74,
      "velocity": 79,
      "vel": 0.629921,
      "time": 130.7997815643648,
      "name": "D5",
      "svgX": 77611.4,
      "svgY": 689.44
    },
    {
      "absoluteTicks": 209280,
      "channel": 13,
      "type": "noteOn",
      "note": 38,
      "velocity": 79,
      "vel": 0.629921,
      "time": 130.7997815643648,
      "name": "D2",
      "svgX": 77611.4,
      "svgY": 1059.17
    },
    {
      "absoluteTicks": 209734,
      "channel": 13,
      "type": "noteOff",
      "note": 38,
      "velocity": 79,
      "rel": 0.629921,
      "time": 131.08353129050272,
      "name": "D2"
    },
    {
      "absoluteTicks": 209760,
      "channel": 13,
      "type": "noteOn",
      "note": 45,
      "velocity": 79,
      "vel": 0.629921,
      "time": 131.0997810633656,
      "name": "A2",
      "svgX": 77788.27,
      "svgY": 987.28
    },
    {
      "absoluteTicks": 210190,
      "channel": 13,
      "type": "noteOff",
      "note": 74,
      "velocity": 79,
      "rel": 0.629921,
      "time": 131.36853081455354,
      "name": "D5"
    },
    {
      "absoluteTicks": 210214,
      "channel": 13,
      "type": "noteOff",
      "note": 45,
      "velocity": 79,
      "rel": 0.629921,
      "time": 131.38353078950357,
      "name": "A2"
    },
    {
      "absoluteTicks": 210240,
      "channel": 13,
      "type": "noteOn",
      "note": 69,
      "velocity": 79,
      "vel": 0.629921,
      "time": 131.39978056236646,
      "name": "A4",
      "svgX": 77965.14,
      "svgY": 740.79
    },
    {
      "absoluteTicks": 210240,
      "channel": 13,
      "type": "noteOn",
      "note": 50,
      "velocity": 79,
      "vel": 0.629921,
      "time": 131.39978056236646,
      "name": "D3",
      "svgX": 77965.14,
      "svgY": 935.93
    },
    {
      "absoluteTicks": 210694,
      "channel": 13,
      "type": "noteOff",
      "note": 50,
      "velocity": 79,
      "rel": 0.629921,
      "time": 131.68353028850441,
      "name": "D3"
    },
    {
      "absoluteTicks": 210720,
      "channel": 13,
      "type": "noteOn",
      "note": 54,
      "velocity": 79,
      "vel": 0.629921,
      "time": 131.69978006136728,
      "name": "F#3",
      "svgX": 78142.0,
      "svgY": 894.85
    },
    {
      "absoluteTicks": 210922,
      "channel": 13,
      "type": "noteOff",
      "note": 69,
      "velocity": 79,
      "rel": 0.629921,
      "time": 131.8260300505298,
      "name": "A4"
    },
    {
      "absoluteTicks": 210960,
      "channel": 13,
      "type": "noteOn",
      "note": 69,
      "velocity": 79,
      "vel": 0.629921,
      "time": 131.84977981086772,
      "name": "A4",
      "svgX": 78230.44,
      "svgY": 740.79
    },
    {
      "absoluteTicks": 211174,
      "channel": 13,
      "type": "noteOff",
      "note": 54,
      "velocity": 79,
      "rel": 0.629921,
      "time": 131.98352978750523,
      "name": "F#3"
    },
    {
      "absoluteTicks": 211185,
      "channel": 13,
      "type": "noteOff",
      "note": 69,
      "velocity": 79,
      "rel": 0.629921,
      "time": 131.99102917498126,
      "name": "A4"
    },
    {
      "absoluteTicks": 211200,
      "channel": 13,
      "type": "noteOn",
      "note": 74,
      "velocity": 79,
      "vel": 0.629921,
      "time": 131.99977956036813,
      "name": "D5",
      "svgX": 78318.87,
      "svgY": 689.44
    },
    {
      "absoluteTicks": 211200,
      "channel": 13,
      "type": "noteOn",
      "note": 43,
      "velocity": 79,
      "vel": 0.629921,
      "time": 131.99977956036813,
      "name": "G2",
      "svgX": 78318.87,
      "svgY": 1007.82
    },
    {
      "absoluteTicks": 211654,
      "channel": 13,
      "type": "noteOff",
      "note": 74,
      "velocity": 79,
      "rel": 0.629921,
      "time": 132.28352928650608,
      "name": "D5"
    },
    {
      "absoluteTicks": 211654,
      "channel": 13,
      "type": "noteOff",
      "note": 43,
      "velocity": 79,
      "rel": 0.629921,
      "time": 132.28352928650608,
      "name": "G2"
    },
    {
      "absoluteTicks": 211680,
      "channel": 13,
      "type": "noteOn",
      "note": 72,
      "velocity": 79,
      "vel": 0.629921,
      "time": 132.29977905936897,
      "name": "C5",
      "svgX": 78495.74,
      "svgY": 709.98
    },
    {
      "absoluteTicks": 211680,
      "channel": 13,
      "type": "noteOn",
      "note": 50,
      "velocity": 79,
      "vel": 0.629921,
      "time": 132.29977905936897,
      "name": "D3",
      "svgX": 78495.74,
      "svgY": 935.93
    },
    {
      "absoluteTicks": 212134,
      "channel": 13,
      "type": "noteOff",
      "note": 72,
      "velocity": 79,
      "rel": 0.629921,
      "time": 132.58352878550693,
      "name": "C5"
    },
    {
      "absoluteTicks": 212134,
      "channel": 13,
      "type": "noteOff",
      "note": 50,
      "velocity": 79,
      "rel": 0.629921,
      "time": 132.58352878550693,
      "name": "D3"
    },
    {
      "absoluteTicks": 212160,
      "channel": 13,
      "type": "noteOn",
      "note": 71,
      "velocity": 79,
      "vel": 0.629921,
      "time": 132.5997785583698,
      "name": "B4",
      "svgX": 78672.61,
      "svgY": 720.25
    },
    {
      "absoluteTicks": 212160,
      "channel": 13,
      "type": "noteOn",
      "note": 55,
      "velocity": 79,
      "vel": 0.629921,
      "time": 132.5997785583698,
      "name": "G3",
      "svgX": 78672.61,
      "svgY": 884.58
    },
    {
      "absoluteTicks": 212614,
      "channel": 13,
      "type": "noteOff",
      "note": 71,
      "velocity": 79,
      "rel": 0.629921,
      "time": 132.88352828450775,
      "name": "B4"
    },
    {
      "absoluteTicks": 212614,
      "channel": 13,
      "type": "noteOff",
      "note": 55,
      "velocity": 79,
      "rel": 0.629921,
      "time": 132.88352828450775,
      "name": "G3"
    },
    {
      "absoluteTicks": 212640,
      "channel": 13,
      "type": "noteOn",
      "note": 72,
      "velocity": 79,
      "vel": 0.629921,
      "time": 132.89977805737064,
      "name": "C5",
      "svgX": 78849.47,
      "svgY": 709.98
    },
    {
      "absoluteTicks": 212640,
      "channel": 13,
      "type": "noteOn",
      "note": 59,
      "velocity": 79,
      "vel": 0.629921,
      "time": 132.89977805737064,
      "name": "B3",
      "svgX": 78849.47,
      "svgY": 843.5
    },
    {
      "absoluteTicks": 213094,
      "channel": 13,
      "type": "noteOff",
      "note": 72,
      "velocity": 79,
      "rel": 0.629921,
      "time": 133.1835277835086,
      "name": "C5"
    },
    {
      "absoluteTicks": 213094,
      "channel": 13,
      "type": "noteOff",
      "note": 59,
      "velocity": 79,
      "rel": 0.629921,
      "time": 133.1835277835086,
      "name": "B3"
    },
    {
      "absoluteTicks": 213120,
      "channel": 13,
      "type": "noteOn",
      "note": 74,
      "velocity": 79,
      "vel": 0.629921,
      "time": 133.1997775563715,
      "name": "D5",
      "svgX": 79026.34,
      "svgY": 689.44
    },
    {
      "absoluteTicks": 213120,
      "channel": 13,
      "type": "noteOn",
      "note": 45,
      "velocity": 79,
      "vel": 0.629921,
      "time": 133.1997775563715,
      "name": "A2",
      "svgX": 79026.34,
      "svgY": 987.28
    },
    {
      "absoluteTicks": 213574,
      "channel": 13,
      "type": "noteOff",
      "note": 45,
      "velocity": 79,
      "rel": 0.629921,
      "time": 133.4835272825094,
      "name": "A2"
    },
    {
      "absoluteTicks": 213600,
      "channel": 13,
      "type": "noteOn",
      "note": 52,
      "velocity": 79,
      "vel": 0.629921,
      "time": 133.4997770553723,
      "name": "E3",
      "svgX": 79203.21,
      "svgY": 915.39
    },
    {
      "absoluteTicks": 214030,
      "channel": 13,
      "type": "noteOff",
      "note": 74,
      "velocity": 79,
      "rel": 0.629921,
      "time": 133.76852680656023,
      "name": "D5"
    },
    {
      "absoluteTicks": 214054,
      "channel": 13,
      "type": "noteOff",
      "note": 52,
      "velocity": 79,
      "rel": 0.629921,
      "time": 133.78352678151026,
      "name": "E3"
    },
    {
      "absoluteTicks": 214080,
      "channel": 13,
      "type": "noteOn",
      "note": 73,
      "velocity": 79,
      "vel": 0.629921,
      "time": 133.79977655437315,
      "name": "C#5",
      "svgX": 79380.07,
      "svgY": 699.71
    },
    {
      "absoluteTicks": 214080,
      "channel": 13,
      "type": "noteOn",
      "note": 57,
      "velocity": 79,
      "vel": 0.629921,
      "time": 133.79977655437315,
      "name": "A3",
      "svgX": 79380.07,
      "svgY": 864.04
    },
    {
      "absoluteTicks": 214534,
      "channel": 13,
      "type": "noteOff",
      "note": 57,
      "velocity": 79,
      "rel": 0.629921,
      "time": 134.0835262805111,
      "name": "A3"
    },
    {
      "absoluteTicks": 214560,
      "channel": 13,
      "type": "noteOn",
      "note": 61,
      "velocity": 79,
      "vel": 0.629921,
      "time": 134.09977605337397,
      "name": "C#4",
      "svgX": 79556.94,
      "svgY": 822.96
    },
    {
      "absoluteTicks": 214990,
      "channel": 13,
      "type": "noteOff",
      "note": 73,
      "velocity": 79,
      "rel": 0.629921,
      "time": 134.3685258045619,
      "name": "C#5"
    },
    {
      "absoluteTicks": 215014,
      "channel": 13,
      "type": "noteOff",
      "note": 61,
      "velocity": 79,
      "rel": 0.629921,
      "time": 134.38352577951193,
      "name": "C#4"
    },
    {
      "absoluteTicks": 215040,
      "channel": 13,
      "type": "noteOn",
      "note": 81,
      "velocity": 79,
      "vel": 0.629921,
      "time": 134.39977555237482,
      "name": "A5",
      "svgX": 79733.81,
      "svgY": 617.55
    },
    {
      "absoluteTicks": 215040,
      "channel": 13,
      "type": "noteOn",
      "note": 50,
      "velocity": 79,
      "vel": 0.629921,
      "time": 134.39977555237482,
      "name": "D3",
      "svgX": 79733.81,
      "svgY": 935.93
    },
    {
      "absoluteTicks": 215494,
      "channel": 13,
      "type": "noteOff",
      "note": 50,
      "velocity": 79,
      "rel": 0.629921,
      "time": 134.68352527851278,
      "name": "D3"
    },
    {
      "absoluteTicks": 215520,
      "channel": 13,
      "type": "noteOn",
      "note": 57,
      "velocity": 79,
      "vel": 0.629921,
      "time": 134.69977505137567,
      "name": "A3",
      "svgX": 79910.68,
      "svgY": 864.04
    },
    {
      "absoluteTicks": 215974,
      "channel": 13,
      "type": "noteOff",
      "note": 57,
      "velocity": 79,
      "rel": 0.629921,
      "time": 134.98352477751362,
      "name": "A3"
    },
    {
      "absoluteTicks": 216000,
      "channel": 13,
      "type": "noteOn",
      "note": 62,
      "velocity": 79,
      "vel": 0.629921,
      "time": 134.9997745503765,
      "name": "D4",
      "svgX": 80087.54,
      "svgY": 812.69
    },
    {
      "absoluteTicks": 216405,
      "channel": 13,
      "type": "noteOff",
      "note": 81,
      "velocity": 79,
      "rel": 0.629921,
      "time": 135.25352372661536,
      "name": "A5"
    },
    {
      "absoluteTicks": 216454,
      "channel": 13,
      "type": "noteOff",
      "note": 62,
      "velocity": 79,
      "rel": 0.629921,
      "time": 135.28352427651444,
      "name": "D4"
    },
    {
      "absoluteTicks": 216480,
      "channel": 13,
      "type": "noteOn",
      "note": 81,
      "velocity": 79,
      "vel": 0.629921,
      "time": 135.29977404937733,
      "name": "A5",
      "svgX": 80264.41,
      "svgY": 617.55
    },
    {
      "absoluteTicks": 216480,
      "channel": 13,
      "type": "noteOn",
      "note": 66,
      "velocity": 79,
      "vel": 0.629921,
      "time": 135.29977404937733,
      "name": "F#4",
      "svgX": 80264.41,
      "svgY": 771.6
    },
    {
      "absoluteTicks": 216934,
      "channel": 13,
      "type": "noteOff",
      "note": 81,
      "velocity": 79,
      "rel": 0.629921,
      "time": 135.5835237755153,
      "name": "A5"
    },
    {
      "absoluteTicks": 216934,
      "channel": 13,
      "type": "noteOff",
      "note": 66,
      "velocity": 79,
      "rel": 0.629921,
      "time": 135.5835237755153,
      "name": "F#4"
    },
    {
      "absoluteTicks": 216960,
      "channel": 13,
      "type": "noteOn",
      "note": 81,
      "velocity": 79,
      "vel": 0.629921,
      "time": 135.59977354837818,
      "name": "A5",
      "svgX": 80441.28,
      "svgY": 617.55
    },
    {
      "absoluteTicks": 216960,
      "channel": 13,
      "type": "noteOn",
      "note": 45,
      "velocity": 79,
      "vel": 0.629921,
      "time": 135.59977354837818,
      "name": "A2",
      "svgX": 80441.28,
      "svgY": 987.28
    },
    {
      "absoluteTicks": 217414,
      "channel": 13,
      "type": "noteOff",
      "note": 81,
      "velocity": 79,
      "rel": 0.629921,
      "time": 135.8835232745161,
      "name": "A5"
    },
    {
      "absoluteTicks": 217414,
      "channel": 13,
      "type": "noteOff",
      "note": 45,
      "velocity": 79,
      "rel": 0.629921,
      "time": 135.8835232745161,
      "name": "A2"
    },
    {
      "absoluteTicks": 217440,
      "channel": 13,
      "type": "noteOn",
      "note": 83,
      "velocity": 79,
      "vel": 0.629921,
      "time": 135.899773047379,
      "name": "B5",
      "svgX": 80618.15,
      "svgY": 597.01
    },
    {
      "absoluteTicks": 217440,
      "channel": 13,
      "type": "noteOn",
      "note": 52,
      "velocity": 79,
      "vel": 0.629921,
      "time": 135.899773047379,
      "name": "E3",
      "svgX": 80618.15,
      "svgY": 915.39
    },
    {
      "absoluteTicks": 217894,
      "channel": 13,
      "type": "noteOff",
      "note": 83,
      "velocity": 79,
      "rel": 0.629921,
      "time": 136.18352277351696,
      "name": "B5"
    },
    {
      "absoluteTicks": 217894,
      "channel": 13,
      "type": "noteOff",
      "note": 52,
      "velocity": 79,
      "rel": 0.629921,
      "time": 136.18352277351696,
      "name": "E3"
    },
    {
      "absoluteTicks": 217920,
      "channel": 13,
      "type": "noteOn",
      "note": 81,
      "velocity": 79,
      "vel": 0.629921,
      "time": 136.19977254637985,
      "name": "A5",
      "svgX": 80795.01,
      "svgY": 617.55
    },
    {
      "absoluteTicks": 217920,
      "channel": 13,
      "type": "noteOn",
      "note": 57,
      "velocity": 79,
      "vel": 0.629921,
      "time": 136.19977254637985,
      "name": "A3",
      "svgX": 80795.01,
      "svgY": 864.04
    },
    {
      "absoluteTicks": 218374,
      "channel": 13,
      "type": "noteOff",
      "note": 81,
      "velocity": 79,
      "rel": 0.629921,
      "time": 136.4835222725178,
      "name": "A5"
    },
    {
      "absoluteTicks": 218374,
      "channel": 13,
      "type": "noteOff",
      "note": 57,
      "velocity": 79,
      "rel": 0.629921,
      "time": 136.4835222725178,
      "name": "A3"
    },
    {
      "absoluteTicks": 218400,
      "channel": 13,
      "type": "noteOn",
      "note": 79,
      "velocity": 79,
      "vel": 0.629921,
      "time": 136.49977204538067,
      "name": "G5",
      "svgX": 80971.88,
      "svgY": 638.09
    },
    {
      "absoluteTicks": 218400,
      "channel": 13,
      "type": "noteOn",
      "note": 61,
      "velocity": 79,
      "vel": 0.629921,
      "time": 136.49977204538067,
      "name": "C#4",
      "svgX": 80971.88,
      "svgY": 822.96
    },
    {
      "absoluteTicks": 218854,
      "channel": 13,
      "type": "noteOff",
      "note": 79,
      "velocity": 79,
      "rel": 0.629921,
      "time": 136.78352177151862,
      "name": "G5"
    },
    {
      "absoluteTicks": 218854,
      "channel": 13,
      "type": "noteOff",
      "note": 61,
      "velocity": 79,
      "rel": 0.629921,
      "time": 136.78352177151862,
      "name": "C#4"
    },
    {
      "absoluteTicks": 218880,
      "channel": 13,
      "type": "noteOn",
      "note": 78,
      "velocity": 79,
      "vel": 0.629921,
      "time": 136.7997715443815,
      "name": "F#5",
      "svgX": 81148.75,
      "svgY": 648.36
    },
    {
      "absoluteTicks": 218880,
      "channel": 13,
      "type": "noteOn",
      "note": 47,
      "velocity": 79,
      "vel": 0.629921,
      "time": 136.7997715443815,
      "name": "B2",
      "svgX": 81148.75,
      "svgY": 966.74
    },
    {
      "absoluteTicks": 219334,
      "channel": 13,
      "type": "noteOff",
      "note": 47,
      "velocity": 79,
      "rel": 0.629921,
      "time": 137.08352127051947,
      "name": "B2"
    },
    {
      "absoluteTicks": 219360,
      "channel": 13,
      "type": "noteOn",
      "note": 54,
      "velocity": 79,
      "vel": 0.629921,
      "time": 137.09977104338236,
      "name": "F#3",
      "svgX": 81325.61,
      "svgY": 894.85
    },
    {
      "absoluteTicks": 219814,
      "channel": 13,
      "type": "noteOff",
      "note": 54,
      "velocity": 79,
      "rel": 0.629921,
      "time": 137.38352076952032,
      "name": "F#3"
    },
    {
      "absoluteTicks": 219840,
      "channel": 13,
      "type": "noteOn",
      "note": 59,
      "velocity": 79,
      "vel": 0.629921,
      "time": 137.39977054238318,
      "name": "B3",
      "svgX": 81502.48,
      "svgY": 843.5
    },
    {
      "absoluteTicks": 220245,
      "channel": 13,
      "type": "noteOff",
      "note": 78,
      "velocity": 79,
      "rel": 0.629921,
      "time": 137.65351971862205,
      "name": "F#5"
    },
    {
      "absoluteTicks": 220294,
      "channel": 13,
      "type": "noteOff",
      "note": 59,
      "velocity": 79,
      "rel": 0.629921,
      "time": 137.68352026852114,
      "name": "B3"
    },
    {
      "absoluteTicks": 220320,
      "channel": 13,
      "type": "noteOn",
      "note": 78,
      "velocity": 79,
      "vel": 0.629921,
      "time": 137.69977004138403,
      "name": "F#5",
      "svgX": 81679.35,
      "svgY": 648.36
    },
    {
      "absoluteTicks": 220320,
      "channel": 13,
      "type": "noteOn",
      "note": 62,
      "velocity": 79,
      "vel": 0.629921,
      "time": 137.69977004138403,
      "name": "D4",
      "svgX": 81679.35,
      "svgY": 812.69
    },
    {
      "absoluteTicks": 220774,
      "channel": 13,
      "type": "noteOff",
      "note": 78,
      "velocity": 79,
      "rel": 0.629921,
      "time": 137.98351976752198,
      "name": "F#5"
    },
    {
      "absoluteTicks": 220774,
      "channel": 13,
      "type": "noteOff",
      "note": 62,
      "velocity": 79,
      "rel": 0.629921,
      "time": 137.98351976752198,
      "name": "D4"
    },
    {
      "absoluteTicks": 220800,
      "channel": 13,
      "type": "noteOn",
      "note": 78,
      "velocity": 79,
      "vel": 0.629921,
      "time": 137.99976954038488,
      "name": "F#5",
      "svgX": 81856.22,
      "svgY": 648.36
    },
    {
      "absoluteTicks": 220800,
      "channel": 13,
      "type": "noteOn",
      "note": 42,
      "velocity": 79,
      "vel": 0.629921,
      "time": 137.99976954038488,
      "name": "F#2",
      "svgX": 81856.22,
      "svgY": 1018.09
    },
    {
      "absoluteTicks": 221254,
      "channel": 13,
      "type": "noteOff",
      "note": 78,
      "velocity": 79,
      "rel": 0.629921,
      "time": 138.2835192665228,
      "name": "F#5"
    },
    {
      "absoluteTicks": 221254,
      "channel": 13,
      "type": "noteOff",
      "note": 42,
      "velocity": 79,
      "rel": 0.629921,
      "time": 138.2835192665228,
      "name": "F#2"
    },
    {
      "absoluteTicks": 221280,
      "channel": 13,
      "type": "noteOn",
      "note": 79,
      "velocity": 79,
      "vel": 0.629921,
      "time": 138.2997690393857,
      "name": "G5",
      "svgX": 82033.08,
      "svgY": 638.09
    },
    {
      "absoluteTicks": 221280,
      "channel": 13,
      "type": "noteOn",
      "note": 49,
      "velocity": 79,
      "vel": 0.629921,
      "time": 138.2997690393857,
      "name": "C#3",
      "svgX": 82033.08,
      "svgY": 946.2
    },
    {
      "absoluteTicks": 221734,
      "channel": 13,
      "type": "noteOff",
      "note": 79,
      "velocity": 79,
      "rel": 0.629921,
      "time": 138.58351876552365,
      "name": "G5"
    },
    {
      "absoluteTicks": 221734,
      "channel": 13,
      "type": "noteOff",
      "note": 49,
      "velocity": 79,
      "rel": 0.629921,
      "time": 138.58351876552365,
      "name": "C#3"
    },
    {
      "absoluteTicks": 221760,
      "channel": 13,
      "type": "noteOn",
      "note": 78,
      "velocity": 79,
      "vel": 0.629921,
      "time": 138.59976853838654,
      "name": "F#5",
      "svgX": 82209.95,
      "svgY": 648.36
    },
    {
      "absoluteTicks": 221760,
      "channel": 13,
      "type": "noteOn",
      "note": 54,
      "velocity": 79,
      "vel": 0.629921,
      "time": 138.59976853838654,
      "name": "F#3",
      "svgX": 82209.95,
      "svgY": 894.85
    },
    {
      "absoluteTicks": 222214,
      "channel": 13,
      "type": "noteOff",
      "note": 78,
      "velocity": 79,
      "rel": 0.629921,
      "time": 138.8835182645245,
      "name": "F#5"
    },
    {
      "absoluteTicks": 222214,
      "channel": 13,
      "type": "noteOff",
      "note": 54,
      "velocity": 79,
      "rel": 0.629921,
      "time": 138.8835182645245,
      "name": "F#3"
    },
    {
      "absoluteTicks": 222240,
      "channel": 13,
      "type": "noteOn",
      "note": 76,
      "velocity": 79,
      "vel": 0.629921,
      "time": 138.89976803738736,
      "name": "E5",
      "svgX": 82386.82,
      "svgY": 668.9
    },
    {
      "absoluteTicks": 222240,
      "channel": 13,
      "type": "noteOn",
      "note": 57,
      "velocity": 79,
      "vel": 0.629921,
      "time": 138.89976803738736,
      "name": "A3",
      "svgX": 82386.82,
      "svgY": 864.04
    },
    {
      "absoluteTicks": 222694,
      "channel": 13,
      "type": "noteOff",
      "note": 76,
      "velocity": 79,
      "rel": 0.629921,
      "time": 139.18351776352532,
      "name": "E5"
    },
    {
      "absoluteTicks": 222694,
      "channel": 13,
      "type": "noteOff",
      "note": 57,
      "velocity": 79,
      "rel": 0.629921,
      "time": 139.18351776352532,
      "name": "A3"
    },
    {
      "absoluteTicks": 222720,
      "channel": 13,
      "type": "noteOn",
      "note": 74,
      "velocity": 79,
      "vel": 0.629921,
      "time": 139.1997675363882,
      "name": "D5",
      "svgX": 82563.69,
      "svgY": 689.44
    },
    {
      "absoluteTicks": 222720,
      "channel": 13,
      "type": "noteOn",
      "note": 43,
      "velocity": 79,
      "vel": 0.629921,
      "time": 139.1997675363882,
      "name": "G2",
      "svgX": 82563.69,
      "svgY": 1007.82
    },
    {
      "absoluteTicks": 223174,
      "channel": 13,
      "type": "noteOff",
      "note": 74,
      "velocity": 79,
      "rel": 0.629921,
      "time": 139.48351726252616,
      "name": "D5"
    },
    {
      "absoluteTicks": 223174,
      "channel": 13,
      "type": "noteOff",
      "note": 43,
      "velocity": 79,
      "rel": 0.629921,
      "time": 139.48351726252616,
      "name": "G2"
    },
    {
      "absoluteTicks": 223200,
      "channel": 13,
      "type": "noteOn",
      "note": 72,
      "velocity": 79,
      "vel": 0.629921,
      "time": 139.49976703538906,
      "name": "C5",
      "svgX": 82740.55,
      "svgY": 709.98
    },
    {
      "absoluteTicks": 223200,
      "channel": 13,
      "type": "noteOn",
      "note": 50,
      "velocity": 79,
      "vel": 0.629921,
      "time": 139.49976703538906,
      "name": "D3",
      "svgX": 82740.55,
      "svgY": 935.93
    },
    {
      "absoluteTicks": 223654,
      "channel": 13,
      "type": "noteOff",
      "note": 72,
      "velocity": 79,
      "rel": 0.629921,
      "time": 139.78351676152698,
      "name": "C5"
    },
    {
      "absoluteTicks": 223654,
      "channel": 13,
      "type": "noteOff",
      "note": 50,
      "velocity": 79,
      "rel": 0.629921,
      "time": 139.78351676152698,
      "name": "D3"
    },
    {
      "absoluteTicks": 223680,
      "channel": 13,
      "type": "noteOn",
      "note": 71,
      "velocity": 79,
      "vel": 0.629921,
      "time": 139.79976653438987,
      "name": "B4",
      "svgX": 82917.42,
      "svgY": 720.25
    },
    {
      "absoluteTicks": 223680,
      "channel": 13,
      "type": "noteOn",
      "note": 55,
      "velocity": 79,
      "vel": 0.629921,
      "time": 139.79976653438987,
      "name": "G3",
      "svgX": 82917.42,
      "svgY": 884.58
    },
    {
      "absoluteTicks": 224134,
      "channel": 13,
      "type": "noteOff",
      "note": 71,
      "velocity": 79,
      "rel": 0.629921,
      "time": 140.08351626052783,
      "name": "B4"
    },
    {
      "absoluteTicks": 224134,
      "channel": 13,
      "type": "noteOff",
      "note": 55,
      "velocity": 79,
      "rel": 0.629921,
      "time": 140.08351626052783,
      "name": "G3"
    },
    {
      "absoluteTicks": 224160,
      "channel": 13,
      "type": "noteOn",
      "note": 72,
      "velocity": 79,
      "vel": 0.629921,
      "time": 140.09976603339072,
      "name": "C5",
      "svgX": 83094.29,
      "svgY": 709.98
    },
    {
      "absoluteTicks": 224160,
      "channel": 13,
      "type": "noteOn",
      "note": 59,
      "velocity": 79,
      "vel": 0.629921,
      "time": 140.09976603339072,
      "name": "B3",
      "svgX": 83094.29,
      "svgY": 843.5
    },
    {
      "absoluteTicks": 224614,
      "channel": 13,
      "type": "noteOff",
      "note": 72,
      "velocity": 79,
      "rel": 0.629921,
      "time": 140.38351575952868,
      "name": "C5"
    },
    {
      "absoluteTicks": 224614,
      "channel": 13,
      "type": "noteOff",
      "note": 59,
      "velocity": 79,
      "rel": 0.629921,
      "time": 140.38351575952868,
      "name": "B3"
    },
    {
      "absoluteTicks": 224640,
      "channel": 13,
      "type": "noteOn",
      "note": 74,
      "velocity": 79,
      "vel": 0.629921,
      "time": 140.39976553239154,
      "name": "D5",
      "svgX": 83271.16,
      "svgY": 689.44
    },
    {
      "absoluteTicks": 224640,
      "channel": 13,
      "type": "noteOn",
      "note": 38,
      "velocity": 79,
      "vel": 0.629921,
      "time": 140.39976553239154,
      "name": "D2",
      "svgX": 83271.16,
      "svgY": 1059.17
    },
    {
      "absoluteTicks": 225094,
      "channel": 13,
      "type": "noteOff",
      "note": 38,
      "velocity": 79,
      "rel": 0.629921,
      "time": 140.6835152585295,
      "name": "D2"
    },
    {
      "absoluteTicks": 225120,
      "channel": 13,
      "type": "noteOn",
      "note": 45,
      "velocity": 79,
      "vel": 0.629921,
      "time": 140.6997650313924,
      "name": "A2",
      "svgX": 83448.02,
      "svgY": 987.28
    },
    {
      "absoluteTicks": 225550,
      "channel": 13,
      "type": "noteOff",
      "note": 74,
      "velocity": 79,
      "rel": 0.629921,
      "time": 140.9685147825803,
      "name": "D5"
    },
    {
      "absoluteTicks": 225574,
      "channel": 13,
      "type": "noteOff",
      "note": 45,
      "velocity": 79,
      "rel": 0.629921,
      "time": 140.98351475753034,
      "name": "A2"
    },
    {
      "absoluteTicks": 225600,
      "channel": 13,
      "type": "noteOn",
      "note": 69,
      "velocity": 79,
      "vel": 0.629921,
      "time": 140.99976453039324,
      "name": "A4",
      "svgX": 83624.89,
      "svgY": 740.79
    },
    {
      "absoluteTicks": 225600,
      "channel": 13,
      "type": "noteOn",
      "note": 50,
      "velocity": 79,
      "vel": 0.629921,
      "time": 140.99976453039324,
      "name": "D3",
      "svgX": 83624.89,
      "svgY": 935.93
    },
    {
      "absoluteTicks": 226054,
      "channel": 13,
      "type": "noteOff",
      "note": 50,
      "velocity": 79,
      "rel": 0.629921,
      "time": 141.2835142565312,
      "name": "D3"
    },
    {
      "absoluteTicks": 226080,
      "channel": 13,
      "type": "noteOn",
      "note": 54,
      "velocity": 79,
      "vel": 0.629921,
      "time": 141.29976402939405,
      "name": "F#3",
      "svgX": 83801.76,
      "svgY": 894.85
    },
    {
      "absoluteTicks": 226282,
      "channel": 13,
      "type": "noteOff",
      "note": 69,
      "velocity": 79,
      "rel": 0.629921,
      "time": 141.42601401855657,
      "name": "A4"
    },
    {
      "absoluteTicks": 226320,
      "channel": 13,
      "type": "noteOn",
      "note": 69,
      "velocity": 79,
      "vel": 0.629921,
      "time": 141.4497637788945,
      "name": "A4",
      "svgX": 83890.19,
      "svgY": 740.79
    },
    {
      "absoluteTicks": 226534,
      "channel": 13,
      "type": "noteOff",
      "note": 54,
      "velocity": 79,
      "rel": 0.629921,
      "time": 141.583513755532,
      "name": "F#3"
    },
    {
      "absoluteTicks": 226545,
      "channel": 13,
      "type": "noteOff",
      "note": 69,
      "velocity": 79,
      "rel": 0.629921,
      "time": 141.59101314300804,
      "name": "A4"
    },
    {
      "absoluteTicks": 226560,
      "channel": 13,
      "type": "noteOn",
      "note": 74,
      "velocity": 79,
      "vel": 0.629921,
      "time": 141.5997635283949,
      "name": "D5",
      "svgX": 83978.62,
      "svgY": 689.44
    },
    {
      "absoluteTicks": 226560,
      "channel": 13,
      "type": "noteOn",
      "note": 43,
      "velocity": 79,
      "vel": 0.629921,
      "time": 141.5997635283949,
      "name": "G2",
      "svgX": 83978.62,
      "svgY": 1007.82
    },
    {
      "absoluteTicks": 227014,
      "channel": 13,
      "type": "noteOff",
      "note": 74,
      "velocity": 79,
      "rel": 0.629921,
      "time": 141.88351325453286,
      "name": "D5"
    },
    {
      "absoluteTicks": 227014,
      "channel": 13,
      "type": "noteOff",
      "note": 43,
      "velocity": 79,
      "rel": 0.629921,
      "time": 141.88351325453286,
      "name": "G2"
    },
    {
      "absoluteTicks": 227040,
      "channel": 13,
      "type": "noteOn",
      "note": 72,
      "velocity": 79,
      "vel": 0.629921,
      "time": 141.89976302739575,
      "name": "C5",
      "svgX": 84155.49,
      "svgY": 709.98
    },
    {
      "absoluteTicks": 227040,
      "channel": 13,
      "type": "noteOn",
      "note": 50,
      "velocity": 79,
      "vel": 0.629921,
      "time": 141.89976302739575,
      "name": "D3",
      "svgX": 84155.49,
      "svgY": 935.93
    },
    {
      "absoluteTicks": 227494,
      "channel": 13,
      "type": "noteOff",
      "note": 72,
      "velocity": 79,
      "rel": 0.629921,
      "time": 142.18351275353368,
      "name": "C5"
    },
    {
      "absoluteTicks": 227494,
      "channel": 13,
      "type": "noteOff",
      "note": 50,
      "velocity": 79,
      "rel": 0.629921,
      "time": 142.18351275353368,
      "name": "D3"
    },
    {
      "absoluteTicks": 227520,
      "channel": 13,
      "type": "noteOn",
      "note": 71,
      "velocity": 79,
      "vel": 0.629921,
      "time": 142.19976252639657,
      "name": "B4",
      "svgX": 84332.36,
      "svgY": 720.25
    },
    {
      "absoluteTicks": 227520,
      "channel": 13,
      "type": "noteOn",
      "note": 55,
      "velocity": 79,
      "vel": 0.629921,
      "time": 142.19976252639657,
      "name": "G3",
      "svgX": 84332.36,
      "svgY": 884.58
    },
    {
      "absoluteTicks": 227974,
      "channel": 13,
      "type": "noteOff",
      "note": 71,
      "velocity": 79,
      "rel": 0.629921,
      "time": 142.48351225253452,
      "name": "B4"
    },
    {
      "absoluteTicks": 227974,
      "channel": 13,
      "type": "noteOff",
      "note": 55,
      "velocity": 79,
      "rel": 0.629921,
      "time": 142.48351225253452,
      "name": "G3"
    },
    {
      "absoluteTicks": 228000,
      "channel": 13,
      "type": "noteOn",
      "note": 72,
      "velocity": 79,
      "vel": 0.629921,
      "time": 142.49976202539742,
      "name": "C5",
      "svgX": 84509.23,
      "svgY": 709.98
    },
    {
      "absoluteTicks": 228000,
      "channel": 13,
      "type": "noteOn",
      "note": 59,
      "velocity": 79,
      "vel": 0.629921,
      "time": 142.49976202539742,
      "name": "B3",
      "svgX": 84509.23,
      "svgY": 843.5
    },
    {
      "absoluteTicks": 228454,
      "channel": 13,
      "type": "noteOff",
      "note": 72,
      "velocity": 79,
      "rel": 0.629921,
      "time": 142.78351175153537,
      "name": "C5"
    },
    {
      "absoluteTicks": 228454,
      "channel": 13,
      "type": "noteOff",
      "note": 59,
      "velocity": 79,
      "rel": 0.629921,
      "time": 142.78351175153537,
      "name": "B3"
    },
    {
      "absoluteTicks": 228480,
      "channel": 13,
      "type": "noteOn",
      "note": 74,
      "velocity": 79,
      "vel": 0.629921,
      "time": 142.79976152439824,
      "name": "D5",
      "svgX": 84686.09,
      "svgY": 689.44
    },
    {
      "absoluteTicks": 228480,
      "channel": 13,
      "type": "noteOn",
      "note": 45,
      "velocity": 79,
      "vel": 0.629921,
      "time": 142.79976152439824,
      "name": "A2",
      "svgX": 84686.09,
      "svgY": 987.28
    },
    {
      "absoluteTicks": 228934,
      "channel": 13,
      "type": "noteOff",
      "note": 45,
      "velocity": 79,
      "rel": 0.629921,
      "time": 143.0835112505362,
      "name": "A2"
    },
    {
      "absoluteTicks": 228960,
      "channel": 13,
      "type": "noteOn",
      "note": 52,
      "velocity": 79,
      "vel": 0.629921,
      "time": 143.09976102339908,
      "name": "E3",
      "svgX": 84862.96,
      "svgY": 915.39
    },
    {
      "absoluteTicks": 229414,
      "channel": 13,
      "type": "noteOff",
      "note": 52,
      "velocity": 79,
      "rel": 0.629921,
      "time": 143.38351074953704,
      "name": "E3"
    },
    {
      "absoluteTicks": 229440,
      "channel": 13,
      "type": "noteOn",
      "note": 57,
      "velocity": 79,
      "vel": 0.629921,
      "time": 143.39976052239993,
      "name": "A3",
      "svgX": 85039.83,
      "svgY": 864.04
    },
    {
      "absoluteTicks": 229845,
      "channel": 13,
      "type": "noteOff",
      "note": 74,
      "velocity": 79,
      "rel": 0.629921,
      "time": 143.6535096986388,
      "name": "D5"
    },
    {
      "absoluteTicks": 229894,
      "channel": 13,
      "type": "noteOff",
      "note": 57,
      "velocity": 79,
      "rel": 0.629921,
      "time": 143.68351024853789,
      "name": "A3"
    },
    {
      "absoluteTicks": 229920,
      "channel": 13,
      "type": "noteOn",
      "note": 73,
      "velocity": 79,
      "vel": 0.629921,
      "time": 143.69976002140075,
      "name": "C#5",
      "svgX": 85216.7,
      "svgY": 699.71
    },
    {
      "absoluteTicks": 229920,
      "channel": 13,
      "type": "noteOn",
      "note": 61,
      "velocity": 79,
      "vel": 0.629921,
      "time": 143.69976002140075,
      "name": "C#4",
      "svgX": 85216.7,
      "svgY": 822.96
    },
    {
      "absoluteTicks": 230374,
      "channel": 13,
      "type": "noteOff",
      "note": 73,
      "velocity": 79,
      "rel": 0.629921,
      "time": 143.9835097475387,
      "name": "C#5"
    },
    {
      "absoluteTicks": 230374,
      "channel": 13,
      "type": "noteOff",
      "note": 61,
      "velocity": 79,
      "rel": 0.629921,
      "time": 143.9835097475387,
      "name": "C#4"
    },
    {
      "absoluteTicks": 230400,
      "channel": 13,
      "type": "noteOn",
      "note": 78,
      "velocity": 79,
      "vel": 0.629921,
      "time": 143.9997595204016,
      "name": "F#5",
      "svgX": 85393.56,
      "svgY": 648.36
    },
    {
      "absoluteTicks": 230400,
      "channel": 13,
      "type": "noteOn",
      "note": 50,
      "velocity": 79,
      "vel": 0.629921,
      "time": 143.9997595204016,
      "name": "D3",
      "svgX": 85393.56,
      "svgY": 935.93
    },
    {
      "absoluteTicks": 230854,
      "channel": 13,
      "type": "noteOff",
      "note": 78,
      "velocity": 79,
      "rel": 0.629921,
      "time": 144.28350924653955,
      "name": "F#5"
    },
    {
      "absoluteTicks": 230854,
      "channel": 13,
      "type": "noteOff",
      "note": 50,
      "velocity": 79,
      "rel": 0.629921,
      "time": 144.28350924653955,
      "name": "D3"
    },
    {
      "absoluteTicks": 230880,
      "channel": 13,
      "type": "noteOn",
      "note": 66,
      "velocity": 79,
      "vel": 0.629921,
      "time": 144.29975901940244,
      "name": "F#4",
      "svgX": 85570.43,
      "svgY": 771.6
    },
    {
      "absoluteTicks": 230880,
      "channel": 13,
      "type": "noteOn",
      "note": 57,
      "velocity": 79,
      "vel": 0.629921,
      "time": 144.29975901940244,
      "name": "A3",
      "svgX": 85570.43,
      "svgY": 864.04
    },
    {
      "absoluteTicks": 231334,
      "channel": 13,
      "type": "noteOff",
      "note": 66,
      "velocity": 79,
      "rel": 0.629921,
      "time": 144.58350874554037,
      "name": "F#4"
    },
    {
      "absoluteTicks": 231334,
      "channel": 13,
      "type": "noteOff",
      "note": 57,
      "velocity": 79,
      "rel": 0.629921,
      "time": 144.58350874554037,
      "name": "A3"
    },
    {
      "absoluteTicks": 231360,
      "channel": 13,
      "type": "noteOn",
      "note": 67,
      "velocity": 79,
      "vel": 0.629921,
      "time": 144.59975851840326,
      "name": "G4",
      "svgX": 85747.3,
      "svgY": 761.33
    },
    {
      "absoluteTicks": 231360,
      "channel": 13,
      "type": "noteOn",
      "note": 62,
      "velocity": 79,
      "vel": 0.629921,
      "time": 144.59975851840326,
      "name": "D4",
      "svgX": 85747.3,
      "svgY": 812.69
    },
    {
      "absoluteTicks": 231814,
      "channel": 13,
      "type": "noteOff",
      "note": 67,
      "velocity": 79,
      "rel": 0.629921,
      "time": 144.88350824454122,
      "name": "G4"
    },
    {
      "absoluteTicks": 231814,
      "channel": 13,
      "type": "noteOff",
      "note": 62,
      "velocity": 79,
      "rel": 0.629921,
      "time": 144.88350824454122,
      "name": "D4"
    },
    {
      "absoluteTicks": 231840,
      "channel": 13,
      "type": "noteOn",
      "note": 66,
      "velocity": 79,
      "vel": 0.629921,
      "time": 144.8997580174041,
      "name": "F#4",
      "svgX": 85924.17,
      "svgY": 771.6
    },
    {
      "absoluteTicks": 231840,
      "channel": 13,
      "type": "noteOn",
      "note": 66,
      "velocity": 79,
      "vel": 0.629921,
      "time": 144.8997580174041,
      "name": "F#4",
      "svgX": 85924.17,
      "svgY": 771.6
    },
    {
      "absoluteTicks": 232080,
      "channel": 13,
      "type": "noteOff",
      "note": 66,
      "velocity": 79,
      "rel": 0.629921,
      "time": 145.04975776690452,
      "name": "F#4"
    },
    {
      "absoluteTicks": 232294,
      "channel": 13,
      "type": "noteOff",
      "note": 66,
      "velocity": 79,
      "rel": 0.629921,
      "time": 145.18350774354207,
      "name": "F#4"
    },
    {
      "absoluteTicks": 232320,
      "channel": 13,
      "type": "noteOn",
      "note": 64,
      "velocity": 79,
      "vel": 0.629921,
      "time": 145.19975751640493,
      "name": "E4",
      "svgX": 86101.03,
      "svgY": 792.15
    },
    {
      "absoluteTicks": 232320,
      "channel": 13,
      "type": "noteOn",
      "note": 45,
      "velocity": 79,
      "vel": 0.629921,
      "time": 145.19975751640493,
      "name": "A2",
      "svgX": 86101.03,
      "svgY": 987.28
    },
    {
      "absoluteTicks": 232774,
      "channel": 13,
      "type": "noteOff",
      "note": 64,
      "velocity": 79,
      "rel": 0.629921,
      "time": 145.48350724254288,
      "name": "E4"
    },
    {
      "absoluteTicks": 232774,
      "channel": 13,
      "type": "noteOff",
      "note": 45,
      "velocity": 79,
      "rel": 0.629921,
      "time": 145.48350724254288,
      "name": "A2"
    },
    {
      "absoluteTicks": 232800,
      "channel": 13,
      "type": "noteOn",
      "note": 76,
      "velocity": 79,
      "vel": 0.629921,
      "time": 145.49975701540578,
      "name": "E5",
      "svgX": 86277.9,
      "svgY": 668.9
    },
    {
      "absoluteTicks": 232800,
      "channel": 13,
      "type": "noteOn",
      "note": 52,
      "velocity": 79,
      "vel": 0.629921,
      "time": 145.49975701540578,
      "name": "E3",
      "svgX": 86277.9,
      "svgY": 915.39
    },
    {
      "absoluteTicks": 233254,
      "channel": 13,
      "type": "noteOff",
      "note": 76,
      "velocity": 79,
      "rel": 0.629921,
      "time": 145.78350674154373,
      "name": "E5"
    },
    {
      "absoluteTicks": 233254,
      "channel": 13,
      "type": "noteOff",
      "note": 52,
      "velocity": 79,
      "rel": 0.629921,
      "time": 145.78350674154373,
      "name": "E3"
    },
    {
      "absoluteTicks": 233280,
      "channel": 13,
      "type": "noteOn",
      "note": 78,
      "velocity": 79,
      "vel": 0.629921,
      "time": 145.79975651440662,
      "name": "F#5",
      "svgX": 86454.77,
      "svgY": 648.36
    },
    {
      "absoluteTicks": 233280,
      "channel": 13,
      "type": "noteOn",
      "note": 57,
      "velocity": 79,
      "vel": 0.629921,
      "time": 145.79975651440662,
      "name": "A3",
      "svgX": 86454.77,
      "svgY": 864.04
    },
    {
      "absoluteTicks": 233734,
      "channel": 13,
      "type": "noteOff",
      "note": 78,
      "velocity": 79,
      "rel": 0.629921,
      "time": 146.08350624054458,
      "name": "F#5"
    },
    {
      "absoluteTicks": 233734,
      "channel": 13,
      "type": "noteOff",
      "note": 57,
      "velocity": 79,
      "rel": 0.629921,
      "time": 146.08350624054458,
      "name": "A3"
    },
    {
      "absoluteTicks": 233760,
      "channel": 13,
      "type": "noteOn",
      "note": 76,
      "velocity": 79,
      "vel": 0.629921,
      "time": 146.09975601340744,
      "name": "E5",
      "svgX": 86631.63,
      "svgY": 668.9
    },
    {
      "absoluteTicks": 233760,
      "channel": 13,
      "type": "noteOn",
      "note": 61,
      "velocity": 79,
      "vel": 0.629921,
      "time": 146.09975601340744,
      "name": "C#4",
      "svgX": 86631.63,
      "svgY": 822.96
    },
    {
      "absoluteTicks": 234214,
      "channel": 13,
      "type": "noteOff",
      "note": 76,
      "velocity": 79,
      "rel": 0.629921,
      "time": 146.3835057395454,
      "name": "E5"
    },
    {
      "absoluteTicks": 234214,
      "channel": 13,
      "type": "noteOff",
      "note": 61,
      "velocity": 79,
      "rel": 0.629921,
      "time": 146.3835057395454,
      "name": "C#4"
    },
    {
      "absoluteTicks": 234240,
      "channel": 13,
      "type": "noteOn",
      "note": 74,
      "velocity": 79,
      "vel": 0.629921,
      "time": 146.3997555124083,
      "name": "D5",
      "svgX": 86808.5,
      "svgY": 689.44
    },
    {
      "absoluteTicks": 234240,
      "channel": 13,
      "type": "noteOn",
      "note": 47,
      "velocity": 79,
      "vel": 0.629921,
      "time": 146.3997555124083,
      "name": "B2",
      "svgX": 86808.5,
      "svgY": 966.74
    },
    {
      "absoluteTicks": 234694,
      "channel": 13,
      "type": "noteOff",
      "note": 74,
      "velocity": 79,
      "rel": 0.629921,
      "time": 146.68350523854625,
      "name": "D5"
    },
    {
      "absoluteTicks": 234694,
      "channel": 13,
      "type": "noteOff",
      "note": 47,
      "velocity": 79,
      "rel": 0.629921,
      "time": 146.68350523854625,
      "name": "B2"
    },
    {
      "absoluteTicks": 234720,
      "channel": 13,
      "type": "noteOn",
      "note": 66,
      "velocity": 79,
      "vel": 0.629921,
      "time": 146.69975501140914,
      "name": "F#4",
      "svgX": 86985.37,
      "svgY": 771.6
    },
    {
      "absoluteTicks": 234720,
      "channel": 13,
      "type": "noteOn",
      "note": 54,
      "velocity": 79,
      "vel": 0.629921,
      "time": 146.69975501140914,
      "name": "F#3",
      "svgX": 86985.37,
      "svgY": 894.85
    },
    {
      "absoluteTicks": 235174,
      "channel": 13,
      "type": "noteOff",
      "note": 66,
      "velocity": 79,
      "rel": 0.629921,
      "time": 146.98350473754707,
      "name": "F#4"
    },
    {
      "absoluteTicks": 235174,
      "channel": 13,
      "type": "noteOff",
      "note": 54,
      "velocity": 79,
      "rel": 0.629921,
      "time": 146.98350473754707,
      "name": "F#3"
    },
    {
      "absoluteTicks": 235200,
      "channel": 13,
      "type": "noteOn",
      "note": 74,
      "velocity": 79,
      "vel": 0.629921,
      "time": 146.99975451040996,
      "name": "D5",
      "svgX": 87162.24,
      "svgY": 689.44
    },
    {
      "absoluteTicks": 235200,
      "channel": 13,
      "type": "noteOn",
      "note": 59,
      "velocity": 79,
      "vel": 0.629921,
      "time": 146.99975451040996,
      "name": "B3",
      "svgX": 87162.24,
      "svgY": 843.5
    },
    {
      "absoluteTicks": 235654,
      "channel": 13,
      "type": "noteOff",
      "note": 74,
      "velocity": 79,
      "rel": 0.629921,
      "time": 147.2835042365479,
      "name": "D5"
    },
    {
      "absoluteTicks": 235654,
      "channel": 13,
      "type": "noteOff",
      "note": 59,
      "velocity": 79,
      "rel": 0.629921,
      "time": 147.2835042365479,
      "name": "B3"
    },
    {
      "absoluteTicks": 235680,
      "channel": 13,
      "type": "noteOn",
      "note": 71,
      "velocity": 79,
      "vel": 0.629921,
      "time": 147.2997540094108,
      "name": "B4",
      "svgX": 87339.1,
      "svgY": 720.25
    },
    {
      "absoluteTicks": 235680,
      "channel": 13,
      "type": "noteOn",
      "note": 62,
      "velocity": 79,
      "vel": 0.629921,
      "time": 147.2997540094108,
      "name": "D4",
      "svgX": 87339.1,
      "svgY": 812.69
    },
    {
      "absoluteTicks": 236134,
      "channel": 13,
      "type": "noteOff",
      "note": 71,
      "velocity": 79,
      "rel": 0.629921,
      "time": 147.58350373554876,
      "name": "B4"
    },
    {
      "absoluteTicks": 236134,
      "channel": 13,
      "type": "noteOff",
      "note": 62,
      "velocity": 79,
      "rel": 0.629921,
      "time": 147.58350373554876,
      "name": "D4"
    },
    {
      "absoluteTicks": 236160,
      "channel": 13,
      "type": "noteOn",
      "note": 69,
      "velocity": 79,
      "vel": 0.629921,
      "time": 147.59975350841162,
      "name": "A4",
      "svgX": 87515.97,
      "svgY": 740.79
    },
    {
      "absoluteTicks": 236160,
      "channel": 13,
      "type": "noteOn",
      "note": 42,
      "velocity": 79,
      "vel": 0.629921,
      "time": 147.59975350841162,
      "name": "F#2",
      "svgX": 87515.97,
      "svgY": 1018.09
    },
    {
      "absoluteTicks": 236614,
      "channel": 13,
      "type": "noteOff",
      "note": 69,
      "velocity": 79,
      "rel": 0.629921,
      "time": 147.88350323454958,
      "name": "A4"
    },
    {
      "absoluteTicks": 236614,
      "channel": 13,
      "type": "noteOff",
      "note": 42,
      "velocity": 79,
      "rel": 0.629921,
      "time": 147.88350323454958,
      "name": "F#2"
    },
    {
      "absoluteTicks": 236640,
      "channel": 13,
      "type": "noteOn",
      "note": 69,
      "velocity": 79,
      "vel": 0.629921,
      "time": 147.89975300741247,
      "name": "A4",
      "svgX": 87692.84,
      "svgY": 740.79
    },
    {
      "absoluteTicks": 236640,
      "channel": 13,
      "type": "noteOn",
      "note": 49,
      "velocity": 79,
      "vel": 0.629921,
      "time": 147.89975300741247,
      "name": "C#3",
      "svgX": 87692.84,
      "svgY": 946.2
    },
    {
      "absoluteTicks": 237094,
      "channel": 13,
      "type": "noteOff",
      "note": 69,
      "velocity": 79,
      "rel": 0.629921,
      "time": 148.18350273355043,
      "name": "A4"
    },
    {
      "absoluteTicks": 237094,
      "channel": 13,
      "type": "noteOff",
      "note": 49,
      "velocity": 79,
      "rel": 0.629921,
      "time": 148.18350273355043,
      "name": "C#3"
    },
    {
      "absoluteTicks": 237120,
      "channel": 13,
      "type": "noteOn",
      "note": 67,
      "velocity": 79,
      "vel": 0.629921,
      "time": 148.19975250641332,
      "name": "G4",
      "svgX": 87869.71,
      "svgY": 761.33
    },
    {
      "absoluteTicks": 237120,
      "channel": 13,
      "type": "noteOn",
      "note": 54,
      "velocity": 79,
      "vel": 0.629921,
      "time": 148.19975250641332,
      "name": "F#3",
      "svgX": 87869.71,
      "svgY": 894.85
    },
    {
      "absoluteTicks": 237574,
      "channel": 13,
      "type": "noteOff",
      "note": 67,
      "velocity": 79,
      "rel": 0.629921,
      "time": 148.48350223255125,
      "name": "G4"
    },
    {
      "absoluteTicks": 237574,
      "channel": 13,
      "type": "noteOff",
      "note": 54,
      "velocity": 79,
      "rel": 0.629921,
      "time": 148.48350223255125,
      "name": "F#3"
    },
    {
      "absoluteTicks": 237600,
      "channel": 13,
      "type": "noteOn",
      "note": 69,
      "velocity": 79,
      "vel": 0.629921,
      "time": 148.49975200541414,
      "name": "A4",
      "svgX": 88046.57,
      "svgY": 740.79
    },
    {
      "absoluteTicks": 237600,
      "channel": 13,
      "type": "noteOn",
      "note": 57,
      "velocity": 79,
      "vel": 0.629921,
      "time": 148.49975200541414,
      "name": "A3",
      "svgX": 88046.57,
      "svgY": 864.04
    },
    {
      "absoluteTicks": 238054,
      "channel": 13,
      "type": "noteOff",
      "note": 69,
      "velocity": 79,
      "rel": 0.629921,
      "time": 148.7835017315521,
      "name": "A4"
    },
    {
      "absoluteTicks": 238054,
      "channel": 13,
      "type": "noteOff",
      "note": 57,
      "velocity": 79,
      "rel": 0.629921,
      "time": 148.7835017315521,
      "name": "A3"
    },
    {
      "absoluteTicks": 238080,
      "channel": 13,
      "type": "noteOn",
      "note": 71,
      "velocity": 79,
      "vel": 0.629921,
      "time": 148.79975150441498,
      "name": "B4",
      "svgX": 88223.44,
      "svgY": 720.25
    },
    {
      "absoluteTicks": 238080,
      "channel": 13,
      "type": "noteOn",
      "note": 43,
      "velocity": 79,
      "vel": 0.629921,
      "time": 148.79975150441498,
      "name": "G2",
      "svgX": 88223.44,
      "svgY": 1007.82
    },
    {
      "absoluteTicks": 238534,
      "channel": 13,
      "type": "noteOff",
      "note": 71,
      "velocity": 79,
      "rel": 0.629921,
      "time": 149.08350123055294,
      "name": "B4"
    },
    {
      "absoluteTicks": 238534,
      "channel": 13,
      "type": "noteOff",
      "note": 43,
      "velocity": 79,
      "rel": 0.629921,
      "time": 149.08350123055294,
      "name": "G2"
    },
    {
      "absoluteTicks": 238560,
      "channel": 13,
      "type": "noteOn",
      "note": 71,
      "velocity": 79,
      "vel": 0.629921,
      "time": 149.0997510034158,
      "name": "B4",
      "svgX": 88400.31,
      "svgY": 720.25
    },
    {
      "absoluteTicks": 238560,
      "channel": 13,
      "type": "noteOn",
      "note": 50,
      "velocity": 79,
      "vel": 0.629921,
      "time": 149.0997510034158,
      "name": "D3",
      "svgX": 88400.31,
      "svgY": 935.93
    },
    {
      "absoluteTicks": 239014,
      "channel": 13,
      "type": "noteOff",
      "note": 71,
      "velocity": 79,
      "rel": 0.629921,
      "time": 149.38350072955376,
      "name": "B4"
    },
    {
      "absoluteTicks": 239014,
      "channel": 13,
      "type": "noteOff",
      "note": 50,
      "velocity": 79,
      "rel": 0.629921,
      "time": 149.38350072955376,
      "name": "D3"
    },
    {
      "absoluteTicks": 239040,
      "channel": 13,
      "type": "noteOn",
      "note": 73,
      "velocity": 79,
      "vel": 0.629921,
      "time": 149.39975050241665,
      "name": "C#5",
      "svgX": 88577.18,
      "svgY": 699.71
    },
    {
      "absoluteTicks": 239040,
      "channel": 13,
      "type": "noteOn",
      "note": 55,
      "velocity": 79,
      "vel": 0.629921,
      "time": 149.39975050241665,
      "name": "G3",
      "svgX": 88577.18,
      "svgY": 884.58
    },
    {
      "absoluteTicks": 239494,
      "channel": 13,
      "type": "noteOff",
      "note": 73,
      "velocity": 79,
      "rel": 0.629921,
      "time": 149.6835002285546,
      "name": "C#5"
    },
    {
      "absoluteTicks": 239494,
      "channel": 13,
      "type": "noteOff",
      "note": 55,
      "velocity": 79,
      "rel": 0.629921,
      "time": 149.6835002285546,
      "name": "G3"
    },
    {
      "absoluteTicks": 239520,
      "channel": 13,
      "type": "noteOn",
      "note": 71,
      "velocity": 79,
      "vel": 0.629921,
      "time": 149.6997500014175,
      "name": "B4",
      "svgX": 88754.04,
      "svgY": 720.25
    },
    {
      "absoluteTicks": 239520,
      "channel": 13,
      "type": "noteOn",
      "note": 59,
      "velocity": 79,
      "vel": 0.629921,
      "time": 149.6997500014175,
      "name": "B3",
      "svgX": 88754.04,
      "svgY": 843.5
    },
    {
      "absoluteTicks": 239974,
      "channel": 13,
      "type": "noteOff",
      "note": 71,
      "velocity": 79,
      "rel": 0.629921,
      "time": 149.98349972755545,
      "name": "B4"
    },
    {
      "absoluteTicks": 239974,
      "channel": 13,
      "type": "noteOff",
      "note": 59,
      "velocity": 79,
      "rel": 0.629921,
      "time": 149.98349972755545,
      "name": "B3"
    },
    {
      "absoluteTicks": 240000,
      "channel": 13,
      "type": "noteOn",
      "note": 69,
      "velocity": 79,
      "vel": 0.629921,
      "time": 149.99974950041832,
      "name": "A4",
      "svgX": 88930.91,
      "svgY": 740.79
    },
    {
      "absoluteTicks": 240000,
      "channel": 13,
      "type": "noteOn",
      "note": 38,
      "velocity": 79,
      "vel": 0.629921,
      "time": 149.99974950041832,
      "name": "D2",
      "svgX": 88930.91,
      "svgY": 1059.17
    },
    {
      "absoluteTicks": 240454,
      "channel": 13,
      "type": "noteOff",
      "note": 69,
      "velocity": 79,
      "rel": 0.629921,
      "time": 150.28349922655627,
      "name": "A4"
    },
    {
      "absoluteTicks": 240454,
      "channel": 13,
      "type": "noteOff",
      "note": 38,
      "velocity": 79,
      "rel": 0.629921,
      "time": 150.28349922655627,
      "name": "D2"
    },
    {
      "absoluteTicks": 240480,
      "channel": 13,
      "type": "noteOn",
      "note": 69,
      "velocity": 79,
      "vel": 0.629921,
      "time": 150.29974899941917,
      "name": "A4",
      "svgX": 89107.78,
      "svgY": 740.79
    },
    {
      "absoluteTicks": 240480,
      "channel": 13,
      "type": "noteOn",
      "note": 45,
      "velocity": 79,
      "vel": 0.629921,
      "time": 150.29974899941917,
      "name": "A2",
      "svgX": 89107.78,
      "svgY": 987.28
    },
    {
      "absoluteTicks": 240934,
      "channel": 13,
      "type": "noteOff",
      "note": 69,
      "velocity": 79,
      "rel": 0.629921,
      "time": 150.58349872555712,
      "name": "A4"
    },
    {
      "absoluteTicks": 240934,
      "channel": 13,
      "type": "noteOff",
      "note": 45,
      "velocity": 79,
      "rel": 0.629921,
      "time": 150.58349872555712,
      "name": "A2"
    },
    {
      "absoluteTicks": 240960,
      "channel": 13,
      "type": "noteOn",
      "note": 67,
      "velocity": 79,
      "vel": 0.629921,
      "time": 150.59974849842,
      "name": "G4",
      "svgX": 89284.64,
      "svgY": 761.33
    },
    {
      "absoluteTicks": 240960,
      "channel": 13,
      "type": "noteOn",
      "note": 50,
      "velocity": 79,
      "vel": 0.629921,
      "time": 150.59974849842,
      "name": "D3",
      "svgX": 89284.64,
      "svgY": 935.93
    },
    {
      "absoluteTicks": 241414,
      "channel": 13,
      "type": "noteOff",
      "note": 67,
      "velocity": 79,
      "rel": 0.629921,
      "time": 150.88349822455794,
      "name": "G4"
    },
    {
      "absoluteTicks": 241414,
      "channel": 13,
      "type": "noteOff",
      "note": 50,
      "velocity": 79,
      "rel": 0.629921,
      "time": 150.88349822455794,
      "name": "D3"
    },
    {
      "absoluteTicks": 241440,
      "channel": 13,
      "type": "noteOn",
      "note": 69,
      "velocity": 79,
      "vel": 0.629921,
      "time": 150.89974799742083,
      "name": "A4",
      "svgX": 89461.51,
      "svgY": 740.79
    },
    {
      "absoluteTicks": 241440,
      "channel": 13,
      "type": "noteOn",
      "note": 54,
      "velocity": 79,
      "vel": 0.629921,
      "time": 150.89974799742083,
      "name": "F#3",
      "svgX": 89461.51,
      "svgY": 894.85
    },
    {
      "absoluteTicks": 241894,
      "channel": 13,
      "type": "noteOff",
      "note": 69,
      "velocity": 79,
      "rel": 0.629921,
      "time": 151.1834977235588,
      "name": "A4"
    },
    {
      "absoluteTicks": 241894,
      "channel": 13,
      "type": "noteOff",
      "note": 54,
      "velocity": 79,
      "rel": 0.629921,
      "time": 151.1834977235588,
      "name": "F#3"
    },
    {
      "absoluteTicks": 241920,
      "channel": 13,
      "type": "noteOn",
      "note": 71,
      "velocity": 79,
      "vel": 0.629921,
      "time": 151.19974749642168,
      "name": "B4",
      "svgX": 89638.38,
      "svgY": 720.25
    },
    {
      "absoluteTicks": 241920,
      "channel": 13,
      "type": "noteOn",
      "note": 43,
      "velocity": 79,
      "vel": 0.629921,
      "time": 151.19974749642168,
      "name": "G2",
      "svgX": 89638.38,
      "svgY": 1007.82
    },
    {
      "absoluteTicks": 242374,
      "channel": 13,
      "type": "noteOff",
      "note": 71,
      "velocity": 79,
      "rel": 0.629921,
      "time": 151.48349722255963,
      "name": "B4"
    },
    {
      "absoluteTicks": 242374,
      "channel": 13,
      "type": "noteOff",
      "note": 43,
      "velocity": 79,
      "rel": 0.629921,
      "time": 151.48349722255963,
      "name": "G2"
    },
    {
      "absoluteTicks": 242400,
      "channel": 13,
      "type": "noteOn",
      "note": 71,
      "velocity": 79,
      "vel": 0.629921,
      "time": 151.4997469954225,
      "name": "B4",
      "svgX": 89815.25,
      "svgY": 720.25
    },
    {
      "absoluteTicks": 242400,
      "channel": 13,
      "type": "noteOn",
      "note": 50,
      "velocity": 79,
      "vel": 0.629921,
      "time": 151.4997469954225,
      "name": "D3",
      "svgX": 89815.25,
      "svgY": 935.93
    },
    {
      "absoluteTicks": 242854,
      "channel": 13,
      "type": "noteOff",
      "note": 71,
      "velocity": 79,
      "rel": 0.629921,
      "time": 151.78349672156045,
      "name": "B4"
    },
    {
      "absoluteTicks": 242854,
      "channel": 13,
      "type": "noteOff",
      "note": 50,
      "velocity": 79,
      "rel": 0.629921,
      "time": 151.78349672156045,
      "name": "D3"
    },
    {
      "absoluteTicks": 242880,
      "channel": 13,
      "type": "noteOn",
      "note": 69,
      "velocity": 79,
      "vel": 0.629921,
      "time": 151.79974649442335,
      "name": "A4",
      "svgX": 89992.11,
      "svgY": 740.79
    },
    {
      "absoluteTicks": 242880,
      "channel": 13,
      "type": "noteOn",
      "note": 55,
      "velocity": 79,
      "vel": 0.629921,
      "time": 151.79974649442335,
      "name": "G3",
      "svgX": 89992.11,
      "svgY": 884.58
    },
    {
      "absoluteTicks": 243334,
      "channel": 13,
      "type": "noteOff",
      "note": 69,
      "velocity": 79,
      "rel": 0.629921,
      "time": 152.0834962205613,
      "name": "A4"
    },
    {
      "absoluteTicks": 243334,
      "channel": 13,
      "type": "noteOff",
      "note": 55,
      "velocity": 79,
      "rel": 0.629921,
      "time": 152.0834962205613,
      "name": "G3"
    },
    {
      "absoluteTicks": 243360,
      "channel": 13,
      "type": "noteOn",
      "note": 71,
      "velocity": 79,
      "vel": 0.629921,
      "time": 152.0997459934242,
      "name": "B4",
      "svgX": 90168.98,
      "svgY": 720.25
    },
    {
      "absoluteTicks": 243360,
      "channel": 13,
      "type": "noteOn",
      "note": 59,
      "velocity": 79,
      "vel": 0.629921,
      "time": 152.0997459934242,
      "name": "B3",
      "svgX": 90168.98,
      "svgY": 843.5
    },
    {
      "absoluteTicks": 243814,
      "channel": 13,
      "type": "noteOff",
      "note": 71,
      "velocity": 79,
      "rel": 0.629921,
      "time": 152.38349571956215,
      "name": "B4"
    },
    {
      "absoluteTicks": 243814,
      "channel": 13,
      "type": "noteOff",
      "note": 59,
      "velocity": 79,
      "rel": 0.629921,
      "time": 152.38349571956215,
      "name": "B3"
    },
    {
      "absoluteTicks": 243840,
      "channel": 13,
      "type": "noteOn",
      "note": 73,
      "velocity": 79,
      "vel": 0.629921,
      "time": 152.399745492425,
      "name": "C#5",
      "svgX": 90345.85,
      "svgY": 699.71
    },
    {
      "absoluteTicks": 243840,
      "channel": 13,
      "type": "noteOn",
      "note": 45,
      "velocity": 79,
      "vel": 0.629921,
      "time": 152.399745492425,
      "name": "A2",
      "svgX": 90345.85,
      "svgY": 987.28
    },
    {
      "absoluteTicks": 244294,
      "channel": 13,
      "type": "noteOff",
      "note": 73,
      "velocity": 79,
      "rel": 0.629921,
      "time": 152.68349521856297,
      "name": "C#5"
    },
    {
      "absoluteTicks": 244294,
      "channel": 13,
      "type": "noteOff",
      "note": 45,
      "velocity": 79,
      "rel": 0.629921,
      "time": 152.68349521856297,
      "name": "A2"
    },
    {
      "absoluteTicks": 244320,
      "channel": 13,
      "type": "noteOn",
      "note": 73,
      "velocity": 79,
      "vel": 0.629921,
      "time": 152.69974499142586,
      "name": "C#5",
      "svgX": 90522.72,
      "svgY": 699.71
    },
    {
      "absoluteTicks": 244320,
      "channel": 13,
      "type": "noteOn",
      "note": 52,
      "velocity": 79,
      "vel": 0.629921,
      "time": 152.69974499142586,
      "name": "E3",
      "svgX": 90522.72,
      "svgY": 915.39
    },
    {
      "absoluteTicks": 244774,
      "channel": 13,
      "type": "noteOff",
      "note": 73,
      "velocity": 79,
      "rel": 0.629921,
      "time": 152.98349471756381,
      "name": "C#5"
    },
    {
      "absoluteTicks": 244774,
      "channel": 13,
      "type": "noteOff",
      "note": 52,
      "velocity": 79,
      "rel": 0.629921,
      "time": 152.98349471756381,
      "name": "E3"
    },
    {
      "absoluteTicks": 244800,
      "channel": 13,
      "type": "noteOn",
      "note": 71,
      "velocity": 79,
      "vel": 0.629921,
      "time": 152.9997444904267,
      "name": "B4",
      "svgX": 90699.58,
      "svgY": 720.25
    },
    {
      "absoluteTicks": 244800,
      "channel": 13,
      "type": "noteOn",
      "note": 57,
      "velocity": 79,
      "vel": 0.629921,
      "time": 152.9997444904267,
      "name": "A3",
      "svgX": 90699.58,
      "svgY": 864.04
    },
    {
      "absoluteTicks": 245254,
      "channel": 13,
      "type": "noteOff",
      "note": 71,
      "velocity": 79,
      "rel": 0.629921,
      "time": 153.28349421656463,
      "name": "B4"
    },
    {
      "absoluteTicks": 245254,
      "channel": 13,
      "type": "noteOff",
      "note": 57,
      "velocity": 79,
      "rel": 0.629921,
      "time": 153.28349421656463,
      "name": "A3"
    },
    {
      "absoluteTicks": 245280,
      "channel": 13,
      "type": "noteOn",
      "note": 73,
      "velocity": 79,
      "vel": 0.629921,
      "time": 153.29974398942753,
      "name": "C#5",
      "svgX": 90876.45,
      "svgY": 699.71
    },
    {
      "absoluteTicks": 245280,
      "channel": 13,
      "type": "noteOn",
      "note": 61,
      "velocity": 79,
      "vel": 0.629921,
      "time": 153.29974398942753,
      "name": "C#4",
      "svgX": 90876.45,
      "svgY": 822.96
    },
    {
      "absoluteTicks": 245734,
      "channel": 13,
      "type": "noteOff",
      "note": 73,
      "velocity": 79,
      "rel": 0.629921,
      "time": 153.58349371556548,
      "name": "C#5"
    },
    {
      "absoluteTicks": 245734,
      "channel": 13,
      "type": "noteOff",
      "note": 61,
      "velocity": 79,
      "rel": 0.629921,
      "time": 153.58349371556548,
      "name": "C#4"
    },
    {
      "absoluteTicks": 245760,
      "channel": 13,
      "type": "noteOn",
      "note": 74,
      "velocity": 79,
      "vel": 0.629921,
      "time": 153.59974348842837,
      "name": "D5",
      "svgX": 91053.32,
      "svgY": 689.44
    },
    {
      "absoluteTicks": 245760,
      "channel": 13,
      "type": "noteOn",
      "note": 50,
      "velocity": 79,
      "vel": 0.629921,
      "time": 153.59974348842837,
      "name": "D3",
      "svgX": 91053.32,
      "svgY": 935.93
    },
    {
      "absoluteTicks": 246214,
      "channel": 13,
      "type": "noteOff",
      "note": 74,
      "velocity": 79,
      "rel": 0.629921,
      "time": 153.88349321456633,
      "name": "D5"
    },
    {
      "absoluteTicks": 246214,
      "channel": 13,
      "type": "noteOff",
      "note": 50,
      "velocity": 79,
      "rel": 0.629921,
      "time": 153.88349321456633,
      "name": "D3"
    },
    {
      "absoluteTicks": 246240,
      "channel": 13,
      "type": "noteOn",
      "note": 74,
      "velocity": 79,
      "vel": 0.629921,
      "time": 153.8997429874292,
      "name": "D5",
      "svgX": 91230.18,
      "svgY": 689.44
    },
    {
      "absoluteTicks": 246240,
      "channel": 13,
      "type": "noteOn",
      "note": 57,
      "velocity": 79,
      "vel": 0.629921,
      "time": 153.8997429874292,
      "name": "A3",
      "svgX": 91230.18,
      "svgY": 864.04
    },
    {
      "absoluteTicks": 246694,
      "channel": 13,
      "type": "noteOff",
      "note": 74,
      "velocity": 79,
      "rel": 0.629921,
      "time": 154.18349271356715,
      "name": "D5"
    },
    {
      "absoluteTicks": 246694,
      "channel": 13,
      "type": "noteOff",
      "note": 57,
      "velocity": 79,
      "rel": 0.629921,
      "time": 154.18349271356715,
      "name": "A3"
    },
    {
      "absoluteTicks": 246720,
      "channel": 13,
      "type": "noteOn",
      "note": 76,
      "velocity": 79,
      "vel": 0.629921,
      "time": 154.19974248643004,
      "name": "E5",
      "svgX": 91407.05,
      "svgY": 668.9
    },
    {
      "absoluteTicks": 246720,
      "channel": 13,
      "type": "noteOn",
      "note": 62,
      "velocity": 79,
      "vel": 0.629921,
      "time": 154.19974248643004,
      "name": "D4",
      "svgX": 91407.05,
      "svgY": 812.69
    },
    {
      "absoluteTicks": 247174,
      "channel": 13,
      "type": "noteOff",
      "note": 76,
      "velocity": 79,
      "rel": 0.629921,
      "time": 154.483492212568,
      "name": "E5"
    },
    {
      "absoluteTicks": 247174,
      "channel": 13,
      "type": "noteOff",
      "note": 62,
      "velocity": 79,
      "rel": 0.629921,
      "time": 154.483492212568,
      "name": "D4"
    },
    {
      "absoluteTicks": 247200,
      "channel": 13,
      "type": "noteOn",
      "note": 74,
      "velocity": 79,
      "vel": 0.629921,
      "time": 154.4997419854309,
      "name": "D5",
      "svgX": 91583.92,
      "svgY": 689.44
    },
    {
      "absoluteTicks": 247200,
      "channel": 13,
      "type": "noteOn",
      "note": 66,
      "velocity": 79,
      "vel": 0.629921,
      "time": 154.4997419854309,
      "name": "F#4",
      "svgX": 91583.92,
      "svgY": 771.6
    },
    {
      "absoluteTicks": 247654,
      "channel": 13,
      "type": "noteOff",
      "note": 74,
      "velocity": 79,
      "rel": 0.629921,
      "time": 154.78349171156884,
      "name": "D5"
    },
    {
      "absoluteTicks": 247654,
      "channel": 13,
      "type": "noteOff",
      "note": 66,
      "velocity": 79,
      "rel": 0.629921,
      "time": 154.78349171156884,
      "name": "F#4"
    },
    {
      "absoluteTicks": 247680,
      "channel": 13,
      "type": "noteOn",
      "note": 73,
      "velocity": 79,
      "vel": 0.629921,
      "time": 154.7997414844317,
      "name": "C#5",
      "svgX": 91760.79,
      "svgY": 699.71
    },
    {
      "absoluteTicks": 247680,
      "channel": 13,
      "type": "noteOn",
      "note": 45,
      "velocity": 79,
      "vel": 0.629921,
      "time": 154.7997414844317,
      "name": "A2",
      "svgX": 91760.79,
      "svgY": 987.28
    },
    {
      "absoluteTicks": 248134,
      "channel": 13,
      "type": "noteOff",
      "note": 73,
      "velocity": 79,
      "rel": 0.629921,
      "time": 155.08349121056966,
      "name": "C#5"
    },
    {
      "absoluteTicks": 248134,
      "channel": 13,
      "type": "noteOff",
      "note": 45,
      "velocity": 79,
      "rel": 0.629921,
      "time": 155.08349121056966,
      "name": "A2"
    },
    {
      "absoluteTicks": 248160,
      "channel": 13,
      "type": "noteOn",
      "note": 73,
      "velocity": 79,
      "vel": 0.629921,
      "time": 155.09974098343255,
      "name": "C#5",
      "svgX": 91937.65,
      "svgY": 699.71
    },
    {
      "absoluteTicks": 248160,
      "channel": 13,
      "type": "noteOn",
      "note": 52,
      "velocity": 79,
      "vel": 0.629921,
      "time": 155.09974098343255,
      "name": "E3",
      "svgX": 91937.65,
      "svgY": 915.39
    },
    {
      "absoluteTicks": 248614,
      "channel": 13,
      "type": "noteOff",
      "note": 73,
      "velocity": 79,
      "rel": 0.629921,
      "time": 155.3834907095705,
      "name": "C#5"
    },
    {
      "absoluteTicks": 248614,
      "channel": 13,
      "type": "noteOff",
      "note": 52,
      "velocity": 79,
      "rel": 0.629921,
      "time": 155.3834907095705,
      "name": "E3"
    },
    {
      "absoluteTicks": 248640,
      "channel": 13,
      "type": "noteOn",
      "note": 74,
      "velocity": 79,
      "vel": 0.629921,
      "time": 155.3997404824334,
      "name": "D5",
      "svgX": 92114.52,
      "svgY": 689.44
    },
    {
      "absoluteTicks": 248640,
      "channel": 13,
      "type": "noteOn",
      "note": 57,
      "velocity": 79,
      "vel": 0.629921,
      "time": 155.3997404824334,
      "name": "A3",
      "svgX": 92114.52,
      "svgY": 864.04
    },
    {
      "absoluteTicks": 249094,
      "channel": 13,
      "type": "noteOff",
      "note": 74,
      "velocity": 79,
      "rel": 0.629921,
      "time": 155.68349020857133,
      "name": "D5"
    },
    {
      "absoluteTicks": 249094,
      "channel": 13,
      "type": "noteOff",
      "note": 57,
      "velocity": 79,
      "rel": 0.629921,
      "time": 155.68349020857133,
      "name": "A3"
    },
    {
      "absoluteTicks": 249120,
      "channel": 13,
      "type": "noteOn",
      "note": 73,
      "velocity": 79,
      "vel": 0.629921,
      "time": 155.69973998143422,
      "name": "C#5",
      "svgX": 92291.39,
      "svgY": 699.71
    },
    {
      "absoluteTicks": 249120,
      "channel": 13,
      "type": "noteOn",
      "note": 61,
      "velocity": 79,
      "vel": 0.629921,
      "time": 155.69973998143422,
      "name": "C#4",
      "svgX": 92291.39,
      "svgY": 822.96
    },
    {
      "absoluteTicks": 249574,
      "channel": 13,
      "type": "noteOff",
      "note": 73,
      "velocity": 79,
      "rel": 0.629921,
      "time": 155.98348970757218,
      "name": "C#5"
    },
    {
      "absoluteTicks": 249574,
      "channel": 13,
      "type": "noteOff",
      "note": 61,
      "velocity": 79,
      "rel": 0.629921,
      "time": 155.98348970757218,
      "name": "C#4"
    },
    {
      "absoluteTicks": 249600,
      "channel": 13,
      "type": "noteOn",
      "note": 71,
      "velocity": 79,
      "vel": 0.629921,
      "time": 155.99973948043507,
      "name": "B4",
      "svgX": 92468.26,
      "svgY": 720.25
    },
    {
      "absoluteTicks": 249600,
      "channel": 13,
      "type": "noteOn",
      "note": 47,
      "velocity": 79,
      "vel": 0.629921,
      "time": 155.99973948043507,
      "name": "B2",
      "svgX": 92468.26,
      "svgY": 966.74
    },
    {
      "absoluteTicks": 250054,
      "channel": 13,
      "type": "noteOff",
      "note": 71,
      "velocity": 79,
      "rel": 0.629921,
      "time": 156.28348920657302,
      "name": "B4"
    },
    {
      "absoluteTicks": 250054,
      "channel": 13,
      "type": "noteOff",
      "note": 47,
      "velocity": 79,
      "rel": 0.629921,
      "time": 156.28348920657302,
      "name": "B2"
    },
    {
      "absoluteTicks": 250080,
      "channel": 13,
      "type": "noteOn",
      "note": 71,
      "velocity": 79,
      "vel": 0.629921,
      "time": 156.2997389794359,
      "name": "B4",
      "svgX": 92645.12,
      "svgY": 720.25
    },
    {
      "absoluteTicks": 250080,
      "channel": 13,
      "type": "noteOn",
      "note": 54,
      "velocity": 79,
      "vel": 0.629921,
      "time": 156.2997389794359,
      "name": "F#3",
      "svgX": 92645.12,
      "svgY": 894.85
    },
    {
      "absoluteTicks": 250534,
      "channel": 13,
      "type": "noteOff",
      "note": 71,
      "velocity": 79,
      "rel": 0.629921,
      "time": 156.58348870557384,
      "name": "B4"
    },
    {
      "absoluteTicks": 250534,
      "channel": 13,
      "type": "noteOff",
      "note": 54,
      "velocity": 79,
      "rel": 0.629921,
      "time": 156.58348870557384,
      "name": "F#3"
    },
    {
      "absoluteTicks": 250560,
      "channel": 13,
      "type": "noteOn",
      "note": 69,
      "velocity": 79,
      "vel": 0.629921,
      "time": 156.59973847843673,
      "name": "A4",
      "svgX": 92821.99,
      "svgY": 740.79
    },
    {
      "absoluteTicks": 250560,
      "channel": 13,
      "type": "noteOn",
      "note": 59,
      "velocity": 79,
      "vel": 0.629921,
      "time": 156.59973847843673,
      "name": "B3",
      "svgX": 92821.99,
      "svgY": 843.5
    },
    {
      "absoluteTicks": 251014,
      "channel": 13,
      "type": "noteOff",
      "note": 69,
      "velocity": 79,
      "rel": 0.629921,
      "time": 156.8834882045747,
      "name": "A4"
    },
    {
      "absoluteTicks": 251014,
      "channel": 13,
      "type": "noteOff",
      "note": 59,
      "velocity": 79,
      "rel": 0.629921,
      "time": 156.8834882045747,
      "name": "B3"
    },
    {
      "absoluteTicks": 251040,
      "channel": 13,
      "type": "noteOn",
      "note": 71,
      "velocity": 79,
      "vel": 0.629921,
      "time": 156.89973797743758,
      "name": "B4",
      "svgX": 92998.86,
      "svgY": 720.25
    },
    {
      "absoluteTicks": 251040,
      "channel": 13,
      "type": "noteOn",
      "note": 62,
      "velocity": 79,
      "vel": 0.629921,
      "time": 156.89973797743758,
      "name": "D4",
      "svgX": 92998.86,
      "svgY": 812.69
    },
    {
      "absoluteTicks": 251494,
      "channel": 13,
      "type": "noteOff",
      "note": 71,
      "velocity": 79,
      "rel": 0.629921,
      "time": 157.1834877035755,
      "name": "B4"
    },
    {
      "absoluteTicks": 251494,
      "channel": 13,
      "type": "noteOff",
      "note": 62,
      "velocity": 79,
      "rel": 0.629921,
      "time": 157.1834877035755,
      "name": "D4"
    },
    {
      "absoluteTicks": 251520,
      "channel": 13,
      "type": "noteOn",
      "note": 73,
      "velocity": 79,
      "vel": 0.629921,
      "time": 157.1997374764384,
      "name": "C#5",
      "svgX": 93175.73,
      "svgY": 699.71
    },
    {
      "absoluteTicks": 251520,
      "channel": 13,
      "type": "noteOn",
      "note": 42,
      "velocity": 79,
      "vel": 0.629921,
      "time": 157.1997374764384,
      "name": "F#2",
      "svgX": 93175.73,
      "svgY": 1018.09
    },
    {
      "absoluteTicks": 251974,
      "channel": 13,
      "type": "noteOff",
      "note": 73,
      "velocity": 79,
      "rel": 0.629921,
      "time": 157.48348720257636,
      "name": "C#5"
    },
    {
      "absoluteTicks": 251974,
      "channel": 13,
      "type": "noteOff",
      "note": 42,
      "velocity": 79,
      "rel": 0.629921,
      "time": 157.48348720257636,
      "name": "F#2"
    },
    {
      "absoluteTicks": 252000,
      "channel": 13,
      "type": "noteOn",
      "note": 73,
      "velocity": 79,
      "vel": 0.629921,
      "time": 157.49973697543925,
      "name": "C#5",
      "svgX": 93352.59,
      "svgY": 699.71
    },
    {
      "absoluteTicks": 252000,
      "channel": 13,
      "type": "noteOn",
      "note": 49,
      "velocity": 79,
      "vel": 0.629921,
      "time": 157.49973697543925,
      "name": "C#3",
      "svgX": 93352.59,
      "svgY": 946.2
    },
    {
      "absoluteTicks": 252454,
      "channel": 13,
      "type": "noteOff",
      "note": 73,
      "velocity": 79,
      "rel": 0.629921,
      "time": 157.7834867015772,
      "name": "C#5"
    },
    {
      "absoluteTicks": 252454,
      "channel": 13,
      "type": "noteOff",
      "note": 49,
      "velocity": 79,
      "rel": 0.629921,
      "time": 157.7834867015772,
      "name": "C#3"
    },
    {
      "absoluteTicks": 252480,
      "channel": 13,
      "type": "noteOn",
      "note": 78,
      "velocity": 79,
      "vel": 0.629921,
      "time": 157.79973647444007,
      "name": "F#5",
      "svgX": 93529.46,
      "svgY": 648.36
    },
    {
      "absoluteTicks": 252480,
      "channel": 13,
      "type": "noteOn",
      "note": 54,
      "velocity": 79,
      "vel": 0.629921,
      "time": 157.79973647444007,
      "name": "F#3",
      "svgX": 93529.46,
      "svgY": 894.85
    },
    {
      "absoluteTicks": 252934,
      "channel": 13,
      "type": "noteOff",
      "note": 78,
      "velocity": 79,
      "rel": 0.629921,
      "time": 158.08348620057802,
      "name": "F#5"
    },
    {
      "absoluteTicks": 252934,
      "channel": 13,
      "type": "noteOff",
      "note": 54,
      "velocity": 79,
      "rel": 0.629921,
      "time": 158.08348620057802,
      "name": "F#3"
    },
    {
      "absoluteTicks": 252960,
      "channel": 13,
      "type": "noteOn",
      "note": 76,
      "velocity": 79,
      "vel": 0.629921,
      "time": 158.09973597344091,
      "name": "E5",
      "svgX": 93706.33,
      "svgY": 668.9
    },
    {
      "absoluteTicks": 252960,
      "channel": 13,
      "type": "noteOn",
      "note": 57,
      "velocity": 79,
      "vel": 0.629921,
      "time": 158.09973597344091,
      "name": "A3",
      "svgX": 93706.33,
      "svgY": 864.04
    },
    {
      "absoluteTicks": 253414,
      "channel": 13,
      "type": "noteOff",
      "note": 76,
      "velocity": 79,
      "rel": 0.629921,
      "time": 158.38348569957887,
      "name": "E5"
    },
    {
      "absoluteTicks": 253414,
      "channel": 13,
      "type": "noteOff",
      "note": 57,
      "velocity": 79,
      "rel": 0.629921,
      "time": 158.38348569957887,
      "name": "A3"
    },
    {
      "absoluteTicks": 253440,
      "channel": 13,
      "type": "noteOn",
      "note": 74,
      "velocity": 79,
      "vel": 0.629921,
      "time": 158.39973547244176,
      "name": "D5",
      "svgX": 93883.19,
      "svgY": 689.44
    },
    {
      "absoluteTicks": 253440,
      "channel": 13,
      "type": "noteOn",
      "note": 43,
      "velocity": 79,
      "vel": 0.629921,
      "time": 158.39973547244176,
      "name": "G2",
      "svgX": 93883.19,
      "svgY": 1007.82
    },
    {
      "absoluteTicks": 253894,
      "channel": 13,
      "type": "noteOff",
      "note": 74,
      "velocity": 79,
      "rel": 0.629921,
      "time": 158.68348519857972,
      "name": "D5"
    },
    {
      "absoluteTicks": 253894,
      "channel": 13,
      "type": "noteOff",
      "note": 43,
      "velocity": 79,
      "rel": 0.629921,
      "time": 158.68348519857972,
      "name": "G2"
    },
    {
      "absoluteTicks": 253920,
      "channel": 13,
      "type": "noteOn",
      "note": 74,
      "velocity": 79,
      "vel": 0.629921,
      "time": 158.69973497144258,
      "name": "D5",
      "svgX": 94060.06,
      "svgY": 689.44
    },
    {
      "absoluteTicks": 253920,
      "channel": 13,
      "type": "noteOn",
      "note": 50,
      "velocity": 79,
      "vel": 0.629921,
      "time": 158.69973497144258,
      "name": "D3",
      "svgX": 94060.06,
      "svgY": 935.93
    },
    {
      "absoluteTicks": 254374,
      "channel": 13,
      "type": "noteOff",
      "note": 74,
      "velocity": 79,
      "rel": 0.629921,
      "time": 158.98348469758054,
      "name": "D5"
    },
    {
      "absoluteTicks": 254374,
      "channel": 13,
      "type": "noteOff",
      "note": 50,
      "velocity": 79,
      "rel": 0.629921,
      "time": 158.98348469758054,
      "name": "D3"
    },
    {
      "absoluteTicks": 254400,
      "channel": 13,
      "type": "noteOn",
      "note": 76,
      "velocity": 79,
      "vel": 0.629921,
      "time": 158.99973447044343,
      "name": "E5",
      "svgX": 94236.93,
      "svgY": 668.9
    },
    {
      "absoluteTicks": 254400,
      "channel": 13,
      "type": "noteOn",
      "note": 55,
      "velocity": 79,
      "vel": 0.629921,
      "time": 158.99973447044343,
      "name": "G3",
      "svgX": 94236.93,
      "svgY": 884.58
    },
    {
      "absoluteTicks": 254854,
      "channel": 13,
      "type": "noteOff",
      "note": 76,
      "velocity": 79,
      "rel": 0.629921,
      "time": 159.28348419658138,
      "name": "E5"
    },
    {
      "absoluteTicks": 254854,
      "channel": 13,
      "type": "noteOff",
      "note": 55,
      "velocity": 79,
      "rel": 0.629921,
      "time": 159.28348419658138,
      "name": "G3"
    },
    {
      "absoluteTicks": 254880,
      "channel": 13,
      "type": "noteOn",
      "note": 79,
      "velocity": 79,
      "vel": 0.629921,
      "time": 159.29973396944428,
      "name": "G5",
      "svgX": 94413.8,
      "svgY": 638.09
    },
    {
      "absoluteTicks": 254880,
      "channel": 13,
      "type": "noteOn",
      "note": 59,
      "velocity": 79,
      "vel": 0.629921,
      "time": 159.29973396944428,
      "name": "B3",
      "svgX": 94413.8,
      "svgY": 843.5
    },
    {
      "absoluteTicks": 255334,
      "channel": 13,
      "type": "noteOff",
      "note": 79,
      "velocity": 79,
      "rel": 0.629921,
      "time": 159.5834836955822,
      "name": "G5"
    },
    {
      "absoluteTicks": 255334,
      "channel": 13,
      "type": "noteOff",
      "note": 59,
      "velocity": 79,
      "rel": 0.629921,
      "time": 159.5834836955822,
      "name": "B3"
    },
    {
      "absoluteTicks": 255360,
      "channel": 13,
      "type": "noteOn",
      "note": 78,
      "velocity": 79,
      "vel": 0.629921,
      "time": 159.5997334684451,
      "name": "F#5",
      "svgX": 94590.66,
      "svgY": 648.36
    },
    {
      "absoluteTicks": 255360,
      "channel": 13,
      "type": "noteOn",
      "note": 38,
      "velocity": 79,
      "vel": 0.629921,
      "time": 159.5997334684451,
      "name": "D2",
      "svgX": 94590.66,
      "svgY": 1059.17
    },
    {
      "absoluteTicks": 255814,
      "channel": 13,
      "type": "noteOff",
      "note": 78,
      "velocity": 79,
      "rel": 0.629921,
      "time": 159.88348319458305,
      "name": "F#5"
    },
    {
      "absoluteTicks": 255814,
      "channel": 13,
      "type": "noteOff",
      "note": 38,
      "velocity": 79,
      "rel": 0.629921,
      "time": 159.88348319458305,
      "name": "D2"
    },
    {
      "absoluteTicks": 255840,
      "channel": 13,
      "type": "noteOn",
      "note": 66,
      "velocity": 79,
      "vel": 0.629921,
      "time": 159.89973296744594,
      "name": "F#4",
      "svgX": 94767.53,
      "svgY": 771.6
    },
    {
      "absoluteTicks": 255840,
      "channel": 13,
      "type": "noteOn",
      "note": 45,
      "velocity": 79,
      "vel": 0.629921,
      "time": 159.89973296744594,
      "name": "A2",
      "svgX": 94767.53,
      "svgY": 987.28
    },
    {
      "absoluteTicks": 256294,
      "channel": 13,
      "type": "noteOff",
      "note": 66,
      "velocity": 79,
      "rel": 0.629921,
      "time": 160.1834826935839,
      "name": "F#4"
    },
    {
      "absoluteTicks": 256294,
      "channel": 13,
      "type": "noteOff",
      "note": 45,
      "velocity": 79,
      "rel": 0.629921,
      "time": 160.1834826935839,
      "name": "A2"
    },
    {
      "absoluteTicks": 256320,
      "channel": 13,
      "type": "noteOn",
      "note": 69,
      "velocity": 79,
      "vel": 0.629921,
      "time": 160.19973246644676,
      "name": "A4",
      "svgX": 94944.4,
      "svgY": 740.79
    },
    {
      "absoluteTicks": 256320,
      "channel": 13,
      "type": "noteOn",
      "note": 50,
      "velocity": 79,
      "vel": 0.629921,
      "time": 160.19973246644676,
      "name": "D3",
      "svgX": 94944.4,
      "svgY": 935.93
    },
    {
      "absoluteTicks": 256774,
      "channel": 13,
      "type": "noteOff",
      "note": 69,
      "velocity": 79,
      "rel": 0.629921,
      "time": 160.48348219258472,
      "name": "A4"
    },
    {
      "absoluteTicks": 256774,
      "channel": 13,
      "type": "noteOff",
      "note": 50,
      "velocity": 79,
      "rel": 0.629921,
      "time": 160.48348219258472,
      "name": "D3"
    },
    {
      "absoluteTicks": 256800,
      "channel": 13,
      "type": "noteOn",
      "note": 78,
      "velocity": 79,
      "vel": 0.629921,
      "time": 160.4997319654476,
      "name": "F#5",
      "svgX": 95121.27,
      "svgY": 648.36
    },
    {
      "absoluteTicks": 256800,
      "channel": 13,
      "type": "noteOn",
      "note": 54,
      "velocity": 79,
      "vel": 0.629921,
      "time": 160.4997319654476,
      "name": "F#3",
      "svgX": 95121.27,
      "svgY": 894.85
    },
    {
      "absoluteTicks": 257254,
      "channel": 13,
      "type": "noteOff",
      "note": 78,
      "velocity": 79,
      "rel": 0.629921,
      "time": 160.78348169158556,
      "name": "F#5"
    },
    {
      "absoluteTicks": 257254,
      "channel": 13,
      "type": "noteOff",
      "note": 54,
      "velocity": 79,
      "rel": 0.629921,
      "time": 160.78348169158556,
      "name": "F#3"
    },
    {
      "absoluteTicks": 257280,
      "channel": 13,
      "type": "noteOn",
      "note": 78,
      "velocity": 79,
      "vel": 0.629921,
      "time": 160.79973146444846,
      "name": "F#5",
      "svgX": 95298.13,
      "svgY": 648.36
    },
    {
      "absoluteTicks": 257280,
      "channel": 13,
      "type": "noteOn",
      "note": 43,
      "velocity": 79,
      "vel": 0.629921,
      "time": 160.79973146444846,
      "name": "G2",
      "svgX": 95298.13,
      "svgY": 1007.82
    },
    {
      "absoluteTicks": 257734,
      "channel": 13,
      "type": "noteOff",
      "note": 78,
      "velocity": 79,
      "rel": 0.629921,
      "time": 161.0834811905864,
      "name": "F#5"
    },
    {
      "absoluteTicks": 257734,
      "channel": 13,
      "type": "noteOff",
      "note": 43,
      "velocity": 79,
      "rel": 0.629921,
      "time": 161.0834811905864,
      "name": "G2"
    },
    {
      "absoluteTicks": 257760,
      "channel": 13,
      "type": "noteOn",
      "note": 79,
      "velocity": 79,
      "vel": 0.629921,
      "time": 161.09973096344928,
      "name": "G5",
      "svgX": 95475.0,
      "svgY": 638.09
    },
    {
      "absoluteTicks": 257760,
      "channel": 13,
      "type": "noteOn",
      "note": 50,
      "velocity": 79,
      "vel": 0.629921,
      "time": 161.09973096344928,
      "name": "D3",
      "svgX": 95475.0,
      "svgY": 935.93
    },
    {
      "absoluteTicks": 258214,
      "channel": 13,
      "type": "noteOff",
      "note": 79,
      "velocity": 79,
      "rel": 0.629921,
      "time": 161.38348068958723,
      "name": "G5"
    },
    {
      "absoluteTicks": 258214,
      "channel": 13,
      "type": "noteOff",
      "note": 50,
      "velocity": 79,
      "rel": 0.629921,
      "time": 161.38348068958723,
      "name": "D3"
    },
    {
      "absoluteTicks": 258240,
      "channel": 13,
      "type": "noteOn",
      "note": 78,
      "velocity": 79,
      "vel": 0.629921,
      "time": 161.39973046245012,
      "name": "F#5",
      "svgX": 95651.87,
      "svgY": 648.36
    },
    {
      "absoluteTicks": 258240,
      "channel": 13,
      "type": "noteOn",
      "note": 55,
      "velocity": 79,
      "vel": 0.629921,
      "time": 161.39973046245012,
      "name": "G3",
      "svgX": 95651.87,
      "svgY": 884.58
    },
    {
      "absoluteTicks": 258694,
      "channel": 13,
      "type": "noteOff",
      "note": 78,
      "velocity": 79,
      "rel": 0.629921,
      "time": 161.68348018858808,
      "name": "F#5"
    },
    {
      "absoluteTicks": 258694,
      "channel": 13,
      "type": "noteOff",
      "note": 55,
      "velocity": 79,
      "rel": 0.629921,
      "time": 161.68348018858808,
      "name": "G3"
    },
    {
      "absoluteTicks": 258720,
      "channel": 13,
      "type": "noteOn",
      "note": 79,
      "velocity": 79,
      "vel": 0.629921,
      "time": 161.69972996145097,
      "name": "G5",
      "svgX": 95828.74,
      "svgY": 638.09
    },
    {
      "absoluteTicks": 258720,
      "channel": 13,
      "type": "noteOn",
      "note": 59,
      "velocity": 79,
      "vel": 0.629921,
      "time": 161.69972996145097,
      "name": "B3",
      "svgX": 95828.74,
      "svgY": 843.5
    },
    {
      "absoluteTicks": 259174,
      "channel": 13,
      "type": "noteOff",
      "note": 79,
      "velocity": 79,
      "rel": 0.629921,
      "time": 161.9834796875889,
      "name": "G5"
    },
    {
      "absoluteTicks": 259174,
      "channel": 13,
      "type": "noteOff",
      "note": 59,
      "velocity": 79,
      "rel": 0.629921,
      "time": 161.9834796875889,
      "name": "B3"
    },
    {
      "absoluteTicks": 259200,
      "channel": 13,
      "type": "noteOn",
      "note": 76,
      "velocity": 79,
      "vel": 0.629921,
      "time": 161.9997294604518,
      "name": "E5",
      "svgX": 96005.6,
      "svgY": 668.9
    },
    {
      "absoluteTicks": 259200,
      "channel": 13,
      "type": "noteOn",
      "note": 45,
      "velocity": 79,
      "vel": 0.629921,
      "time": 161.9997294604518,
      "name": "A2",
      "svgX": 96005.6,
      "svgY": 987.28
    },
    {
      "absoluteTicks": 259654,
      "channel": 13,
      "type": "noteOff",
      "note": 76,
      "velocity": 79,
      "rel": 0.629921,
      "time": 162.28347918658974,
      "name": "E5"
    },
    {
      "absoluteTicks": 259654,
      "channel": 13,
      "type": "noteOff",
      "note": 45,
      "velocity": 79,
      "rel": 0.629921,
      "time": 162.28347918658974,
      "name": "A2"
    },
    {
      "absoluteTicks": 259680,
      "channel": 13,
      "type": "noteOn",
      "note": 69,
      "velocity": 79,
      "vel": 0.629921,
      "time": 162.29972895945264,
      "name": "A4",
      "svgX": 96182.47,
      "svgY": 740.79
    },
    {
      "absoluteTicks": 259680,
      "channel": 13,
      "type": "noteOn",
      "note": 52,
      "velocity": 79,
      "vel": 0.629921,
      "time": 162.29972895945264,
      "name": "E3",
      "svgX": 96182.47,
      "svgY": 915.39
    },
    {
      "absoluteTicks": 260134,
      "channel": 13,
      "type": "noteOff",
      "note": 69,
      "velocity": 79,
      "rel": 0.629921,
      "time": 162.5834786855906,
      "name": "A4"
    },
    {
      "absoluteTicks": 260134,
      "channel": 13,
      "type": "noteOff",
      "note": 52,
      "velocity": 79,
      "rel": 0.629921,
      "time": 162.5834786855906,
      "name": "E3"
    },
    {
      "absoluteTicks": 260160,
      "channel": 13,
      "type": "noteOn",
      "note": 76,
      "velocity": 79,
      "vel": 0.629921,
      "time": 162.59972845845346,
      "name": "E5",
      "svgX": 96359.34,
      "svgY": 668.9
    },
    {
      "absoluteTicks": 260160,
      "channel": 13,
      "type": "noteOn",
      "note": 57,
      "velocity": 79,
      "vel": 0.629921,
      "time": 162.59972845845346,
      "name": "A3",
      "svgX": 96359.34,
      "svgY": 864.04
    },
    {
      "absoluteTicks": 260614,
      "channel": 13,
      "type": "noteOff",
      "note": 76,
      "velocity": 79,
      "rel": 0.629921,
      "time": 162.8834781845914,
      "name": "E5"
    },
    {
      "absoluteTicks": 260614,
      "channel": 13,
      "type": "noteOff",
      "note": 57,
      "velocity": 79,
      "rel": 0.629921,
      "time": 162.8834781845914,
      "name": "A3"
    },
    {
      "absoluteTicks": 260640,
      "channel": 13,
      "type": "noteOn",
      "note": 73,
      "velocity": 79,
      "vel": 0.629921,
      "time": 162.8997279574543,
      "name": "C#5",
      "svgX": 96536.2,
      "svgY": 699.71
    },
    {
      "absoluteTicks": 260640,
      "channel": 13,
      "type": "noteOn",
      "note": 61,
      "velocity": 79,
      "vel": 0.629921,
      "time": 162.8997279574543,
      "name": "C#4",
      "svgX": 96536.2,
      "svgY": 822.96
    },
    {
      "absoluteTicks": 261094,
      "channel": 13,
      "type": "noteOff",
      "note": 73,
      "velocity": 79,
      "rel": 0.629921,
      "time": 163.18347768359226,
      "name": "C#5"
    },
    {
      "absoluteTicks": 261094,
      "channel": 13,
      "type": "noteOff",
      "note": 61,
      "velocity": 79,
      "rel": 0.629921,
      "time": 163.18347768359226,
      "name": "C#4"
    },
    {
      "absoluteTicks": 261120,
      "channel": 13,
      "type": "noteOn",
      "note": 78,
      "velocity": 79,
      "vel": 0.629921,
      "time": 163.19972745645515,
      "name": "F#5",
      "svgX": 96713.07,
      "svgY": 648.36
    },
    {
      "absoluteTicks": 261120,
      "channel": 13,
      "type": "noteOn",
      "note": 74,
      "velocity": 79,
      "vel": 0.629921,
      "time": 163.19972745645515,
      "name": "D5",
      "svgX": 96713.07,
      "svgY": 689.44
    },
    {
      "absoluteTicks": 261120,
      "channel": 13,
      "type": "noteOn",
      "note": 50,
      "velocity": 79,
      "vel": 0.629921,
      "time": 163.19972745645515,
      "name": "D3",
      "svgX": 96713.07,
      "svgY": 935.93
    },
    {
      "absoluteTicks": 261574,
      "channel": 13,
      "type": "noteOff",
      "note": 78,
      "velocity": 79,
      "rel": 0.629921,
      "time": 163.4834771825931,
      "name": "F#5"
    },
    {
      "absoluteTicks": 261574,
      "channel": 13,
      "type": "noteOff",
      "note": 74,
      "velocity": 79,
      "rel": 0.629921,
      "time": 163.4834771825931,
      "name": "D5"
    },
    {
      "absoluteTicks": 261574,
      "channel": 13,
      "type": "noteOff",
      "note": 50,
      "velocity": 79,
      "rel": 0.629921,
      "time": 163.4834771825931,
      "name": "D3"
    },
    {
      "absoluteTicks": 261600,
      "channel": 13,
      "type": "noteOn",
      "note": 74,
      "velocity": 79,
      "vel": 0.629921,
      "time": 163.49972695545597,
      "name": "D5",
      "svgX": 96889.94,
      "svgY": 689.44
    },
    {
      "absoluteTicks": 261600,
      "channel": 13,
      "type": "noteOn",
      "note": 57,
      "velocity": 79,
      "vel": 0.629921,
      "time": 163.49972695545597,
      "name": "A3",
      "svgX": 96889.94,
      "svgY": 864.04
    },
    {
      "absoluteTicks": 261825,
      "channel": 13,
      "type": "noteOff",
      "note": 74,
      "velocity": 79,
      "rel": 0.629921,
      "time": 163.64097631956952,
      "name": "D5"
    },
    {
      "absoluteTicks": 261840,
      "channel": 13,
      "type": "noteOn",
      "note": 76,
      "velocity": 79,
      "vel": 0.629921,
      "time": 163.6497267049564,
      "name": "E5",
      "svgX": 96978.37,
      "svgY": 668.9
    },
    {
      "absoluteTicks": 262054,
      "channel": 13,
      "type": "noteOff",
      "note": 57,
      "velocity": 79,
      "rel": 0.629921,
      "time": 163.78347668159392,
      "name": "A3"
    },
    {
      "absoluteTicks": 262065,
      "channel": 13,
      "type": "noteOff",
      "note": 76,
      "velocity": 79,
      "rel": 0.629921,
      "time": 163.79097606906996,
      "name": "E5"
    },
    {
      "absoluteTicks": 262080,
      "channel": 13,
      "type": "noteOn",
      "note": 78,
      "velocity": 79,
      "vel": 0.629921,
      "time": 163.79972645445682,
      "name": "F#5",
      "svgX": 97066.81,
      "svgY": 648.36
    },
    {
      "absoluteTicks": 262080,
      "channel": 13,
      "type": "noteOn",
      "note": 62,
      "velocity": 79,
      "vel": 0.629921,
      "time": 163.79972645445682,
      "name": "D4",
      "svgX": 97066.81,
      "svgY": 812.69
    },
    {
      "absoluteTicks": 262534,
      "channel": 13,
      "type": "noteOff",
      "note": 78,
      "velocity": 79,
      "rel": 0.629921,
      "time": 164.08347618059477,
      "name": "F#5"
    },
    {
      "absoluteTicks": 262534,
      "channel": 13,
      "type": "noteOff",
      "note": 62,
      "velocity": 79,
      "rel": 0.629921,
      "time": 164.08347618059477,
      "name": "D4"
    },
    {
      "absoluteTicks": 262560,
      "channel": 13,
      "type": "noteOn",
      "note": 74,
      "velocity": 79,
      "vel": 0.629921,
      "time": 164.09972595345766,
      "name": "D5",
      "svgX": 97243.67,
      "svgY": 689.44
    },
    {
      "absoluteTicks": 262560,
      "channel": 13,
      "type": "noteOn",
      "note": 66,
      "velocity": 79,
      "vel": 0.629921,
      "time": 164.09972595345766,
      "name": "F#4",
      "svgX": 97243.67,
      "svgY": 771.6
    },
    {
      "absoluteTicks": 263014,
      "channel": 13,
      "type": "noteOff",
      "note": 74,
      "velocity": 79,
      "rel": 0.629921,
      "time": 164.3834756795956,
      "name": "D5"
    },
    {
      "absoluteTicks": 263014,
      "channel": 13,
      "type": "noteOff",
      "note": 66,
      "velocity": 79,
      "rel": 0.629921,
      "time": 164.3834756795956,
      "name": "F#4"
    },
    {
      "absoluteTicks": 263040,
      "channel": 13,
      "type": "noteOn",
      "note": 76,
      "velocity": 79,
      "vel": 0.629921,
      "time": 164.39972545245848,
      "name": "E5",
      "svgX": 97420.54,
      "svgY": 668.9
    },
    {
      "absoluteTicks": 263040,
      "channel": 13,
      "type": "noteOn",
      "note": 73,
      "velocity": 79,
      "vel": 0.629921,
      "time": 164.39972545245848,
      "name": "C#5",
      "svgX": 97420.54,
      "svgY": 699.71
    },
    {
      "absoluteTicks": 263040,
      "channel": 13,
      "type": "noteOn",
      "note": 45,
      "velocity": 79,
      "vel": 0.629921,
      "time": 164.39972545245848,
      "name": "A2",
      "svgX": 97420.54,
      "svgY": 987.28
    },
    {
      "absoluteTicks": 263494,
      "channel": 13,
      "type": "noteOff",
      "note": 76,
      "velocity": 79,
      "rel": 0.629921,
      "time": 164.68347517859644,
      "name": "E5"
    },
    {
      "absoluteTicks": 263494,
      "channel": 13,
      "type": "noteOff",
      "note": 73,
      "velocity": 79,
      "rel": 0.629921,
      "time": 164.68347517859644,
      "name": "C#5"
    },
    {
      "absoluteTicks": 263494,
      "channel": 13,
      "type": "noteOff",
      "note": 45,
      "velocity": 79,
      "rel": 0.629921,
      "time": 164.68347517859644,
      "name": "A2"
    },
    {
      "absoluteTicks": 263520,
      "channel": 13,
      "type": "noteOn",
      "note": 73,
      "velocity": 79,
      "vel": 0.629921,
      "time": 164.69972495145933,
      "name": "C#5",
      "svgX": 97597.41,
      "svgY": 699.71
    },
    {
      "absoluteTicks": 263520,
      "channel": 13,
      "type": "noteOn",
      "note": 52,
      "velocity": 79,
      "vel": 0.629921,
      "time": 164.69972495145933,
      "name": "E3",
      "svgX": 97597.41,
      "svgY": 915.39
    },
    {
      "absoluteTicks": 263745,
      "channel": 13,
      "type": "noteOff",
      "note": 73,
      "velocity": 79,
      "rel": 0.629921,
      "time": 164.8409743155729,
      "name": "C#5"
    },
    {
      "absoluteTicks": 263760,
      "channel": 13,
      "type": "noteOn",
      "note": 74,
      "velocity": 79,
      "vel": 0.629921,
      "time": 164.84972470095974,
      "name": "D5",
      "svgX": 97685.84,
      "svgY": 689.44
    },
    {
      "absoluteTicks": 263974,
      "channel": 13,
      "type": "noteOff",
      "note": 52,
      "velocity": 79,
      "rel": 0.629921,
      "time": 164.9834746775973,
      "name": "E3"
    },
    {
      "absoluteTicks": 263985,
      "channel": 13,
      "type": "noteOff",
      "note": 74,
      "velocity": 79,
      "rel": 0.629921,
      "time": 164.99097406507332,
      "name": "D5"
    },
    {
      "absoluteTicks": 264000,
      "channel": 13,
      "type": "noteOn",
      "note": 76,
      "velocity": 79,
      "vel": 0.629921,
      "time": 164.99972445046015,
      "name": "E5",
      "svgX": 97774.28,
      "svgY": 668.9
    },
    {
      "absoluteTicks": 264000,
      "channel": 13,
      "type": "noteOn",
      "note": 57,
      "velocity": 79,
      "vel": 0.629921,
      "time": 164.99972445046015,
      "name": "A3",
      "svgX": 97774.28,
      "svgY": 864.04
    },
    {
      "absoluteTicks": 264454,
      "channel": 13,
      "type": "noteOff",
      "note": 76,
      "velocity": 79,
      "rel": 0.629921,
      "time": 165.2834741765981,
      "name": "E5"
    },
    {
      "absoluteTicks": 264454,
      "channel": 13,
      "type": "noteOff",
      "note": 57,
      "velocity": 79,
      "rel": 0.629921,
      "time": 165.2834741765981,
      "name": "A3"
    },
    {
      "absoluteTicks": 264480,
      "channel": 13,
      "type": "noteOn",
      "note": 73,
      "velocity": 79,
      "vel": 0.629921,
      "time": 165.299723949461,
      "name": "C#5",
      "svgX": 97951.14,
      "svgY": 699.71
    },
    {
      "absoluteTicks": 264480,
      "channel": 13,
      "type": "noteOn",
      "note": 61,
      "velocity": 79,
      "vel": 0.629921,
      "time": 165.299723949461,
      "name": "C#4",
      "svgX": 97951.14,
      "svgY": 822.96
    },
    {
      "absoluteTicks": 264934,
      "channel": 13,
      "type": "noteOff",
      "note": 73,
      "velocity": 79,
      "rel": 0.629921,
      "time": 165.58347367559895,
      "name": "C#5"
    },
    {
      "absoluteTicks": 264934,
      "channel": 13,
      "type": "noteOff",
      "note": 61,
      "velocity": 79,
      "rel": 0.629921,
      "time": 165.58347367559895,
      "name": "C#4"
    },
    {
      "absoluteTicks": 264960,
      "channel": 13,
      "type": "noteOn",
      "note": 74,
      "velocity": 79,
      "vel": 0.629921,
      "time": 165.59972344846184,
      "name": "D5",
      "svgX": 98128.01,
      "svgY": 689.44
    },
    {
      "absoluteTicks": 264960,
      "channel": 13,
      "type": "noteOn",
      "note": 71,
      "velocity": 79,
      "vel": 0.629921,
      "time": 165.59972344846184,
      "name": "B4",
      "svgX": 98128.01,
      "svgY": 720.25
    },
    {
      "absoluteTicks": 264960,
      "channel": 13,
      "type": "noteOn",
      "note": 47,
      "velocity": 79,
      "vel": 0.629921,
      "time": 165.59972344846184,
      "name": "B2",
      "svgX": 98128.01,
      "svgY": 966.74
    },
    {
      "absoluteTicks": 265414,
      "channel": 13,
      "type": "noteOff",
      "note": 74,
      "velocity": 79,
      "rel": 0.629921,
      "time": 165.88347317459977,
      "name": "D5"
    },
    {
      "absoluteTicks": 265414,
      "channel": 13,
      "type": "noteOff",
      "note": 71,
      "velocity": 79,
      "rel": 0.629921,
      "time": 165.88347317459977,
      "name": "B4"
    },
    {
      "absoluteTicks": 265414,
      "channel": 13,
      "type": "noteOff",
      "note": 47,
      "velocity": 79,
      "rel": 0.629921,
      "time": 165.88347317459977,
      "name": "B2"
    },
    {
      "absoluteTicks": 265440,
      "channel": 13,
      "type": "noteOn",
      "note": 71,
      "velocity": 79,
      "vel": 0.629921,
      "time": 165.89972294746266,
      "name": "B4",
      "svgX": 98304.88,
      "svgY": 720.25
    },
    {
      "absoluteTicks": 265440,
      "channel": 13,
      "type": "noteOn",
      "note": 54,
      "velocity": 79,
      "vel": 0.629921,
      "time": 165.89972294746266,
      "name": "F#3",
      "svgX": 98304.88,
      "svgY": 894.85
    },
    {
      "absoluteTicks": 265665,
      "channel": 13,
      "type": "noteOff",
      "note": 71,
      "velocity": 79,
      "rel": 0.629921,
      "time": 166.04097231157624,
      "name": "B4"
    },
    {
      "absoluteTicks": 265680,
      "channel": 13,
      "type": "noteOn",
      "note": 73,
      "velocity": 79,
      "vel": 0.629921,
      "time": 166.0497226969631,
      "name": "C#5",
      "svgX": 98393.31,
      "svgY": 699.71
    },
    {
      "absoluteTicks": 265894,
      "channel": 13,
      "type": "noteOff",
      "note": 54,
      "velocity": 79,
      "rel": 0.629921,
      "time": 166.18347267360062,
      "name": "F#3"
    },
    {
      "absoluteTicks": 265905,
      "channel": 13,
      "type": "noteOff",
      "note": 73,
      "velocity": 79,
      "rel": 0.629921,
      "time": 166.19097206107665,
      "name": "C#5"
    },
    {
      "absoluteTicks": 265920,
      "channel": 13,
      "type": "noteOn",
      "note": 74,
      "velocity": 79,
      "vel": 0.629921,
      "time": 166.1997224464635,
      "name": "D5",
      "svgX": 98481.75,
      "svgY": 689.44
    },
    {
      "absoluteTicks": 265920,
      "channel": 13,
      "type": "noteOn",
      "note": 59,
      "velocity": 79,
      "vel": 0.629921,
      "time": 166.1997224464635,
      "name": "B3",
      "svgX": 98481.75,
      "svgY": 843.5
    },
    {
      "absoluteTicks": 266374,
      "channel": 13,
      "type": "noteOff",
      "note": 74,
      "velocity": 79,
      "rel": 0.629921,
      "time": 166.48347217260147,
      "name": "D5"
    },
    {
      "absoluteTicks": 266374,
      "channel": 13,
      "type": "noteOff",
      "note": 59,
      "velocity": 79,
      "rel": 0.629921,
      "time": 166.48347217260147,
      "name": "B3"
    },
    {
      "absoluteTicks": 266400,
      "channel": 13,
      "type": "noteOn",
      "note": 71,
      "velocity": 79,
      "vel": 0.629921,
      "time": 166.49972194546433,
      "name": "B4",
      "svgX": 98658.61,
      "svgY": 720.25
    },
    {
      "absoluteTicks": 266400,
      "channel": 13,
      "type": "noteOn",
      "note": 62,
      "velocity": 79,
      "vel": 0.629921,
      "time": 166.49972194546433,
      "name": "D4",
      "svgX": 98658.61,
      "svgY": 812.69
    },
    {
      "absoluteTicks": 266854,
      "channel": 13,
      "type": "noteOff",
      "note": 71,
      "velocity": 79,
      "rel": 0.629921,
      "time": 166.78347167160229,
      "name": "B4"
    },
    {
      "absoluteTicks": 266854,
      "channel": 13,
      "type": "noteOff",
      "note": 62,
      "velocity": 79,
      "rel": 0.629921,
      "time": 166.78347167160229,
      "name": "D4"
    },
    {
      "absoluteTicks": 266880,
      "channel": 13,
      "type": "noteOn",
      "note": 73,
      "velocity": 79,
      "vel": 0.629921,
      "time": 166.79972144446518,
      "name": "C#5",
      "svgX": 98835.48,
      "svgY": 699.71
    },
    {
      "absoluteTicks": 266880,
      "channel": 13,
      "type": "noteOn",
      "note": 69,
      "velocity": 79,
      "vel": 0.629921,
      "time": 166.79972144446518,
      "name": "A4",
      "svgX": 98835.48,
      "svgY": 740.79
    },
    {
      "absoluteTicks": 266880,
      "channel": 13,
      "type": "noteOn",
      "note": 42,
      "velocity": 79,
      "vel": 0.629921,
      "time": 166.79972144446518,
      "name": "F#2",
      "svgX": 98835.48,
      "svgY": 1018.09
    },
    {
      "absoluteTicks": 267334,
      "channel": 13,
      "type": "noteOff",
      "note": 73,
      "velocity": 79,
      "rel": 0.629921,
      "time": 167.08347117060313,
      "name": "C#5"
    },
    {
      "absoluteTicks": 267334,
      "channel": 13,
      "type": "noteOff",
      "note": 69,
      "velocity": 79,
      "rel": 0.629921,
      "time": 167.08347117060313,
      "name": "A4"
    },
    {
      "absoluteTicks": 267334,
      "channel": 13,
      "type": "noteOff",
      "note": 42,
      "velocity": 79,
      "rel": 0.629921,
      "time": 167.08347117060313,
      "name": "F#2"
    },
    {
      "absoluteTicks": 267360,
      "channel": 13,
      "type": "noteOn",
      "note": 81,
      "velocity": 79,
      "vel": 0.629921,
      "time": 167.09972094346602,
      "name": "A5",
      "svgX": 99012.35,
      "svgY": 617.55
    },
    {
      "absoluteTicks": 267360,
      "channel": 13,
      "type": "noteOn",
      "note": 49,
      "velocity": 79,
      "vel": 0.629921,
      "time": 167.09972094346602,
      "name": "C#3",
      "svgX": 99012.35,
      "svgY": 946.2
    },
    {
      "absoluteTicks": 267585,
      "channel": 13,
      "type": "noteOff",
      "note": 81,
      "velocity": 79,
      "rel": 0.629921,
      "time": 167.2409703075796,
      "name": "A5"
    },
    {
      "absoluteTicks": 267600,
      "channel": 13,
      "type": "noteOn",
      "note": 79,
      "velocity": 79,
      "vel": 0.629921,
      "time": 167.24972069296643,
      "name": "G5",
      "svgX": 99100.78,
      "svgY": 638.09
    },
    {
      "absoluteTicks": 267814,
      "channel": 13,
      "type": "noteOff",
      "note": 49,
      "velocity": 79,
      "rel": 0.629921,
      "time": 167.38347066960398,
      "name": "C#3"
    },
    {
      "absoluteTicks": 267825,
      "channel": 13,
      "type": "noteOff",
      "note": 79,
      "velocity": 79,
      "rel": 0.629921,
      "time": 167.39097005708,
      "name": "G5"
    },
    {
      "absoluteTicks": 267840,
      "channel": 13,
      "type": "noteOn",
      "note": 78,
      "velocity": 79,
      "vel": 0.629921,
      "time": 167.39972044246684,
      "name": "F#5",
      "svgX": 99189.21,
      "svgY": 648.36
    },
    {
      "absoluteTicks": 267840,
      "channel": 13,
      "type": "noteOn",
      "note": 54,
      "velocity": 79,
      "vel": 0.629921,
      "time": 167.39972044246684,
      "name": "F#3",
      "svgX": 99189.21,
      "svgY": 894.85
    },
    {
      "absoluteTicks": 268294,
      "channel": 13,
      "type": "noteOff",
      "note": 78,
      "velocity": 79,
      "rel": 0.629921,
      "time": 167.6834701686048,
      "name": "F#5"
    },
    {
      "absoluteTicks": 268294,
      "channel": 13,
      "type": "noteOff",
      "note": 54,
      "velocity": 79,
      "rel": 0.629921,
      "time": 167.6834701686048,
      "name": "F#3"
    },
    {
      "absoluteTicks": 268320,
      "channel": 13,
      "type": "noteOn",
      "note": 76,
      "velocity": 79,
      "vel": 0.629921,
      "time": 167.6997199414677,
      "name": "E5",
      "svgX": 99366.08,
      "svgY": 668.9
    },
    {
      "absoluteTicks": 268320,
      "channel": 13,
      "type": "noteOn",
      "note": 57,
      "velocity": 79,
      "vel": 0.629921,
      "time": 167.6997199414677,
      "name": "A3",
      "svgX": 99366.08,
      "svgY": 864.04
    },
    {
      "absoluteTicks": 268774,
      "channel": 13,
      "type": "noteOff",
      "note": 76,
      "velocity": 79,
      "rel": 0.629921,
      "time": 167.98346966760565,
      "name": "E5"
    },
    {
      "absoluteTicks": 268774,
      "channel": 13,
      "type": "noteOff",
      "note": 57,
      "velocity": 79,
      "rel": 0.629921,
      "time": 167.98346966760565,
      "name": "A3"
    },
    {
      "absoluteTicks": 268800,
      "channel": 13,
      "type": "noteOn",
      "note": 74,
      "velocity": 79,
      "vel": 0.629921,
      "time": 167.99971944046854,
      "name": "D5",
      "svgX": 99542.95,
      "svgY": 689.44
    },
    {
      "absoluteTicks": 268800,
      "channel": 13,
      "type": "noteOn",
      "note": 71,
      "velocity": 79,
      "vel": 0.629921,
      "time": 167.99971944046854,
      "name": "B4",
      "svgX": 99542.95,
      "svgY": 720.25
    },
    {
      "absoluteTicks": 268800,
      "channel": 13,
      "type": "noteOn",
      "note": 43,
      "velocity": 79,
      "vel": 0.629921,
      "time": 167.99971944046854,
      "name": "G2",
      "svgX": 99542.95,
      "svgY": 1007.82
    },
    {
      "absoluteTicks": 269254,
      "channel": 13,
      "type": "noteOff",
      "note": 74,
      "velocity": 79,
      "rel": 0.629921,
      "time": 168.28346916660647,
      "name": "D5"
    },
    {
      "absoluteTicks": 269254,
      "channel": 13,
      "type": "noteOff",
      "note": 71,
      "velocity": 79,
      "rel": 0.629921,
      "time": 168.28346916660647,
      "name": "B4"
    },
    {
      "absoluteTicks": 269254,
      "channel": 13,
      "type": "noteOff",
      "note": 43,
      "velocity": 79,
      "rel": 0.629921,
      "time": 168.28346916660647,
      "name": "G2"
    },
    {
      "absoluteTicks": 269280,
      "channel": 13,
      "type": "noteOn",
      "note": 79,
      "velocity": 79,
      "vel": 0.629921,
      "time": 168.29971893946936,
      "name": "G5",
      "svgX": 99719.82,
      "svgY": 638.09
    },
    {
      "absoluteTicks": 269280,
      "channel": 13,
      "type": "noteOn",
      "note": 50,
      "velocity": 79,
      "vel": 0.629921,
      "time": 168.29971893946936,
      "name": "D3",
      "svgX": 99719.82,
      "svgY": 935.93
    },
    {
      "absoluteTicks": 269505,
      "channel": 13,
      "type": "noteOff",
      "note": 79,
      "velocity": 79,
      "rel": 0.629921,
      "time": 168.44096830358293,
      "name": "G5"
    },
    {
      "absoluteTicks": 269520,
      "channel": 13,
      "type": "noteOn",
      "note": 78,
      "velocity": 79,
      "vel": 0.629921,
      "time": 168.4497186889698,
      "name": "F#5",
      "svgX": 99808.25,
      "svgY": 648.36
    },
    {
      "absoluteTicks": 269734,
      "channel": 13,
      "type": "noteOff",
      "note": 50,
      "velocity": 79,
      "rel": 0.629921,
      "time": 168.5834686656073,
      "name": "D3"
    },
    {
      "absoluteTicks": 269745,
      "channel": 13,
      "type": "noteOff",
      "note": 78,
      "velocity": 79,
      "rel": 0.629921,
      "time": 168.59096805308334,
      "name": "F#5"
    },
    {
      "absoluteTicks": 269760,
      "channel": 13,
      "type": "noteOn",
      "note": 76,
      "velocity": 79,
      "vel": 0.629921,
      "time": 168.5997184384702,
      "name": "E5",
      "svgX": 99896.68,
      "svgY": 668.9
    },
    {
      "absoluteTicks": 269760,
      "channel": 13,
      "type": "noteOn",
      "note": 55,
      "velocity": 79,
      "vel": 0.629921,
      "time": 168.5997184384702,
      "name": "G3",
      "svgX": 99896.68,
      "svgY": 884.58
    },
    {
      "absoluteTicks": 270214,
      "channel": 13,
      "type": "noteOff",
      "note": 76,
      "velocity": 79,
      "rel": 0.629921,
      "time": 168.88346816460816,
      "name": "E5"
    },
    {
      "absoluteTicks": 270214,
      "channel": 13,
      "type": "noteOff",
      "note": 55,
      "velocity": 79,
      "rel": 0.629921,
      "time": 168.88346816460816,
      "name": "G3"
    },
    {
      "absoluteTicks": 270240,
      "channel": 13,
      "type": "noteOn",
      "note": 79,
      "velocity": 79,
      "vel": 0.629921,
      "time": 168.89971793747102,
      "name": "G5",
      "svgX": 100073.55,
      "svgY": 638.09
    },
    {
      "absoluteTicks": 270240,
      "channel": 13,
      "type": "noteOn",
      "note": 59,
      "velocity": 79,
      "vel": 0.629921,
      "time": 168.89971793747102,
      "name": "B3",
      "svgX": 100073.55,
      "svgY": 843.5
    },
    {
      "absoluteTicks": 270694,
      "channel": 13,
      "type": "noteOff",
      "note": 79,
      "velocity": 79,
      "rel": 0.629921,
      "time": 169.18346766360898,
      "name": "G5"
    },
    {
      "absoluteTicks": 270694,
      "channel": 13,
      "type": "noteOff",
      "note": 59,
      "velocity": 79,
      "rel": 0.629921,
      "time": 169.18346766360898,
      "name": "B3"
    },
    {
      "absoluteTicks": 270720,
      "channel": 13,
      "type": "noteOn",
      "note": 78,
      "velocity": 79,
      "vel": 0.629921,
      "time": 169.19971743647187,
      "name": "F#5",
      "svgX": 100250.42,
      "svgY": 648.36
    },
    {
      "absoluteTicks": 270720,
      "channel": 13,
      "type": "noteOn",
      "note": 69,
      "velocity": 79,
      "vel": 0.629921,
      "time": 169.19971743647187,
      "name": "A4",
      "svgX": 100250.42,
      "svgY": 740.79
    },
    {
      "absoluteTicks": 270720,
      "channel": 13,
      "type": "noteOn",
      "note": 38,
      "velocity": 79,
      "vel": 0.629921,
      "time": 169.19971743647187,
      "name": "D2",
      "svgX": 100250.42,
      "svgY": 1059.17
    },
    {
      "absoluteTicks": 271174,
      "channel": 13,
      "type": "noteOff",
      "note": 78,
      "velocity": 79,
      "rel": 0.629921,
      "time": 169.48346716260983,
      "name": "F#5"
    },
    {
      "absoluteTicks": 271174,
      "channel": 13,
      "type": "noteOff",
      "note": 69,
      "velocity": 79,
      "rel": 0.629921,
      "time": 169.48346716260983,
      "name": "A4"
    },
    {
      "absoluteTicks": 271174,
      "channel": 13,
      "type": "noteOff",
      "note": 38,
      "velocity": 79,
      "rel": 0.629921,
      "time": 169.48346716260983,
      "name": "D2"
    },
    {
      "absoluteTicks": 271200,
      "channel": 13,
      "type": "noteOn",
      "note": 74,
      "velocity": 79,
      "vel": 0.629921,
      "time": 169.49971693547272,
      "name": "D5",
      "svgX": 100427.29,
      "svgY": 689.44
    },
    {
      "absoluteTicks": 271200,
      "channel": 13,
      "type": "noteOn",
      "note": 45,
      "velocity": 79,
      "vel": 0.629921,
      "time": 169.49971693547272,
      "name": "A2",
      "svgX": 100427.29,
      "svgY": 987.28
    },
    {
      "absoluteTicks": 271425,
      "channel": 13,
      "type": "noteOff",
      "note": 74,
      "velocity": 79,
      "rel": 0.629921,
      "time": 169.6409662995863,
      "name": "D5"
    },
    {
      "absoluteTicks": 271440,
      "channel": 13,
      "type": "noteOn",
      "note": 76,
      "velocity": 79,
      "vel": 0.629921,
      "time": 169.64971668497313,
      "name": "E5",
      "svgX": 100515.72,
      "svgY": 668.9
    },
    {
      "absoluteTicks": 271654,
      "channel": 13,
      "type": "noteOff",
      "note": 45,
      "velocity": 79,
      "rel": 0.629921,
      "time": 169.78346666161067,
      "name": "A2"
    },
    {
      "absoluteTicks": 271665,
      "channel": 13,
      "type": "noteOff",
      "note": 76,
      "velocity": 79,
      "rel": 0.629921,
      "time": 169.7909660490867,
      "name": "E5"
    },
    {
      "absoluteTicks": 271680,
      "channel": 13,
      "type": "noteOn",
      "note": 78,
      "velocity": 79,
      "vel": 0.629921,
      "time": 169.79971643447354,
      "name": "F#5",
      "svgX": 100604.15,
      "svgY": 648.36
    },
    {
      "absoluteTicks": 271680,
      "channel": 13,
      "type": "noteOn",
      "note": 50,
      "velocity": 79,
      "vel": 0.629921,
      "time": 169.79971643447354,
      "name": "D3",
      "svgX": 100604.15,
      "svgY": 935.93
    },
    {
      "absoluteTicks": 272134,
      "channel": 13,
      "type": "noteOff",
      "note": 78,
      "velocity": 79,
      "rel": 0.629921,
      "time": 170.0834661606115,
      "name": "F#5"
    },
    {
      "absoluteTicks": 272134,
      "channel": 13,
      "type": "noteOff",
      "note": 50,
      "velocity": 79,
      "rel": 0.629921,
      "time": 170.0834661606115,
      "name": "D3"
    },
    {
      "absoluteTicks": 272160,
      "channel": 13,
      "type": "noteOn",
      "note": 81,
      "velocity": 79,
      "vel": 0.629921,
      "time": 170.09971593347439,
      "name": "A5",
      "svgX": 100781.02,
      "svgY": 617.55
    },
    {
      "absoluteTicks": 272160,
      "channel": 13,
      "type": "noteOn",
      "note": 54,
      "velocity": 79,
      "vel": 0.629921,
      "time": 170.09971593347439,
      "name": "F#3",
      "svgX": 100781.02,
      "svgY": 894.85
    },
    {
      "absoluteTicks": 272614,
      "channel": 13,
      "type": "noteOff",
      "note": 81,
      "velocity": 79,
      "rel": 0.629921,
      "time": 170.38346565961234,
      "name": "A5"
    },
    {
      "absoluteTicks": 272614,
      "channel": 13,
      "type": "noteOff",
      "note": 54,
      "velocity": 79,
      "rel": 0.629921,
      "time": 170.38346565961234,
      "name": "F#3"
    },
    {
      "absoluteTicks": 272640,
      "channel": 13,
      "type": "noteOn",
      "note": 83,
      "velocity": 79,
      "vel": 0.629921,
      "time": 170.39971543247523,
      "name": "B5",
      "svgX": 100957.89,
      "svgY": 597.01
    },
    {
      "absoluteTicks": 272640,
      "channel": 13,
      "type": "noteOn",
      "note": 79,
      "velocity": 79,
      "vel": 0.629921,
      "time": 170.39971543247523,
      "name": "G5",
      "svgX": 100957.89,
      "svgY": 638.09
    },
    {
      "absoluteTicks": 272640,
      "channel": 13,
      "type": "noteOn",
      "note": 43,
      "velocity": 79,
      "vel": 0.629921,
      "time": 170.39971543247523,
      "name": "G2",
      "svgX": 100957.89,
      "svgY": 1007.82
    },
    {
      "absoluteTicks": 273094,
      "channel": 13,
      "type": "noteOff",
      "note": 83,
      "velocity": 79,
      "rel": 0.629921,
      "time": 170.68346515861316,
      "name": "B5"
    },
    {
      "absoluteTicks": 273094,
      "channel": 13,
      "type": "noteOff",
      "note": 79,
      "velocity": 79,
      "rel": 0.629921,
      "time": 170.68346515861316,
      "name": "G5"
    },
    {
      "absoluteTicks": 273094,
      "channel": 13,
      "type": "noteOff",
      "note": 43,
      "velocity": 79,
      "rel": 0.629921,
      "time": 170.68346515861316,
      "name": "G2"
    },
    {
      "absoluteTicks": 273120,
      "channel": 13,
      "type": "noteOn",
      "note": 83,
      "velocity": 79,
      "vel": 0.629921,
      "time": 170.69971493147605,
      "name": "B5",
      "svgX": 101134.75,
      "svgY": 597.01
    },
    {
      "absoluteTicks": 273120,
      "channel": 13,
      "type": "noteOn",
      "note": 50,
      "velocity": 79,
      "vel": 0.629921,
      "time": 170.69971493147605,
      "name": "D3",
      "svgX": 101134.75,
      "svgY": 935.93
    },
    {
      "absoluteTicks": 273345,
      "channel": 13,
      "type": "noteOff",
      "note": 83,
      "velocity": 79,
      "rel": 0.629921,
      "time": 170.84096429558963,
      "name": "B5"
    },
    {
      "absoluteTicks": 273360,
      "channel": 13,
      "type": "noteOn",
      "note": 81,
      "velocity": 79,
      "vel": 0.629921,
      "time": 170.84971468097646,
      "name": "A5",
      "svgX": 101223.19,
      "svgY": 617.55
    },
    {
      "absoluteTicks": 273574,
      "channel": 13,
      "type": "noteOff",
      "note": 50,
      "velocity": 79,
      "rel": 0.629921,
      "time": 170.983464657614,
      "name": "D3"
    },
    {
      "absoluteTicks": 273585,
      "channel": 13,
      "type": "noteOff",
      "note": 81,
      "velocity": 79,
      "rel": 0.629921,
      "time": 170.99096404509004,
      "name": "A5"
    },
    {
      "absoluteTicks": 273600,
      "channel": 13,
      "type": "noteOn",
      "note": 79,
      "velocity": 79,
      "vel": 0.629921,
      "time": 170.9997144304769,
      "name": "G5",
      "svgX": 101311.62,
      "svgY": 638.09
    },
    {
      "absoluteTicks": 273600,
      "channel": 13,
      "type": "noteOn",
      "note": 55,
      "velocity": 79,
      "vel": 0.629921,
      "time": 170.9997144304769,
      "name": "G3",
      "svgX": 101311.62,
      "svgY": 884.58
    },
    {
      "absoluteTicks": 274054,
      "channel": 13,
      "type": "noteOff",
      "note": 79,
      "velocity": 79,
      "rel": 0.629921,
      "time": 171.28346415661485,
      "name": "G5"
    },
    {
      "absoluteTicks": 274054,
      "channel": 13,
      "type": "noteOff",
      "note": 55,
      "velocity": 79,
      "rel": 0.629921,
      "time": 171.28346415661485,
      "name": "G3"
    },
    {
      "absoluteTicks": 274080,
      "channel": 13,
      "type": "noteOn",
      "note": 83,
      "velocity": 79,
      "vel": 0.629921,
      "time": 171.29971392947772,
      "name": "B5",
      "svgX": 101488.49,
      "svgY": 597.01
    },
    {
      "absoluteTicks": 274080,
      "channel": 13,
      "type": "noteOn",
      "note": 59,
      "velocity": 79,
      "vel": 0.629921,
      "time": 171.29971392947772,
      "name": "B3",
      "svgX": 101488.49,
      "svgY": 843.5
    },
    {
      "absoluteTicks": 274534,
      "channel": 13,
      "type": "noteOff",
      "note": 83,
      "velocity": 79,
      "rel": 0.629921,
      "time": 171.58346365561567,
      "name": "B5"
    },
    {
      "absoluteTicks": 274534,
      "channel": 13,
      "type": "noteOff",
      "note": 59,
      "velocity": 79,
      "rel": 0.629921,
      "time": 171.58346365561567,
      "name": "B3"
    },
    {
      "absoluteTicks": 274560,
      "channel": 13,
      "type": "noteOn",
      "note": 76,
      "velocity": 79,
      "vel": 0.629921,
      "time": 171.59971342847857,
      "name": "E5",
      "svgX": 101665.36,
      "svgY": 668.9
    },
    {
      "absoluteTicks": 274560,
      "channel": 13,
      "type": "noteOn",
      "note": 73,
      "velocity": 79,
      "vel": 0.629921,
      "time": 171.59971342847857,
      "name": "C#5",
      "svgX": 101665.36,
      "svgY": 699.71
    },
    {
      "absoluteTicks": 274560,
      "channel": 13,
      "type": "noteOn",
      "note": 45,
      "velocity": 79,
      "vel": 0.629921,
      "time": 171.59971342847857,
      "name": "A2",
      "svgX": 101665.36,
      "svgY": 987.28
    },
    {
      "absoluteTicks": 275014,
      "channel": 13,
      "type": "noteOff",
      "note": 76,
      "velocity": 79,
      "rel": 0.629921,
      "time": 171.88346315461652,
      "name": "E5"
    },
    {
      "absoluteTicks": 275014,
      "channel": 13,
      "type": "noteOff",
      "note": 73,
      "velocity": 79,
      "rel": 0.629921,
      "time": 171.88346315461652,
      "name": "C#5"
    },
    {
      "absoluteTicks": 275014,
      "channel": 13,
      "type": "noteOff",
      "note": 45,
      "velocity": 79,
      "rel": 0.629921,
      "time": 171.88346315461652,
      "name": "A2"
    },
    {
      "absoluteTicks": 275040,
      "channel": 13,
      "type": "noteOn",
      "note": 81,
      "velocity": 79,
      "vel": 0.629921,
      "time": 171.8997129274794,
      "name": "A5",
      "svgX": 101842.22,
      "svgY": 617.55
    },
    {
      "absoluteTicks": 275040,
      "channel": 13,
      "type": "noteOn",
      "note": 52,
      "velocity": 79,
      "vel": 0.629921,
      "time": 171.8997129274794,
      "name": "E3",
      "svgX": 101842.22,
      "svgY": 915.39
    },
    {
      "absoluteTicks": 275265,
      "channel": 13,
      "type": "noteOff",
      "note": 81,
      "velocity": 79,
      "rel": 0.629921,
      "time": 172.04096229159296,
      "name": "A5"
    },
    {
      "absoluteTicks": 275280,
      "channel": 13,
      "type": "noteOn",
      "note": 79,
      "velocity": 79,
      "vel": 0.629921,
      "time": 172.04971267697982,
      "name": "G5",
      "svgX": 101930.66,
      "svgY": 638.09
    },
    {
      "absoluteTicks": 275494,
      "channel": 13,
      "type": "noteOff",
      "note": 52,
      "velocity": 79,
      "rel": 0.629921,
      "time": 172.18346265361737,
      "name": "E3"
    },
    {
      "absoluteTicks": 275505,
      "channel": 13,
      "type": "noteOff",
      "note": 79,
      "velocity": 79,
      "rel": 0.629921,
      "time": 172.1909620410934,
      "name": "G5"
    },
    {
      "absoluteTicks": 275520,
      "channel": 13,
      "type": "noteOn",
      "note": 78,
      "velocity": 79,
      "vel": 0.629921,
      "time": 172.19971242648023,
      "name": "F#5",
      "svgX": 102019.09,
      "svgY": 648.36
    },
    {
      "absoluteTicks": 275520,
      "channel": 13,
      "type": "noteOn",
      "note": 57,
      "velocity": 79,
      "vel": 0.629921,
      "time": 172.19971242648023,
      "name": "A3",
      "svgX": 102019.09,
      "svgY": 864.04
    },
    {
      "absoluteTicks": 275974,
      "channel": 13,
      "type": "noteOff",
      "note": 78,
      "velocity": 79,
      "rel": 0.629921,
      "time": 172.4834621526182,
      "name": "F#5"
    },
    {
      "absoluteTicks": 275974,
      "channel": 13,
      "type": "noteOff",
      "note": 57,
      "velocity": 79,
      "rel": 0.629921,
      "time": 172.4834621526182,
      "name": "A3"
    },
    {
      "absoluteTicks": 276000,
      "channel": 13,
      "type": "noteOn",
      "note": 76,
      "velocity": 79,
      "vel": 0.629921,
      "time": 172.49971192548108,
      "name": "E5",
      "svgX": 102195.96,
      "svgY": 668.9
    },
    {
      "absoluteTicks": 276000,
      "channel": 13,
      "type": "noteOn",
      "note": 61,
      "velocity": 79,
      "vel": 0.629921,
      "time": 172.49971192548108,
      "name": "C#4",
      "svgX": 102195.96,
      "svgY": 822.96
    },
    {
      "absoluteTicks": 276454,
      "channel": 13,
      "type": "noteOff",
      "note": 76,
      "velocity": 79,
      "rel": 0.629921,
      "time": 172.78346165161904,
      "name": "E5"
    },
    {
      "absoluteTicks": 276454,
      "channel": 13,
      "type": "noteOff",
      "note": 61,
      "velocity": 79,
      "rel": 0.629921,
      "time": 172.78346165161904,
      "name": "C#4"
    },
    {
      "absoluteTicks": 276480,
      "channel": 13,
      "type": "noteOn",
      "note": 78,
      "velocity": 79,
      "vel": 0.629921,
      "time": 172.7997114244819,
      "name": "F#5",
      "svgX": 102372.83,
      "svgY": 648.36
    },
    {
      "absoluteTicks": 276480,
      "channel": 13,
      "type": "noteOn",
      "note": 74,
      "velocity": 79,
      "vel": 0.629921,
      "time": 172.7997114244819,
      "name": "D5",
      "svgX": 102372.83,
      "svgY": 689.44
    },
    {
      "absoluteTicks": 276480,
      "channel": 13,
      "type": "noteOn",
      "note": 50,
      "velocity": 79,
      "vel": 0.629921,
      "time": 172.7997114244819,
      "name": "D3",
      "svgX": 102372.83,
      "svgY": 935.93
    },
    {
      "absoluteTicks": 276934,
      "channel": 13,
      "type": "noteOff",
      "note": 78,
      "velocity": 79,
      "rel": 0.629921,
      "time": 173.08346115061985,
      "name": "F#5"
    },
    {
      "absoluteTicks": 276934,
      "channel": 13,
      "type": "noteOff",
      "note": 74,
      "velocity": 79,
      "rel": 0.629921,
      "time": 173.08346115061985,
      "name": "D5"
    },
    {
      "absoluteTicks": 276934,
      "channel": 13,
      "type": "noteOff",
      "note": 50,
      "velocity": 79,
      "rel": 0.629921,
      "time": 173.08346115061985,
      "name": "D3"
    },
    {
      "absoluteTicks": 276960,
      "channel": 13,
      "type": "noteOn",
      "note": 74,
      "velocity": 79,
      "vel": 0.629921,
      "time": 173.09971092348275,
      "name": "D5",
      "svgX": 102549.69,
      "svgY": 689.44
    },
    {
      "absoluteTicks": 276960,
      "channel": 13,
      "type": "noteOn",
      "note": 57,
      "velocity": 79,
      "vel": 0.629921,
      "time": 173.09971092348275,
      "name": "A3",
      "svgX": 102549.69,
      "svgY": 864.04
    },
    {
      "absoluteTicks": 277185,
      "channel": 13,
      "type": "noteOff",
      "note": 74,
      "velocity": 79,
      "rel": 0.629921,
      "time": 173.24096028759632,
      "name": "D5"
    },
    {
      "absoluteTicks": 277200,
      "channel": 13,
      "type": "noteOn",
      "note": 73,
      "velocity": 79,
      "vel": 0.629921,
      "time": 173.24971067298316,
      "name": "C#5",
      "svgX": 102638.13,
      "svgY": 699.71
    },
    {
      "absoluteTicks": 277414,
      "channel": 13,
      "type": "noteOff",
      "note": 57,
      "velocity": 79,
      "rel": 0.629921,
      "time": 173.3834606496207,
      "name": "A3"
    },
    {
      "absoluteTicks": 277425,
      "channel": 13,
      "type": "noteOff",
      "note": 73,
      "velocity": 79,
      "rel": 0.629921,
      "time": 173.39096003709673,
      "name": "C#5"
    },
    {
      "absoluteTicks": 277440,
      "channel": 13,
      "type": "noteOn",
      "note": 74,
      "velocity": 79,
      "vel": 0.629921,
      "time": 173.3997104224836,
      "name": "D5",
      "svgX": 102726.56,
      "svgY": 689.44
    },
    {
      "absoluteTicks": 277440,
      "channel": 13,
      "type": "noteOn",
      "note": 62,
      "velocity": 79,
      "vel": 0.629921,
      "time": 173.3997104224836,
      "name": "D4",
      "svgX": 102726.56,
      "svgY": 812.69
    },
    {
      "absoluteTicks": 277894,
      "channel": 13,
      "type": "noteOff",
      "note": 74,
      "velocity": 79,
      "rel": 0.629921,
      "time": 173.68346014862155,
      "name": "D5"
    },
    {
      "absoluteTicks": 277894,
      "channel": 13,
      "type": "noteOff",
      "note": 62,
      "velocity": 79,
      "rel": 0.629921,
      "time": 173.68346014862155,
      "name": "D4"
    },
    {
      "absoluteTicks": 277920,
      "channel": 13,
      "type": "noteOn",
      "note": 69,
      "velocity": 79,
      "vel": 0.629921,
      "time": 173.6997099214844,
      "name": "A4",
      "svgX": 102903.43,
      "svgY": 740.79
    },
    {
      "absoluteTicks": 277920,
      "channel": 13,
      "type": "noteOn",
      "note": 66,
      "velocity": 79,
      "vel": 0.629921,
      "time": 173.6997099214844,
      "name": "F#4",
      "svgX": 102903.43,
      "svgY": 771.6
    },
    {
      "absoluteTicks": 278374,
      "channel": 13,
      "type": "noteOff",
      "note": 69,
      "velocity": 79,
      "rel": 0.629921,
      "time": 173.98345964762237,
      "name": "A4"
    },
    {
      "absoluteTicks": 278374,
      "channel": 13,
      "type": "noteOff",
      "note": 66,
      "velocity": 79,
      "rel": 0.629921,
      "time": 173.98345964762237,
      "name": "F#4"
    },
    {
      "absoluteTicks": 278400,
      "channel": 13,
      "type": "noteOn",
      "note": 76,
      "velocity": 79,
      "vel": 0.629921,
      "time": 173.99970942048526,
      "name": "E5",
      "svgX": 103080.3,
      "svgY": 668.9
    },
    {
      "absoluteTicks": 278400,
      "channel": 13,
      "type": "noteOn",
      "note": 69,
      "velocity": 79,
      "vel": 0.629921,
      "time": 173.99970942048526,
      "name": "A4",
      "svgX": 103080.3,
      "svgY": 740.79
    },
    {
      "absoluteTicks": 278400,
      "channel": 13,
      "type": "noteOn",
      "note": 45,
      "velocity": 79,
      "vel": 0.629921,
      "time": 173.99970942048526,
      "name": "A2",
      "svgX": 103080.3,
      "svgY": 987.28
    },
    {
      "absoluteTicks": 278854,
      "channel": 13,
      "type": "noteOff",
      "note": 76,
      "velocity": 79,
      "rel": 0.629921,
      "time": 174.28345914662322,
      "name": "E5"
    },
    {
      "absoluteTicks": 278854,
      "channel": 13,
      "type": "noteOff",
      "note": 69,
      "velocity": 79,
      "rel": 0.629921,
      "time": 174.28345914662322,
      "name": "A4"
    },
    {
      "absoluteTicks": 278854,
      "channel": 13,
      "type": "noteOff",
      "note": 45,
      "velocity": 79,
      "rel": 0.629921,
      "time": 174.28345914662322,
      "name": "A2"
    },
    {
      "absoluteTicks": 278880,
      "channel": 13,
      "type": "noteOn",
      "note": 69,
      "velocity": 79,
      "vel": 0.629921,
      "time": 174.2997089194861,
      "name": "A4",
      "svgX": 103257.16,
      "svgY": 740.79
    },
    {
      "absoluteTicks": 278880,
      "channel": 13,
      "type": "noteOn",
      "note": 52,
      "velocity": 79,
      "vel": 0.629921,
      "time": 174.2997089194861,
      "name": "E3",
      "svgX": 103257.16,
      "svgY": 915.39
    },
    {
      "absoluteTicks": 279105,
      "channel": 13,
      "type": "noteOff",
      "note": 69,
      "velocity": 79,
      "rel": 0.629921,
      "time": 174.44095828359966,
      "name": "A4"
    },
    {
      "absoluteTicks": 279120,
      "channel": 13,
      "type": "noteOn",
      "note": 71,
      "velocity": 79,
      "vel": 0.629921,
      "time": 174.44970866898652,
      "name": "B4",
      "svgX": 103345.6,
      "svgY": 720.25
    },
    {
      "absoluteTicks": 279334,
      "channel": 13,
      "type": "noteOff",
      "note": 52,
      "velocity": 79,
      "rel": 0.629921,
      "time": 174.58345864562403,
      "name": "E3"
    },
    {
      "absoluteTicks": 279345,
      "channel": 13,
      "type": "noteOff",
      "note": 71,
      "velocity": 79,
      "rel": 0.629921,
      "time": 174.5909580331001,
      "name": "B4"
    },
    {
      "absoluteTicks": 279360,
      "channel": 13,
      "type": "noteOn",
      "note": 73,
      "velocity": 79,
      "vel": 0.629921,
      "time": 174.59970841848693,
      "name": "C#5",
      "svgX": 103434.03,
      "svgY": 699.71
    },
    {
      "absoluteTicks": 279360,
      "channel": 13,
      "type": "noteOn",
      "note": 57,
      "velocity": 79,
      "vel": 0.629921,
      "time": 174.59970841848693,
      "name": "A3",
      "svgX": 103434.03,
      "svgY": 864.04
    },
    {
      "absoluteTicks": 279814,
      "channel": 13,
      "type": "noteOff",
      "note": 73,
      "velocity": 79,
      "rel": 0.629921,
      "time": 174.88345814462488,
      "name": "C#5"
    },
    {
      "absoluteTicks": 279814,
      "channel": 13,
      "type": "noteOff",
      "note": 57,
      "velocity": 79,
      "rel": 0.629921,
      "time": 174.88345814462488,
      "name": "A3"
    },
    {
      "absoluteTicks": 279840,
      "channel": 13,
      "type": "noteOn",
      "note": 69,
      "velocity": 79,
      "vel": 0.629921,
      "time": 174.89970791748777,
      "name": "A4",
      "svgX": 103610.9,
      "svgY": 740.79
    },
    {
      "absoluteTicks": 279840,
      "channel": 13,
      "type": "noteOn",
      "note": 61,
      "velocity": 79,
      "vel": 0.629921,
      "time": 174.89970791748777,
      "name": "C#4",
      "svgX": 103610.9,
      "svgY": 822.96
    },
    {
      "absoluteTicks": 280294,
      "channel": 13,
      "type": "noteOff",
      "note": 69,
      "velocity": 79,
      "rel": 0.629921,
      "time": 175.18345764362573,
      "name": "A4"
    },
    {
      "absoluteTicks": 280294,
      "channel": 13,
      "type": "noteOff",
      "note": 61,
      "velocity": 79,
      "rel": 0.629921,
      "time": 175.18345764362573,
      "name": "C#4"
    },
    {
      "absoluteTicks": 280320,
      "channel": 13,
      "type": "noteOn",
      "note": 74,
      "velocity": 79,
      "vel": 0.629921,
      "time": 175.1997074164886,
      "name": "D5",
      "svgX": 103787.76,
      "svgY": 689.44
    },
    {
      "absoluteTicks": 280320,
      "channel": 13,
      "type": "noteOn",
      "note": 71,
      "velocity": 79,
      "vel": 0.629921,
      "time": 175.1997074164886,
      "name": "B4",
      "svgX": 103787.76,
      "svgY": 720.25
    },
    {
      "absoluteTicks": 280320,
      "channel": 13,
      "type": "noteOn",
      "note": 47,
      "velocity": 79,
      "vel": 0.629921,
      "time": 175.1997074164886,
      "name": "B2",
      "svgX": 103787.76,
      "svgY": 966.74
    },
    {
      "absoluteTicks": 280774,
      "channel": 13,
      "type": "noteOff",
      "note": 74,
      "velocity": 79,
      "rel": 0.629921,
      "time": 175.48345714262655,
      "name": "D5"
    },
    {
      "absoluteTicks": 280774,
      "channel": 13,
      "type": "noteOff",
      "note": 71,
      "velocity": 79,
      "rel": 0.629921,
      "time": 175.48345714262655,
      "name": "B4"
    },
    {
      "absoluteTicks": 280774,
      "channel": 13,
      "type": "noteOff",
      "note": 47,
      "velocity": 79,
      "rel": 0.629921,
      "time": 175.48345714262655,
      "name": "B2"
    },
    {
      "absoluteTicks": 280800,
      "channel": 13,
      "type": "noteOn",
      "note": 74,
      "velocity": 79,
      "vel": 0.629921,
      "time": 175.49970691548944,
      "name": "D5",
      "svgX": 103964.63,
      "svgY": 689.44
    },
    {
      "absoluteTicks": 280800,
      "channel": 13,
      "type": "noteOn",
      "note": 54,
      "velocity": 79,
      "vel": 0.629921,
      "time": 175.49970691548944,
      "name": "F#3",
      "svgX": 103964.63,
      "svgY": 894.85
    },
    {
      "absoluteTicks": 281025,
      "channel": 13,
      "type": "noteOff",
      "note": 74,
      "velocity": 79,
      "rel": 0.629921,
      "time": 175.64095627960302,
      "name": "D5"
    },
    {
      "absoluteTicks": 281040,
      "channel": 13,
      "type": "noteOn",
      "note": 76,
      "velocity": 79,
      "vel": 0.629921,
      "time": 175.64970666498985,
      "name": "E5",
      "svgX": 104053.07,
      "svgY": 668.9
    },
    {
      "absoluteTicks": 281254,
      "channel": 13,
      "type": "noteOff",
      "note": 54,
      "velocity": 79,
      "rel": 0.629921,
      "time": 175.7834566416274,
      "name": "F#3"
    },
    {
      "absoluteTicks": 281265,
      "channel": 13,
      "type": "noteOff",
      "note": 76,
      "velocity": 79,
      "rel": 0.629921,
      "time": 175.79095602910343,
      "name": "E5"
    },
    {
      "absoluteTicks": 281280,
      "channel": 13,
      "type": "noteOn",
      "note": 78,
      "velocity": 79,
      "vel": 0.629921,
      "time": 175.7997064144903,
      "name": "F#5",
      "svgX": 104141.5,
      "svgY": 648.36
    },
    {
      "absoluteTicks": 281280,
      "channel": 13,
      "type": "noteOn",
      "note": 74,
      "velocity": 79,
      "vel": 0.629921,
      "time": 175.7997064144903,
      "name": "D5",
      "svgX": 104141.5,
      "svgY": 689.44
    },
    {
      "absoluteTicks": 281280,
      "channel": 13,
      "type": "noteOn",
      "note": 59,
      "velocity": 79,
      "vel": 0.629921,
      "time": 175.7997064144903,
      "name": "B3",
      "svgX": 104141.5,
      "svgY": 843.5
    },
    {
      "absoluteTicks": 281734,
      "channel": 13,
      "type": "noteOff",
      "note": 78,
      "velocity": 79,
      "rel": 0.629921,
      "time": 176.08345614062824,
      "name": "F#5"
    },
    {
      "absoluteTicks": 281734,
      "channel": 13,
      "type": "noteOff",
      "note": 74,
      "velocity": 79,
      "rel": 0.629921,
      "time": 176.08345614062824,
      "name": "D5"
    },
    {
      "absoluteTicks": 281734,
      "channel": 13,
      "type": "noteOff",
      "note": 59,
      "velocity": 79,
      "rel": 0.629921,
      "time": 176.08345614062824,
      "name": "B3"
    },
    {
      "absoluteTicks": 281760,
      "channel": 13,
      "type": "noteOn",
      "note": 74,
      "velocity": 79,
      "vel": 0.629921,
      "time": 176.0997059134911,
      "name": "D5",
      "svgX": 104318.37,
      "svgY": 689.44
    },
    {
      "absoluteTicks": 281760,
      "channel": 13,
      "type": "noteOn",
      "note": 62,
      "velocity": 79,
      "vel": 0.629921,
      "time": 176.0997059134911,
      "name": "D4",
      "svgX": 104318.37,
      "svgY": 812.69
    },
    {
      "absoluteTicks": 282214,
      "channel": 13,
      "type": "noteOff",
      "note": 74,
      "velocity": 79,
      "rel": 0.629921,
      "time": 176.38345563962906,
      "name": "D5"
    },
    {
      "absoluteTicks": 282214,
      "channel": 13,
      "type": "noteOff",
      "note": 62,
      "velocity": 79,
      "rel": 0.629921,
      "time": 176.38345563962906,
      "name": "D4"
    },
    {
      "absoluteTicks": 282240,
      "channel": 13,
      "type": "noteOn",
      "note": 78,
      "velocity": 79,
      "vel": 0.629921,
      "time": 176.39970541249195,
      "name": "F#5",
      "svgX": 104495.23,
      "svgY": 648.36
    },
    {
      "absoluteTicks": 282240,
      "channel": 13,
      "type": "noteOn",
      "note": 73,
      "velocity": 79,
      "vel": 0.629921,
      "time": 176.39970541249195,
      "name": "C#5",
      "svgX": 104495.23,
      "svgY": 699.71
    },
    {
      "absoluteTicks": 282240,
      "channel": 13,
      "type": "noteOn",
      "note": 42,
      "velocity": 79,
      "vel": 0.629921,
      "time": 176.39970541249195,
      "name": "F#2",
      "svgX": 104495.23,
      "svgY": 1018.09
    },
    {
      "absoluteTicks": 282694,
      "channel": 13,
      "type": "noteOff",
      "note": 78,
      "velocity": 79,
      "rel": 0.629921,
      "time": 176.6834551386299,
      "name": "F#5"
    },
    {
      "absoluteTicks": 282694,
      "channel": 13,
      "type": "noteOff",
      "note": 73,
      "velocity": 79,
      "rel": 0.629921,
      "time": 176.6834551386299,
      "name": "C#5"
    },
    {
      "absoluteTicks": 282694,
      "channel": 13,
      "type": "noteOff",
      "note": 42,
      "velocity": 79,
      "rel": 0.629921,
      "time": 176.6834551386299,
      "name": "F#2"
    },
    {
      "absoluteTicks": 282720,
      "channel": 13,
      "type": "noteOn",
      "note": 78,
      "velocity": 79,
      "vel": 0.629921,
      "time": 176.6997049114928,
      "name": "F#5",
      "svgX": 104672.1,
      "svgY": 648.36
    },
    {
      "absoluteTicks": 282720,
      "channel": 13,
      "type": "noteOn",
      "note": 49,
      "velocity": 79,
      "vel": 0.629921,
      "time": 176.6997049114928,
      "name": "C#3",
      "svgX": 104672.1,
      "svgY": 946.2
    },
    {
      "absoluteTicks": 282945,
      "channel": 13,
      "type": "noteOff",
      "note": 78,
      "velocity": 79,
      "rel": 0.629921,
      "time": 176.84095427560635,
      "name": "F#5"
    },
    {
      "absoluteTicks": 282960,
      "channel": 13,
      "type": "noteOn",
      "note": 76,
      "velocity": 79,
      "vel": 0.629921,
      "time": 176.8497046609932,
      "name": "E5",
      "svgX": 104760.53,
      "svgY": 668.9
    },
    {
      "absoluteTicks": 283174,
      "channel": 13,
      "type": "noteOff",
      "note": 49,
      "velocity": 79,
      "rel": 0.629921,
      "time": 176.98345463763073,
      "name": "C#3"
    },
    {
      "absoluteTicks": 283185,
      "channel": 13,
      "type": "noteOff",
      "note": 76,
      "velocity": 79,
      "rel": 0.629921,
      "time": 176.9909540251068,
      "name": "E5"
    },
    {
      "absoluteTicks": 283200,
      "channel": 13,
      "type": "noteOn",
      "note": 74,
      "velocity": 79,
      "vel": 0.629921,
      "time": 176.99970441049362,
      "name": "D5",
      "svgX": 104848.97,
      "svgY": 689.44
    },
    {
      "absoluteTicks": 283200,
      "channel": 13,
      "type": "noteOn",
      "note": 54,
      "velocity": 79,
      "vel": 0.629921,
      "time": 176.99970441049362,
      "name": "F#3",
      "svgX": 104848.97,
      "svgY": 894.85
    },
    {
      "absoluteTicks": 283654,
      "channel": 13,
      "type": "noteOff",
      "note": 74,
      "velocity": 79,
      "rel": 0.629921,
      "time": 177.28345413663158,
      "name": "D5"
    },
    {
      "absoluteTicks": 283654,
      "channel": 13,
      "type": "noteOff",
      "note": 54,
      "velocity": 79,
      "rel": 0.629921,
      "time": 177.28345413663158,
      "name": "F#3"
    },
    {
      "absoluteTicks": 283680,
      "channel": 13,
      "type": "noteOn",
      "note": 73,
      "velocity": 79,
      "vel": 0.629921,
      "time": 177.29970390949447,
      "name": "C#5",
      "svgX": 105025.84,
      "svgY": 699.71
    },
    {
      "absoluteTicks": 283680,
      "channel": 13,
      "type": "noteOn",
      "note": 57,
      "velocity": 79,
      "vel": 0.629921,
      "time": 177.29970390949447,
      "name": "A3",
      "svgX": 105025.84,
      "svgY": 864.04
    },
    {
      "absoluteTicks": 284134,
      "channel": 13,
      "type": "noteOff",
      "note": 73,
      "velocity": 79,
      "rel": 0.629921,
      "time": 177.58345363563242,
      "name": "C#5"
    },
    {
      "absoluteTicks": 284134,
      "channel": 13,
      "type": "noteOff",
      "note": 57,
      "velocity": 79,
      "rel": 0.629921,
      "time": 177.58345363563242,
      "name": "A3"
    },
    {
      "absoluteTicks": 284160,
      "channel": 13,
      "type": "noteOn",
      "note": 71,
      "velocity": 79,
      "vel": 0.629921,
      "time": 177.5997034084953,
      "name": "B4",
      "svgX": 105202.7,
      "svgY": 720.25
    },
    {
      "absoluteTicks": 284160,
      "channel": 13,
      "type": "noteOn",
      "note": 67,
      "velocity": 79,
      "vel": 0.629921,
      "time": 177.5997034084953,
      "name": "G4",
      "svgX": 105202.7,
      "svgY": 761.33
    },
    {
      "absoluteTicks": 284160,
      "channel": 13,
      "type": "noteOn",
      "note": 43,
      "velocity": 79,
      "vel": 0.629921,
      "time": 177.5997034084953,
      "name": "G2",
      "svgX": 105202.7,
      "svgY": 1007.82
    },
    {
      "absoluteTicks": 284614,
      "channel": 13,
      "type": "noteOff",
      "note": 71,
      "velocity": 79,
      "rel": 0.629921,
      "time": 177.88345313463324,
      "name": "B4"
    },
    {
      "absoluteTicks": 284614,
      "channel": 13,
      "type": "noteOff",
      "note": 67,
      "velocity": 79,
      "rel": 0.629921,
      "time": 177.88345313463324,
      "name": "G4"
    },
    {
      "absoluteTicks": 284614,
      "channel": 13,
      "type": "noteOff",
      "note": 43,
      "velocity": 79,
      "rel": 0.629921,
      "time": 177.88345313463324,
      "name": "G2"
    },
    {
      "absoluteTicks": 284640,
      "channel": 13,
      "type": "noteOn",
      "note": 71,
      "velocity": 79,
      "vel": 0.629921,
      "time": 177.89970290749613,
      "name": "B4",
      "svgX": 105379.57,
      "svgY": 720.25
    },
    {
      "absoluteTicks": 284640,
      "channel": 13,
      "type": "noteOn",
      "note": 50,
      "velocity": 79,
      "vel": 0.629921,
      "time": 177.89970290749613,
      "name": "D3",
      "svgX": 105379.57,
      "svgY": 935.93
    },
    {
      "absoluteTicks": 284865,
      "channel": 13,
      "type": "noteOff",
      "note": 71,
      "velocity": 79,
      "rel": 0.629921,
      "time": 178.0409522716097,
      "name": "B4"
    },
    {
      "absoluteTicks": 284880,
      "channel": 13,
      "type": "noteOn",
      "note": 69,
      "velocity": 79,
      "vel": 0.629921,
      "time": 178.04970265699654,
      "name": "A4",
      "svgX": 105468.0,
      "svgY": 740.79
    },
    {
      "absoluteTicks": 285094,
      "channel": 13,
      "type": "noteOff",
      "note": 50,
      "velocity": 79,
      "rel": 0.629921,
      "time": 178.1834526336341,
      "name": "D3"
    },
    {
      "absoluteTicks": 285105,
      "channel": 13,
      "type": "noteOff",
      "note": 69,
      "velocity": 79,
      "rel": 0.629921,
      "time": 178.19095202111012,
      "name": "A4"
    },
    {
      "absoluteTicks": 285120,
      "channel": 13,
      "type": "noteOn",
      "note": 71,
      "velocity": 79,
      "vel": 0.629921,
      "time": 178.19970240649698,
      "name": "B4",
      "svgX": 105556.44,
      "svgY": 720.25
    },
    {
      "absoluteTicks": 285120,
      "channel": 13,
      "type": "noteOn",
      "note": 55,
      "velocity": 79,
      "vel": 0.629921,
      "time": 178.19970240649698,
      "name": "G3",
      "svgX": 105556.44,
      "svgY": 884.58
    },
    {
      "absoluteTicks": 285574,
      "channel": 13,
      "type": "noteOff",
      "note": 71,
      "velocity": 79,
      "rel": 0.629921,
      "time": 178.48345213263494,
      "name": "B4"
    },
    {
      "absoluteTicks": 285574,
      "channel": 13,
      "type": "noteOff",
      "note": 55,
      "velocity": 79,
      "rel": 0.629921,
      "time": 178.48345213263494,
      "name": "G3"
    },
    {
      "absoluteTicks": 285600,
      "channel": 13,
      "type": "noteOn",
      "note": 73,
      "velocity": 79,
      "vel": 0.629921,
      "time": 178.4997019054978,
      "name": "C#5",
      "svgX": 105733.31,
      "svgY": 699.71
    },
    {
      "absoluteTicks": 285600,
      "channel": 13,
      "type": "noteOn",
      "note": 59,
      "velocity": 79,
      "vel": 0.629921,
      "time": 178.4997019054978,
      "name": "B3",
      "svgX": 105733.31,
      "svgY": 843.5
    },
    {
      "absoluteTicks": 286054,
      "channel": 13,
      "type": "noteOff",
      "note": 73,
      "velocity": 79,
      "rel": 0.629921,
      "time": 178.78345163163576,
      "name": "C#5"
    },
    {
      "absoluteTicks": 286054,
      "channel": 13,
      "type": "noteOff",
      "note": 59,
      "velocity": 79,
      "rel": 0.629921,
      "time": 178.78345163163576,
      "name": "B3"
    },
    {
      "absoluteTicks": 286080,
      "channel": 13,
      "type": "noteOn",
      "note": 74,
      "velocity": 79,
      "vel": 0.629921,
      "time": 178.79970140449865,
      "name": "D5",
      "svgX": 105910.17,
      "svgY": 689.44
    },
    {
      "absoluteTicks": 286080,
      "channel": 13,
      "type": "noteOn",
      "note": 69,
      "velocity": 79,
      "vel": 0.629921,
      "time": 178.79970140449865,
      "name": "A4",
      "svgX": 105910.17,
      "svgY": 740.79
    },
    {
      "absoluteTicks": 286080,
      "channel": 13,
      "type": "noteOn",
      "note": 38,
      "velocity": 79,
      "vel": 0.629921,
      "time": 178.79970140449865,
      "name": "D2",
      "svgX": 105910.17,
      "svgY": 1059.17
    },
    {
      "absoluteTicks": 286534,
      "channel": 13,
      "type": "noteOff",
      "note": 74,
      "velocity": 79,
      "rel": 0.629921,
      "time": 179.0834511306366,
      "name": "D5"
    },
    {
      "absoluteTicks": 286534,
      "channel": 13,
      "type": "noteOff",
      "note": 69,
      "velocity": 79,
      "rel": 0.629921,
      "time": 179.0834511306366,
      "name": "A4"
    },
    {
      "absoluteTicks": 286534,
      "channel": 13,
      "type": "noteOff",
      "note": 38,
      "velocity": 79,
      "rel": 0.629921,
      "time": 179.0834511306366,
      "name": "D2"
    },
    {
      "absoluteTicks": 286560,
      "channel": 13,
      "type": "noteOn",
      "note": 78,
      "velocity": 79,
      "vel": 0.629921,
      "time": 179.0997009034995,
      "name": "F#5",
      "svgX": 106087.04,
      "svgY": 648.36
    },
    {
      "absoluteTicks": 286560,
      "channel": 13,
      "type": "noteOn",
      "note": 45,
      "velocity": 79,
      "vel": 0.629921,
      "time": 179.0997009034995,
      "name": "A2",
      "svgX": 106087.04,
      "svgY": 987.28
    },
    {
      "absoluteTicks": 286785,
      "channel": 13,
      "type": "noteOff",
      "note": 78,
      "velocity": 79,
      "rel": 0.629921,
      "time": 179.24095026761304,
      "name": "F#5"
    },
    {
      "absoluteTicks": 286800,
      "channel": 13,
      "type": "noteOn",
      "note": 76,
      "velocity": 79,
      "vel": 0.629921,
      "time": 179.2497006529999,
      "name": "E5",
      "svgX": 106175.47,
      "svgY": 668.9
    },
    {
      "absoluteTicks": 287014,
      "channel": 13,
      "type": "noteOff",
      "note": 45,
      "velocity": 79,
      "rel": 0.629921,
      "time": 179.38345062963742,
      "name": "A2"
    },
    {
      "absoluteTicks": 287025,
      "channel": 13,
      "type": "noteOff",
      "note": 76,
      "velocity": 79,
      "rel": 0.629921,
      "time": 179.39095001711348,
      "name": "E5"
    },
    {
      "absoluteTicks": 287040,
      "channel": 13,
      "type": "noteOn",
      "note": 74,
      "velocity": 79,
      "vel": 0.629921,
      "time": 179.39970040250032,
      "name": "D5",
      "svgX": 106263.91,
      "svgY": 689.44
    },
    {
      "absoluteTicks": 287040,
      "channel": 13,
      "type": "noteOn",
      "note": 50,
      "velocity": 79,
      "vel": 0.629921,
      "time": 179.39970040250032,
      "name": "D3",
      "svgX": 106263.91,
      "svgY": 935.93
    },
    {
      "absoluteTicks": 287494,
      "channel": 13,
      "type": "noteOff",
      "note": 74,
      "velocity": 79,
      "rel": 0.629921,
      "time": 179.68345012863827,
      "name": "D5"
    },
    {
      "absoluteTicks": 287494,
      "channel": 13,
      "type": "noteOff",
      "note": 50,
      "velocity": 79,
      "rel": 0.629921,
      "time": 179.68345012863827,
      "name": "D3"
    },
    {
      "absoluteTicks": 287520,
      "channel": 13,
      "type": "noteOn",
      "note": 78,
      "velocity": 79,
      "vel": 0.629921,
      "time": 179.69969990150116,
      "name": "F#5",
      "svgX": 106440.77,
      "svgY": 648.36
    },
    {
      "absoluteTicks": 287520,
      "channel": 13,
      "type": "noteOn",
      "note": 54,
      "velocity": 79,
      "vel": 0.629921,
      "time": 179.69969990150116,
      "name": "F#3",
      "svgX": 106440.77,
      "svgY": 894.85
    },
    {
      "absoluteTicks": 287974,
      "channel": 13,
      "type": "noteOff",
      "note": 78,
      "velocity": 79,
      "rel": 0.629921,
      "time": 179.98344962763912,
      "name": "F#5"
    },
    {
      "absoluteTicks": 287974,
      "channel": 13,
      "type": "noteOff",
      "note": 54,
      "velocity": 79,
      "rel": 0.629921,
      "time": 179.98344962763912,
      "name": "F#3"
    },
    {
      "absoluteTicks": 288000,
      "channel": 13,
      "type": "noteOn",
      "note": 79,
      "velocity": 79,
      "vel": 0.629921,
      "time": 179.99969940050198,
      "name": "G5",
      "svgX": 106617.64,
      "svgY": 638.09
    },
    {
      "absoluteTicks": 288000,
      "channel": 13,
      "type": "noteOn",
      "note": 71,
      "velocity": 79,
      "vel": 0.629921,
      "time": 179.99969940050198,
      "name": "B4",
      "svgX": 106617.64,
      "svgY": 720.25
    },
    {
      "absoluteTicks": 288000,
      "channel": 13,
      "type": "noteOn",
      "note": 43,
      "velocity": 79,
      "vel": 0.629921,
      "time": 179.99969940050198,
      "name": "G2",
      "svgX": 106617.64,
      "svgY": 1007.82
    },
    {
      "absoluteTicks": 288454,
      "channel": 13,
      "type": "noteOff",
      "note": 79,
      "velocity": 79,
      "rel": 0.629921,
      "time": 180.28344912663994,
      "name": "G5"
    },
    {
      "absoluteTicks": 288454,
      "channel": 13,
      "type": "noteOff",
      "note": 71,
      "velocity": 79,
      "rel": 0.629921,
      "time": 180.28344912663994,
      "name": "B4"
    },
    {
      "absoluteTicks": 288454,
      "channel": 13,
      "type": "noteOff",
      "note": 43,
      "velocity": 79,
      "rel": 0.629921,
      "time": 180.28344912663994,
      "name": "G2"
    },
    {
      "absoluteTicks": 288480,
      "channel": 13,
      "type": "noteOn",
      "note": 74,
      "velocity": 79,
      "vel": 0.629921,
      "time": 180.29969889950283,
      "name": "D5",
      "svgX": 106794.51,
      "svgY": 689.44
    },
    {
      "absoluteTicks": 288480,
      "channel": 13,
      "type": "noteOn",
      "note": 50,
      "velocity": 79,
      "vel": 0.629921,
      "time": 180.29969889950283,
      "name": "D3",
      "svgX": 106794.51,
      "svgY": 935.93
    },
    {
      "absoluteTicks": 288705,
      "channel": 13,
      "type": "noteOff",
      "note": 74,
      "velocity": 79,
      "rel": 0.629921,
      "time": 180.4409482636164,
      "name": "D5"
    },
    {
      "absoluteTicks": 288720,
      "channel": 13,
      "type": "noteOn",
      "note": 73,
      "velocity": 79,
      "vel": 0.629921,
      "time": 180.44969864900324,
      "name": "C#5",
      "svgX": 106882.94,
      "svgY": 699.71
    },
    {
      "absoluteTicks": 288934,
      "channel": 13,
      "type": "noteOff",
      "note": 50,
      "velocity": 79,
      "rel": 0.629921,
      "time": 180.58344862564078,
      "name": "D3"
    },
    {
      "absoluteTicks": 288945,
      "channel": 13,
      "type": "noteOff",
      "note": 73,
      "velocity": 79,
      "rel": 0.629921,
      "time": 180.59094801311682,
      "name": "C#5"
    },
    {
      "absoluteTicks": 288960,
      "channel": 13,
      "type": "noteOn",
      "note": 71,
      "velocity": 79,
      "vel": 0.629921,
      "time": 180.59969839850368,
      "name": "B4",
      "svgX": 106971.38,
      "svgY": 720.25
    },
    {
      "absoluteTicks": 288960,
      "channel": 13,
      "type": "noteOn",
      "note": 55,
      "velocity": 79,
      "vel": 0.629921,
      "time": 180.59969839850368,
      "name": "G3",
      "svgX": 106971.38,
      "svgY": 884.58
    },
    {
      "absoluteTicks": 289414,
      "channel": 13,
      "type": "noteOff",
      "note": 71,
      "velocity": 79,
      "rel": 0.629921,
      "time": 180.88344812464163,
      "name": "B4"
    },
    {
      "absoluteTicks": 289414,
      "channel": 13,
      "type": "noteOff",
      "note": 55,
      "velocity": 79,
      "rel": 0.629921,
      "time": 180.88344812464163,
      "name": "G3"
    },
    {
      "absoluteTicks": 289440,
      "channel": 13,
      "type": "noteOn",
      "note": 73,
      "velocity": 79,
      "vel": 0.629921,
      "time": 180.8996978975045,
      "name": "C#5",
      "svgX": 107148.24,
      "svgY": 699.71
    },
    {
      "absoluteTicks": 289440,
      "channel": 13,
      "type": "noteOn",
      "note": 59,
      "velocity": 79,
      "vel": 0.629921,
      "time": 180.8996978975045,
      "name": "B3",
      "svgX": 107148.24,
      "svgY": 843.5
    },
    {
      "absoluteTicks": 289894,
      "channel": 13,
      "type": "noteOff",
      "note": 73,
      "velocity": 79,
      "rel": 0.629921,
      "time": 181.18344762364245,
      "name": "C#5"
    },
    {
      "absoluteTicks": 289894,
      "channel": 13,
      "type": "noteOff",
      "note": 59,
      "velocity": 79,
      "rel": 0.629921,
      "time": 181.18344762364245,
      "name": "B3"
    },
    {
      "absoluteTicks": 289920,
      "channel": 13,
      "type": "noteOn",
      "note": 76,
      "velocity": 79,
      "vel": 0.629921,
      "time": 181.19969739650534,
      "name": "E5",
      "svgX": 107325.11,
      "svgY": 668.9
    },
    {
      "absoluteTicks": 289920,
      "channel": 13,
      "type": "noteOn",
      "note": 74,
      "velocity": 79,
      "vel": 0.629921,
      "time": 181.19969739650534,
      "name": "D5",
      "svgX": 107325.11,
      "svgY": 689.44
    },
    {
      "absoluteTicks": 289920,
      "channel": 13,
      "type": "noteOn",
      "note": 69,
      "velocity": 79,
      "vel": 0.629921,
      "time": 181.19969739650534,
      "name": "A4",
      "svgX": 107325.11,
      "svgY": 740.79
    },
    {
      "absoluteTicks": 289920,
      "channel": 13,
      "type": "noteOn",
      "note": 45,
      "velocity": 79,
      "vel": 0.629921,
      "time": 181.19969739650534,
      "name": "A2",
      "svgX": 107325.11,
      "svgY": 987.28
    },
    {
      "absoluteTicks": 290374,
      "channel": 13,
      "type": "noteOff",
      "note": 45,
      "velocity": 79,
      "rel": 0.629921,
      "time": 181.4834471226433,
      "name": "A2"
    },
    {
      "absoluteTicks": 290400,
      "channel": 13,
      "type": "noteOn",
      "note": 52,
      "velocity": 79,
      "vel": 0.629921,
      "time": 181.49969689550616,
      "name": "E3",
      "svgX": 107501.98,
      "svgY": 915.39
    },
    {
      "absoluteTicks": 290830,
      "channel": 13,
      "type": "noteOff",
      "note": 76,
      "velocity": 79,
      "rel": 0.629921,
      "time": 181.7684466466941,
      "name": "E5"
    },
    {
      "absoluteTicks": 290830,
      "channel": 13,
      "type": "noteOff",
      "note": 74,
      "velocity": 79,
      "rel": 0.629921,
      "time": 181.7684466466941,
      "name": "D5"
    },
    {
      "absoluteTicks": 290830,
      "channel": 13,
      "type": "noteOff",
      "note": 69,
      "velocity": 79,
      "rel": 0.629921,
      "time": 181.7684466466941,
      "name": "A4"
    },
    {
      "absoluteTicks": 290854,
      "channel": 13,
      "type": "noteOff",
      "note": 52,
      "velocity": 79,
      "rel": 0.629921,
      "time": 181.78344662164412,
      "name": "E3"
    },
    {
      "absoluteTicks": 290880,
      "channel": 13,
      "type": "noteOn",
      "note": 73,
      "velocity": 79,
      "vel": 0.629921,
      "time": 181.799696394507,
      "name": "C#5",
      "svgX": 107678.85,
      "svgY": 699.71
    },
    {
      "absoluteTicks": 290880,
      "channel": 13,
      "type": "noteOn",
      "note": 57,
      "velocity": 79,
      "vel": 0.629921,
      "time": 181.799696394507,
      "name": "A3",
      "svgX": 107678.85,
      "svgY": 864.04
    },
    {
      "absoluteTicks": 291334,
      "channel": 13,
      "type": "noteOff",
      "note": 57,
      "velocity": 79,
      "rel": 0.629921,
      "time": 182.08344612064496,
      "name": "A3"
    },
    {
      "absoluteTicks": 291360,
      "channel": 13,
      "type": "noteOn",
      "note": 61,
      "velocity": 79,
      "vel": 0.629921,
      "time": 182.09969589350786,
      "name": "C#4",
      "svgX": 107855.71,
      "svgY": 822.96
    },
    {
      "absoluteTicks": 291790,
      "channel": 13,
      "type": "noteOff",
      "note": 73,
      "velocity": 79,
      "rel": 0.629921,
      "time": 182.36844564469575,
      "name": "C#5"
    },
    {
      "absoluteTicks": 291814,
      "channel": 13,
      "type": "noteOff",
      "note": 61,
      "velocity": 79,
      "rel": 0.629921,
      "time": 182.3834456196458,
      "name": "C#4"
    },
    {
      "absoluteTicks": 291840,
      "channel": 13,
      "type": "noteOn",
      "note": 78,
      "velocity": 79,
      "vel": 0.629921,
      "time": 182.39969539250868,
      "name": "F#5",
      "svgX": 108032.58,
      "svgY": 648.36
    },
    {
      "absoluteTicks": 291840,
      "channel": 13,
      "type": "noteOn",
      "note": 74,
      "velocity": 79,
      "vel": 0.629921,
      "time": 182.39969539250868,
      "name": "D5",
      "svgX": 108032.58,
      "svgY": 689.44
    },
    {
      "absoluteTicks": 291840,
      "channel": 13,
      "type": "noteOn",
      "note": 69,
      "velocity": 79,
      "vel": 0.629921,
      "time": 182.39969539250868,
      "name": "A4",
      "svgX": 108032.58,
      "svgY": 740.79
    },
    {
      "absoluteTicks": 291840,
      "channel": 13,
      "type": "noteOn",
      "note": 50,
      "velocity": 79,
      "vel": 0.629921,
      "time": 182.39969539250868,
      "name": "D3",
      "svgX": 108032.58,
      "svgY": 935.93
    },
    {
      "absoluteTicks": 292294,
      "channel": 13,
      "type": "noteOff",
      "note": 50,
      "velocity": 79,
      "rel": 0.629921,
      "time": 182.68344511864663,
      "name": "D3"
    },
    {
      "absoluteTicks": 292320,
      "channel": 13,
      "type": "noteOn",
      "note": 57,
      "velocity": 79,
      "vel": 0.629921,
      "time": 182.69969489150952,
      "name": "A3",
      "svgX": 108209.45,
      "svgY": 864.04
    },
    {
      "absoluteTicks": 292774,
      "channel": 13,
      "type": "noteOff",
      "note": 57,
      "velocity": 79,
      "rel": 0.629921,
      "time": 182.98344461764748,
      "name": "A3"
    },
    {
      "absoluteTicks": 292800,
      "channel": 13,
      "type": "noteOn",
      "note": 62,
      "velocity": 79,
      "vel": 0.629921,
      "time": 182.99969439051037,
      "name": "D4",
      "svgX": 108386.32,
      "svgY": 812.69
    },
    {
      "absoluteTicks": 293205,
      "channel": 13,
      "type": "noteOff",
      "note": 78,
      "velocity": 79,
      "rel": 0.629921,
      "time": 183.25344356674924,
      "name": "F#5"
    },
    {
      "absoluteTicks": 293205,
      "channel": 13,
      "type": "noteOff",
      "note": 74,
      "velocity": 79,
      "rel": 0.629921,
      "time": 183.25344356674924,
      "name": "D5"
    },
    {
      "absoluteTicks": 293205,
      "channel": 13,
      "type": "noteOff",
      "note": 69,
      "velocity": 79,
      "rel": 0.629921,
      "time": 183.25344356674924,
      "name": "A4"
    },
    {
      "absoluteTicks": 293254,
      "channel": 13,
      "type": "noteOff",
      "note": 62,
      "velocity": 79,
      "rel": 0.629921,
      "time": 183.2834441166483,
      "name": "D4"
    },
    {
      "absoluteTicks": 293280,
      "channel": 13,
      "type": "noteOn",
      "note": 78,
      "velocity": 79,
      "vel": 0.629921,
      "time": 183.2996938895112,
      "name": "F#5",
      "svgX": 108563.18,
      "svgY": 648.36
    },
    {
      "absoluteTicks": 293280,
      "channel": 13,
      "type": "noteOn",
      "note": 66,
      "velocity": 79,
      "vel": 0.629921,
      "time": 183.2996938895112,
      "name": "F#4",
      "svgX": 108563.18,
      "svgY": 771.6
    },
    {
      "absoluteTicks": 293734,
      "channel": 13,
      "type": "noteOff",
      "note": 78,
      "velocity": 79,
      "rel": 0.629921,
      "time": 183.58344361564914,
      "name": "F#5"
    },
    {
      "absoluteTicks": 293734,
      "channel": 13,
      "type": "noteOff",
      "note": 66,
      "velocity": 79,
      "rel": 0.629921,
      "time": 183.58344361564914,
      "name": "F#4"
    },
    {
      "absoluteTicks": 293760,
      "channel": 13,
      "type": "noteOn",
      "note": 78,
      "velocity": 79,
      "vel": 0.629921,
      "time": 183.59969338851204,
      "name": "F#5",
      "svgX": 108740.05,
      "svgY": 648.36
    },
    {
      "absoluteTicks": 293760,
      "channel": 13,
      "type": "noteOn",
      "note": 45,
      "velocity": 79,
      "vel": 0.629921,
      "time": 183.59969338851204,
      "name": "A2",
      "svgX": 108740.05,
      "svgY": 987.28
    },
    {
      "absoluteTicks": 294214,
      "channel": 13,
      "type": "noteOff",
      "note": 78,
      "velocity": 79,
      "rel": 0.629921,
      "time": 183.88344311465,
      "name": "F#5"
    },
    {
      "absoluteTicks": 294214,
      "channel": 13,
      "type": "noteOff",
      "note": 45,
      "velocity": 79,
      "rel": 0.629921,
      "time": 183.88344311465,
      "name": "A2"
    },
    {
      "absoluteTicks": 294240,
      "channel": 13,
      "type": "noteOn",
      "note": 79,
      "velocity": 79,
      "vel": 0.629921,
      "time": 183.89969288751286,
      "name": "G5",
      "svgX": 108916.92,
      "svgY": 638.09
    },
    {
      "absoluteTicks": 294240,
      "channel": 13,
      "type": "noteOn",
      "note": 52,
      "velocity": 79,
      "vel": 0.629921,
      "time": 183.89969288751286,
      "name": "E3",
      "svgX": 108916.92,
      "svgY": 915.39
    },
    {
      "absoluteTicks": 294694,
      "channel": 13,
      "type": "noteOff",
      "note": 79,
      "velocity": 79,
      "rel": 0.629921,
      "time": 184.1834426136508,
      "name": "G5"
    },
    {
      "absoluteTicks": 294694,
      "channel": 13,
      "type": "noteOff",
      "note": 52,
      "velocity": 79,
      "rel": 0.629921,
      "time": 184.1834426136508,
      "name": "E3"
    },
    {
      "absoluteTicks": 294720,
      "channel": 13,
      "type": "noteOn",
      "note": 78,
      "velocity": 79,
      "vel": 0.629921,
      "time": 184.1996923865137,
      "name": "F#5",
      "svgX": 109093.78,
      "svgY": 648.36
    },
    {
      "absoluteTicks": 294720,
      "channel": 13,
      "type": "noteOn",
      "note": 57,
      "velocity": 79,
      "vel": 0.629921,
      "time": 184.1996923865137,
      "name": "A3",
      "svgX": 109093.78,
      "svgY": 864.04
    },
    {
      "absoluteTicks": 295174,
      "channel": 13,
      "type": "noteOff",
      "note": 78,
      "velocity": 79,
      "rel": 0.629921,
      "time": 184.48344211265166,
      "name": "F#5"
    },
    {
      "absoluteTicks": 295174,
      "channel": 13,
      "type": "noteOff",
      "note": 57,
      "velocity": 79,
      "rel": 0.629921,
      "time": 184.48344211265166,
      "name": "A3"
    },
    {
      "absoluteTicks": 295200,
      "channel": 13,
      "type": "noteOn",
      "note": 76,
      "velocity": 79,
      "vel": 0.629921,
      "time": 184.49969188551455,
      "name": "E5",
      "svgX": 109270.65,
      "svgY": 668.9
    },
    {
      "absoluteTicks": 295200,
      "channel": 13,
      "type": "noteOn",
      "note": 61,
      "velocity": 79,
      "vel": 0.629921,
      "time": 184.49969188551455,
      "name": "C#4",
      "svgX": 109270.65,
      "svgY": 822.96
    },
    {
      "absoluteTicks": 295654,
      "channel": 13,
      "type": "noteOff",
      "note": 76,
      "velocity": 79,
      "rel": 0.629921,
      "time": 184.7834416116525,
      "name": "E5"
    },
    {
      "absoluteTicks": 295654,
      "channel": 13,
      "type": "noteOff",
      "note": 61,
      "velocity": 79,
      "rel": 0.629921,
      "time": 184.7834416116525,
      "name": "C#4"
    },
    {
      "absoluteTicks": 295680,
      "channel": 13,
      "type": "noteOn",
      "note": 74,
      "velocity": 79,
      "vel": 0.629921,
      "time": 184.79969138451537,
      "name": "D5",
      "svgX": 109447.52,
      "svgY": 689.44
    },
    {
      "absoluteTicks": 295680,
      "channel": 13,
      "type": "noteOn",
      "note": 47,
      "velocity": 79,
      "vel": 0.629921,
      "time": 184.79969138451537,
      "name": "B2",
      "svgX": 109447.52,
      "svgY": 966.74
    },
    {
      "absoluteTicks": 296134,
      "channel": 13,
      "type": "noteOff",
      "note": 47,
      "velocity": 79,
      "rel": 0.629921,
      "time": 185.08344111065333,
      "name": "B2"
    },
    {
      "absoluteTicks": 296160,
      "channel": 13,
      "type": "noteOn",
      "note": 54,
      "velocity": 79,
      "vel": 0.629921,
      "time": 185.09969088351622,
      "name": "F#3",
      "svgX": 109624.39,
      "svgY": 894.85
    },
    {
      "absoluteTicks": 296614,
      "channel": 13,
      "type": "noteOff",
      "note": 54,
      "velocity": 79,
      "rel": 0.629921,
      "time": 185.38344060965417,
      "name": "F#3"
    },
    {
      "absoluteTicks": 296640,
      "channel": 13,
      "type": "noteOn",
      "note": 59,
      "velocity": 79,
      "vel": 0.629921,
      "time": 185.39969038251706,
      "name": "B3",
      "svgX": 109801.25,
      "svgY": 843.5
    },
    {
      "absoluteTicks": 297045,
      "channel": 13,
      "type": "noteOff",
      "note": 74,
      "velocity": 79,
      "rel": 0.629921,
      "time": 185.65343955875593,
      "name": "D5"
    },
    {
      "absoluteTicks": 297094,
      "channel": 13,
      "type": "noteOff",
      "note": 59,
      "velocity": 79,
      "rel": 0.629921,
      "time": 185.683440108655,
      "name": "B3"
    },
    {
      "absoluteTicks": 297120,
      "channel": 13,
      "type": "noteOn",
      "note": 74,
      "velocity": 79,
      "vel": 0.629921,
      "time": 185.69968988151788,
      "name": "D5",
      "svgX": 109978.12,
      "svgY": 689.44
    },
    {
      "absoluteTicks": 297120,
      "channel": 13,
      "type": "noteOn",
      "note": 62,
      "velocity": 79,
      "vel": 0.629921,
      "time": 185.69968988151788,
      "name": "D4",
      "svgX": 109978.12,
      "svgY": 812.69
    },
    {
      "absoluteTicks": 297574,
      "channel": 13,
      "type": "noteOff",
      "note": 74,
      "velocity": 79,
      "rel": 0.629921,
      "time": 185.98343960765584,
      "name": "D5"
    },
    {
      "absoluteTicks": 297574,
      "channel": 13,
      "type": "noteOff",
      "note": 62,
      "velocity": 79,
      "rel": 0.629921,
      "time": 185.98343960765584,
      "name": "D4"
    },
    {
      "absoluteTicks": 297600,
      "channel": 13,
      "type": "noteOn",
      "note": 74,
      "velocity": 79,
      "vel": 0.629921,
      "time": 185.99968938051873,
      "name": "D5",
      "svgX": 110154.99,
      "svgY": 689.44
    },
    {
      "absoluteTicks": 297600,
      "channel": 13,
      "type": "noteOn",
      "note": 42,
      "velocity": 79,
      "vel": 0.629921,
      "time": 185.99968938051873,
      "name": "F#2",
      "svgX": 110154.99,
      "svgY": 1018.09
    },
    {
      "absoluteTicks": 298054,
      "channel": 13,
      "type": "noteOff",
      "note": 74,
      "velocity": 79,
      "rel": 0.629921,
      "time": 186.2834391066567,
      "name": "D5"
    },
    {
      "absoluteTicks": 298054,
      "channel": 13,
      "type": "noteOff",
      "note": 42,
      "velocity": 79,
      "rel": 0.629921,
      "time": 186.2834391066567,
      "name": "F#2"
    },
    {
      "absoluteTicks": 298080,
      "channel": 13,
      "type": "noteOn",
      "note": 76,
      "velocity": 79,
      "vel": 0.629921,
      "time": 186.29968887951955,
      "name": "E5",
      "svgX": 110331.86,
      "svgY": 668.9
    },
    {
      "absoluteTicks": 298080,
      "channel": 13,
      "type": "noteOn",
      "note": 49,
      "velocity": 79,
      "vel": 0.629921,
      "time": 186.29968887951955,
      "name": "C#3",
      "svgX": 110331.86,
      "svgY": 946.2
    },
    {
      "absoluteTicks": 298534,
      "channel": 13,
      "type": "noteOff",
      "note": 76,
      "velocity": 79,
      "rel": 0.629921,
      "time": 186.5834386056575,
      "name": "E5"
    },
    {
      "absoluteTicks": 298534,
      "channel": 13,
      "type": "noteOff",
      "note": 49,
      "velocity": 79,
      "rel": 0.629921,
      "time": 186.5834386056575,
      "name": "C#3"
    },
    {
      "absoluteTicks": 298560,
      "channel": 13,
      "type": "noteOn",
      "note": 74,
      "velocity": 79,
      "vel": 0.629921,
      "time": 186.5996883785204,
      "name": "D5",
      "svgX": 110508.72,
      "svgY": 689.44
    },
    {
      "absoluteTicks": 298560,
      "channel": 13,
      "type": "noteOn",
      "note": 54,
      "velocity": 79,
      "vel": 0.629921,
      "time": 186.5996883785204,
      "name": "F#3",
      "svgX": 110508.72,
      "svgY": 894.85
    },
    {
      "absoluteTicks": 299014,
      "channel": 13,
      "type": "noteOff",
      "note": 74,
      "velocity": 79,
      "rel": 0.629921,
      "time": 186.88343810465835,
      "name": "D5"
    },
    {
      "absoluteTicks": 299014,
      "channel": 13,
      "type": "noteOff",
      "note": 54,
      "velocity": 79,
      "rel": 0.629921,
      "time": 186.88343810465835,
      "name": "F#3"
    },
    {
      "absoluteTicks": 299040,
      "channel": 13,
      "type": "noteOn",
      "note": 73,
      "velocity": 79,
      "vel": 0.629921,
      "time": 186.89968787752125,
      "name": "C#5",
      "svgX": 110685.59,
      "svgY": 699.71
    },
    {
      "absoluteTicks": 299040,
      "channel": 13,
      "type": "noteOn",
      "note": 57,
      "velocity": 79,
      "vel": 0.629921,
      "time": 186.89968787752125,
      "name": "A3",
      "svgX": 110685.59,
      "svgY": 864.04
    },
    {
      "absoluteTicks": 299494,
      "channel": 13,
      "type": "noteOff",
      "note": 73,
      "velocity": 79,
      "rel": 0.629921,
      "time": 187.1834376036592,
      "name": "C#5"
    },
    {
      "absoluteTicks": 299494,
      "channel": 13,
      "type": "noteOff",
      "note": 57,
      "velocity": 79,
      "rel": 0.629921,
      "time": 187.1834376036592,
      "name": "A3"
    },
    {
      "absoluteTicks": 299520,
      "channel": 13,
      "type": "noteOn",
      "note": 71,
      "velocity": 79,
      "vel": 0.629921,
      "time": 187.19968737652206,
      "name": "B4",
      "svgX": 110862.46,
      "svgY": 720.25
    },
    {
      "absoluteTicks": 299520,
      "channel": 13,
      "type": "noteOn",
      "note": 67,
      "velocity": 79,
      "vel": 0.629921,
      "time": 187.19968737652206,
      "name": "G4",
      "svgX": 110862.46,
      "svgY": 761.33
    },
    {
      "absoluteTicks": 299520,
      "channel": 13,
      "type": "noteOn",
      "note": 43,
      "velocity": 79,
      "vel": 0.629921,
      "time": 187.19968737652206,
      "name": "G2",
      "svgX": 110862.46,
      "svgY": 1007.82
    },
    {
      "absoluteTicks": 299974,
      "channel": 13,
      "type": "noteOff",
      "note": 43,
      "velocity": 79,
      "rel": 0.629921,
      "time": 187.48343710266002,
      "name": "G2"
    },
    {
      "absoluteTicks": 300000,
      "channel": 13,
      "type": "noteOn",
      "note": 50,
      "velocity": 79,
      "vel": 0.629921,
      "time": 187.4996868755229,
      "name": "D3",
      "svgX": 111039.32,
      "svgY": 935.93
    },
    {
      "absoluteTicks": 300454,
      "channel": 13,
      "type": "noteOff",
      "note": 50,
      "velocity": 79,
      "rel": 0.629921,
      "time": 187.78343660166087,
      "name": "D3"
    },
    {
      "absoluteTicks": 300480,
      "channel": 13,
      "type": "noteOn",
      "note": 55,
      "velocity": 79,
      "vel": 0.629921,
      "time": 187.79968637452376,
      "name": "G3",
      "svgX": 111216.19,
      "svgY": 884.58
    },
    {
      "absoluteTicks": 300934,
      "channel": 13,
      "type": "noteOff",
      "note": 55,
      "velocity": 79,
      "rel": 0.629921,
      "time": 188.0834361006617,
      "name": "G3"
    },
    {
      "absoluteTicks": 300960,
      "channel": 13,
      "type": "noteOn",
      "note": 59,
      "velocity": 79,
      "vel": 0.629921,
      "time": 188.09968587352458,
      "name": "B3",
      "svgX": 111393.06,
      "svgY": 843.5
    },
    {
      "absoluteTicks": 301342,
      "channel": 13,
      "type": "noteOff",
      "note": 71,
      "velocity": 79,
      "rel": 0.629921,
      "time": 188.33843567481242,
      "name": "B4"
    },
    {
      "absoluteTicks": 301342,
      "channel": 13,
      "type": "noteOff",
      "note": 67,
      "velocity": 79,
      "rel": 0.629921,
      "time": 188.33843567481242,
      "name": "G4"
    },
    {
      "absoluteTicks": 301414,
      "channel": 13,
      "type": "noteOff",
      "note": 59,
      "velocity": 79,
      "rel": 0.629921,
      "time": 188.38343559966253,
      "name": "B3"
    },
    {
      "absoluteTicks": 301440,
      "channel": 13,
      "type": "noteOn",
      "note": 74,
      "velocity": 79,
      "vel": 0.629921,
      "time": 188.39968537252543,
      "name": "D5",
      "svgX": 111569.93,
      "svgY": 689.44
    },
    {
      "absoluteTicks": 301440,
      "channel": 13,
      "type": "noteOn",
      "note": 38,
      "velocity": 79,
      "vel": 0.629921,
      "time": 188.39968537252543,
      "name": "D2",
      "svgX": 111569.93,
      "svgY": 1059.17
    },
    {
      "absoluteTicks": 301894,
      "channel": 13,
      "type": "noteOff",
      "note": 38,
      "velocity": 79,
      "rel": 0.629921,
      "time": 188.68343509866338,
      "name": "D2"
    },
    {
      "absoluteTicks": 301920,
      "channel": 13,
      "type": "noteOn",
      "note": 45,
      "velocity": 79,
      "vel": 0.629921,
      "time": 188.69968487152624,
      "name": "A2",
      "svgX": 111746.79,
      "svgY": 987.28
    },
    {
      "absoluteTicks": 302350,
      "channel": 13,
      "type": "noteOff",
      "note": 74,
      "velocity": 79,
      "rel": 0.629921,
      "time": 188.96843462271417,
      "name": "D5"
    },
    {
      "absoluteTicks": 302374,
      "channel": 13,
      "type": "noteOff",
      "note": 45,
      "velocity": 79,
      "rel": 0.629921,
      "time": 188.9834345976642,
      "name": "A2"
    },
    {
      "absoluteTicks": 302400,
      "channel": 13,
      "type": "noteOn",
      "note": 69,
      "velocity": 79,
      "vel": 0.629921,
      "time": 188.9996843705271,
      "name": "A4",
      "svgX": 111923.66,
      "svgY": 740.79
    },
    {
      "absoluteTicks": 302400,
      "channel": 13,
      "type": "noteOn",
      "note": 50,
      "velocity": 79,
      "vel": 0.629921,
      "time": 188.9996843705271,
      "name": "D3",
      "svgX": 111923.66,
      "svgY": 935.93
    },
    {
      "absoluteTicks": 302854,
      "channel": 13,
      "type": "noteOff",
      "note": 50,
      "velocity": 79,
      "rel": 0.629921,
      "time": 189.28343409666505,
      "name": "D3"
    },
    {
      "absoluteTicks": 302880,
      "channel": 13,
      "type": "noteOn",
      "note": 54,
      "velocity": 79,
      "vel": 0.629921,
      "time": 189.29968386952794,
      "name": "F#3",
      "svgX": 112100.53,
      "svgY": 894.85
    },
    {
      "absoluteTicks": 303310,
      "channel": 13,
      "type": "noteOff",
      "note": 69,
      "velocity": 79,
      "rel": 0.629921,
      "time": 189.56843362071584,
      "name": "A4"
    },
    {
      "absoluteTicks": 303334,
      "channel": 13,
      "type": "noteOff",
      "note": 54,
      "velocity": 79,
      "rel": 0.629921,
      "time": 189.5834335956659,
      "name": "F#3"
    },
    {
      "absoluteTicks": 303360,
      "channel": 13,
      "type": "noteOn",
      "note": 71,
      "velocity": 79,
      "vel": 0.629921,
      "time": 189.59968336852876,
      "name": "B4",
      "svgX": 112277.4,
      "svgY": 720.25
    },
    {
      "absoluteTicks": 303360,
      "channel": 13,
      "type": "noteOn",
      "note": 67,
      "velocity": 79,
      "vel": 0.629921,
      "time": 189.59968336852876,
      "name": "G4",
      "svgX": 112277.4,
      "svgY": 761.33
    },
    {
      "absoluteTicks": 303360,
      "channel": 13,
      "type": "noteOn",
      "note": 43,
      "velocity": 79,
      "vel": 0.629921,
      "time": 189.59968336852876,
      "name": "G2",
      "svgX": 112277.4,
      "svgY": 1007.82
    },
    {
      "absoluteTicks": 303814,
      "channel": 13,
      "type": "noteOff",
      "note": 43,
      "velocity": 79,
      "rel": 0.629921,
      "time": 189.8834330946667,
      "name": "G2"
    },
    {
      "absoluteTicks": 303840,
      "channel": 13,
      "type": "noteOn",
      "note": 50,
      "velocity": 79,
      "vel": 0.629921,
      "time": 189.8996828675296,
      "name": "D3",
      "svgX": 112454.26,
      "svgY": 935.93
    },
    {
      "absoluteTicks": 304294,
      "channel": 13,
      "type": "noteOff",
      "note": 50,
      "velocity": 79,
      "rel": 0.629921,
      "time": 190.18343259366756,
      "name": "D3"
    },
    {
      "absoluteTicks": 304320,
      "channel": 13,
      "type": "noteOn",
      "note": 55,
      "velocity": 79,
      "vel": 0.629921,
      "time": 190.19968236653042,
      "name": "G3",
      "svgX": 112631.13,
      "svgY": 884.58
    },
    {
      "absoluteTicks": 304774,
      "channel": 13,
      "type": "noteOff",
      "note": 55,
      "velocity": 79,
      "rel": 0.629921,
      "time": 190.48343209266838,
      "name": "G3"
    },
    {
      "absoluteTicks": 304800,
      "channel": 13,
      "type": "noteOn",
      "note": 59,
      "velocity": 79,
      "vel": 0.629921,
      "time": 190.49968186553127,
      "name": "B3",
      "svgX": 112808.0,
      "svgY": 843.5
    },
    {
      "absoluteTicks": 305182,
      "channel": 13,
      "type": "noteOff",
      "note": 71,
      "velocity": 79,
      "rel": 0.629921,
      "time": 190.7384316668191,
      "name": "B4"
    },
    {
      "absoluteTicks": 305182,
      "channel": 13,
      "type": "noteOff",
      "note": 67,
      "velocity": 79,
      "rel": 0.629921,
      "time": 190.7384316668191,
      "name": "G4"
    },
    {
      "absoluteTicks": 305254,
      "channel": 13,
      "type": "noteOff",
      "note": 59,
      "velocity": 79,
      "rel": 0.629921,
      "time": 190.78343159166923,
      "name": "B3"
    },
    {
      "absoluteTicks": 305280,
      "channel": 13,
      "type": "noteOn",
      "note": 69,
      "velocity": 79,
      "vel": 0.629921,
      "time": 190.79968136453212,
      "name": "A4",
      "svgX": 112984.87,
      "svgY": 740.79
    },
    {
      "absoluteTicks": 305280,
      "channel": 13,
      "type": "noteOn",
      "note": 45,
      "velocity": 79,
      "vel": 0.629921,
      "time": 190.79968136453212,
      "name": "A2",
      "svgX": 112984.87,
      "svgY": 987.28
    },
    {
      "absoluteTicks": 305734,
      "channel": 13,
      "type": "noteOff",
      "note": 45,
      "velocity": 79,
      "rel": 0.629921,
      "time": 191.08343109067008,
      "name": "A2"
    },
    {
      "absoluteTicks": 305760,
      "channel": 13,
      "type": "noteOn",
      "note": 52,
      "velocity": 79,
      "vel": 0.629921,
      "time": 191.09968086353294,
      "name": "E3",
      "svgX": 113161.73,
      "svgY": 915.39
    },
    {
      "absoluteTicks": 306214,
      "channel": 13,
      "type": "noteOff",
      "note": 52,
      "velocity": 79,
      "rel": 0.629921,
      "time": 191.3834305896709,
      "name": "E3"
    },
    {
      "absoluteTicks": 306240,
      "channel": 13,
      "type": "noteOn",
      "note": 57,
      "velocity": 79,
      "vel": 0.629921,
      "time": 191.3996803625338,
      "name": "A3",
      "svgX": 113338.6,
      "svgY": 864.04
    },
    {
      "absoluteTicks": 306645,
      "channel": 13,
      "type": "noteOff",
      "note": 69,
      "velocity": 79,
      "rel": 0.629921,
      "time": 191.65342953877268,
      "name": "A4"
    },
    {
      "absoluteTicks": 306694,
      "channel": 13,
      "type": "noteOff",
      "note": 57,
      "velocity": 79,
      "rel": 0.629921,
      "time": 191.68343008867174,
      "name": "A3"
    },
    {
      "absoluteTicks": 306720,
      "channel": 13,
      "type": "noteOn",
      "note": 73,
      "velocity": 79,
      "vel": 0.629921,
      "time": 191.69967986153463,
      "name": "C#5",
      "svgX": 113515.47,
      "svgY": 699.71
    },
    {
      "absoluteTicks": 306720,
      "channel": 13,
      "type": "noteOn",
      "note": 61,
      "velocity": 79,
      "vel": 0.629921,
      "time": 191.69967986153463,
      "name": "C#4",
      "svgX": 113515.47,
      "svgY": 822.96
    },
    {
      "absoluteTicks": 307174,
      "channel": 13,
      "type": "noteOff",
      "note": 73,
      "velocity": 79,
      "rel": 0.629921,
      "time": 191.98342958767256,
      "name": "C#5"
    },
    {
      "absoluteTicks": 307174,
      "channel": 13,
      "type": "noteOff",
      "note": 61,
      "velocity": 79,
      "rel": 0.629921,
      "time": 191.98342958767256,
      "name": "C#4"
    },
    {
      "absoluteTicks": 307200,
      "channel": 13,
      "type": "noteOn",
      "note": 81,
      "velocity": 79,
      "vel": 0.629921,
      "time": 191.99967936053545,
      "name": "A5",
      "svgX": 113692.33,
      "svgY": 617.55
    },
    {
      "absoluteTicks": 307200,
      "channel": 13,
      "type": "noteOn",
      "note": 78,
      "velocity": 79,
      "vel": 0.629921,
      "time": 191.99967936053545,
      "name": "F#5",
      "svgX": 113692.33,
      "svgY": 648.36
    },
    {
      "absoluteTicks": 307200,
      "channel": 13,
      "type": "noteOn",
      "note": 74,
      "velocity": 79,
      "vel": 0.629921,
      "time": 191.99967936053545,
      "name": "D5",
      "svgX": 113692.33,
      "svgY": 689.44
    },
    {
      "absoluteTicks": 307200,
      "channel": 13,
      "type": "noteOn",
      "note": 50,
      "velocity": 79,
      "vel": 0.629921,
      "time": 191.99967936053545,
      "name": "D3",
      "svgX": 113692.33,
      "svgY": 935.93
    },
    {
      "absoluteTicks": 307654,
      "channel": 13,
      "type": "noteOff",
      "note": 50,
      "velocity": 79,
      "rel": 0.629921,
      "time": 192.2834290866734,
      "name": "D3"
    },
    {
      "absoluteTicks": 307680,
      "channel": 13,
      "type": "noteOn",
      "note": 57,
      "velocity": 79,
      "vel": 0.629921,
      "time": 192.2996788595363,
      "name": "A3",
      "svgX": 113869.2,
      "svgY": 864.04
    },
    {
      "absoluteTicks": 308134,
      "channel": 13,
      "type": "noteOff",
      "note": 57,
      "velocity": 79,
      "rel": 0.629921,
      "time": 192.58342858567426,
      "name": "A3"
    },
    {
      "absoluteTicks": 308160,
      "channel": 13,
      "type": "noteOn",
      "note": 62,
      "velocity": 79,
      "vel": 0.629921,
      "time": 192.59967835853712,
      "name": "D4",
      "svgX": 114046.07,
      "svgY": 812.69
    },
    {
      "absoluteTicks": 308565,
      "channel": 13,
      "type": "noteOff",
      "note": 81,
      "velocity": 79,
      "rel": 0.629921,
      "time": 192.85342753477602,
      "name": "A5"
    },
    {
      "absoluteTicks": 308565,
      "channel": 13,
      "type": "noteOff",
      "note": 78,
      "velocity": 79,
      "rel": 0.629921,
      "time": 192.85342753477602,
      "name": "F#5"
    },
    {
      "absoluteTicks": 308565,
      "channel": 13,
      "type": "noteOff",
      "note": 74,
      "velocity": 79,
      "rel": 0.629921,
      "time": 192.85342753477602,
      "name": "D5"
    },
    {
      "absoluteTicks": 308614,
      "channel": 13,
      "type": "noteOff",
      "note": 62,
      "velocity": 79,
      "rel": 0.629921,
      "time": 192.88342808467507,
      "name": "D4"
    },
    {
      "absoluteTicks": 308640,
      "channel": 13,
      "type": "noteOn",
      "note": 81,
      "velocity": 79,
      "vel": 0.629921,
      "time": 192.89967785753797,
      "name": "A5",
      "svgX": 114222.94,
      "svgY": 617.55
    },
    {
      "absoluteTicks": 308640,
      "channel": 13,
      "type": "noteOn",
      "note": 78,
      "velocity": 79,
      "vel": 0.629921,
      "time": 192.89967785753797,
      "name": "F#5",
      "svgX": 114222.94,
      "svgY": 648.36
    },
    {
      "absoluteTicks": 308640,
      "channel": 13,
      "type": "noteOn",
      "note": 66,
      "velocity": 79,
      "vel": 0.629921,
      "time": 192.89967785753797,
      "name": "F#4",
      "svgX": 114222.94,
      "svgY": 771.6
    },
    {
      "absoluteTicks": 309094,
      "channel": 13,
      "type": "noteOff",
      "note": 81,
      "velocity": 79,
      "rel": 0.629921,
      "time": 193.18342758367592,
      "name": "A5"
    },
    {
      "absoluteTicks": 309094,
      "channel": 13,
      "type": "noteOff",
      "note": 78,
      "velocity": 79,
      "rel": 0.629921,
      "time": 193.18342758367592,
      "name": "F#5"
    },
    {
      "absoluteTicks": 309094,
      "channel": 13,
      "type": "noteOff",
      "note": 66,
      "velocity": 79,
      "rel": 0.629921,
      "time": 193.18342758367592,
      "name": "F#4"
    },
    {
      "absoluteTicks": 309120,
      "channel": 13,
      "type": "noteOn",
      "note": 81,
      "velocity": 79,
      "vel": 0.629921,
      "time": 193.1996773565388,
      "name": "A5",
      "svgX": 114399.8,
      "svgY": 617.55
    },
    {
      "absoluteTicks": 309120,
      "channel": 13,
      "type": "noteOn",
      "note": 78,
      "velocity": 79,
      "vel": 0.629921,
      "time": 193.1996773565388,
      "name": "F#5",
      "svgX": 114399.8,
      "svgY": 648.36
    },
    {
      "absoluteTicks": 309120,
      "channel": 13,
      "type": "noteOn",
      "note": 45,
      "velocity": 79,
      "vel": 0.629921,
      "time": 193.1996773565388,
      "name": "A2",
      "svgX": 114399.8,
      "svgY": 987.28
    },
    {
      "absoluteTicks": 309574,
      "channel": 13,
      "type": "noteOff",
      "note": 81,
      "velocity": 79,
      "rel": 0.629921,
      "time": 193.48342708267677,
      "name": "A5"
    },
    {
      "absoluteTicks": 309574,
      "channel": 13,
      "type": "noteOff",
      "note": 78,
      "velocity": 79,
      "rel": 0.629921,
      "time": 193.48342708267677,
      "name": "F#5"
    },
    {
      "absoluteTicks": 309574,
      "channel": 13,
      "type": "noteOff",
      "note": 45,
      "velocity": 79,
      "rel": 0.629921,
      "time": 193.48342708267677,
      "name": "A2"
    },
    {
      "absoluteTicks": 309600,
      "channel": 13,
      "type": "noteOn",
      "note": 83,
      "velocity": 79,
      "vel": 0.629921,
      "time": 193.49967685553963,
      "name": "B5",
      "svgX": 114576.67,
      "svgY": 597.01
    },
    {
      "absoluteTicks": 309600,
      "channel": 13,
      "type": "noteOn",
      "note": 79,
      "velocity": 79,
      "vel": 0.629921,
      "time": 193.49967685553963,
      "name": "G5",
      "svgX": 114576.67,
      "svgY": 638.09
    },
    {
      "absoluteTicks": 309600,
      "channel": 13,
      "type": "noteOn",
      "note": 52,
      "velocity": 79,
      "vel": 0.629921,
      "time": 193.49967685553963,
      "name": "E3",
      "svgX": 114576.67,
      "svgY": 915.39
    },
    {
      "absoluteTicks": 310054,
      "channel": 13,
      "type": "noteOff",
      "note": 83,
      "velocity": 79,
      "rel": 0.629921,
      "time": 193.7834265816776,
      "name": "B5"
    },
    {
      "absoluteTicks": 310054,
      "channel": 13,
      "type": "noteOff",
      "note": 79,
      "velocity": 79,
      "rel": 0.629921,
      "time": 193.7834265816776,
      "name": "G5"
    },
    {
      "absoluteTicks": 310054,
      "channel": 13,
      "type": "noteOff",
      "note": 52,
      "velocity": 79,
      "rel": 0.629921,
      "time": 193.7834265816776,
      "name": "E3"
    },
    {
      "absoluteTicks": 310080,
      "channel": 13,
      "type": "noteOn",
      "note": 81,
      "velocity": 79,
      "vel": 0.629921,
      "time": 193.79967635454048,
      "name": "A5",
      "svgX": 114753.54,
      "svgY": 617.55
    },
    {
      "absoluteTicks": 310080,
      "channel": 13,
      "type": "noteOn",
      "note": 78,
      "velocity": 79,
      "vel": 0.629921,
      "time": 193.79967635454048,
      "name": "F#5",
      "svgX": 114753.54,
      "svgY": 648.36
    },
    {
      "absoluteTicks": 310080,
      "channel": 13,
      "type": "noteOn",
      "note": 57,
      "velocity": 79,
      "vel": 0.629921,
      "time": 193.79967635454048,
      "name": "A3",
      "svgX": 114753.54,
      "svgY": 864.04
    },
    {
      "absoluteTicks": 310534,
      "channel": 13,
      "type": "noteOff",
      "note": 81,
      "velocity": 79,
      "rel": 0.629921,
      "time": 194.08342608067844,
      "name": "A5"
    },
    {
      "absoluteTicks": 310534,
      "channel": 13,
      "type": "noteOff",
      "note": 78,
      "velocity": 79,
      "rel": 0.629921,
      "time": 194.08342608067844,
      "name": "F#5"
    },
    {
      "absoluteTicks": 310534,
      "channel": 13,
      "type": "noteOff",
      "note": 57,
      "velocity": 79,
      "rel": 0.629921,
      "time": 194.08342608067844,
      "name": "A3"
    },
    {
      "absoluteTicks": 310560,
      "channel": 13,
      "type": "noteOn",
      "note": 79,
      "velocity": 79,
      "vel": 0.629921,
      "time": 194.09967585354133,
      "name": "G5",
      "svgX": 114930.41,
      "svgY": 638.09
    },
    {
      "absoluteTicks": 310560,
      "channel": 13,
      "type": "noteOn",
      "note": 76,
      "velocity": 79,
      "vel": 0.629921,
      "time": 194.09967585354133,
      "name": "E5",
      "svgX": 114930.41,
      "svgY": 668.9
    },
    {
      "absoluteTicks": 310560,
      "channel": 13,
      "type": "noteOn",
      "note": 61,
      "velocity": 79,
      "vel": 0.629921,
      "time": 194.09967585354133,
      "name": "C#4",
      "svgX": 114930.41,
      "svgY": 822.96
    },
    {
      "absoluteTicks": 311014,
      "channel": 13,
      "type": "noteOff",
      "note": 79,
      "velocity": 79,
      "rel": 0.629921,
      "time": 194.38342557967925,
      "name": "G5"
    },
    {
      "absoluteTicks": 311014,
      "channel": 13,
      "type": "noteOff",
      "note": 76,
      "velocity": 79,
      "rel": 0.629921,
      "time": 194.38342557967925,
      "name": "E5"
    },
    {
      "absoluteTicks": 311014,
      "channel": 13,
      "type": "noteOff",
      "note": 61,
      "velocity": 79,
      "rel": 0.629921,
      "time": 194.38342557967925,
      "name": "C#4"
    },
    {
      "absoluteTicks": 311040,
      "channel": 13,
      "type": "noteOn",
      "note": 78,
      "velocity": 79,
      "vel": 0.629921,
      "time": 194.39967535254215,
      "name": "F#5",
      "svgX": 115107.27,
      "svgY": 648.36
    },
    {
      "absoluteTicks": 311040,
      "channel": 13,
      "type": "noteOn",
      "note": 74,
      "velocity": 79,
      "vel": 0.629921,
      "time": 194.39967535254215,
      "name": "D5",
      "svgX": 115107.27,
      "svgY": 689.44
    },
    {
      "absoluteTicks": 311040,
      "channel": 13,
      "type": "noteOn",
      "note": 47,
      "velocity": 79,
      "vel": 0.629921,
      "time": 194.39967535254215,
      "name": "B2",
      "svgX": 115107.27,
      "svgY": 966.74
    },
    {
      "absoluteTicks": 311494,
      "channel": 13,
      "type": "noteOff",
      "note": 47,
      "velocity": 79,
      "rel": 0.629921,
      "time": 194.6834250786801,
      "name": "B2"
    },
    {
      "absoluteTicks": 311520,
      "channel": 13,
      "type": "noteOn",
      "note": 54,
      "velocity": 79,
      "vel": 0.629921,
      "time": 194.699674851543,
      "name": "F#3",
      "svgX": 115284.14,
      "svgY": 894.85
    },
    {
      "absoluteTicks": 311974,
      "channel": 13,
      "type": "noteOff",
      "note": 54,
      "velocity": 79,
      "rel": 0.629921,
      "time": 194.98342457768095,
      "name": "F#3"
    },
    {
      "absoluteTicks": 312000,
      "channel": 13,
      "type": "noteOn",
      "note": 59,
      "velocity": 79,
      "vel": 0.629921,
      "time": 194.9996743505438,
      "name": "B3",
      "svgX": 115461.01,
      "svgY": 843.5
    },
    {
      "absoluteTicks": 312405,
      "channel": 13,
      "type": "noteOff",
      "note": 78,
      "velocity": 79,
      "rel": 0.629921,
      "time": 195.2534235267827,
      "name": "F#5"
    },
    {
      "absoluteTicks": 312405,
      "channel": 13,
      "type": "noteOff",
      "note": 74,
      "velocity": 79,
      "rel": 0.629921,
      "time": 195.2534235267827,
      "name": "D5"
    },
    {
      "absoluteTicks": 312454,
      "channel": 13,
      "type": "noteOff",
      "note": 59,
      "velocity": 79,
      "rel": 0.629921,
      "time": 195.28342407668177,
      "name": "B3"
    },
    {
      "absoluteTicks": 312480,
      "channel": 13,
      "type": "noteOn",
      "note": 78,
      "velocity": 79,
      "vel": 0.629921,
      "time": 195.29967384954466,
      "name": "F#5",
      "svgX": 115637.88,
      "svgY": 648.36
    },
    {
      "absoluteTicks": 312480,
      "channel": 13,
      "type": "noteOn",
      "note": 74,
      "velocity": 79,
      "vel": 0.629921,
      "time": 195.29967384954466,
      "name": "D5",
      "svgX": 115637.88,
      "svgY": 689.44
    },
    {
      "absoluteTicks": 312480,
      "channel": 13,
      "type": "noteOn",
      "note": 62,
      "velocity": 79,
      "vel": 0.629921,
      "time": 195.29967384954466,
      "name": "D4",
      "svgX": 115637.88,
      "svgY": 812.69
    },
    {
      "absoluteTicks": 312934,
      "channel": 13,
      "type": "noteOff",
      "note": 78,
      "velocity": 79,
      "rel": 0.629921,
      "time": 195.58342357568262,
      "name": "F#5"
    },
    {
      "absoluteTicks": 312934,
      "channel": 13,
      "type": "noteOff",
      "note": 74,
      "velocity": 79,
      "rel": 0.629921,
      "time": 195.58342357568262,
      "name": "D5"
    },
    {
      "absoluteTicks": 312934,
      "channel": 13,
      "type": "noteOff",
      "note": 62,
      "velocity": 79,
      "rel": 0.629921,
      "time": 195.58342357568262,
      "name": "D4"
    },
    {
      "absoluteTicks": 312960,
      "channel": 13,
      "type": "noteOn",
      "note": 78,
      "velocity": 79,
      "vel": 0.629921,
      "time": 195.5996733485455,
      "name": "F#5",
      "svgX": 115814.74,
      "svgY": 648.36
    },
    {
      "absoluteTicks": 312960,
      "channel": 13,
      "type": "noteOn",
      "note": 74,
      "velocity": 79,
      "vel": 0.629921,
      "time": 195.5996733485455,
      "name": "D5",
      "svgX": 115814.74,
      "svgY": 689.44
    },
    {
      "absoluteTicks": 312960,
      "channel": 13,
      "type": "noteOn",
      "note": 42,
      "velocity": 79,
      "vel": 0.629921,
      "time": 195.5996733485455,
      "name": "F#2",
      "svgX": 115814.74,
      "svgY": 1018.09
    },
    {
      "absoluteTicks": 313414,
      "channel": 13,
      "type": "noteOff",
      "note": 78,
      "velocity": 79,
      "rel": 0.629921,
      "time": 195.88342307468346,
      "name": "F#5"
    },
    {
      "absoluteTicks": 313414,
      "channel": 13,
      "type": "noteOff",
      "note": 74,
      "velocity": 79,
      "rel": 0.629921,
      "time": 195.88342307468346,
      "name": "D5"
    },
    {
      "absoluteTicks": 313414,
      "channel": 13,
      "type": "noteOff",
      "note": 42,
      "velocity": 79,
      "rel": 0.629921,
      "time": 195.88342307468346,
      "name": "F#2"
    },
    {
      "absoluteTicks": 313440,
      "channel": 13,
      "type": "noteOn",
      "note": 79,
      "velocity": 79,
      "vel": 0.629921,
      "time": 195.89967284754633,
      "name": "G5",
      "svgX": 115991.61,
      "svgY": 638.09
    },
    {
      "absoluteTicks": 313440,
      "channel": 13,
      "type": "noteOn",
      "note": 76,
      "velocity": 79,
      "vel": 0.629921,
      "time": 195.89967284754633,
      "name": "E5",
      "svgX": 115991.61,
      "svgY": 668.9
    },
    {
      "absoluteTicks": 313440,
      "channel": 13,
      "type": "noteOn",
      "note": 49,
      "velocity": 79,
      "vel": 0.629921,
      "time": 195.89967284754633,
      "name": "C#3",
      "svgX": 115991.61,
      "svgY": 946.2
    },
    {
      "absoluteTicks": 313894,
      "channel": 13,
      "type": "noteOff",
      "note": 79,
      "velocity": 79,
      "rel": 0.629921,
      "time": 196.18342257368428,
      "name": "G5"
    },
    {
      "absoluteTicks": 313894,
      "channel": 13,
      "type": "noteOff",
      "note": 76,
      "velocity": 79,
      "rel": 0.629921,
      "time": 196.18342257368428,
      "name": "E5"
    },
    {
      "absoluteTicks": 313894,
      "channel": 13,
      "type": "noteOff",
      "note": 49,
      "velocity": 79,
      "rel": 0.629921,
      "time": 196.18342257368428,
      "name": "C#3"
    },
    {
      "absoluteTicks": 313920,
      "channel": 13,
      "type": "noteOn",
      "note": 78,
      "velocity": 79,
      "vel": 0.629921,
      "time": 196.19967234654717,
      "name": "F#5",
      "svgX": 116168.48,
      "svgY": 648.36
    },
    {
      "absoluteTicks": 313920,
      "channel": 13,
      "type": "noteOn",
      "note": 74,
      "velocity": 79,
      "vel": 0.629921,
      "time": 196.19967234654717,
      "name": "D5",
      "svgX": 116168.48,
      "svgY": 689.44
    },
    {
      "absoluteTicks": 313920,
      "channel": 13,
      "type": "noteOn",
      "note": 54,
      "velocity": 79,
      "vel": 0.629921,
      "time": 196.19967234654717,
      "name": "F#3",
      "svgX": 116168.48,
      "svgY": 894.85
    },
    {
      "absoluteTicks": 314374,
      "channel": 13,
      "type": "noteOff",
      "note": 78,
      "velocity": 79,
      "rel": 0.629921,
      "time": 196.48342207268513,
      "name": "F#5"
    },
    {
      "absoluteTicks": 314374,
      "channel": 13,
      "type": "noteOff",
      "note": 74,
      "velocity": 79,
      "rel": 0.629921,
      "time": 196.48342207268513,
      "name": "D5"
    },
    {
      "absoluteTicks": 314374,
      "channel": 13,
      "type": "noteOff",
      "note": 54,
      "velocity": 79,
      "rel": 0.629921,
      "time": 196.48342207268513,
      "name": "F#3"
    },
    {
      "absoluteTicks": 314400,
      "channel": 13,
      "type": "noteOn",
      "note": 76,
      "velocity": 79,
      "vel": 0.629921,
      "time": 196.49967184554802,
      "name": "E5",
      "svgX": 116345.34,
      "svgY": 668.9
    },
    {
      "absoluteTicks": 314400,
      "channel": 13,
      "type": "noteOn",
      "note": 73,
      "velocity": 79,
      "vel": 0.629921,
      "time": 196.49967184554802,
      "name": "C#5",
      "svgX": 116345.34,
      "svgY": 699.71
    },
    {
      "absoluteTicks": 314400,
      "channel": 13,
      "type": "noteOn",
      "note": 57,
      "velocity": 79,
      "vel": 0.629921,
      "time": 196.49967184554802,
      "name": "A3",
      "svgX": 116345.34,
      "svgY": 864.04
    },
    {
      "absoluteTicks": 314854,
      "channel": 13,
      "type": "noteOff",
      "note": 76,
      "velocity": 79,
      "rel": 0.629921,
      "time": 196.78342157168595,
      "name": "E5"
    },
    {
      "absoluteTicks": 314854,
      "channel": 13,
      "type": "noteOff",
      "note": 73,
      "velocity": 79,
      "rel": 0.629921,
      "time": 196.78342157168595,
      "name": "C#5"
    },
    {
      "absoluteTicks": 314854,
      "channel": 13,
      "type": "noteOff",
      "note": 57,
      "velocity": 79,
      "rel": 0.629921,
      "time": 196.78342157168595,
      "name": "A3"
    },
    {
      "absoluteTicks": 314880,
      "channel": 13,
      "type": "noteOn",
      "note": 74,
      "velocity": 79,
      "vel": 0.629921,
      "time": 196.79967134454884,
      "name": "D5",
      "svgX": 116522.21,
      "svgY": 689.44
    },
    {
      "absoluteTicks": 314880,
      "channel": 13,
      "type": "noteOn",
      "note": 71,
      "velocity": 79,
      "vel": 0.629921,
      "time": 196.79967134454884,
      "name": "B4",
      "svgX": 116522.21,
      "svgY": 720.25
    },
    {
      "absoluteTicks": 314880,
      "channel": 13,
      "type": "noteOn",
      "note": 43,
      "velocity": 79,
      "vel": 0.629921,
      "time": 196.79967134454884,
      "name": "G2",
      "svgX": 116522.21,
      "svgY": 1007.82
    },
    {
      "absoluteTicks": 315334,
      "channel": 13,
      "type": "noteOff",
      "note": 74,
      "velocity": 79,
      "rel": 0.629921,
      "time": 197.0834210706868,
      "name": "D5"
    },
    {
      "absoluteTicks": 315334,
      "channel": 13,
      "type": "noteOff",
      "note": 71,
      "velocity": 79,
      "rel": 0.629921,
      "time": 197.0834210706868,
      "name": "B4"
    },
    {
      "absoluteTicks": 315334,
      "channel": 13,
      "type": "noteOff",
      "note": 43,
      "velocity": 79,
      "rel": 0.629921,
      "time": 197.0834210706868,
      "name": "G2"
    },
    {
      "absoluteTicks": 315360,
      "channel": 13,
      "type": "noteOn",
      "note": 72,
      "velocity": 79,
      "vel": 0.629921,
      "time": 197.0996708435497,
      "name": "C5",
      "svgX": 116699.08,
      "svgY": 709.98
    },
    {
      "absoluteTicks": 315360,
      "channel": 13,
      "type": "noteOn",
      "note": 50,
      "velocity": 79,
      "vel": 0.629921,
      "time": 197.0996708435497,
      "name": "D3",
      "svgX": 116699.08,
      "svgY": 935.93
    },
    {
      "absoluteTicks": 315814,
      "channel": 13,
      "type": "noteOff",
      "note": 72,
      "velocity": 79,
      "rel": 0.629921,
      "time": 197.38342056968764,
      "name": "C5"
    },
    {
      "absoluteTicks": 315814,
      "channel": 13,
      "type": "noteOff",
      "note": 50,
      "velocity": 79,
      "rel": 0.629921,
      "time": 197.38342056968764,
      "name": "D3"
    },
    {
      "absoluteTicks": 315840,
      "channel": 13,
      "type": "noteOn",
      "note": 71,
      "velocity": 79,
      "vel": 0.629921,
      "time": 197.3996703425505,
      "name": "B4",
      "svgX": 116875.95,
      "svgY": 720.25
    },
    {
      "absoluteTicks": 315840,
      "channel": 13,
      "type": "noteOn",
      "note": 55,
      "velocity": 79,
      "vel": 0.629921,
      "time": 197.3996703425505,
      "name": "G3",
      "svgX": 116875.95,
      "svgY": 884.58
    },
    {
      "absoluteTicks": 316294,
      "channel": 13,
      "type": "noteOff",
      "note": 71,
      "velocity": 79,
      "rel": 0.629921,
      "time": 197.68342006868846,
      "name": "B4"
    },
    {
      "absoluteTicks": 316294,
      "channel": 13,
      "type": "noteOff",
      "note": 55,
      "velocity": 79,
      "rel": 0.629921,
      "time": 197.68342006868846,
      "name": "G3"
    },
    {
      "absoluteTicks": 316320,
      "channel": 13,
      "type": "noteOn",
      "note": 72,
      "velocity": 79,
      "vel": 0.629921,
      "time": 197.69966984155135,
      "name": "C5",
      "svgX": 117052.81,
      "svgY": 709.98
    },
    {
      "absoluteTicks": 316320,
      "channel": 13,
      "type": "noteOn",
      "note": 59,
      "velocity": 79,
      "vel": 0.629921,
      "time": 197.69966984155135,
      "name": "B3",
      "svgX": 117052.81,
      "svgY": 843.5
    },
    {
      "absoluteTicks": 316774,
      "channel": 13,
      "type": "noteOff",
      "note": 72,
      "velocity": 79,
      "rel": 0.629921,
      "time": 197.9834195676893,
      "name": "C5"
    },
    {
      "absoluteTicks": 316774,
      "channel": 13,
      "type": "noteOff",
      "note": 59,
      "velocity": 79,
      "rel": 0.629921,
      "time": 197.9834195676893,
      "name": "B3"
    },
    {
      "absoluteTicks": 316800,
      "channel": 13,
      "type": "noteOn",
      "note": 74,
      "velocity": 79,
      "vel": 0.629921,
      "time": 197.9996693405522,
      "name": "D5",
      "svgX": 117229.68,
      "svgY": 689.44
    },
    {
      "absoluteTicks": 316800,
      "channel": 13,
      "type": "noteOn",
      "note": 38,
      "velocity": 79,
      "vel": 0.629921,
      "time": 197.9996693405522,
      "name": "D2",
      "svgX": 117229.68,
      "svgY": 1059.17
    },
    {
      "absoluteTicks": 317254,
      "channel": 13,
      "type": "noteOff",
      "note": 38,
      "velocity": 79,
      "rel": 0.629921,
      "time": 198.28341906669016,
      "name": "D2"
    },
    {
      "absoluteTicks": 317280,
      "channel": 13,
      "type": "noteOn",
      "note": 45,
      "velocity": 79,
      "vel": 0.629921,
      "time": 198.29966883955302,
      "name": "A2",
      "svgX": 117406.55,
      "svgY": 987.28
    },
    {
      "absoluteTicks": 317710,
      "channel": 13,
      "type": "noteOff",
      "note": 74,
      "velocity": 79,
      "rel": 0.629921,
      "time": 198.56841859074095,
      "name": "D5"
    },
    {
      "absoluteTicks": 317734,
      "channel": 13,
      "type": "noteOff",
      "note": 45,
      "velocity": 79,
      "rel": 0.629921,
      "time": 198.58341856569098,
      "name": "A2"
    },
    {
      "absoluteTicks": 317760,
      "channel": 13,
      "type": "noteOn",
      "note": 69,
      "velocity": 79,
      "vel": 0.629921,
      "time": 198.59966833855387,
      "name": "A4",
      "svgX": 117583.42,
      "svgY": 740.79
    },
    {
      "absoluteTicks": 317760,
      "channel": 13,
      "type": "noteOn",
      "note": 50,
      "velocity": 79,
      "vel": 0.629921,
      "time": 198.59966833855387,
      "name": "D3",
      "svgX": 117583.42,
      "svgY": 935.93
    },
    {
      "absoluteTicks": 318214,
      "channel": 13,
      "type": "noteOff",
      "note": 50,
      "velocity": 79,
      "rel": 0.629921,
      "time": 198.88341806469182,
      "name": "D3"
    },
    {
      "absoluteTicks": 318240,
      "channel": 13,
      "type": "noteOn",
      "note": 54,
      "velocity": 79,
      "vel": 0.629921,
      "time": 198.8996678375547,
      "name": "F#3",
      "svgX": 117760.28,
      "svgY": 894.85
    },
    {
      "absoluteTicks": 318442,
      "channel": 13,
      "type": "noteOff",
      "note": 69,
      "velocity": 79,
      "rel": 0.629921,
      "time": 199.0259178267172,
      "name": "A4"
    },
    {
      "absoluteTicks": 318480,
      "channel": 13,
      "type": "noteOn",
      "note": 66,
      "velocity": 79,
      "vel": 0.629921,
      "time": 199.04966758705513,
      "name": "F#4",
      "svgX": 117848.72,
      "svgY": 771.6
    },
    {
      "absoluteTicks": 318694,
      "channel": 13,
      "type": "noteOff",
      "note": 54,
      "velocity": 79,
      "rel": 0.629921,
      "time": 199.18341756369264,
      "name": "F#3"
    },
    {
      "absoluteTicks": 318705,
      "channel": 13,
      "type": "noteOff",
      "note": 66,
      "velocity": 79,
      "rel": 0.629921,
      "time": 199.1909169511687,
      "name": "F#4"
    },
    {
      "absoluteTicks": 318720,
      "channel": 13,
      "type": "noteOn",
      "note": 74,
      "velocity": 79,
      "vel": 0.629921,
      "time": 199.19966733655554,
      "name": "D5",
      "svgX": 117937.15,
      "svgY": 689.44
    },
    {
      "absoluteTicks": 318720,
      "channel": 13,
      "type": "noteOn",
      "note": 43,
      "velocity": 79,
      "vel": 0.629921,
      "time": 199.19966733655554,
      "name": "G2",
      "svgX": 117937.15,
      "svgY": 1007.82
    },
    {
      "absoluteTicks": 319174,
      "channel": 13,
      "type": "noteOff",
      "note": 74,
      "velocity": 79,
      "rel": 0.629921,
      "time": 199.4834170626935,
      "name": "D5"
    },
    {
      "absoluteTicks": 319174,
      "channel": 13,
      "type": "noteOff",
      "note": 43,
      "velocity": 79,
      "rel": 0.629921,
      "time": 199.4834170626935,
      "name": "G2"
    },
    {
      "absoluteTicks": 319200,
      "channel": 13,
      "type": "noteOn",
      "note": 72,
      "velocity": 79,
      "vel": 0.629921,
      "time": 199.49966683555638,
      "name": "C5",
      "svgX": 118114.02,
      "svgY": 709.98
    },
    {
      "absoluteTicks": 319200,
      "channel": 13,
      "type": "noteOn",
      "note": 50,
      "velocity": 79,
      "vel": 0.629921,
      "time": 199.49966683555638,
      "name": "D3",
      "svgX": 118114.02,
      "svgY": 935.93
    },
    {
      "absoluteTicks": 319654,
      "channel": 13,
      "type": "noteOff",
      "note": 72,
      "velocity": 79,
      "rel": 0.629921,
      "time": 199.78341656169434,
      "name": "C5"
    },
    {
      "absoluteTicks": 319654,
      "channel": 13,
      "type": "noteOff",
      "note": 50,
      "velocity": 79,
      "rel": 0.629921,
      "time": 199.78341656169434,
      "name": "D3"
    },
    {
      "absoluteTicks": 319680,
      "channel": 13,
      "type": "noteOn",
      "note": 71,
      "velocity": 79,
      "vel": 0.629921,
      "time": 199.7996663345572,
      "name": "B4",
      "svgX": 118290.89,
      "svgY": 720.25
    },
    {
      "absoluteTicks": 319680,
      "channel": 13,
      "type": "noteOn",
      "note": 55,
      "velocity": 79,
      "vel": 0.629921,
      "time": 199.7996663345572,
      "name": "G3",
      "svgX": 118290.89,
      "svgY": 884.58
    },
    {
      "absoluteTicks": 320134,
      "channel": 13,
      "type": "noteOff",
      "note": 71,
      "velocity": 79,
      "rel": 0.629921,
      "time": 200.08341606069516,
      "name": "B4"
    },
    {
      "absoluteTicks": 320134,
      "channel": 13,
      "type": "noteOff",
      "note": 55,
      "velocity": 79,
      "rel": 0.629921,
      "time": 200.08341606069516,
      "name": "G3"
    },
    {
      "absoluteTicks": 320160,
      "channel": 13,
      "type": "noteOn",
      "note": 72,
      "velocity": 79,
      "vel": 0.629921,
      "time": 200.09966583355805,
      "name": "C5",
      "svgX": 118467.75,
      "svgY": 709.98
    },
    {
      "absoluteTicks": 320160,
      "channel": 13,
      "type": "noteOn",
      "note": 59,
      "velocity": 79,
      "vel": 0.629921,
      "time": 200.09966583355805,
      "name": "B3",
      "svgX": 118467.75,
      "svgY": 843.5
    },
    {
      "absoluteTicks": 320614,
      "channel": 13,
      "type": "noteOff",
      "note": 72,
      "velocity": 79,
      "rel": 0.629921,
      "time": 200.383415559696,
      "name": "C5"
    },
    {
      "absoluteTicks": 320614,
      "channel": 13,
      "type": "noteOff",
      "note": 59,
      "velocity": 79,
      "rel": 0.629921,
      "time": 200.383415559696,
      "name": "B3"
    },
    {
      "absoluteTicks": 320640,
      "channel": 13,
      "type": "noteOn",
      "note": 73,
      "velocity": 79,
      "vel": 0.629921,
      "time": 200.3996653325589,
      "name": "C#5",
      "svgX": 118644.62,
      "svgY": 699.71
    },
    {
      "absoluteTicks": 320640,
      "channel": 13,
      "type": "noteOn",
      "note": 69,
      "velocity": 79,
      "vel": 0.629921,
      "time": 200.3996653325589,
      "name": "A4",
      "svgX": 118644.62,
      "svgY": 740.79
    },
    {
      "absoluteTicks": 320640,
      "channel": 13,
      "type": "noteOn",
      "note": 45,
      "velocity": 79,
      "vel": 0.629921,
      "time": 200.3996653325589,
      "name": "A2",
      "svgX": 118644.62,
      "svgY": 987.28
    },
    {
      "absoluteTicks": 321094,
      "channel": 13,
      "type": "noteOff",
      "note": 45,
      "velocity": 79,
      "rel": 0.629921,
      "time": 200.68341505869682,
      "name": "A2"
    },
    {
      "absoluteTicks": 321120,
      "channel": 13,
      "type": "noteOn",
      "note": 52,
      "velocity": 79,
      "vel": 0.629921,
      "time": 200.69966483155972,
      "name": "E3",
      "svgX": 118821.49,
      "svgY": 915.39
    },
    {
      "absoluteTicks": 321574,
      "channel": 13,
      "type": "noteOff",
      "note": 52,
      "velocity": 79,
      "rel": 0.629921,
      "time": 200.98341455769767,
      "name": "E3"
    },
    {
      "absoluteTicks": 321600,
      "channel": 13,
      "type": "noteOn",
      "note": 57,
      "velocity": 79,
      "vel": 0.629921,
      "time": 200.99966433056056,
      "name": "A3",
      "svgX": 118998.35,
      "svgY": 864.04
    },
    {
      "absoluteTicks": 322005,
      "channel": 13,
      "type": "noteOff",
      "note": 73,
      "velocity": 79,
      "rel": 0.629921,
      "time": 201.25341350679943,
      "name": "C#5"
    },
    {
      "absoluteTicks": 322005,
      "channel": 13,
      "type": "noteOff",
      "note": 69,
      "velocity": 79,
      "rel": 0.629921,
      "time": 201.25341350679943,
      "name": "A4"
    },
    {
      "absoluteTicks": 322054,
      "channel": 13,
      "type": "noteOff",
      "note": 57,
      "velocity": 79,
      "rel": 0.629921,
      "time": 201.28341405669852,
      "name": "A3"
    },
    {
      "absoluteTicks": 322080,
      "channel": 13,
      "type": "noteOn",
      "note": 73,
      "velocity": 79,
      "vel": 0.629921,
      "time": 201.29966382956138,
      "name": "C#5",
      "svgX": 119175.22,
      "svgY": 699.71
    },
    {
      "absoluteTicks": 322080,
      "channel": 13,
      "type": "noteOn",
      "note": 61,
      "velocity": 79,
      "vel": 0.629921,
      "time": 201.29966382956138,
      "name": "C#4",
      "svgX": 119175.22,
      "svgY": 822.96
    },
    {
      "absoluteTicks": 322534,
      "channel": 13,
      "type": "noteOff",
      "note": 73,
      "velocity": 79,
      "rel": 0.629921,
      "time": 201.58341355569934,
      "name": "C#5"
    },
    {
      "absoluteTicks": 322534,
      "channel": 13,
      "type": "noteOff",
      "note": 61,
      "velocity": 79,
      "rel": 0.629921,
      "time": 201.58341355569934,
      "name": "C#4"
    },
    {
      "absoluteTicks": 322560,
      "channel": 13,
      "type": "noteOn",
      "note": 74,
      "velocity": 79,
      "vel": 0.629921,
      "time": 201.59966332856223,
      "name": "D5",
      "svgX": 119352.09,
      "svgY": 689.44
    },
    {
      "absoluteTicks": 322560,
      "channel": 13,
      "type": "noteOn",
      "note": 69,
      "velocity": 79,
      "vel": 0.629921,
      "time": 201.59966332856223,
      "name": "A4",
      "svgX": 119352.09,
      "svgY": 740.79
    },
    {
      "absoluteTicks": 322560,
      "channel": 13,
      "type": "noteOn",
      "note": 66,
      "velocity": 79,
      "vel": 0.629921,
      "time": 201.59966332856223,
      "name": "F#4",
      "svgX": 119352.09,
      "svgY": 771.6
    },
    {
      "absoluteTicks": 322560,
      "channel": 13,
      "type": "noteOn",
      "note": 50,
      "velocity": 79,
      "vel": 0.629921,
      "time": 201.59966332856223,
      "name": "D3",
      "svgX": 119352.09,
      "svgY": 935.93
    },
    {
      "absoluteTicks": 323014,
      "channel": 13,
      "type": "noteOff",
      "note": 50,
      "velocity": 79,
      "rel": 0.629921,
      "time": 201.88341305470018,
      "name": "D3"
    },
    {
      "absoluteTicks": 323040,
      "channel": 13,
      "type": "noteOn",
      "note": 57,
      "velocity": 79,
      "vel": 0.629921,
      "time": 201.89966282756308,
      "name": "A3",
      "svgX": 119528.96,
      "svgY": 864.04
    },
    {
      "absoluteTicks": 323494,
      "channel": 13,
      "type": "noteOff",
      "note": 57,
      "velocity": 79,
      "rel": 0.629921,
      "time": 202.18341255370103,
      "name": "A3"
    },
    {
      "absoluteTicks": 323520,
      "channel": 13,
      "type": "noteOn",
      "note": 62,
      "velocity": 79,
      "vel": 0.629921,
      "time": 202.1996623265639,
      "name": "D4",
      "svgX": 119705.82,
      "svgY": 812.69
    },
    {
      "absoluteTicks": 323925,
      "channel": 13,
      "type": "noteOff",
      "note": 74,
      "velocity": 79,
      "rel": 0.629921,
      "time": 202.4534115028028,
      "name": "D5"
    },
    {
      "absoluteTicks": 323925,
      "channel": 13,
      "type": "noteOff",
      "note": 69,
      "velocity": 79,
      "rel": 0.629921,
      "time": 202.4534115028028,
      "name": "A4"
    },
    {
      "absoluteTicks": 323925,
      "channel": 13,
      "type": "noteOff",
      "note": 66,
      "velocity": 79,
      "rel": 0.629921,
      "time": 202.4534115028028,
      "name": "F#4"
    },
    {
      "absoluteTicks": 323974,
      "channel": 13,
      "type": "noteOff",
      "note": 62,
      "velocity": 79,
      "rel": 0.629921,
      "time": 202.48341205270185,
      "name": "D4"
    },
    {
      "absoluteTicks": 324000,
      "channel": 13,
      "type": "noteOn",
      "note": 69,
      "velocity": 79,
      "vel": 0.629921,
      "time": 202.49966182556474,
      "name": "A4",
      "svgX": 119882.69,
      "svgY": 740.79
    },
    {
      "absoluteTicks": 324000,
      "channel": 13,
      "type": "noteOn",
      "note": 66,
      "velocity": 79,
      "vel": 0.629921,
      "time": 202.49966182556474,
      "name": "F#4",
      "svgX": 119882.69,
      "svgY": 771.6
    },
    {
      "absoluteTicks": 324454,
      "channel": 13,
      "type": "noteOff",
      "note": 69,
      "velocity": 79,
      "rel": 0.629921,
      "time": 202.7834115517027,
      "name": "A4"
    },
    {
      "absoluteTicks": 324454,
      "channel": 13,
      "type": "noteOff",
      "note": 66,
      "velocity": 79,
      "rel": 0.629921,
      "time": 202.7834115517027,
      "name": "F#4"
    },
    {
      "absoluteTicks": 324480,
      "channel": 13,
      "type": "noteOn",
      "note": 69,
      "velocity": 79,
      "vel": 0.629921,
      "time": 202.7996613245656,
      "name": "A4",
      "svgX": 120059.56,
      "svgY": 740.79
    },
    {
      "absoluteTicks": 324480,
      "channel": 13,
      "type": "noteOn",
      "note": 45,
      "velocity": 79,
      "vel": 0.629921,
      "time": 202.7996613245656,
      "name": "A2",
      "svgX": 120059.56,
      "svgY": 987.28
    },
    {
      "absoluteTicks": 324934,
      "channel": 13,
      "type": "noteOff",
      "note": 69,
      "velocity": 79,
      "rel": 0.629921,
      "time": 203.08341105070352,
      "name": "A4"
    },
    {
      "absoluteTicks": 324934,
      "channel": 13,
      "type": "noteOff",
      "note": 45,
      "velocity": 79,
      "rel": 0.629921,
      "time": 203.08341105070352,
      "name": "A2"
    },
    {
      "absoluteTicks": 324960,
      "channel": 13,
      "type": "noteOn",
      "note": 71,
      "velocity": 79,
      "vel": 0.629921,
      "time": 203.0996608235664,
      "name": "B4",
      "svgX": 120236.43,
      "svgY": 720.25
    },
    {
      "absoluteTicks": 324960,
      "channel": 13,
      "type": "noteOn",
      "note": 52,
      "velocity": 79,
      "vel": 0.629921,
      "time": 203.0996608235664,
      "name": "E3",
      "svgX": 120236.43,
      "svgY": 915.39
    },
    {
      "absoluteTicks": 325414,
      "channel": 13,
      "type": "noteOff",
      "note": 71,
      "velocity": 79,
      "rel": 0.629921,
      "time": 203.38341054970437,
      "name": "B4"
    },
    {
      "absoluteTicks": 325414,
      "channel": 13,
      "type": "noteOff",
      "note": 52,
      "velocity": 79,
      "rel": 0.629921,
      "time": 203.38341054970437,
      "name": "E3"
    },
    {
      "absoluteTicks": 325440,
      "channel": 13,
      "type": "noteOn",
      "note": 69,
      "velocity": 79,
      "vel": 0.629921,
      "time": 203.39966032256726,
      "name": "A4",
      "svgX": 120413.29,
      "svgY": 740.79
    },
    {
      "absoluteTicks": 325440,
      "channel": 13,
      "type": "noteOn",
      "note": 57,
      "velocity": 79,
      "vel": 0.629921,
      "time": 203.39966032256726,
      "name": "A3",
      "svgX": 120413.29,
      "svgY": 864.04
    },
    {
      "absoluteTicks": 325894,
      "channel": 13,
      "type": "noteOff",
      "note": 69,
      "velocity": 79,
      "rel": 0.629921,
      "time": 203.6834100487052,
      "name": "A4"
    },
    {
      "absoluteTicks": 325894,
      "channel": 13,
      "type": "noteOff",
      "note": 57,
      "velocity": 79,
      "rel": 0.629921,
      "time": 203.6834100487052,
      "name": "A3"
    },
    {
      "absoluteTicks": 325920,
      "channel": 13,
      "type": "noteOn",
      "note": 67,
      "velocity": 79,
      "vel": 0.629921,
      "time": 203.69965982156808,
      "name": "G4",
      "svgX": 120590.16,
      "svgY": 761.33
    },
    {
      "absoluteTicks": 325920,
      "channel": 13,
      "type": "noteOn",
      "note": 61,
      "velocity": 79,
      "vel": 0.629921,
      "time": 203.69965982156808,
      "name": "C#4",
      "svgX": 120590.16,
      "svgY": 822.96
    },
    {
      "absoluteTicks": 326374,
      "channel": 13,
      "type": "noteOff",
      "note": 67,
      "velocity": 79,
      "rel": 0.629921,
      "time": 203.98340954770603,
      "name": "G4"
    },
    {
      "absoluteTicks": 326374,
      "channel": 13,
      "type": "noteOff",
      "note": 61,
      "velocity": 79,
      "rel": 0.629921,
      "time": 203.98340954770603,
      "name": "C#4"
    },
    {
      "absoluteTicks": 326400,
      "channel": 13,
      "type": "noteOn",
      "note": 66,
      "velocity": 79,
      "vel": 0.629921,
      "time": 203.99965932056892,
      "name": "F#4",
      "svgX": 120767.03,
      "svgY": 771.6
    },
    {
      "absoluteTicks": 326400,
      "channel": 13,
      "type": "noteOn",
      "note": 47,
      "velocity": 79,
      "vel": 0.629921,
      "time": 203.99965932056892,
      "name": "B2",
      "svgX": 120767.03,
      "svgY": 966.74
    },
    {
      "absoluteTicks": 326854,
      "channel": 13,
      "type": "noteOff",
      "note": 47,
      "velocity": 79,
      "rel": 0.629921,
      "time": 204.28340904670688,
      "name": "B2"
    },
    {
      "absoluteTicks": 326880,
      "channel": 13,
      "type": "noteOn",
      "note": 54,
      "velocity": 79,
      "vel": 0.629921,
      "time": 204.29965881956977,
      "name": "F#3",
      "svgX": 120943.89,
      "svgY": 894.85
    },
    {
      "absoluteTicks": 327334,
      "channel": 13,
      "type": "noteOff",
      "note": 54,
      "velocity": 79,
      "rel": 0.629921,
      "time": 204.58340854570773,
      "name": "F#3"
    },
    {
      "absoluteTicks": 327360,
      "channel": 13,
      "type": "noteOn",
      "note": 59,
      "velocity": 79,
      "vel": 0.629921,
      "time": 204.5996583185706,
      "name": "B3",
      "svgX": 121120.76,
      "svgY": 843.5
    },
    {
      "absoluteTicks": 327765,
      "channel": 13,
      "type": "noteOff",
      "note": 66,
      "velocity": 79,
      "rel": 0.629921,
      "time": 204.8534074948095,
      "name": "F#4"
    },
    {
      "absoluteTicks": 327814,
      "channel": 13,
      "type": "noteOff",
      "note": 59,
      "velocity": 79,
      "rel": 0.629921,
      "time": 204.88340804470855,
      "name": "B3"
    },
    {
      "absoluteTicks": 327840,
      "channel": 13,
      "type": "noteOn",
      "note": 66,
      "velocity": 79,
      "vel": 0.629921,
      "time": 204.89965781757144,
      "name": "F#4",
      "svgX": 121297.63,
      "svgY": 771.6
    },
    {
      "absoluteTicks": 327840,
      "channel": 13,
      "type": "noteOn",
      "note": 62,
      "velocity": 79,
      "vel": 0.629921,
      "time": 204.89965781757144,
      "name": "D4",
      "svgX": 121297.63,
      "svgY": 812.69
    },
    {
      "absoluteTicks": 328294,
      "channel": 13,
      "type": "noteOff",
      "note": 66,
      "velocity": 79,
      "rel": 0.629921,
      "time": 205.1834075437094,
      "name": "F#4"
    },
    {
      "absoluteTicks": 328294,
      "channel": 13,
      "type": "noteOff",
      "note": 62,
      "velocity": 79,
      "rel": 0.629921,
      "time": 205.1834075437094,
      "name": "D4"
    },
    {
      "absoluteTicks": 328320,
      "channel": 13,
      "type": "noteOn",
      "note": 66,
      "velocity": 79,
      "vel": 0.629921,
      "time": 205.19965731657229,
      "name": "F#4",
      "svgX": 121474.5,
      "svgY": 771.6
    },
    {
      "absoluteTicks": 328320,
      "channel": 13,
      "type": "noteOn",
      "note": 42,
      "velocity": 79,
      "vel": 0.629921,
      "time": 205.19965731657229,
      "name": "F#2",
      "svgX": 121474.5,
      "svgY": 1018.09
    },
    {
      "absoluteTicks": 328774,
      "channel": 13,
      "type": "noteOff",
      "note": 66,
      "velocity": 79,
      "rel": 0.629921,
      "time": 205.4834070427102,
      "name": "F#4"
    },
    {
      "absoluteTicks": 328774,
      "channel": 13,
      "type": "noteOff",
      "note": 42,
      "velocity": 79,
      "rel": 0.629921,
      "time": 205.4834070427102,
      "name": "F#2"
    },
    {
      "absoluteTicks": 328800,
      "channel": 13,
      "type": "noteOn",
      "note": 67,
      "velocity": 79,
      "vel": 0.629921,
      "time": 205.4996568155731,
      "name": "G4",
      "svgX": 121651.36,
      "svgY": 761.33
    },
    {
      "absoluteTicks": 328800,
      "channel": 13,
      "type": "noteOn",
      "note": 49,
      "velocity": 79,
      "vel": 0.629921,
      "time": 205.4996568155731,
      "name": "C#3",
      "svgX": 121651.36,
      "svgY": 946.2
    },
    {
      "absoluteTicks": 329254,
      "channel": 13,
      "type": "noteOff",
      "note": 67,
      "velocity": 79,
      "rel": 0.629921,
      "time": 205.78340654171106,
      "name": "G4"
    },
    {
      "absoluteTicks": 329254,
      "channel": 13,
      "type": "noteOff",
      "note": 49,
      "velocity": 79,
      "rel": 0.629921,
      "time": 205.78340654171106,
      "name": "C#3"
    },
    {
      "absoluteTicks": 329280,
      "channel": 13,
      "type": "noteOn",
      "note": 66,
      "velocity": 79,
      "vel": 0.629921,
      "time": 205.79965631457395,
      "name": "F#4",
      "svgX": 121828.23,
      "svgY": 771.6
    },
    {
      "absoluteTicks": 329280,
      "channel": 13,
      "type": "noteOn",
      "note": 54,
      "velocity": 79,
      "vel": 0.629921,
      "time": 205.79965631457395,
      "name": "F#3",
      "svgX": 121828.23,
      "svgY": 894.85
    },
    {
      "absoluteTicks": 329734,
      "channel": 13,
      "type": "noteOff",
      "note": 66,
      "velocity": 79,
      "rel": 0.629921,
      "time": 206.0834060407119,
      "name": "F#4"
    },
    {
      "absoluteTicks": 329734,
      "channel": 13,
      "type": "noteOff",
      "note": 54,
      "velocity": 79,
      "rel": 0.629921,
      "time": 206.0834060407119,
      "name": "F#3"
    },
    {
      "absoluteTicks": 329760,
      "channel": 13,
      "type": "noteOn",
      "note": 64,
      "velocity": 79,
      "vel": 0.629921,
      "time": 206.09965581357477,
      "name": "E4",
      "svgX": 122005.1,
      "svgY": 792.15
    },
    {
      "absoluteTicks": 329760,
      "channel": 13,
      "type": "noteOn",
      "note": 57,
      "velocity": 79,
      "vel": 0.629921,
      "time": 206.09965581357477,
      "name": "A3",
      "svgX": 122005.1,
      "svgY": 864.04
    },
    {
      "absoluteTicks": 330214,
      "channel": 13,
      "type": "noteOff",
      "note": 64,
      "velocity": 79,
      "rel": 0.629921,
      "time": 206.38340553971273,
      "name": "E4"
    },
    {
      "absoluteTicks": 330214,
      "channel": 13,
      "type": "noteOff",
      "note": 57,
      "velocity": 79,
      "rel": 0.629921,
      "time": 206.38340553971273,
      "name": "A3"
    },
    {
      "absoluteTicks": 330240,
      "channel": 13,
      "type": "noteOn",
      "note": 74,
      "velocity": 79,
      "vel": 0.629921,
      "time": 206.39965531257562,
      "name": "D5",
      "svgX": 122181.97,
      "svgY": 689.44
    },
    {
      "absoluteTicks": 330240,
      "channel": 13,
      "type": "noteOn",
      "note": 43,
      "velocity": 79,
      "vel": 0.629921,
      "time": 206.39965531257562,
      "name": "G2",
      "svgX": 122181.97,
      "svgY": 1007.82
    },
    {
      "absoluteTicks": 330694,
      "channel": 13,
      "type": "noteOff",
      "note": 74,
      "velocity": 79,
      "rel": 0.629921,
      "time": 206.68340503871357,
      "name": "D5"
    },
    {
      "absoluteTicks": 330694,
      "channel": 13,
      "type": "noteOff",
      "note": 43,
      "velocity": 79,
      "rel": 0.629921,
      "time": 206.68340503871357,
      "name": "G2"
    },
    {
      "absoluteTicks": 330720,
      "channel": 13,
      "type": "noteOn",
      "note": 72,
      "velocity": 79,
      "vel": 0.629921,
      "time": 206.69965481157647,
      "name": "C5",
      "svgX": 122358.83,
      "svgY": 709.98
    },
    {
      "absoluteTicks": 330720,
      "channel": 13,
      "type": "noteOn",
      "note": 50,
      "velocity": 79,
      "vel": 0.629921,
      "time": 206.69965481157647,
      "name": "D3",
      "svgX": 122358.83,
      "svgY": 935.93
    },
    {
      "absoluteTicks": 331174,
      "channel": 13,
      "type": "noteOff",
      "note": 72,
      "velocity": 79,
      "rel": 0.629921,
      "time": 206.98340453771442,
      "name": "C5"
    },
    {
      "absoluteTicks": 331174,
      "channel": 13,
      "type": "noteOff",
      "note": 50,
      "velocity": 79,
      "rel": 0.629921,
      "time": 206.98340453771442,
      "name": "D3"
    },
    {
      "absoluteTicks": 331200,
      "channel": 13,
      "type": "noteOn",
      "note": 71,
      "velocity": 79,
      "vel": 0.629921,
      "time": 206.99965431057728,
      "name": "B4",
      "svgX": 122535.7,
      "svgY": 720.25
    },
    {
      "absoluteTicks": 331200,
      "channel": 13,
      "type": "noteOn",
      "note": 55,
      "velocity": 79,
      "vel": 0.629921,
      "time": 206.99965431057728,
      "name": "G3",
      "svgX": 122535.7,
      "svgY": 884.58
    },
    {
      "absoluteTicks": 331654,
      "channel": 13,
      "type": "noteOff",
      "note": 71,
      "velocity": 79,
      "rel": 0.629921,
      "time": 207.28340403671524,
      "name": "B4"
    },
    {
      "absoluteTicks": 331654,
      "channel": 13,
      "type": "noteOff",
      "note": 55,
      "velocity": 79,
      "rel": 0.629921,
      "time": 207.28340403671524,
      "name": "G3"
    },
    {
      "absoluteTicks": 331680,
      "channel": 13,
      "type": "noteOn",
      "note": 72,
      "velocity": 79,
      "vel": 0.629921,
      "time": 207.29965380957813,
      "name": "C5",
      "svgX": 122712.57,
      "svgY": 709.98
    },
    {
      "absoluteTicks": 331680,
      "channel": 13,
      "type": "noteOn",
      "note": 59,
      "velocity": 79,
      "vel": 0.629921,
      "time": 207.29965380957813,
      "name": "B3",
      "svgX": 122712.57,
      "svgY": 843.5
    },
    {
      "absoluteTicks": 332134,
      "channel": 13,
      "type": "noteOff",
      "note": 72,
      "velocity": 79,
      "rel": 0.629921,
      "time": 207.5834035357161,
      "name": "C5"
    },
    {
      "absoluteTicks": 332134,
      "channel": 13,
      "type": "noteOff",
      "note": 59,
      "velocity": 79,
      "rel": 0.629921,
      "time": 207.5834035357161,
      "name": "B3"
    },
    {
      "absoluteTicks": 332160,
      "channel": 13,
      "type": "noteOn",
      "note": 74,
      "velocity": 79,
      "vel": 0.629921,
      "time": 207.59965330857895,
      "name": "D5",
      "svgX": 122889.44,
      "svgY": 689.44
    },
    {
      "absoluteTicks": 332160,
      "channel": 13,
      "type": "noteOn",
      "note": 38,
      "velocity": 79,
      "vel": 0.629921,
      "time": 207.59965330857895,
      "name": "D2",
      "svgX": 122889.44,
      "svgY": 1059.17
    },
    {
      "absoluteTicks": 332614,
      "channel": 13,
      "type": "noteOff",
      "note": 38,
      "velocity": 79,
      "rel": 0.629921,
      "time": 207.8834030347169,
      "name": "D2"
    },
    {
      "absoluteTicks": 332640,
      "channel": 13,
      "type": "noteOn",
      "note": 45,
      "velocity": 79,
      "vel": 0.629921,
      "time": 207.8996528075798,
      "name": "A2",
      "svgX": 123066.3,
      "svgY": 987.28
    },
    {
      "absoluteTicks": 333070,
      "channel": 13,
      "type": "noteOff",
      "note": 74,
      "velocity": 79,
      "rel": 0.629921,
      "time": 208.16840255876772,
      "name": "D5"
    },
    {
      "absoluteTicks": 333094,
      "channel": 13,
      "type": "noteOff",
      "note": 45,
      "velocity": 79,
      "rel": 0.629921,
      "time": 208.18340253371775,
      "name": "A2"
    },
    {
      "absoluteTicks": 333120,
      "channel": 13,
      "type": "noteOn",
      "note": 69,
      "velocity": 79,
      "vel": 0.629921,
      "time": 208.19965230658065,
      "name": "A4",
      "svgX": 123243.17,
      "svgY": 740.79
    },
    {
      "absoluteTicks": 333120,
      "channel": 13,
      "type": "noteOn",
      "note": 50,
      "velocity": 79,
      "vel": 0.629921,
      "time": 208.19965230658065,
      "name": "D3",
      "svgX": 123243.17,
      "svgY": 935.93
    },
    {
      "absoluteTicks": 333574,
      "channel": 13,
      "type": "noteOff",
      "note": 50,
      "velocity": 79,
      "rel": 0.629921,
      "time": 208.4834020327186,
      "name": "D3"
    },
    {
      "absoluteTicks": 333600,
      "channel": 13,
      "type": "noteOn",
      "note": 54,
      "velocity": 79,
      "vel": 0.629921,
      "time": 208.49965180558146,
      "name": "F#3",
      "svgX": 123420.04,
      "svgY": 894.85
    },
    {
      "absoluteTicks": 333802,
      "channel": 13,
      "type": "noteOff",
      "note": 69,
      "velocity": 79,
      "rel": 0.629921,
      "time": 208.62590179474398,
      "name": "A4"
    },
    {
      "absoluteTicks": 333840,
      "channel": 13,
      "type": "noteOn",
      "note": 69,
      "velocity": 79,
      "vel": 0.629921,
      "time": 208.6496515550819,
      "name": "A4",
      "svgX": 123508.47,
      "svgY": 740.79
    },
    {
      "absoluteTicks": 334054,
      "channel": 13,
      "type": "noteOff",
      "note": 54,
      "velocity": 79,
      "rel": 0.629921,
      "time": 208.78340153171942,
      "name": "F#3"
    },
    {
      "absoluteTicks": 334065,
      "channel": 13,
      "type": "noteOff",
      "note": 69,
      "velocity": 79,
      "rel": 0.629921,
      "time": 208.79090091919548,
      "name": "A4"
    },
    {
      "absoluteTicks": 334080,
      "channel": 13,
      "type": "noteOn",
      "note": 74,
      "velocity": 79,
      "vel": 0.629921,
      "time": 208.7996513045823,
      "name": "D5",
      "svgX": 123596.9,
      "svgY": 689.44
    },
    {
      "absoluteTicks": 334080,
      "channel": 13,
      "type": "noteOn",
      "note": 43,
      "velocity": 79,
      "vel": 0.629921,
      "time": 208.7996513045823,
      "name": "G2",
      "svgX": 123596.9,
      "svgY": 1007.82
    },
    {
      "absoluteTicks": 334534,
      "channel": 13,
      "type": "noteOff",
      "note": 74,
      "velocity": 79,
      "rel": 0.629921,
      "time": 209.08340103072027,
      "name": "D5"
    },
    {
      "absoluteTicks": 334534,
      "channel": 13,
      "type": "noteOff",
      "note": 43,
      "velocity": 79,
      "rel": 0.629921,
      "time": 209.08340103072027,
      "name": "G2"
    },
    {
      "absoluteTicks": 334560,
      "channel": 13,
      "type": "noteOn",
      "note": 72,
      "velocity": 79,
      "vel": 0.629921,
      "time": 209.09965080358316,
      "name": "C5",
      "svgX": 123773.77,
      "svgY": 709.98
    },
    {
      "absoluteTicks": 334560,
      "channel": 13,
      "type": "noteOn",
      "note": 50,
      "velocity": 79,
      "vel": 0.629921,
      "time": 209.09965080358316,
      "name": "D3",
      "svgX": 123773.77,
      "svgY": 935.93
    },
    {
      "absoluteTicks": 335014,
      "channel": 13,
      "type": "noteOff",
      "note": 72,
      "velocity": 79,
      "rel": 0.629921,
      "time": 209.3834005297211,
      "name": "C5"
    },
    {
      "absoluteTicks": 335014,
      "channel": 13,
      "type": "noteOff",
      "note": 50,
      "velocity": 79,
      "rel": 0.629921,
      "time": 209.3834005297211,
      "name": "D3"
    },
    {
      "absoluteTicks": 335040,
      "channel": 13,
      "type": "noteOn",
      "note": 71,
      "velocity": 79,
      "vel": 0.629921,
      "time": 209.39965030258398,
      "name": "B4",
      "svgX": 123950.64,
      "svgY": 720.25
    },
    {
      "absoluteTicks": 335040,
      "channel": 13,
      "type": "noteOn",
      "note": 55,
      "velocity": 79,
      "vel": 0.629921,
      "time": 209.39965030258398,
      "name": "G3",
      "svgX": 123950.64,
      "svgY": 884.58
    },
    {
      "absoluteTicks": 335494,
      "channel": 13,
      "type": "noteOff",
      "note": 71,
      "velocity": 79,
      "rel": 0.629921,
      "time": 209.68340002872193,
      "name": "B4"
    },
    {
      "absoluteTicks": 335494,
      "channel": 13,
      "type": "noteOff",
      "note": 55,
      "velocity": 79,
      "rel": 0.629921,
      "time": 209.68340002872193,
      "name": "G3"
    },
    {
      "absoluteTicks": 335520,
      "channel": 13,
      "type": "noteOn",
      "note": 72,
      "velocity": 79,
      "vel": 0.629921,
      "time": 209.69964980158483,
      "name": "C5",
      "svgX": 124127.51,
      "svgY": 709.98
    },
    {
      "absoluteTicks": 335520,
      "channel": 13,
      "type": "noteOn",
      "note": 59,
      "velocity": 79,
      "vel": 0.629921,
      "time": 209.69964980158483,
      "name": "B3",
      "svgX": 124127.51,
      "svgY": 843.5
    },
    {
      "absoluteTicks": 335974,
      "channel": 13,
      "type": "noteOff",
      "note": 72,
      "velocity": 79,
      "rel": 0.629921,
      "time": 209.98339952772278,
      "name": "C5"
    },
    {
      "absoluteTicks": 335974,
      "channel": 13,
      "type": "noteOff",
      "note": 59,
      "velocity": 79,
      "rel": 0.629921,
      "time": 209.98339952772278,
      "name": "B3"
    },
    {
      "absoluteTicks": 336000,
      "channel": 13,
      "type": "noteOn",
      "note": 74,
      "velocity": 79,
      "vel": 0.629921,
      "time": 209.99964930058565,
      "name": "D5",
      "svgX": 124304.37,
      "svgY": 689.44
    },
    {
      "absoluteTicks": 336000,
      "channel": 13,
      "type": "noteOn",
      "note": 45,
      "velocity": 79,
      "vel": 0.629921,
      "time": 209.99964930058565,
      "name": "A2",
      "svgX": 124304.37,
      "svgY": 987.28
    },
    {
      "absoluteTicks": 336454,
      "channel": 13,
      "type": "noteOff",
      "note": 45,
      "velocity": 79,
      "rel": 0.629921,
      "time": 210.2833990267236,
      "name": "A2"
    },
    {
      "absoluteTicks": 336480,
      "channel": 13,
      "type": "noteOn",
      "note": 52,
      "velocity": 79,
      "vel": 0.629921,
      "time": 210.2996487995865,
      "name": "E3",
      "svgX": 124481.24,
      "svgY": 915.39
    },
    {
      "absoluteTicks": 336910,
      "channel": 13,
      "type": "noteOff",
      "note": 74,
      "velocity": 79,
      "rel": 0.629921,
      "time": 210.56839855077442,
      "name": "D5"
    },
    {
      "absoluteTicks": 336934,
      "channel": 13,
      "type": "noteOff",
      "note": 52,
      "velocity": 79,
      "rel": 0.629921,
      "time": 210.58339852572445,
      "name": "E3"
    },
    {
      "absoluteTicks": 336960,
      "channel": 13,
      "type": "noteOn",
      "note": 73,
      "velocity": 79,
      "vel": 0.629921,
      "time": 210.59964829858734,
      "name": "C#5",
      "svgX": 124658.11,
      "svgY": 699.71
    },
    {
      "absoluteTicks": 336960,
      "channel": 13,
      "type": "noteOn",
      "note": 57,
      "velocity": 79,
      "vel": 0.629921,
      "time": 210.59964829858734,
      "name": "A3",
      "svgX": 124658.11,
      "svgY": 864.04
    },
    {
      "absoluteTicks": 337414,
      "channel": 13,
      "type": "noteOff",
      "note": 57,
      "velocity": 79,
      "rel": 0.629921,
      "time": 210.8833980247253,
      "name": "A3"
    },
    {
      "absoluteTicks": 337440,
      "channel": 13,
      "type": "noteOn",
      "note": 61,
      "velocity": 79,
      "vel": 0.629921,
      "time": 210.89964779758816,
      "name": "C#4",
      "svgX": 124834.98,
      "svgY": 822.96
    },
    {
      "absoluteTicks": 337870,
      "channel": 13,
      "type": "noteOff",
      "note": 73,
      "velocity": 79,
      "rel": 0.629921,
      "time": 211.16839754877608,
      "name": "C#5"
    },
    {
      "absoluteTicks": 337894,
      "channel": 13,
      "type": "noteOff",
      "note": 61,
      "velocity": 79,
      "rel": 0.629921,
      "time": 211.18339752372611,
      "name": "C#4"
    },
    {
      "absoluteTicks": 337920,
      "channel": 13,
      "type": "noteOn",
      "note": 69,
      "velocity": 96,
      "vel": 0.755906,
      "time": 211.199647296589,
      "name": "A4",
      "svgX": 125011.84,
      "svgY": 740.79
    },
    {
      "absoluteTicks": 337920,
      "channel": 13,
      "type": "noteOn",
      "note": 50,
      "velocity": 96,
      "vel": 0.755906,
      "time": 211.199647296589,
      "name": "D3",
      "svgX": 125011.84,
      "svgY": 935.93
    },
    {
      "absoluteTicks": 338374,
      "channel": 13,
      "type": "noteOff",
      "note": 50,
      "velocity": 96,
      "rel": 0.755906,
      "time": 211.48339702272696,
      "name": "D3"
    },
    {
      "absoluteTicks": 338400,
      "channel": 13,
      "type": "noteOn",
      "note": 57,
      "velocity": 83,
      "vel": 0.661417,
      "time": 211.49964679558985,
      "name": "A3",
      "svgX": 125188.71,
      "svgY": 864.04
    },
    {
      "absoluteTicks": 338854,
      "channel": 13,
      "type": "noteOff",
      "note": 57,
      "velocity": 83,
      "rel": 0.661417,
      "time": 211.78339652172778,
      "name": "A3"
    },
    {
      "absoluteTicks": 338880,
      "channel": 13,
      "type": "noteOn",
      "note": 62,
      "velocity": 79,
      "vel": 0.629921,
      "time": 211.79964629459067,
      "name": "D4",
      "svgX": 125365.58,
      "svgY": 812.69
    },
    {
      "absoluteTicks": 339285,
      "channel": 13,
      "type": "noteOff",
      "note": 69,
      "velocity": 96,
      "rel": 0.755906,
      "time": 212.05339547082957,
      "name": "A4"
    },
    {
      "absoluteTicks": 339334,
      "channel": 13,
      "type": "noteOff",
      "note": 62,
      "velocity": 79,
      "rel": 0.629921,
      "time": 212.08339602072863,
      "name": "D4"
    },
    {
      "absoluteTicks": 339360,
      "channel": 13,
      "type": "noteOn",
      "note": 69,
      "velocity": 79,
      "vel": 0.629921,
      "time": 212.09964579359152,
      "name": "A4",
      "svgX": 125542.45,
      "svgY": 740.79
    },
    {
      "absoluteTicks": 339360,
      "channel": 13,
      "type": "noteOn",
      "note": 66,
      "velocity": 79,
      "vel": 0.629921,
      "time": 212.09964579359152,
      "name": "F#4",
      "svgX": 125542.45,
      "svgY": 771.6
    },
    {
      "absoluteTicks": 339814,
      "channel": 13,
      "type": "noteOff",
      "note": 69,
      "velocity": 79,
      "rel": 0.629921,
      "time": 212.38339551972948,
      "name": "A4"
    },
    {
      "absoluteTicks": 339814,
      "channel": 13,
      "type": "noteOff",
      "note": 66,
      "velocity": 79,
      "rel": 0.629921,
      "time": 212.38339551972948,
      "name": "F#4"
    },
    {
      "absoluteTicks": 339840,
      "channel": 13,
      "type": "noteOn",
      "note": 69,
      "velocity": 79,
      "vel": 0.629921,
      "time": 212.39964529259234,
      "name": "A4",
      "svgX": 125719.31,
      "svgY": 740.79
    },
    {
      "absoluteTicks": 339840,
      "channel": 13,
      "type": "noteOn",
      "note": 45,
      "velocity": 79,
      "vel": 0.629921,
      "time": 212.39964529259234,
      "name": "A2",
      "svgX": 125719.31,
      "svgY": 987.28
    },
    {
      "absoluteTicks": 340294,
      "channel": 13,
      "type": "noteOff",
      "note": 69,
      "velocity": 79,
      "rel": 0.629921,
      "time": 212.6833950187303,
      "name": "A4"
    },
    {
      "absoluteTicks": 340294,
      "channel": 13,
      "type": "noteOff",
      "note": 45,
      "velocity": 79,
      "rel": 0.629921,
      "time": 212.6833950187303,
      "name": "A2"
    },
    {
      "absoluteTicks": 340320,
      "channel": 13,
      "type": "noteOn",
      "note": 71,
      "velocity": 79,
      "vel": 0.629921,
      "time": 212.6996447915932,
      "name": "B4",
      "svgX": 125896.18,
      "svgY": 720.25
    },
    {
      "absoluteTicks": 340320,
      "channel": 13,
      "type": "noteOn",
      "note": 52,
      "velocity": 79,
      "vel": 0.629921,
      "time": 212.6996447915932,
      "name": "E3",
      "svgX": 125896.18,
      "svgY": 915.39
    },
    {
      "absoluteTicks": 340774,
      "channel": 13,
      "type": "noteOff",
      "note": 71,
      "velocity": 79,
      "rel": 0.629921,
      "time": 212.98339451773114,
      "name": "B4"
    },
    {
      "absoluteTicks": 340774,
      "channel": 13,
      "type": "noteOff",
      "note": 52,
      "velocity": 79,
      "rel": 0.629921,
      "time": 212.98339451773114,
      "name": "E3"
    },
    {
      "absoluteTicks": 340800,
      "channel": 13,
      "type": "noteOn",
      "note": 69,
      "velocity": 79,
      "vel": 0.629921,
      "time": 212.99964429059403,
      "name": "A4",
      "svgX": 126073.05,
      "svgY": 740.79
    },
    {
      "absoluteTicks": 340800,
      "channel": 13,
      "type": "noteOn",
      "note": 57,
      "velocity": 79,
      "vel": 0.629921,
      "time": 212.99964429059403,
      "name": "A3",
      "svgX": 126073.05,
      "svgY": 864.04
    },
    {
      "absoluteTicks": 341254,
      "channel": 13,
      "type": "noteOff",
      "note": 69,
      "velocity": 79,
      "rel": 0.629921,
      "time": 213.283394016732,
      "name": "A4"
    },
    {
      "absoluteTicks": 341254,
      "channel": 13,
      "type": "noteOff",
      "note": 57,
      "velocity": 79,
      "rel": 0.629921,
      "time": 213.283394016732,
      "name": "A3"
    },
    {
      "absoluteTicks": 341280,
      "channel": 13,
      "type": "noteOn",
      "note": 67,
      "velocity": 79,
      "vel": 0.629921,
      "time": 213.29964378959485,
      "name": "G4",
      "svgX": 126249.91,
      "svgY": 761.33
    },
    {
      "absoluteTicks": 341280,
      "channel": 13,
      "type": "noteOn",
      "note": 61,
      "velocity": 79,
      "vel": 0.629921,
      "time": 213.29964378959485,
      "name": "C#4",
      "svgX": 126249.91,
      "svgY": 822.96
    },
    {
      "absoluteTicks": 341734,
      "channel": 13,
      "type": "noteOff",
      "note": 67,
      "velocity": 79,
      "rel": 0.629921,
      "time": 213.5833935157328,
      "name": "G4"
    },
    {
      "absoluteTicks": 341734,
      "channel": 13,
      "type": "noteOff",
      "note": 61,
      "velocity": 79,
      "rel": 0.629921,
      "time": 213.5833935157328,
      "name": "C#4"
    },
    {
      "absoluteTicks": 341760,
      "channel": 13,
      "type": "noteOn",
      "note": 74,
      "velocity": 79,
      "vel": 0.629921,
      "time": 213.5996432885957,
      "name": "D5",
      "svgX": 126426.78,
      "svgY": 689.44
    },
    {
      "absoluteTicks": 341760,
      "channel": 13,
      "type": "noteOn",
      "note": 73,
      "velocity": 79,
      "vel": 0.629921,
      "time": 213.5996432885957,
      "name": "C#5",
      "svgX": 126426.78,
      "svgY": 699.71
    },
    {
      "absoluteTicks": 341760,
      "channel": 13,
      "type": "noteOn",
      "note": 47,
      "velocity": 79,
      "vel": 0.629921,
      "time": 213.5996432885957,
      "name": "B2",
      "svgX": 126426.78,
      "svgY": 966.74
    },
    {
      "absoluteTicks": 342214,
      "channel": 13,
      "type": "noteOff",
      "note": 47,
      "velocity": 79,
      "rel": 0.629921,
      "time": 213.88339301473366,
      "name": "B2"
    },
    {
      "absoluteTicks": 342240,
      "channel": 13,
      "type": "noteOn",
      "note": 54,
      "velocity": 79,
      "vel": 0.629921,
      "time": 213.89964278759655,
      "name": "F#3",
      "svgX": 126603.65,
      "svgY": 894.85
    },
    {
      "absoluteTicks": 342670,
      "channel": 13,
      "type": "noteOff",
      "note": 74,
      "velocity": 79,
      "rel": 0.629921,
      "time": 214.16839253878445,
      "name": "D5"
    },
    {
      "absoluteTicks": 342670,
      "channel": 13,
      "type": "noteOff",
      "note": 73,
      "velocity": 79,
      "rel": 0.629921,
      "time": 214.16839253878445,
      "name": "C#5"
    },
    {
      "absoluteTicks": 342694,
      "channel": 13,
      "type": "noteOff",
      "note": 54,
      "velocity": 79,
      "rel": 0.629921,
      "time": 214.18339251373447,
      "name": "F#3"
    },
    {
      "absoluteTicks": 342720,
      "channel": 13,
      "type": "noteOn",
      "note": 74,
      "velocity": 79,
      "vel": 0.629921,
      "time": 214.19964228659737,
      "name": "D5",
      "svgX": 126780.52,
      "svgY": 689.44
    },
    {
      "absoluteTicks": 342720,
      "channel": 13,
      "type": "noteOn",
      "note": 71,
      "velocity": 79,
      "vel": 0.629921,
      "time": 214.19964228659737,
      "name": "B4",
      "svgX": 126780.52,
      "svgY": 720.25
    },
    {
      "absoluteTicks": 342720,
      "channel": 13,
      "type": "noteOn",
      "note": 59,
      "velocity": 79,
      "vel": 0.629921,
      "time": 214.19964228659737,
      "name": "B3",
      "svgX": 126780.52,
      "svgY": 843.5
    },
    {
      "absoluteTicks": 343174,
      "channel": 13,
      "type": "noteOff",
      "note": 59,
      "velocity": 79,
      "rel": 0.629921,
      "time": 214.48339201273532,
      "name": "B3"
    },
    {
      "absoluteTicks": 343200,
      "channel": 13,
      "type": "noteOn",
      "note": 62,
      "velocity": 79,
      "vel": 0.629921,
      "time": 214.49964178559821,
      "name": "D4",
      "svgX": 126957.38,
      "svgY": 812.69
    },
    {
      "absoluteTicks": 343654,
      "channel": 13,
      "type": "noteOff",
      "note": 62,
      "velocity": 79,
      "rel": 0.629921,
      "time": 214.78339151173617,
      "name": "D4"
    },
    {
      "absoluteTicks": 343680,
      "channel": 13,
      "type": "noteOn",
      "note": 42,
      "velocity": 79,
      "vel": 0.629921,
      "time": 214.79964128459903,
      "name": "F#2",
      "svgX": 127134.25,
      "svgY": 1018.09
    },
    {
      "absoluteTicks": 344134,
      "channel": 13,
      "type": "noteOff",
      "note": 42,
      "velocity": 79,
      "rel": 0.629921,
      "time": 215.083391010737,
      "name": "F#2"
    },
    {
      "absoluteTicks": 344160,
      "channel": 13,
      "type": "noteOn",
      "note": 49,
      "velocity": 79,
      "vel": 0.629921,
      "time": 215.09964078359988,
      "name": "C#3",
      "svgX": 127311.12,
      "svgY": 946.2
    },
    {
      "absoluteTicks": 344542,
      "channel": 13,
      "type": "noteOff",
      "note": 74,
      "velocity": 79,
      "rel": 0.629921,
      "time": 215.33839058488772,
      "name": "D5"
    },
    {
      "absoluteTicks": 344542,
      "channel": 13,
      "type": "noteOff",
      "note": 71,
      "velocity": 79,
      "rel": 0.629921,
      "time": 215.33839058488772,
      "name": "B4"
    },
    {
      "absoluteTicks": 344614,
      "channel": 13,
      "type": "noteOff",
      "note": 49,
      "velocity": 79,
      "rel": 0.629921,
      "time": 215.38339050973784,
      "name": "C#3"
    },
    {
      "absoluteTicks": 344640,
      "channel": 13,
      "type": "noteOn",
      "note": 72,
      "velocity": 79,
      "vel": 0.629921,
      "time": 215.39964028260073,
      "name": "C5",
      "svgX": 127487.99,
      "svgY": 709.98
    },
    {
      "absoluteTicks": 344640,
      "channel": 13,
      "type": "noteOn",
      "note": 69,
      "velocity": 79,
      "vel": 0.629921,
      "time": 215.39964028260073,
      "name": "A4",
      "svgX": 127487.99,
      "svgY": 740.79
    },
    {
      "absoluteTicks": 344640,
      "channel": 13,
      "type": "noteOn",
      "note": 54,
      "velocity": 79,
      "vel": 0.629921,
      "time": 215.39964028260073,
      "name": "F#3",
      "svgX": 127487.99,
      "svgY": 894.85
    },
    {
      "absoluteTicks": 345094,
      "channel": 13,
      "type": "noteOff",
      "note": 54,
      "velocity": 79,
      "rel": 0.629921,
      "time": 215.68339000873868,
      "name": "F#3"
    },
    {
      "absoluteTicks": 345120,
      "channel": 13,
      "type": "noteOn",
      "note": 57,
      "velocity": 79,
      "vel": 0.629921,
      "time": 215.69963978160155,
      "name": "A3",
      "svgX": 127664.85,
      "svgY": 864.04
    },
    {
      "absoluteTicks": 345550,
      "channel": 13,
      "type": "noteOff",
      "note": 72,
      "velocity": 79,
      "rel": 0.629921,
      "time": 215.96838953278947,
      "name": "C5"
    },
    {
      "absoluteTicks": 345550,
      "channel": 13,
      "type": "noteOff",
      "note": 69,
      "velocity": 79,
      "rel": 0.629921,
      "time": 215.96838953278947,
      "name": "A4"
    },
    {
      "absoluteTicks": 345574,
      "channel": 13,
      "type": "noteOff",
      "note": 57,
      "velocity": 79,
      "rel": 0.629921,
      "time": 215.9833895077395,
      "name": "A3"
    },
    {
      "absoluteTicks": 345600,
      "channel": 13,
      "type": "noteOn",
      "note": 71,
      "velocity": 79,
      "vel": 0.629921,
      "time": 215.9996392806024,
      "name": "B4",
      "svgX": 127841.72,
      "svgY": 720.25
    },
    {
      "absoluteTicks": 345600,
      "channel": 13,
      "type": "noteOn",
      "note": 69,
      "velocity": 79,
      "vel": 0.629921,
      "time": 215.9996392806024,
      "name": "A4",
      "svgX": 127841.72,
      "svgY": 740.79
    },
    {
      "absoluteTicks": 345600,
      "channel": 13,
      "type": "noteOn",
      "note": 43,
      "velocity": 79,
      "vel": 0.629921,
      "time": 215.9996392806024,
      "name": "G2",
      "svgX": 127841.72,
      "svgY": 1007.82
    },
    {
      "absoluteTicks": 346054,
      "channel": 13,
      "type": "noteOff",
      "note": 43,
      "velocity": 79,
      "rel": 0.629921,
      "time": 216.28338900674035,
      "name": "G2"
    },
    {
      "absoluteTicks": 346080,
      "channel": 13,
      "type": "noteOn",
      "note": 50,
      "velocity": 79,
      "vel": 0.629921,
      "time": 216.2996387796032,
      "name": "D3",
      "svgX": 128018.59,
      "svgY": 935.93
    },
    {
      "absoluteTicks": 346510,
      "channel": 13,
      "type": "noteOff",
      "note": 71,
      "velocity": 79,
      "rel": 0.629921,
      "time": 216.56838853079114,
      "name": "B4"
    },
    {
      "absoluteTicks": 346510,
      "channel": 13,
      "type": "noteOff",
      "note": 69,
      "velocity": 79,
      "rel": 0.629921,
      "time": 216.56838853079114,
      "name": "A4"
    },
    {
      "absoluteTicks": 346534,
      "channel": 13,
      "type": "noteOff",
      "note": 50,
      "velocity": 79,
      "rel": 0.629921,
      "time": 216.58338850574117,
      "name": "D3"
    },
    {
      "absoluteTicks": 346560,
      "channel": 13,
      "type": "noteOn",
      "note": 67,
      "velocity": 79,
      "vel": 0.629921,
      "time": 216.59963827860406,
      "name": "G4",
      "svgX": 128195.46,
      "svgY": 761.33
    },
    {
      "absoluteTicks": 346560,
      "channel": 13,
      "type": "noteOn",
      "note": 55,
      "velocity": 79,
      "vel": 0.629921,
      "time": 216.59963827860406,
      "name": "G3",
      "svgX": 128195.46,
      "svgY": 884.58
    },
    {
      "absoluteTicks": 347014,
      "channel": 13,
      "type": "noteOff",
      "note": 55,
      "velocity": 79,
      "rel": 0.629921,
      "time": 216.88338800474202,
      "name": "G3"
    },
    {
      "absoluteTicks": 347040,
      "channel": 13,
      "type": "noteOn",
      "note": 59,
      "velocity": 79,
      "vel": 0.629921,
      "time": 216.8996377776049,
      "name": "B3",
      "svgX": 128372.32,
      "svgY": 843.5
    },
    {
      "absoluteTicks": 347470,
      "channel": 13,
      "type": "noteOff",
      "note": 67,
      "velocity": 79,
      "rel": 0.629921,
      "time": 217.1683875287928,
      "name": "G4"
    },
    {
      "absoluteTicks": 347494,
      "channel": 13,
      "type": "noteOff",
      "note": 59,
      "velocity": 79,
      "rel": 0.629921,
      "time": 217.18338750374286,
      "name": "B3"
    },
    {
      "absoluteTicks": 347520,
      "channel": 13,
      "type": "noteOn",
      "note": 74,
      "velocity": 79,
      "vel": 0.629921,
      "time": 217.19963727660573,
      "name": "D5",
      "svgX": 128549.19,
      "svgY": 689.44
    },
    {
      "absoluteTicks": 347520,
      "channel": 13,
      "type": "noteOn",
      "note": 69,
      "velocity": 79,
      "vel": 0.629921,
      "time": 217.19963727660573,
      "name": "A4",
      "svgX": 128549.19,
      "svgY": 740.79
    },
    {
      "absoluteTicks": 347520,
      "channel": 13,
      "type": "noteOn",
      "note": 38,
      "velocity": 79,
      "vel": 0.629921,
      "time": 217.19963727660573,
      "name": "D2",
      "svgX": 128549.19,
      "svgY": 1059.17
    },
    {
      "absoluteTicks": 347974,
      "channel": 13,
      "type": "noteOff",
      "note": 38,
      "velocity": 79,
      "rel": 0.629921,
      "time": 217.48338700274368,
      "name": "D2"
    },
    {
      "absoluteTicks": 348000,
      "channel": 13,
      "type": "noteOn",
      "note": 45,
      "velocity": 79,
      "vel": 0.629921,
      "time": 217.49963677560658,
      "name": "A2",
      "svgX": 128726.06,
      "svgY": 987.28
    },
    {
      "absoluteTicks": 348430,
      "channel": 13,
      "type": "noteOff",
      "note": 74,
      "velocity": 79,
      "rel": 0.629921,
      "time": 217.76838652679447,
      "name": "D5"
    },
    {
      "absoluteTicks": 348430,
      "channel": 13,
      "type": "noteOff",
      "note": 69,
      "velocity": 79,
      "rel": 0.629921,
      "time": 217.76838652679447,
      "name": "A4"
    },
    {
      "absoluteTicks": 348454,
      "channel": 13,
      "type": "noteOff",
      "note": 45,
      "velocity": 79,
      "rel": 0.629921,
      "time": 217.78338650174453,
      "name": "A2"
    },
    {
      "absoluteTicks": 348480,
      "channel": 13,
      "type": "noteOn",
      "note": 69,
      "velocity": 79,
      "vel": 0.629921,
      "time": 217.79963627460742,
      "name": "A4",
      "svgX": 128902.92,
      "svgY": 740.79
    },
    {
      "absoluteTicks": 348480,
      "channel": 13,
      "type": "noteOn",
      "note": 50,
      "velocity": 79,
      "vel": 0.629921,
      "time": 217.79963627460742,
      "name": "D3",
      "svgX": 128902.92,
      "svgY": 935.93
    },
    {
      "absoluteTicks": 348934,
      "channel": 13,
      "type": "noteOff",
      "note": 50,
      "velocity": 79,
      "rel": 0.629921,
      "time": 218.08338600074535,
      "name": "D3"
    },
    {
      "absoluteTicks": 348960,
      "channel": 13,
      "type": "noteOn",
      "note": 54,
      "velocity": 79,
      "vel": 0.629921,
      "time": 218.09963577360824,
      "name": "F#3",
      "svgX": 129079.79,
      "svgY": 894.85
    },
    {
      "absoluteTicks": 349390,
      "channel": 13,
      "type": "noteOff",
      "note": 69,
      "velocity": 79,
      "rel": 0.629921,
      "time": 218.36838552479617,
      "name": "A4"
    },
    {
      "absoluteTicks": 349414,
      "channel": 13,
      "type": "noteOff",
      "note": 54,
      "velocity": 79,
      "rel": 0.629921,
      "time": 218.3833854997462,
      "name": "F#3"
    },
    {
      "absoluteTicks": 349440,
      "channel": 13,
      "type": "noteOn",
      "note": 71,
      "velocity": 79,
      "vel": 0.629921,
      "time": 218.3996352726091,
      "name": "B4",
      "svgX": 129256.66,
      "svgY": 720.25
    },
    {
      "absoluteTicks": 349440,
      "channel": 13,
      "type": "noteOn",
      "note": 67,
      "velocity": 79,
      "vel": 0.629921,
      "time": 218.3996352726091,
      "name": "G4",
      "svgX": 129256.66,
      "svgY": 761.33
    },
    {
      "absoluteTicks": 349440,
      "channel": 13,
      "type": "noteOn",
      "note": 43,
      "velocity": 79,
      "vel": 0.629921,
      "time": 218.3996352726091,
      "name": "G2",
      "svgX": 129256.66,
      "svgY": 1007.82
    },
    {
      "absoluteTicks": 349894,
      "channel": 13,
      "type": "noteOff",
      "note": 43,
      "velocity": 79,
      "rel": 0.629921,
      "time": 218.68338499874704,
      "name": "G2"
    },
    {
      "absoluteTicks": 349920,
      "channel": 13,
      "type": "noteOn",
      "note": 50,
      "velocity": 79,
      "vel": 0.629921,
      "time": 218.6996347716099,
      "name": "D3",
      "svgX": 129433.53,
      "svgY": 935.93
    },
    {
      "absoluteTicks": 350374,
      "channel": 13,
      "type": "noteOff",
      "note": 50,
      "velocity": 79,
      "rel": 0.629921,
      "time": 218.98338449774786,
      "name": "D3"
    },
    {
      "absoluteTicks": 350400,
      "channel": 13,
      "type": "noteOn",
      "note": 55,
      "velocity": 79,
      "vel": 0.629921,
      "time": 218.99963427061076,
      "name": "G3",
      "svgX": 129610.39,
      "svgY": 884.58
    },
    {
      "absoluteTicks": 350854,
      "channel": 13,
      "type": "noteOff",
      "note": 55,
      "velocity": 79,
      "rel": 0.629921,
      "time": 219.2833839967487,
      "name": "G3"
    },
    {
      "absoluteTicks": 350880,
      "channel": 13,
      "type": "noteOn",
      "note": 59,
      "velocity": 79,
      "vel": 0.629921,
      "time": 219.2996337696116,
      "name": "B3",
      "svgX": 129787.26,
      "svgY": 843.5
    },
    {
      "absoluteTicks": 351262,
      "channel": 13,
      "type": "noteOff",
      "note": 71,
      "velocity": 79,
      "rel": 0.629921,
      "time": 219.5383835708994,
      "name": "B4"
    },
    {
      "absoluteTicks": 351262,
      "channel": 13,
      "type": "noteOff",
      "note": 67,
      "velocity": 79,
      "rel": 0.629921,
      "time": 219.5383835708994,
      "name": "G4"
    },
    {
      "absoluteTicks": 351334,
      "channel": 13,
      "type": "noteOff",
      "note": 59,
      "velocity": 79,
      "rel": 0.629921,
      "time": 219.58338349574956,
      "name": "B3"
    },
    {
      "absoluteTicks": 351360,
      "channel": 13,
      "type": "noteOn",
      "note": 69,
      "velocity": 79,
      "vel": 0.629921,
      "time": 219.59963326861242,
      "name": "A4",
      "svgX": 129964.13,
      "svgY": 740.79
    },
    {
      "absoluteTicks": 351360,
      "channel": 13,
      "type": "noteOn",
      "note": 64,
      "velocity": 79,
      "vel": 0.629921,
      "time": 219.59963326861242,
      "name": "E4",
      "svgX": 129964.13,
      "svgY": 792.15
    },
    {
      "absoluteTicks": 351360,
      "channel": 13,
      "type": "noteOn",
      "note": 45,
      "velocity": 79,
      "vel": 0.629921,
      "time": 219.59963326861242,
      "name": "A2",
      "svgX": 129964.13,
      "svgY": 987.28
    },
    {
      "absoluteTicks": 351814,
      "channel": 13,
      "type": "noteOff",
      "note": 45,
      "velocity": 79,
      "rel": 0.629921,
      "time": 219.88338299475038,
      "name": "A2"
    },
    {
      "absoluteTicks": 351840,
      "channel": 13,
      "type": "noteOn",
      "note": 52,
      "velocity": 79,
      "vel": 0.629921,
      "time": 219.89963276761327,
      "name": "E3",
      "svgX": 130141.0,
      "svgY": 915.39
    },
    {
      "absoluteTicks": 352294,
      "channel": 13,
      "type": "noteOff",
      "note": 52,
      "velocity": 79,
      "rel": 0.629921,
      "time": 220.18338249375122,
      "name": "E3"
    },
    {
      "absoluteTicks": 352320,
      "channel": 13,
      "type": "noteOn",
      "note": 57,
      "velocity": 79,
      "vel": 0.629921,
      "time": 220.19963226661412,
      "name": "A3",
      "svgX": 130317.86,
      "svgY": 864.04
    },
    {
      "absoluteTicks": 352774,
      "channel": 13,
      "type": "noteOff",
      "note": 57,
      "velocity": 79,
      "rel": 0.629921,
      "time": 220.48338199275204,
      "name": "A3"
    },
    {
      "absoluteTicks": 352800,
      "channel": 13,
      "type": "noteOn",
      "note": 61,
      "velocity": 79,
      "vel": 0.629921,
      "time": 220.49963176561494,
      "name": "C#4",
      "svgX": 130494.73,
      "svgY": 822.96
    },
    {
      "absoluteTicks": 353182,
      "channel": 13,
      "type": "noteOff",
      "note": 69,
      "velocity": 79,
      "rel": 0.629921,
      "time": 220.73838156690277,
      "name": "A4"
    },
    {
      "absoluteTicks": 353182,
      "channel": 13,
      "type": "noteOff",
      "note": 64,
      "velocity": 79,
      "rel": 0.629921,
      "time": 220.73838156690277,
      "name": "E4"
    },
    {
      "absoluteTicks": 353254,
      "channel": 13,
      "type": "noteOff",
      "note": 61,
      "velocity": 79,
      "rel": 0.629921,
      "time": 220.7833814917529,
      "name": "C#4"
    },
    {
      "absoluteTicks": 353280,
      "channel": 13,
      "type": "noteOn",
      "note": 69,
      "velocity": 79,
      "vel": 0.629921,
      "time": 220.79963126461578,
      "name": "A4",
      "svgX": 130671.6,
      "svgY": 740.79
    },
    {
      "absoluteTicks": 353280,
      "channel": 13,
      "type": "noteOn",
      "note": 50,
      "velocity": 79,
      "vel": 0.629921,
      "time": 220.79963126461578,
      "name": "D3",
      "svgX": 130671.6,
      "svgY": 935.93
    },
    {
      "absoluteTicks": 353734,
      "channel": 13,
      "type": "noteOff",
      "note": 50,
      "velocity": 79,
      "rel": 0.629921,
      "time": 221.08338099075374,
      "name": "D3"
    },
    {
      "absoluteTicks": 353760,
      "channel": 13,
      "type": "noteOn",
      "note": 57,
      "velocity": 79,
      "vel": 0.629921,
      "time": 221.0996307636166,
      "name": "A3",
      "svgX": 130848.46,
      "svgY": 864.04
    },
    {
      "absoluteTicks": 354190,
      "channel": 13,
      "type": "noteOff",
      "note": 69,
      "velocity": 79,
      "rel": 0.629921,
      "time": 221.36838051480453,
      "name": "A4"
    },
    {
      "absoluteTicks": 354214,
      "channel": 13,
      "type": "noteOff",
      "note": 57,
      "velocity": 79,
      "rel": 0.629921,
      "time": 221.38338048975456,
      "name": "A3"
    },
    {
      "absoluteTicks": 354240,
      "channel": 13,
      "type": "noteOn",
      "note": 78,
      "velocity": 79,
      "vel": 0.629921,
      "time": 221.39963026261745,
      "name": "F#5",
      "svgX": 131025.33,
      "svgY": 648.36
    },
    {
      "absoluteTicks": 354240,
      "channel": 13,
      "type": "noteOn",
      "note": 74,
      "velocity": 79,
      "vel": 0.629921,
      "time": 221.39963026261745,
      "name": "D5",
      "svgX": 131025.33,
      "svgY": 689.44
    },
    {
      "absoluteTicks": 354240,
      "channel": 13,
      "type": "noteOn",
      "note": 69,
      "velocity": 79,
      "vel": 0.629921,
      "time": 221.39963026261745,
      "name": "A4",
      "svgX": 131025.33,
      "svgY": 740.79
    },
    {
      "absoluteTicks": 354240,
      "channel": 13,
      "type": "noteOn",
      "note": 62,
      "velocity": 79,
      "vel": 0.629921,
      "time": 221.39963026261745,
      "name": "D4",
      "svgX": 131025.33,
      "svgY": 812.69
    },
    {
      "absoluteTicks": 354694,
      "channel": 13,
      "type": "noteOff",
      "note": 62,
      "velocity": 79,
      "rel": 0.629921,
      "time": 221.6833799887554,
      "name": "D4"
    },
    {
      "absoluteTicks": 354720,
      "channel": 13,
      "type": "noteOn",
      "note": 66,
      "velocity": 79,
      "vel": 0.629921,
      "time": 221.6996297616183,
      "name": "F#4",
      "svgX": 131202.2,
      "svgY": 771.6
    },
    {
      "absoluteTicks": 355174,
      "channel": 13,
      "type": "noteOff",
      "note": 66,
      "velocity": 79,
      "rel": 0.629921,
      "time": 221.98337948775625,
      "name": "F#4"
    },
    {
      "absoluteTicks": 355200,
      "channel": 13,
      "type": "noteOn",
      "note": 45,
      "velocity": 79,
      "vel": 0.629921,
      "time": 221.99962926061912,
      "name": "A2",
      "svgX": 131379.07,
      "svgY": 987.28
    },
    {
      "absoluteTicks": 355654,
      "channel": 13,
      "type": "noteOff",
      "note": 45,
      "velocity": 79,
      "rel": 0.629921,
      "time": 222.28337898675707,
      "name": "A2"
    },
    {
      "absoluteTicks": 355680,
      "channel": 13,
      "type": "noteOn",
      "note": 52,
      "velocity": 79,
      "vel": 0.629921,
      "time": 222.29962875961996,
      "name": "E3",
      "svgX": 131555.93,
      "svgY": 915.39
    },
    {
      "absoluteTicks": 356062,
      "channel": 13,
      "type": "noteOff",
      "note": 78,
      "velocity": 79,
      "rel": 0.629921,
      "time": 222.5383785609078,
      "name": "F#5"
    },
    {
      "absoluteTicks": 356062,
      "channel": 13,
      "type": "noteOff",
      "note": 74,
      "velocity": 79,
      "rel": 0.629921,
      "time": 222.5383785609078,
      "name": "D5"
    },
    {
      "absoluteTicks": 356062,
      "channel": 13,
      "type": "noteOff",
      "note": 69,
      "velocity": 79,
      "rel": 0.629921,
      "time": 222.5383785609078,
      "name": "A4"
    },
    {
      "absoluteTicks": 356134,
      "channel": 13,
      "type": "noteOff",
      "note": 52,
      "velocity": 79,
      "rel": 0.629921,
      "time": 222.58337848575792,
      "name": "E3"
    },
    {
      "absoluteTicks": 356160,
      "channel": 13,
      "type": "noteOn",
      "note": 76,
      "velocity": 79,
      "vel": 0.629921,
      "time": 222.5996282586208,
      "name": "E5",
      "svgX": 131732.8,
      "svgY": 668.9
    },
    {
      "absoluteTicks": 356160,
      "channel": 13,
      "type": "noteOn",
      "note": 57,
      "velocity": 79,
      "vel": 0.629921,
      "time": 222.5996282586208,
      "name": "A3",
      "svgX": 131732.8,
      "svgY": 864.04
    },
    {
      "absoluteTicks": 356614,
      "channel": 13,
      "type": "noteOff",
      "note": 57,
      "velocity": 79,
      "rel": 0.629921,
      "time": 222.88337798475874,
      "name": "A3"
    },
    {
      "absoluteTicks": 356640,
      "channel": 13,
      "type": "noteOn",
      "note": 61,
      "velocity": 79,
      "vel": 0.629921,
      "time": 222.89962775762163,
      "name": "C#4",
      "svgX": 131909.67,
      "svgY": 822.96
    },
    {
      "absoluteTicks": 357070,
      "channel": 13,
      "type": "noteOff",
      "note": 76,
      "velocity": 79,
      "rel": 0.629921,
      "time": 223.16837750880956,
      "name": "E5"
    },
    {
      "absoluteTicks": 357094,
      "channel": 13,
      "type": "noteOff",
      "note": 61,
      "velocity": 79,
      "rel": 0.629921,
      "time": 223.18337748375959,
      "name": "C#4"
    },
    {
      "absoluteTicks": 357120,
      "channel": 13,
      "type": "noteOn",
      "note": 74,
      "velocity": 79,
      "vel": 0.629921,
      "time": 223.19962725662248,
      "name": "D5",
      "svgX": 132086.54,
      "svgY": 689.44
    },
    {
      "absoluteTicks": 357120,
      "channel": 13,
      "type": "noteOn",
      "note": 73,
      "velocity": 79,
      "vel": 0.629921,
      "time": 223.19962725662248,
      "name": "C#5",
      "svgX": 132086.54,
      "svgY": 699.71
    },
    {
      "absoluteTicks": 357120,
      "channel": 13,
      "type": "noteOn",
      "note": 66,
      "velocity": 79,
      "vel": 0.629921,
      "time": 223.19962725662248,
      "name": "F#4",
      "svgX": 132086.54,
      "svgY": 771.6
    },
    {
      "absoluteTicks": 357120,
      "channel": 13,
      "type": "noteOn",
      "note": 47,
      "velocity": 79,
      "vel": 0.629921,
      "time": 223.19962725662248,
      "name": "B2",
      "svgX": 132086.54,
      "svgY": 966.74
    },
    {
      "absoluteTicks": 357574,
      "channel": 13,
      "type": "noteOff",
      "note": 47,
      "velocity": 79,
      "rel": 0.629921,
      "time": 223.48337698276043,
      "name": "B2"
    },
    {
      "absoluteTicks": 357600,
      "channel": 13,
      "type": "noteOn",
      "note": 54,
      "velocity": 79,
      "vel": 0.629921,
      "time": 223.4996267556233,
      "name": "F#3",
      "svgX": 132263.4,
      "svgY": 894.85
    },
    {
      "absoluteTicks": 358030,
      "channel": 13,
      "type": "noteOff",
      "note": 74,
      "velocity": 79,
      "rel": 0.629921,
      "time": 223.76837650681122,
      "name": "D5"
    },
    {
      "absoluteTicks": 358030,
      "channel": 13,
      "type": "noteOff",
      "note": 73,
      "velocity": 79,
      "rel": 0.629921,
      "time": 223.76837650681122,
      "name": "C#5"
    },
    {
      "absoluteTicks": 358030,
      "channel": 13,
      "type": "noteOff",
      "note": 66,
      "velocity": 79,
      "rel": 0.629921,
      "time": 223.76837650681122,
      "name": "F#4"
    },
    {
      "absoluteTicks": 358054,
      "channel": 13,
      "type": "noteOff",
      "note": 54,
      "velocity": 79,
      "rel": 0.629921,
      "time": 223.78337648176125,
      "name": "F#3"
    },
    {
      "absoluteTicks": 358080,
      "channel": 13,
      "type": "noteOn",
      "note": 86,
      "velocity": 79,
      "vel": 0.629921,
      "time": 223.79962625462414,
      "name": "D6",
      "svgX": 132440.27,
      "svgY": 566.2
    },
    {
      "absoluteTicks": 358080,
      "channel": 13,
      "type": "noteOn",
      "note": 83,
      "velocity": 79,
      "vel": 0.629921,
      "time": 223.79962625462414,
      "name": "B5",
      "svgX": 132440.27,
      "svgY": 597.01
    },
    {
      "absoluteTicks": 358080,
      "channel": 13,
      "type": "noteOn",
      "note": 74,
      "velocity": 79,
      "vel": 0.629921,
      "time": 223.79962625462414,
      "name": "D5",
      "svgX": 132440.27,
      "svgY": 689.44
    },
    {
      "absoluteTicks": 358080,
      "channel": 13,
      "type": "noteOn",
      "note": 59,
      "velocity": 79,
      "vel": 0.629921,
      "time": 223.79962625462414,
      "name": "B3",
      "svgX": 132440.27,
      "svgY": 843.5
    },
    {
      "absoluteTicks": 358534,
      "channel": 13,
      "type": "noteOff",
      "note": 59,
      "velocity": 79,
      "rel": 0.629921,
      "time": 224.0833759807621,
      "name": "B3"
    },
    {
      "absoluteTicks": 358560,
      "channel": 13,
      "type": "noteOn",
      "note": 62,
      "velocity": 79,
      "vel": 0.629921,
      "time": 224.099625753625,
      "name": "D4",
      "svgX": 132617.14,
      "svgY": 812.69
    },
    {
      "absoluteTicks": 359014,
      "channel": 13,
      "type": "noteOff",
      "note": 62,
      "velocity": 79,
      "rel": 0.629921,
      "time": 224.38337547976295,
      "name": "D4"
    },
    {
      "absoluteTicks": 359040,
      "channel": 13,
      "type": "noteOn",
      "note": 42,
      "velocity": 79,
      "vel": 0.629921,
      "time": 224.3996252526258,
      "name": "F#2",
      "svgX": 132794.01,
      "svgY": 1018.09
    },
    {
      "absoluteTicks": 359494,
      "channel": 13,
      "type": "noteOff",
      "note": 42,
      "velocity": 79,
      "rel": 0.629921,
      "time": 224.68337497876377,
      "name": "F#2"
    },
    {
      "absoluteTicks": 359520,
      "channel": 13,
      "type": "noteOn",
      "note": 49,
      "velocity": 79,
      "vel": 0.629921,
      "time": 224.69962475162666,
      "name": "C#3",
      "svgX": 132970.87,
      "svgY": 946.2
    },
    {
      "absoluteTicks": 359902,
      "channel": 13,
      "type": "noteOff",
      "note": 86,
      "velocity": 79,
      "rel": 0.629921,
      "time": 224.93837455291447,
      "name": "D6"
    },
    {
      "absoluteTicks": 359902,
      "channel": 13,
      "type": "noteOff",
      "note": 83,
      "velocity": 79,
      "rel": 0.629921,
      "time": 224.93837455291447,
      "name": "B5"
    },
    {
      "absoluteTicks": 359902,
      "channel": 13,
      "type": "noteOff",
      "note": 74,
      "velocity": 79,
      "rel": 0.629921,
      "time": 224.93837455291447,
      "name": "D5"
    },
    {
      "absoluteTicks": 359974,
      "channel": 13,
      "type": "noteOff",
      "note": 49,
      "velocity": 79,
      "rel": 0.629921,
      "time": 224.9833744777646,
      "name": "C#3"
    },
    {
      "absoluteTicks": 360000,
      "channel": 13,
      "type": "noteOn",
      "note": 84,
      "velocity": 79,
      "vel": 0.629921,
      "time": 224.99962425062748,
      "name": "C6",
      "svgX": 133147.74,
      "svgY": 586.74
    },
    {
      "absoluteTicks": 360000,
      "channel": 13,
      "type": "noteOn",
      "note": 81,
      "velocity": 79,
      "vel": 0.629921,
      "time": 224.99962425062748,
      "name": "A5",
      "svgX": 133147.74,
      "svgY": 617.55
    },
    {
      "absoluteTicks": 360000,
      "channel": 13,
      "type": "noteOn",
      "note": 76,
      "velocity": 79,
      "vel": 0.629921,
      "time": 224.99962425062748,
      "name": "E5",
      "svgX": 133147.74,
      "svgY": 668.9
    },
    {
      "absoluteTicks": 360000,
      "channel": 13,
      "type": "noteOn",
      "note": 54,
      "velocity": 79,
      "vel": 0.629921,
      "time": 224.99962425062748,
      "name": "F#3",
      "svgX": 133147.74,
      "svgY": 894.85
    },
    {
      "absoluteTicks": 360454,
      "channel": 13,
      "type": "noteOff",
      "note": 54,
      "velocity": 79,
      "rel": 0.629921,
      "time": 225.28337397676543,
      "name": "F#3"
    },
    {
      "absoluteTicks": 360480,
      "channel": 13,
      "type": "noteOn",
      "note": 57,
      "velocity": 79,
      "vel": 0.629921,
      "time": 225.29962374962832,
      "name": "A3",
      "svgX": 133324.61,
      "svgY": 864.04
    },
    {
      "absoluteTicks": 360910,
      "channel": 13,
      "type": "noteOff",
      "note": 84,
      "velocity": 79,
      "rel": 0.629921,
      "time": 225.56837350081625,
      "name": "C6"
    },
    {
      "absoluteTicks": 360910,
      "channel": 13,
      "type": "noteOff",
      "note": 81,
      "velocity": 79,
      "rel": 0.629921,
      "time": 225.56837350081625,
      "name": "A5"
    },
    {
      "absoluteTicks": 360910,
      "channel": 13,
      "type": "noteOff",
      "note": 76,
      "velocity": 79,
      "rel": 0.629921,
      "time": 225.56837350081625,
      "name": "E5"
    },
    {
      "absoluteTicks": 360934,
      "channel": 13,
      "type": "noteOff",
      "note": 57,
      "velocity": 79,
      "rel": 0.629921,
      "time": 225.58337347576628,
      "name": "A3"
    },
    {
      "absoluteTicks": 360960,
      "channel": 13,
      "type": "noteOn",
      "note": 83,
      "velocity": 79,
      "vel": 0.629921,
      "time": 225.59962324862917,
      "name": "B5",
      "svgX": 133501.47,
      "svgY": 597.01
    },
    {
      "absoluteTicks": 360960,
      "channel": 13,
      "type": "noteOn",
      "note": 81,
      "velocity": 79,
      "vel": 0.629921,
      "time": 225.59962324862917,
      "name": "A5",
      "svgX": 133501.47,
      "svgY": 617.55
    },
    {
      "absoluteTicks": 360960,
      "channel": 13,
      "type": "noteOn",
      "note": 74,
      "velocity": 79,
      "vel": 0.629921,
      "time": 225.59962324862917,
      "name": "D5",
      "svgX": 133501.47,
      "svgY": 689.44
    },
    {
      "absoluteTicks": 360960,
      "channel": 13,
      "type": "noteOn",
      "note": 43,
      "velocity": 79,
      "vel": 0.629921,
      "time": 225.59962324862917,
      "name": "G2",
      "svgX": 133501.47,
      "svgY": 1007.82
    },
    {
      "absoluteTicks": 361414,
      "channel": 13,
      "type": "noteOff",
      "note": 43,
      "velocity": 79,
      "rel": 0.629921,
      "time": 225.88337297476713,
      "name": "G2"
    },
    {
      "absoluteTicks": 361440,
      "channel": 13,
      "type": "noteOn",
      "note": 50,
      "velocity": 79,
      "vel": 0.629921,
      "time": 225.89962274763,
      "name": "D3",
      "svgX": 133678.34,
      "svgY": 935.93
    },
    {
      "absoluteTicks": 361870,
      "channel": 13,
      "type": "noteOff",
      "note": 83,
      "velocity": 79,
      "rel": 0.629921,
      "time": 226.16837249881792,
      "name": "B5"
    },
    {
      "absoluteTicks": 361870,
      "channel": 13,
      "type": "noteOff",
      "note": 81,
      "velocity": 79,
      "rel": 0.629921,
      "time": 226.16837249881792,
      "name": "A5"
    },
    {
      "absoluteTicks": 361870,
      "channel": 13,
      "type": "noteOff",
      "note": 74,
      "velocity": 79,
      "rel": 0.629921,
      "time": 226.16837249881792,
      "name": "D5"
    },
    {
      "absoluteTicks": 361894,
      "channel": 13,
      "type": "noteOff",
      "note": 50,
      "velocity": 79,
      "rel": 0.629921,
      "time": 226.18337247376795,
      "name": "D3"
    },
    {
      "absoluteTicks": 361920,
      "channel": 13,
      "type": "noteOn",
      "note": 79,
      "velocity": 79,
      "vel": 0.629921,
      "time": 226.19962224663084,
      "name": "G5",
      "svgX": 133855.21,
      "svgY": 638.09
    },
    {
      "absoluteTicks": 361920,
      "channel": 13,
      "type": "noteOn",
      "note": 55,
      "velocity": 79,
      "vel": 0.629921,
      "time": 226.19962224663084,
      "name": "G3",
      "svgX": 133855.21,
      "svgY": 884.58
    },
    {
      "absoluteTicks": 362374,
      "channel": 13,
      "type": "noteOff",
      "note": 55,
      "velocity": 79,
      "rel": 0.629921,
      "time": 226.4833719727688,
      "name": "G3"
    },
    {
      "absoluteTicks": 362400,
      "channel": 13,
      "type": "noteOn",
      "note": 59,
      "velocity": 79,
      "vel": 0.629921,
      "time": 226.49962174563169,
      "name": "B3",
      "svgX": 134032.08,
      "svgY": 843.5
    },
    {
      "absoluteTicks": 362830,
      "channel": 13,
      "type": "noteOff",
      "note": 79,
      "velocity": 79,
      "rel": 0.629921,
      "time": 226.76837149681958,
      "name": "G5"
    },
    {
      "absoluteTicks": 362854,
      "channel": 13,
      "type": "noteOff",
      "note": 59,
      "velocity": 79,
      "rel": 0.629921,
      "time": 226.7833714717696,
      "name": "B3"
    },
    {
      "absoluteTicks": 362880,
      "channel": 13,
      "type": "noteOn",
      "note": 86,
      "velocity": 79,
      "vel": 0.629921,
      "time": 226.7996212446325,
      "name": "D6",
      "svgX": 134208.94,
      "svgY": 566.2
    },
    {
      "absoluteTicks": 362880,
      "channel": 13,
      "type": "noteOn",
      "note": 81,
      "velocity": 79,
      "vel": 0.629921,
      "time": 226.7996212446325,
      "name": "A5",
      "svgX": 134208.94,
      "svgY": 617.55
    },
    {
      "absoluteTicks": 362880,
      "channel": 13,
      "type": "noteOn",
      "note": 78,
      "velocity": 79,
      "vel": 0.629921,
      "time": 226.7996212446325,
      "name": "F#5",
      "svgX": 134208.94,
      "svgY": 648.36
    },
    {
      "absoluteTicks": 362880,
      "channel": 13,
      "type": "noteOn",
      "note": 38,
      "velocity": 79,
      "vel": 0.629921,
      "time": 226.7996212446325,
      "name": "D2",
      "svgX": 134208.94,
      "svgY": 1059.17
    },
    {
      "absoluteTicks": 363334,
      "channel": 13,
      "type": "noteOff",
      "note": 38,
      "velocity": 79,
      "rel": 0.629921,
      "time": 227.08337097077046,
      "name": "D2"
    },
    {
      "absoluteTicks": 363360,
      "channel": 13,
      "type": "noteOn",
      "note": 45,
      "velocity": 79,
      "vel": 0.629921,
      "time": 227.09962074363335,
      "name": "A2",
      "svgX": 134385.81,
      "svgY": 987.28
    },
    {
      "absoluteTicks": 363790,
      "channel": 13,
      "type": "noteOff",
      "note": 86,
      "velocity": 79,
      "rel": 0.629921,
      "time": 227.36837049482125,
      "name": "D6"
    },
    {
      "absoluteTicks": 363790,
      "channel": 13,
      "type": "noteOff",
      "note": 81,
      "velocity": 79,
      "rel": 0.629921,
      "time": 227.36837049482125,
      "name": "A5"
    },
    {
      "absoluteTicks": 363790,
      "channel": 13,
      "type": "noteOff",
      "note": 78,
      "velocity": 79,
      "rel": 0.629921,
      "time": 227.36837049482125,
      "name": "F#5"
    },
    {
      "absoluteTicks": 363814,
      "channel": 13,
      "type": "noteOff",
      "note": 45,
      "velocity": 79,
      "rel": 0.629921,
      "time": 227.3833704697713,
      "name": "A2"
    },
    {
      "absoluteTicks": 363840,
      "channel": 13,
      "type": "noteOn",
      "note": 81,
      "velocity": 79,
      "vel": 0.629921,
      "time": 227.39962024263417,
      "name": "A5",
      "svgX": 134562.68,
      "svgY": 617.55
    },
    {
      "absoluteTicks": 363840,
      "channel": 13,
      "type": "noteOn",
      "note": 78,
      "velocity": 79,
      "vel": 0.629921,
      "time": 227.39962024263417,
      "name": "F#5",
      "svgX": 134562.68,
      "svgY": 648.36
    },
    {
      "absoluteTicks": 363840,
      "channel": 13,
      "type": "noteOn",
      "note": 74,
      "velocity": 79,
      "vel": 0.629921,
      "time": 227.39962024263417,
      "name": "D5",
      "svgX": 134562.68,
      "svgY": 689.44
    },
    {
      "absoluteTicks": 363840,
      "channel": 13,
      "type": "noteOn",
      "note": 50,
      "velocity": 79,
      "vel": 0.629921,
      "time": 227.39962024263417,
      "name": "D3",
      "svgX": 134562.68,
      "svgY": 935.93
    },
    {
      "absoluteTicks": 364294,
      "channel": 13,
      "type": "noteOff",
      "note": 50,
      "velocity": 79,
      "rel": 0.629921,
      "time": 227.68336996877213,
      "name": "D3"
    },
    {
      "absoluteTicks": 364320,
      "channel": 13,
      "type": "noteOn",
      "note": 54,
      "velocity": 79,
      "vel": 0.629921,
      "time": 227.69961974163502,
      "name": "F#3",
      "svgX": 134739.55,
      "svgY": 894.85
    },
    {
      "absoluteTicks": 364750,
      "channel": 13,
      "type": "noteOff",
      "note": 81,
      "velocity": 79,
      "rel": 0.629921,
      "time": 227.96836949282294,
      "name": "A5"
    },
    {
      "absoluteTicks": 364750,
      "channel": 13,
      "type": "noteOff",
      "note": 78,
      "velocity": 79,
      "rel": 0.629921,
      "time": 227.96836949282294,
      "name": "F#5"
    },
    {
      "absoluteTicks": 364750,
      "channel": 13,
      "type": "noteOff",
      "note": 74,
      "velocity": 79,
      "rel": 0.629921,
      "time": 227.96836949282294,
      "name": "D5"
    },
    {
      "absoluteTicks": 364774,
      "channel": 13,
      "type": "noteOff",
      "note": 54,
      "velocity": 79,
      "rel": 0.629921,
      "time": 227.98336946777297,
      "name": "F#3"
    },
    {
      "absoluteTicks": 364800,
      "channel": 13,
      "type": "noteOn",
      "note": 83,
      "velocity": 79,
      "vel": 0.629921,
      "time": 227.99961924063587,
      "name": "B5",
      "svgX": 134916.41,
      "svgY": 597.01
    },
    {
      "absoluteTicks": 364800,
      "channel": 13,
      "type": "noteOn",
      "note": 79,
      "velocity": 79,
      "vel": 0.629921,
      "time": 227.99961924063587,
      "name": "G5",
      "svgX": 134916.41,
      "svgY": 638.09
    },
    {
      "absoluteTicks": 364800,
      "channel": 13,
      "type": "noteOn",
      "note": 74,
      "velocity": 79,
      "vel": 0.629921,
      "time": 227.99961924063587,
      "name": "D5",
      "svgX": 134916.41,
      "svgY": 689.44
    },
    {
      "absoluteTicks": 364800,
      "channel": 13,
      "type": "noteOn",
      "note": 43,
      "velocity": 79,
      "vel": 0.629921,
      "time": 227.99961924063587,
      "name": "G2",
      "svgX": 134916.41,
      "svgY": 1007.82
    },
    {
      "absoluteTicks": 365254,
      "channel": 13,
      "type": "noteOff",
      "note": 43,
      "velocity": 79,
      "rel": 0.629921,
      "time": 228.28336896677382,
      "name": "G2"
    },
    {
      "absoluteTicks": 365280,
      "channel": 13,
      "type": "noteOn",
      "note": 50,
      "velocity": 79,
      "vel": 0.629921,
      "time": 228.29961873963668,
      "name": "D3",
      "svgX": 135093.28,
      "svgY": 935.93
    },
    {
      "absoluteTicks": 365734,
      "channel": 13,
      "type": "noteOff",
      "note": 50,
      "velocity": 79,
      "rel": 0.629921,
      "time": 228.58336846577464,
      "name": "D3"
    },
    {
      "absoluteTicks": 365760,
      "channel": 13,
      "type": "noteOn",
      "note": 55,
      "velocity": 79,
      "vel": 0.629921,
      "time": 228.59961823863753,
      "name": "G3",
      "svgX": 135270.15,
      "svgY": 884.58
    },
    {
      "absoluteTicks": 366165,
      "channel": 13,
      "type": "noteOff",
      "note": 83,
      "velocity": 79,
      "rel": 0.629921,
      "time": 228.85336741487643,
      "name": "B5"
    },
    {
      "absoluteTicks": 366165,
      "channel": 13,
      "type": "noteOff",
      "note": 79,
      "velocity": 79,
      "rel": 0.629921,
      "time": 228.85336741487643,
      "name": "G5"
    },
    {
      "absoluteTicks": 366165,
      "channel": 13,
      "type": "noteOff",
      "note": 74,
      "velocity": 79,
      "rel": 0.629921,
      "time": 228.85336741487643,
      "name": "D5"
    },
    {
      "absoluteTicks": 366214,
      "channel": 13,
      "type": "noteOff",
      "note": 55,
      "velocity": 79,
      "rel": 0.629921,
      "time": 228.8833679647755,
      "name": "G3"
    },
    {
      "absoluteTicks": 366240,
      "channel": 13,
      "type": "noteOn",
      "note": 76,
      "velocity": 79,
      "vel": 0.629921,
      "time": 228.89961773763838,
      "name": "E5",
      "svgX": 135447.02,
      "svgY": 668.9
    },
    {
      "absoluteTicks": 366240,
      "channel": 13,
      "type": "noteOn",
      "note": 59,
      "velocity": 79,
      "vel": 0.629921,
      "time": 228.89961773763838,
      "name": "B3",
      "svgX": 135447.02,
      "svgY": 843.5
    },
    {
      "absoluteTicks": 366694,
      "channel": 13,
      "type": "noteOff",
      "note": 76,
      "velocity": 79,
      "rel": 0.629921,
      "time": 229.1833674637763,
      "name": "E5"
    },
    {
      "absoluteTicks": 366694,
      "channel": 13,
      "type": "noteOff",
      "note": 59,
      "velocity": 79,
      "rel": 0.629921,
      "time": 229.1833674637763,
      "name": "B3"
    },
    {
      "absoluteTicks": 366720,
      "channel": 13,
      "type": "noteOn",
      "note": 81,
      "velocity": 79,
      "vel": 0.629921,
      "time": 229.1996172366392,
      "name": "A5",
      "svgX": 135623.88,
      "svgY": 617.55
    },
    {
      "absoluteTicks": 366720,
      "channel": 13,
      "type": "noteOn",
      "note": 76,
      "velocity": 79,
      "vel": 0.629921,
      "time": 229.1996172366392,
      "name": "E5",
      "svgX": 135623.88,
      "svgY": 668.9
    },
    {
      "absoluteTicks": 366720,
      "channel": 13,
      "type": "noteOn",
      "note": 73,
      "velocity": 79,
      "vel": 0.629921,
      "time": 229.1996172366392,
      "name": "C#5",
      "svgX": 135623.88,
      "svgY": 699.71
    },
    {
      "absoluteTicks": 366720,
      "channel": 13,
      "type": "noteOn",
      "note": 45,
      "velocity": 79,
      "vel": 0.629921,
      "time": 229.1996172366392,
      "name": "A2",
      "svgX": 135623.88,
      "svgY": 987.28
    },
    {
      "absoluteTicks": 367174,
      "channel": 13,
      "type": "noteOff",
      "note": 45,
      "velocity": 79,
      "rel": 0.629921,
      "time": 229.48336696277715,
      "name": "A2"
    },
    {
      "absoluteTicks": 367200,
      "channel": 13,
      "type": "noteOn",
      "note": 52,
      "velocity": 79,
      "vel": 0.629921,
      "time": 229.49961673564005,
      "name": "E3",
      "svgX": 135800.75,
      "svgY": 915.39
    },
    {
      "absoluteTicks": 367630,
      "channel": 13,
      "type": "noteOff",
      "note": 81,
      "velocity": 79,
      "rel": 0.629921,
      "time": 229.76836648682794,
      "name": "A5"
    },
    {
      "absoluteTicks": 367630,
      "channel": 13,
      "type": "noteOff",
      "note": 76,
      "velocity": 79,
      "rel": 0.629921,
      "time": 229.76836648682794,
      "name": "E5"
    },
    {
      "absoluteTicks": 367630,
      "channel": 13,
      "type": "noteOff",
      "note": 73,
      "velocity": 79,
      "rel": 0.629921,
      "time": 229.76836648682794,
      "name": "C#5"
    },
    {
      "absoluteTicks": 367654,
      "channel": 13,
      "type": "noteOff",
      "note": 52,
      "velocity": 79,
      "rel": 0.629921,
      "time": 229.783366461778,
      "name": "E3"
    },
    {
      "absoluteTicks": 367680,
      "channel": 13,
      "type": "noteOn",
      "note": 79,
      "velocity": 79,
      "vel": 0.629921,
      "time": 229.79961623464087,
      "name": "G5",
      "svgX": 135977.62,
      "svgY": 638.09
    },
    {
      "absoluteTicks": 367680,
      "channel": 13,
      "type": "noteOn",
      "note": 57,
      "velocity": 79,
      "vel": 0.629921,
      "time": 229.79961623464087,
      "name": "A3",
      "svgX": 135977.62,
      "svgY": 864.04
    },
    {
      "absoluteTicks": 368134,
      "channel": 13,
      "type": "noteOff",
      "note": 57,
      "velocity": 79,
      "rel": 0.629921,
      "time": 230.08336596077882,
      "name": "A3"
    },
    {
      "absoluteTicks": 368160,
      "channel": 13,
      "type": "noteOn",
      "note": 61,
      "velocity": 79,
      "vel": 0.629921,
      "time": 230.0996157336417,
      "name": "C#4",
      "svgX": 136154.48,
      "svgY": 822.96
    },
    {
      "absoluteTicks": 368590,
      "channel": 13,
      "type": "noteOff",
      "note": 79,
      "velocity": 79,
      "rel": 0.629921,
      "time": 230.36836548482964,
      "name": "G5"
    },
    {
      "absoluteTicks": 368614,
      "channel": 13,
      "type": "noteOff",
      "note": 61,
      "velocity": 79,
      "rel": 0.629921,
      "time": 230.38336545977967,
      "name": "C#4"
    },
    {
      "absoluteTicks": 368640,
      "channel": 13,
      "type": "noteOn",
      "note": 81,
      "velocity": 79,
      "vel": 0.629921,
      "time": 230.39961523264256,
      "name": "A5",
      "svgX": 136331.35,
      "svgY": 617.55
    },
    {
      "absoluteTicks": 368640,
      "channel": 13,
      "type": "noteOn",
      "note": 78,
      "velocity": 79,
      "vel": 0.629921,
      "time": 230.39961523264256,
      "name": "F#5",
      "svgX": 136331.35,
      "svgY": 648.36
    },
    {
      "absoluteTicks": 368640,
      "channel": 13,
      "type": "noteOn",
      "note": 69,
      "velocity": 79,
      "vel": 0.629921,
      "time": 230.39961523264256,
      "name": "A4",
      "svgX": 136331.35,
      "svgY": 740.79
    },
    {
      "absoluteTicks": 368640,
      "channel": 13,
      "type": "noteOn",
      "note": 50,
      "velocity": 79,
      "vel": 0.629921,
      "time": 230.39961523264256,
      "name": "D3",
      "svgX": 136331.35,
      "svgY": 935.93
    },
    {
      "absoluteTicks": 369094,
      "channel": 13,
      "type": "noteOff",
      "note": 50,
      "velocity": 79,
      "rel": 0.629921,
      "time": 230.68336495878052,
      "name": "D3"
    },
    {
      "absoluteTicks": 369120,
      "channel": 13,
      "type": "noteOn",
      "note": 57,
      "velocity": 79,
      "vel": 0.629921,
      "time": 230.69961473164338,
      "name": "A3",
      "svgX": 136508.22,
      "svgY": 864.04
    },
    {
      "absoluteTicks": 369574,
      "channel": 13,
      "type": "noteOff",
      "note": 57,
      "velocity": 79,
      "rel": 0.629921,
      "time": 230.98336445778133,
      "name": "A3"
    },
    {
      "absoluteTicks": 369600,
      "channel": 13,
      "type": "noteOn",
      "note": 62,
      "velocity": 79,
      "vel": 0.629921,
      "time": 230.99961423064423,
      "name": "D4",
      "svgX": 136685.09,
      "svgY": 812.69
    },
    {
      "absoluteTicks": 370054,
      "channel": 13,
      "type": "noteOff",
      "note": 62,
      "velocity": 79,
      "rel": 0.629921,
      "time": 231.28336395678218,
      "name": "D4"
    },
    {
      "absoluteTicks": 370080,
      "channel": 13,
      "type": "noteOn",
      "note": 66,
      "velocity": 79,
      "vel": 0.629921,
      "time": 231.29961372964507,
      "name": "F#4",
      "svgX": 136861.95,
      "svgY": 771.6
    },
    {
      "absoluteTicks": 370462,
      "channel": 13,
      "type": "noteOff",
      "note": 81,
      "velocity": 79,
      "rel": 0.629921,
      "time": 231.53836353093288,
      "name": "A5"
    },
    {
      "absoluteTicks": 370462,
      "channel": 13,
      "type": "noteOff",
      "note": 78,
      "velocity": 79,
      "rel": 0.629921,
      "time": 231.53836353093288,
      "name": "F#5"
    },
    {
      "absoluteTicks": 370462,
      "channel": 13,
      "type": "noteOff",
      "note": 69,
      "velocity": 79,
      "rel": 0.629921,
      "time": 231.53836353093288,
      "name": "A4"
    },
    {
      "absoluteTicks": 370534,
      "channel": 13,
      "type": "noteOff",
      "note": 66,
      "velocity": 79,
      "rel": 0.629921,
      "time": 231.583363455783,
      "name": "F#4"
    },
    {
      "absoluteTicks": 370560,
      "channel": 13,
      "type": "noteOn",
      "note": 69,
      "velocity": 79,
      "vel": 0.629921,
      "time": 231.5996132286459,
      "name": "A4",
      "svgX": 137038.82,
      "svgY": 740.79
    },
    {
      "absoluteTicks": 370560,
      "channel": 13,
      "type": "noteOn",
      "note": 45,
      "velocity": 79,
      "vel": 0.629921,
      "time": 231.5996132286459,
      "name": "A2",
      "svgX": 137038.82,
      "svgY": 987.28
    },
    {
      "absoluteTicks": 371014,
      "channel": 13,
      "type": "noteOff",
      "note": 45,
      "velocity": 79,
      "rel": 0.629921,
      "time": 231.88336295478385,
      "name": "A2"
    },
    {
      "absoluteTicks": 371040,
      "channel": 13,
      "type": "noteOn",
      "note": 52,
      "velocity": 79,
      "vel": 0.629921,
      "time": 231.89961272764674,
      "name": "E3",
      "svgX": 137215.69,
      "svgY": 915.39
    },
    {
      "absoluteTicks": 371494,
      "channel": 13,
      "type": "noteOff",
      "note": 52,
      "velocity": 79,
      "rel": 0.629921,
      "time": 232.1833624537847,
      "name": "E3"
    },
    {
      "absoluteTicks": 371520,
      "channel": 13,
      "type": "noteOn",
      "note": 57,
      "velocity": 79,
      "vel": 0.629921,
      "time": 232.19961222664756,
      "name": "A3",
      "svgX": 137392.56,
      "svgY": 864.04
    },
    {
      "absoluteTicks": 371925,
      "channel": 13,
      "type": "noteOff",
      "note": 69,
      "velocity": 79,
      "rel": 0.629921,
      "time": 232.45336140288646,
      "name": "A4"
    },
    {
      "absoluteTicks": 371974,
      "channel": 13,
      "type": "noteOff",
      "note": 57,
      "velocity": 79,
      "rel": 0.629921,
      "time": 232.48336195278551,
      "name": "A3"
    },
    {
      "absoluteTicks": 372000,
      "channel": 13,
      "type": "noteOn",
      "note": 67,
      "velocity": 79,
      "vel": 0.629921,
      "time": 232.4996117256484,
      "name": "G4",
      "svgX": 137569.42,
      "svgY": 761.33
    },
    {
      "absoluteTicks": 372000,
      "channel": 13,
      "type": "noteOn",
      "note": 61,
      "velocity": 79,
      "vel": 0.629921,
      "time": 232.4996117256484,
      "name": "C#4",
      "svgX": 137569.42,
      "svgY": 822.96
    },
    {
      "absoluteTicks": 372454,
      "channel": 13,
      "type": "noteOff",
      "note": 67,
      "velocity": 79,
      "rel": 0.629921,
      "time": 232.78336145178636,
      "name": "G4"
    },
    {
      "absoluteTicks": 372454,
      "channel": 13,
      "type": "noteOff",
      "note": 61,
      "velocity": 79,
      "rel": 0.629921,
      "time": 232.78336145178636,
      "name": "C#4"
    },
    {
      "absoluteTicks": 372480,
      "channel": 13,
      "type": "noteOn",
      "note": 78,
      "velocity": 79,
      "vel": 0.629921,
      "time": 232.79961122464925,
      "name": "F#5",
      "svgX": 137746.29,
      "svgY": 648.36
    },
    {
      "absoluteTicks": 372480,
      "channel": 13,
      "type": "noteOn",
      "note": 66,
      "velocity": 79,
      "vel": 0.629921,
      "time": 232.79961122464925,
      "name": "F#4",
      "svgX": 137746.29,
      "svgY": 771.6
    },
    {
      "absoluteTicks": 372480,
      "channel": 13,
      "type": "noteOn",
      "note": 47,
      "velocity": 79,
      "vel": 0.629921,
      "time": 232.79961122464925,
      "name": "B2",
      "svgX": 137746.29,
      "svgY": 966.74
    },
    {
      "absoluteTicks": 372934,
      "channel": 13,
      "type": "noteOff",
      "note": 47,
      "velocity": 79,
      "rel": 0.629921,
      "time": 233.0833609507872,
      "name": "B2"
    },
    {
      "absoluteTicks": 372960,
      "channel": 13,
      "type": "noteOn",
      "note": 54,
      "velocity": 79,
      "vel": 0.629921,
      "time": 233.09961072365007,
      "name": "F#3",
      "svgX": 137923.16,
      "svgY": 894.85
    },
    {
      "absoluteTicks": 373414,
      "channel": 13,
      "type": "noteOff",
      "note": 54,
      "velocity": 79,
      "rel": 0.629921,
      "time": 233.38336044978803,
      "name": "F#3"
    },
    {
      "absoluteTicks": 373440,
      "channel": 13,
      "type": "noteOn",
      "note": 59,
      "velocity": 79,
      "vel": 0.629921,
      "time": 233.39961022265092,
      "name": "B3",
      "svgX": 138100.03,
      "svgY": 843.5
    },
    {
      "absoluteTicks": 373894,
      "channel": 13,
      "type": "noteOff",
      "note": 59,
      "velocity": 79,
      "rel": 0.629921,
      "time": 233.68335994878888,
      "name": "B3"
    },
    {
      "absoluteTicks": 373920,
      "channel": 13,
      "type": "noteOn",
      "note": 62,
      "velocity": 79,
      "vel": 0.629921,
      "time": 233.69960972165174,
      "name": "D4",
      "svgX": 138276.89,
      "svgY": 812.69
    },
    {
      "absoluteTicks": 374302,
      "channel": 13,
      "type": "noteOff",
      "note": 78,
      "velocity": 79,
      "rel": 0.629921,
      "time": 233.93835952293958,
      "name": "F#5"
    },
    {
      "absoluteTicks": 374302,
      "channel": 13,
      "type": "noteOff",
      "note": 66,
      "velocity": 79,
      "rel": 0.629921,
      "time": 233.93835952293958,
      "name": "F#4"
    },
    {
      "absoluteTicks": 374374,
      "channel": 13,
      "type": "noteOff",
      "note": 62,
      "velocity": 79,
      "rel": 0.629921,
      "time": 233.9833594477897,
      "name": "D4"
    },
    {
      "absoluteTicks": 374400,
      "channel": 13,
      "type": "noteOn",
      "note": 78,
      "velocity": 79,
      "vel": 0.629921,
      "time": 233.9996092206526,
      "name": "F#5",
      "svgX": 138453.76,
      "svgY": 648.36
    },
    {
      "absoluteTicks": 374400,
      "channel": 13,
      "type": "noteOn",
      "note": 42,
      "velocity": 79,
      "vel": 0.629921,
      "time": 233.9996092206526,
      "name": "F#2",
      "svgX": 138453.76,
      "svgY": 1018.09
    },
    {
      "absoluteTicks": 374854,
      "channel": 13,
      "type": "noteOff",
      "note": 42,
      "velocity": 79,
      "rel": 0.629921,
      "time": 234.28335894679054,
      "name": "F#2"
    },
    {
      "absoluteTicks": 374880,
      "channel": 13,
      "type": "noteOn",
      "note": 49,
      "velocity": 79,
      "vel": 0.629921,
      "time": 234.29960871965343,
      "name": "C#3",
      "svgX": 138630.63,
      "svgY": 946.2
    },
    {
      "absoluteTicks": 375334,
      "channel": 13,
      "type": "noteOff",
      "note": 49,
      "velocity": 79,
      "rel": 0.629921,
      "time": 234.5833584457914,
      "name": "C#3"
    },
    {
      "absoluteTicks": 375360,
      "channel": 13,
      "type": "noteOn",
      "note": 54,
      "velocity": 79,
      "vel": 0.629921,
      "time": 234.59960821865425,
      "name": "F#3",
      "svgX": 138807.49,
      "svgY": 894.85
    },
    {
      "absoluteTicks": 375765,
      "channel": 13,
      "type": "noteOff",
      "note": 78,
      "velocity": 79,
      "rel": 0.629921,
      "time": 234.85335739489315,
      "name": "F#5"
    },
    {
      "absoluteTicks": 375814,
      "channel": 13,
      "type": "noteOff",
      "note": 54,
      "velocity": 79,
      "rel": 0.629921,
      "time": 234.8833579447922,
      "name": "F#3"
    },
    {
      "absoluteTicks": 375840,
      "channel": 13,
      "type": "noteOn",
      "note": 76,
      "velocity": 79,
      "vel": 0.629921,
      "time": 234.8996077176551,
      "name": "E5",
      "svgX": 138984.36,
      "svgY": 668.9
    },
    {
      "absoluteTicks": 375840,
      "channel": 13,
      "type": "noteOn",
      "note": 57,
      "velocity": 79,
      "vel": 0.629921,
      "time": 234.8996077176551,
      "name": "A3",
      "svgX": 138984.36,
      "svgY": 864.04
    },
    {
      "absoluteTicks": 376294,
      "channel": 13,
      "type": "noteOff",
      "note": 76,
      "velocity": 79,
      "rel": 0.629921,
      "time": 235.18335744379306,
      "name": "E5"
    },
    {
      "absoluteTicks": 376294,
      "channel": 13,
      "type": "noteOff",
      "note": 57,
      "velocity": 79,
      "rel": 0.629921,
      "time": 235.18335744379306,
      "name": "A3"
    },
    {
      "absoluteTicks": 376320,
      "channel": 13,
      "type": "noteOn",
      "note": 79,
      "velocity": 79,
      "vel": 0.629921,
      "time": 235.19960721665595,
      "name": "G5",
      "svgX": 139161.23,
      "svgY": 638.09
    },
    {
      "absoluteTicks": 376320,
      "channel": 13,
      "type": "noteOn",
      "note": 74,
      "velocity": 79,
      "vel": 0.629921,
      "time": 235.19960721665595,
      "name": "D5",
      "svgX": 139161.23,
      "svgY": 689.44
    },
    {
      "absoluteTicks": 376320,
      "channel": 13,
      "type": "noteOn",
      "note": 43,
      "velocity": 79,
      "vel": 0.629921,
      "time": 235.19960721665595,
      "name": "G2",
      "svgX": 139161.23,
      "svgY": 1007.82
    },
    {
      "absoluteTicks": 376774,
      "channel": 13,
      "type": "noteOff",
      "note": 43,
      "velocity": 79,
      "rel": 0.629921,
      "time": 235.48335694279388,
      "name": "G2"
    },
    {
      "absoluteTicks": 376800,
      "channel": 13,
      "type": "noteOn",
      "note": 50,
      "velocity": 79,
      "vel": 0.629921,
      "time": 235.49960671565677,
      "name": "D3",
      "svgX": 139338.1,
      "svgY": 935.93
    },
    {
      "absoluteTicks": 377254,
      "channel": 13,
      "type": "noteOff",
      "note": 50,
      "velocity": 79,
      "rel": 0.629921,
      "time": 235.78335644179472,
      "name": "D3"
    },
    {
      "absoluteTicks": 377280,
      "channel": 13,
      "type": "noteOn",
      "note": 55,
      "velocity": 79,
      "vel": 0.629921,
      "time": 235.79960621465762,
      "name": "G3",
      "svgX": 139514.96,
      "svgY": 884.58
    },
    {
      "absoluteTicks": 377734,
      "channel": 13,
      "type": "noteOff",
      "note": 55,
      "velocity": 79,
      "rel": 0.629921,
      "time": 236.08335594079557,
      "name": "G3"
    },
    {
      "absoluteTicks": 377760,
      "channel": 13,
      "type": "noteOn",
      "note": 59,
      "velocity": 79,
      "vel": 0.629921,
      "time": 236.09960571365843,
      "name": "B3",
      "svgX": 139691.83,
      "svgY": 843.5
    },
    {
      "absoluteTicks": 378142,
      "channel": 13,
      "type": "noteOff",
      "note": 79,
      "velocity": 79,
      "rel": 0.629921,
      "time": 236.33835551494627,
      "name": "G5"
    },
    {
      "absoluteTicks": 378142,
      "channel": 13,
      "type": "noteOff",
      "note": 74,
      "velocity": 79,
      "rel": 0.629921,
      "time": 236.33835551494627,
      "name": "D5"
    },
    {
      "absoluteTicks": 378214,
      "channel": 13,
      "type": "noteOff",
      "note": 59,
      "velocity": 79,
      "rel": 0.629921,
      "time": 236.3833554397964,
      "name": "B3"
    },
    {
      "absoluteTicks": 378240,
      "channel": 13,
      "type": "noteOn",
      "note": 81,
      "velocity": 79,
      "vel": 0.629921,
      "time": 236.39960521265928,
      "name": "A5",
      "svgX": 139868.7,
      "svgY": 617.55
    },
    {
      "absoluteTicks": 378240,
      "channel": 13,
      "type": "noteOn",
      "note": 78,
      "velocity": 79,
      "vel": 0.629921,
      "time": 236.39960521265928,
      "name": "F#5",
      "svgX": 139868.7,
      "svgY": 648.36
    },
    {
      "absoluteTicks": 378240,
      "channel": 13,
      "type": "noteOn",
      "note": 38,
      "velocity": 79,
      "vel": 0.629921,
      "time": 236.39960521265928,
      "name": "D2",
      "svgX": 139868.7,
      "svgY": 1059.17
    },
    {
      "absoluteTicks": 378694,
      "channel": 13,
      "type": "noteOff",
      "note": 38,
      "velocity": 79,
      "rel": 0.629921,
      "time": 236.68335493879724,
      "name": "D2"
    },
    {
      "absoluteTicks": 378720,
      "channel": 13,
      "type": "noteOn",
      "note": 45,
      "velocity": 79,
      "vel": 0.629921,
      "time": 236.69960471166013,
      "name": "A2",
      "svgX": 140045.57,
      "svgY": 987.28
    },
    {
      "absoluteTicks": 379150,
      "channel": 13,
      "type": "noteOff",
      "note": 81,
      "velocity": 79,
      "rel": 0.629921,
      "time": 236.96835446284803,
      "name": "A5"
    },
    {
      "absoluteTicks": 379150,
      "channel": 13,
      "type": "noteOff",
      "note": 78,
      "velocity": 79,
      "rel": 0.629921,
      "time": 236.96835446284803,
      "name": "F#5"
    },
    {
      "absoluteTicks": 379174,
      "channel": 13,
      "type": "noteOff",
      "note": 45,
      "velocity": 79,
      "rel": 0.629921,
      "time": 236.98335443779808,
      "name": "A2"
    },
    {
      "absoluteTicks": 379200,
      "channel": 13,
      "type": "noteOn",
      "note": 74,
      "velocity": 79,
      "vel": 0.629921,
      "time": 236.99960421066095,
      "name": "D5",
      "svgX": 140222.43,
      "svgY": 689.44
    },
    {
      "absoluteTicks": 379200,
      "channel": 13,
      "type": "noteOn",
      "note": 62,
      "velocity": 79,
      "vel": 0.629921,
      "time": 236.99960421066095,
      "name": "D4",
      "svgX": 140222.43,
      "svgY": 812.69
    },
    {
      "absoluteTicks": 379200,
      "channel": 13,
      "type": "noteOn",
      "note": 50,
      "velocity": 79,
      "vel": 0.629921,
      "time": 236.99960421066095,
      "name": "D3",
      "svgX": 140222.43,
      "svgY": 935.93
    },
    {
      "absoluteTicks": 379654,
      "channel": 13,
      "type": "noteOff",
      "note": 50,
      "velocity": 79,
      "rel": 0.629921,
      "time": 237.2833539367989,
      "name": "D3"
    },
    {
      "absoluteTicks": 379680,
      "channel": 13,
      "type": "noteOn",
      "note": 54,
      "velocity": 79,
      "vel": 0.629921,
      "time": 237.2996037096618,
      "name": "F#3",
      "svgX": 140399.3,
      "svgY": 894.85
    },
    {
      "absoluteTicks": 380110,
      "channel": 13,
      "type": "noteOff",
      "note": 74,
      "velocity": 79,
      "rel": 0.629921,
      "time": 237.5683534608497,
      "name": "D5"
    },
    {
      "absoluteTicks": 380110,
      "channel": 13,
      "type": "noteOff",
      "note": 62,
      "velocity": 79,
      "rel": 0.629921,
      "time": 237.5683534608497,
      "name": "D4"
    },
    {
      "absoluteTicks": 380134,
      "channel": 13,
      "type": "noteOff",
      "note": 54,
      "velocity": 79,
      "rel": 0.629921,
      "time": 237.58335343579975,
      "name": "F#3"
    },
    {
      "absoluteTicks": 380160,
      "channel": 13,
      "type": "noteOn",
      "note": 74,
      "velocity": 79,
      "vel": 0.629921,
      "time": 237.59960320866264,
      "name": "D5",
      "svgX": 140576.17,
      "svgY": 689.44
    },
    {
      "absoluteTicks": 380160,
      "channel": 13,
      "type": "noteOn",
      "note": 71,
      "velocity": 79,
      "vel": 0.629921,
      "time": 237.59960320866264,
      "name": "B4",
      "svgX": 140576.17,
      "svgY": 720.25
    },
    {
      "absoluteTicks": 380160,
      "channel": 13,
      "type": "noteOn",
      "note": 43,
      "velocity": 79,
      "vel": 0.629921,
      "time": 237.59960320866264,
      "name": "G2",
      "svgX": 140576.17,
      "svgY": 1007.82
    },
    {
      "absoluteTicks": 380614,
      "channel": 13,
      "type": "noteOff",
      "note": 43,
      "velocity": 79,
      "rel": 0.629921,
      "time": 237.88335293480057,
      "name": "G2"
    },
    {
      "absoluteTicks": 380640,
      "channel": 13,
      "type": "noteOn",
      "note": 50,
      "velocity": 79,
      "vel": 0.629921,
      "time": 237.89960270766346,
      "name": "D3",
      "svgX": 140753.03,
      "svgY": 935.93
    },
    {
      "absoluteTicks": 381094,
      "channel": 13,
      "type": "noteOff",
      "note": 50,
      "velocity": 79,
      "rel": 0.629921,
      "time": 238.18335243380142,
      "name": "D3"
    },
    {
      "absoluteTicks": 381120,
      "channel": 13,
      "type": "noteOn",
      "note": 55,
      "velocity": 79,
      "vel": 0.629921,
      "time": 238.1996022066643,
      "name": "G3",
      "svgX": 140929.9,
      "svgY": 884.58
    },
    {
      "absoluteTicks": 381525,
      "channel": 13,
      "type": "noteOff",
      "note": 74,
      "velocity": 79,
      "rel": 0.629921,
      "time": 238.45335138290318,
      "name": "D5"
    },
    {
      "absoluteTicks": 381525,
      "channel": 13,
      "type": "noteOff",
      "note": 71,
      "velocity": 79,
      "rel": 0.629921,
      "time": 238.45335138290318,
      "name": "B4"
    },
    {
      "absoluteTicks": 381574,
      "channel": 13,
      "type": "noteOff",
      "note": 55,
      "velocity": 79,
      "rel": 0.629921,
      "time": 238.48335193280226,
      "name": "G3"
    },
    {
      "absoluteTicks": 381600,
      "channel": 13,
      "type": "noteOn",
      "note": 76,
      "velocity": 79,
      "vel": 0.629921,
      "time": 238.49960170566513,
      "name": "E5",
      "svgX": 141106.77,
      "svgY": 668.9
    },
    {
      "absoluteTicks": 381600,
      "channel": 13,
      "type": "noteOn",
      "note": 59,
      "velocity": 79,
      "vel": 0.629921,
      "time": 238.49960170566513,
      "name": "B3",
      "svgX": 141106.77,
      "svgY": 843.5
    },
    {
      "absoluteTicks": 382054,
      "channel": 13,
      "type": "noteOff",
      "note": 76,
      "velocity": 79,
      "rel": 0.629921,
      "time": 238.78335143180308,
      "name": "E5"
    },
    {
      "absoluteTicks": 382054,
      "channel": 13,
      "type": "noteOff",
      "note": 59,
      "velocity": 79,
      "rel": 0.629921,
      "time": 238.78335143180308,
      "name": "B3"
    },
    {
      "absoluteTicks": 382080,
      "channel": 13,
      "type": "noteOn",
      "note": 76,
      "velocity": 79,
      "vel": 0.629921,
      "time": 238.79960120466598,
      "name": "E5",
      "svgX": 141283.64,
      "svgY": 668.9
    },
    {
      "absoluteTicks": 382080,
      "channel": 13,
      "type": "noteOn",
      "note": 64,
      "velocity": 79,
      "vel": 0.629921,
      "time": 238.79960120466598,
      "name": "E4",
      "svgX": 141283.64,
      "svgY": 792.15
    },
    {
      "absoluteTicks": 382080,
      "channel": 13,
      "type": "noteOn",
      "note": 45,
      "velocity": 79,
      "vel": 0.629921,
      "time": 238.79960120466598,
      "name": "A2",
      "svgX": 141283.64,
      "svgY": 987.28
    },
    {
      "absoluteTicks": 382534,
      "channel": 13,
      "type": "noteOff",
      "note": 45,
      "velocity": 79,
      "rel": 0.629921,
      "time": 239.08335093080393,
      "name": "A2"
    },
    {
      "absoluteTicks": 382560,
      "channel": 13,
      "type": "noteOn",
      "note": 52,
      "velocity": 79,
      "vel": 0.629921,
      "time": 239.09960070366682,
      "name": "E3",
      "svgX": 141460.5,
      "svgY": 915.39
    },
    {
      "absoluteTicks": 383014,
      "channel": 13,
      "type": "noteOff",
      "note": 52,
      "velocity": 79,
      "rel": 0.629921,
      "time": 239.38335042980478,
      "name": "E3"
    },
    {
      "absoluteTicks": 383040,
      "channel": 13,
      "type": "noteOn",
      "note": 57,
      "velocity": 79,
      "vel": 0.629921,
      "time": 239.39960020266764,
      "name": "A3",
      "svgX": 141637.37,
      "svgY": 864.04
    },
    {
      "absoluteTicks": 383445,
      "channel": 13,
      "type": "noteOff",
      "note": 76,
      "velocity": 79,
      "rel": 0.629921,
      "time": 239.65334937890654,
      "name": "E5"
    },
    {
      "absoluteTicks": 383445,
      "channel": 13,
      "type": "noteOff",
      "note": 64,
      "velocity": 79,
      "rel": 0.629921,
      "time": 239.65334937890654,
      "name": "E4"
    },
    {
      "absoluteTicks": 383494,
      "channel": 13,
      "type": "noteOff",
      "note": 57,
      "velocity": 79,
      "rel": 0.629921,
      "time": 239.6833499288056,
      "name": "A3"
    },
    {
      "absoluteTicks": 383520,
      "channel": 13,
      "type": "noteOn",
      "note": 73,
      "velocity": 79,
      "vel": 0.629921,
      "time": 239.6995997016685,
      "name": "C#5",
      "svgX": 141814.24,
      "svgY": 699.71
    },
    {
      "absoluteTicks": 383520,
      "channel": 13,
      "type": "noteOn",
      "note": 69,
      "velocity": 79,
      "vel": 0.629921,
      "time": 239.6995997016685,
      "name": "A4",
      "svgX": 141814.24,
      "svgY": 740.79
    },
    {
      "absoluteTicks": 383520,
      "channel": 13,
      "type": "noteOn",
      "note": 61,
      "velocity": 79,
      "vel": 0.629921,
      "time": 239.6995997016685,
      "name": "C#4",
      "svgX": 141814.24,
      "svgY": 822.96
    },
    {
      "absoluteTicks": 385797,
      "channel": 13,
      "type": "noteOff",
      "note": 73,
      "velocity": 79,
      "rel": 0.629921,
      "time": 241.7220955360754,
      "name": "C#5"
    },
    {
      "absoluteTicks": 385797,
      "channel": 13,
      "type": "noteOff",
      "note": 69,
      "velocity": 79,
      "rel": 0.629921,
      "time": 241.7220955360754,
      "name": "A4"
    },
    {
      "absoluteTicks": 385797,
      "channel": 13,
      "type": "noteOff",
      "note": 61,
      "velocity": 79,
      "rel": 0.629921,
      "time": 241.7220955360754,
      "name": "C#4"
    },
    {
      "absoluteTicks": 385920,
      "channel": 13,
      "type": "noteOn",
      "note": 62,
      "velocity": 49,
      "vel": 0.385827,
      "time": 241.79834580873745,
      "name": "D4",
      "svgX": 143051.57,
      "svgY": 812.69
    },
    {
      "absoluteTicks": 385920,
      "channel": 13,
      "type": "noteOn",
      "note": 54,
      "velocity": 49,
      "vel": 0.385827,
      "time": 241.79834580873745,
      "name": "F#3",
      "svgX": 143051.57,
      "svgY": 894.85
    },
    {
      "absoluteTicks": 385920,
      "channel": 13,
      "type": "noteOn",
      "note": 45,
      "velocity": 49,
      "vel": 0.385827,
      "time": 241.79834580873745,
      "name": "A2",
      "svgX": 143051.57,
      "svgY": 987.28
    },
    {
      "absoluteTicks": 385920,
      "channel": 13,
      "type": "noteOn",
      "note": 38,
      "velocity": 49,
      "vel": 0.385827,
      "time": 241.79834580873745,
      "name": "D2",
      "svgX": 143051.57,
      "svgY": 1059.17
    },
    {
      "absoluteTicks": 385935,
      "channel": 13,
      "type": "noteOn",
      "note": 66,
      "velocity": 49,
      "vel": 0.385827,
      "time": 241.81834497553882,
      "name": "F#4",
      "svgX": 143063.36,
      "svgY": 771.6
    },
    {
      "absoluteTicks": 385954,
      "channel": 13,
      "type": "noteOn",
      "note": 69,
      "velocity": 49,
      "vel": 0.385827,
      "time": 241.8408461381869,
      "name": "A4",
      "svgX": 143076.63,
      "svgY": 740.79
    },
    {
      "absoluteTicks": 385969,
      "channel": 13,
      "type": "noteOn",
      "note": 74,
      "velocity": 49,
      "vel": 0.385827,
      "time": 241.86084530498826,
      "name": "D5",
      "svgX": 143088.42,
      "svgY": 689.44
    },
    {
      "absoluteTicks": 391390,
      "channel": 13,
      "type": "noteOff",
      "note": 54,
      "velocity": 49,
      "rel": 0.385827,
      "time": 246.41583792150058,
      "name": "F#3"
    },
    {
      "absoluteTicks": 391390,
      "channel": 13,
      "type": "noteOff",
      "note": 45,
      "velocity": 49,
      "rel": 0.385827,
      "time": 246.41583792150058,
      "name": "A2"
    },
    {
      "absoluteTicks": 391390,
      "channel": 13,
      "type": "noteOff",
      "note": 38,
      "velocity": 49,
      "rel": 0.385827,
      "time": 246.41583792150058,
      "name": "D2"
    },
    {
      "absoluteTicks": 391483,
      "channel": 13,
      "type": "noteOff",
      "note": 66,
      "velocity": 49,
      "rel": 0.385827,
      "time": 246.47458742338887,
      "name": "F#4"
    },
    {
      "absoluteTicks": 391484,
      "channel": 13,
      "type": "noteOff",
      "note": 74,
      "velocity": 49,
      "rel": 0.385827,
      "time": 246.47458802338787,
      "name": "D5"
    },
    {
      "absoluteTicks": 391484,
      "channel": 13,
      "type": "noteOff",
      "note": 69,
      "velocity": 49,
      "rel": 0.385827,
      "time": 246.4745880233879,
      "name": "A4"
    },
    {
      "absoluteTicks": 391485,
      "channel": 13,
      "type": "noteOff",
      "note": 62,
      "velocity": 49,
      "rel": 0.385827,
      "time": 246.47583722130173,
      "name": "D4"
    },
    {
      "absoluteTicks": 391485,
      "channel": 15,
      "type": "meta",
      "metaType": 47,
      "subType": "endOfTrack",
      "time": 246.47583722130173
    }
  ],
  [
    {
      "absoluteTicks": 0,
      "channel": 15,
      "type": "meta",
      "metaType": 3,
      "subType": "trackName",
      "text": "FX 1",
      "time": 0.0
    },
    {
      "absoluteTicks": 0,
      "channel": 15,
      "type": "meta",
      "metaType": 47,
      "subType": "endOfTrack",
      "time": 0.0
    }
  ],
  [
    {
      "absoluteTicks": 0,
      "channel": 15,
      "type": "meta",
      "metaType": 3,
      "subType": "trackName",
      "text": "Master",
      "time": 0.0
    },
    {
      "absoluteTicks": 0,
      "channel": 15,
      "type": "meta",
      "metaType": 47,
      "subType": "endOfTrack",
      "time": 0.0
    }
  ]
]
